G75*
G70*
%OFA0B0*%
%FSLAX24Y24*%
%IPPOS*%
%LPD*%
%AMOC8*
5,1,8,0,0,1.08239X$1,22.5*
%
%ADD10C,0.0000*%
%ADD11C,0.0520*%
%ADD12OC8,0.0520*%
%ADD13OC8,0.0630*%
%ADD14C,0.0630*%
%ADD15OC8,0.0660*%
%ADD16C,0.0104*%
%ADD17OC8,0.0700*%
%ADD18OC8,0.0515*%
%ADD19C,0.0515*%
%ADD20C,0.0740*%
%ADD21C,0.0886*%
%ADD22C,0.0520*%
%ADD23C,0.0160*%
%ADD24C,0.0240*%
%ADD25R,0.0356X0.0356*%
%ADD26C,0.0121*%
D10*
X001199Y000500D02*
X001199Y021496D01*
X026599Y021501D01*
X027199Y020900D01*
X027199Y016400D01*
X028199Y015400D01*
X028199Y002500D01*
X027199Y001500D01*
X027199Y000500D01*
X001199Y000500D01*
X006069Y001500D02*
X006071Y001550D01*
X006077Y001600D01*
X006087Y001649D01*
X006101Y001697D01*
X006118Y001744D01*
X006139Y001789D01*
X006164Y001833D01*
X006192Y001874D01*
X006224Y001913D01*
X006258Y001950D01*
X006295Y001984D01*
X006335Y002014D01*
X006377Y002041D01*
X006421Y002065D01*
X006467Y002086D01*
X006514Y002102D01*
X006562Y002115D01*
X006612Y002124D01*
X006661Y002129D01*
X006712Y002130D01*
X006762Y002127D01*
X006811Y002120D01*
X006860Y002109D01*
X006908Y002094D01*
X006954Y002076D01*
X006999Y002054D01*
X007042Y002028D01*
X007083Y001999D01*
X007122Y001967D01*
X007158Y001932D01*
X007190Y001894D01*
X007220Y001854D01*
X007247Y001811D01*
X007270Y001767D01*
X007289Y001721D01*
X007305Y001673D01*
X007317Y001624D01*
X007325Y001575D01*
X007329Y001525D01*
X007329Y001475D01*
X007325Y001425D01*
X007317Y001376D01*
X007305Y001327D01*
X007289Y001279D01*
X007270Y001233D01*
X007247Y001189D01*
X007220Y001146D01*
X007190Y001106D01*
X007158Y001068D01*
X007122Y001033D01*
X007083Y001001D01*
X007042Y000972D01*
X006999Y000946D01*
X006954Y000924D01*
X006908Y000906D01*
X006860Y000891D01*
X006811Y000880D01*
X006762Y000873D01*
X006712Y000870D01*
X006661Y000871D01*
X006612Y000876D01*
X006562Y000885D01*
X006514Y000898D01*
X006467Y000914D01*
X006421Y000935D01*
X006377Y000959D01*
X006335Y000986D01*
X006295Y001016D01*
X006258Y001050D01*
X006224Y001087D01*
X006192Y001126D01*
X006164Y001167D01*
X006139Y001211D01*
X006118Y001256D01*
X006101Y001303D01*
X006087Y001351D01*
X006077Y001400D01*
X006071Y001450D01*
X006069Y001500D01*
X002463Y008531D02*
X002465Y008561D01*
X002471Y008591D01*
X002480Y008620D01*
X002493Y008647D01*
X002510Y008672D01*
X002529Y008695D01*
X002552Y008716D01*
X002577Y008733D01*
X002603Y008747D01*
X002632Y008757D01*
X002661Y008764D01*
X002691Y008767D01*
X002722Y008766D01*
X002752Y008761D01*
X002781Y008752D01*
X002808Y008740D01*
X002834Y008725D01*
X002858Y008706D01*
X002879Y008684D01*
X002897Y008660D01*
X002912Y008633D01*
X002923Y008605D01*
X002931Y008576D01*
X002935Y008546D01*
X002935Y008516D01*
X002931Y008486D01*
X002923Y008457D01*
X002912Y008429D01*
X002897Y008402D01*
X002879Y008378D01*
X002858Y008356D01*
X002834Y008337D01*
X002808Y008322D01*
X002781Y008310D01*
X002752Y008301D01*
X002722Y008296D01*
X002691Y008295D01*
X002661Y008298D01*
X002632Y008305D01*
X002603Y008315D01*
X002577Y008329D01*
X002552Y008346D01*
X002529Y008367D01*
X002510Y008390D01*
X002493Y008415D01*
X002480Y008442D01*
X002471Y008471D01*
X002465Y008501D01*
X002463Y008531D01*
X001479Y008531D02*
X001481Y008561D01*
X001487Y008591D01*
X001496Y008620D01*
X001509Y008647D01*
X001526Y008672D01*
X001545Y008695D01*
X001568Y008716D01*
X001593Y008733D01*
X001619Y008747D01*
X001648Y008757D01*
X001677Y008764D01*
X001707Y008767D01*
X001738Y008766D01*
X001768Y008761D01*
X001797Y008752D01*
X001824Y008740D01*
X001850Y008725D01*
X001874Y008706D01*
X001895Y008684D01*
X001913Y008660D01*
X001928Y008633D01*
X001939Y008605D01*
X001947Y008576D01*
X001951Y008546D01*
X001951Y008516D01*
X001947Y008486D01*
X001939Y008457D01*
X001928Y008429D01*
X001913Y008402D01*
X001895Y008378D01*
X001874Y008356D01*
X001850Y008337D01*
X001824Y008322D01*
X001797Y008310D01*
X001768Y008301D01*
X001738Y008296D01*
X001707Y008295D01*
X001677Y008298D01*
X001648Y008305D01*
X001619Y008315D01*
X001593Y008329D01*
X001568Y008346D01*
X001545Y008367D01*
X001526Y008390D01*
X001509Y008415D01*
X001496Y008442D01*
X001487Y008471D01*
X001481Y008501D01*
X001479Y008531D01*
X004432Y010500D02*
X004434Y010530D01*
X004440Y010560D01*
X004449Y010589D01*
X004462Y010616D01*
X004479Y010641D01*
X004498Y010664D01*
X004521Y010685D01*
X004546Y010702D01*
X004572Y010716D01*
X004601Y010726D01*
X004630Y010733D01*
X004660Y010736D01*
X004691Y010735D01*
X004721Y010730D01*
X004750Y010721D01*
X004777Y010709D01*
X004803Y010694D01*
X004827Y010675D01*
X004848Y010653D01*
X004866Y010629D01*
X004881Y010602D01*
X004892Y010574D01*
X004900Y010545D01*
X004904Y010515D01*
X004904Y010485D01*
X004900Y010455D01*
X004892Y010426D01*
X004881Y010398D01*
X004866Y010371D01*
X004848Y010347D01*
X004827Y010325D01*
X004803Y010306D01*
X004777Y010291D01*
X004750Y010279D01*
X004721Y010270D01*
X004691Y010265D01*
X004660Y010264D01*
X004630Y010267D01*
X004601Y010274D01*
X004572Y010284D01*
X004546Y010298D01*
X004521Y010315D01*
X004498Y010336D01*
X004479Y010359D01*
X004462Y010384D01*
X004449Y010411D01*
X004440Y010440D01*
X004434Y010470D01*
X004432Y010500D01*
X002463Y012469D02*
X002465Y012499D01*
X002471Y012529D01*
X002480Y012558D01*
X002493Y012585D01*
X002510Y012610D01*
X002529Y012633D01*
X002552Y012654D01*
X002577Y012671D01*
X002603Y012685D01*
X002632Y012695D01*
X002661Y012702D01*
X002691Y012705D01*
X002722Y012704D01*
X002752Y012699D01*
X002781Y012690D01*
X002808Y012678D01*
X002834Y012663D01*
X002858Y012644D01*
X002879Y012622D01*
X002897Y012598D01*
X002912Y012571D01*
X002923Y012543D01*
X002931Y012514D01*
X002935Y012484D01*
X002935Y012454D01*
X002931Y012424D01*
X002923Y012395D01*
X002912Y012367D01*
X002897Y012340D01*
X002879Y012316D01*
X002858Y012294D01*
X002834Y012275D01*
X002808Y012260D01*
X002781Y012248D01*
X002752Y012239D01*
X002722Y012234D01*
X002691Y012233D01*
X002661Y012236D01*
X002632Y012243D01*
X002603Y012253D01*
X002577Y012267D01*
X002552Y012284D01*
X002529Y012305D01*
X002510Y012328D01*
X002493Y012353D01*
X002480Y012380D01*
X002471Y012409D01*
X002465Y012439D01*
X002463Y012469D01*
X001479Y012469D02*
X001481Y012499D01*
X001487Y012529D01*
X001496Y012558D01*
X001509Y012585D01*
X001526Y012610D01*
X001545Y012633D01*
X001568Y012654D01*
X001593Y012671D01*
X001619Y012685D01*
X001648Y012695D01*
X001677Y012702D01*
X001707Y012705D01*
X001738Y012704D01*
X001768Y012699D01*
X001797Y012690D01*
X001824Y012678D01*
X001850Y012663D01*
X001874Y012644D01*
X001895Y012622D01*
X001913Y012598D01*
X001928Y012571D01*
X001939Y012543D01*
X001947Y012514D01*
X001951Y012484D01*
X001951Y012454D01*
X001947Y012424D01*
X001939Y012395D01*
X001928Y012367D01*
X001913Y012340D01*
X001895Y012316D01*
X001874Y012294D01*
X001850Y012275D01*
X001824Y012260D01*
X001797Y012248D01*
X001768Y012239D01*
X001738Y012234D01*
X001707Y012233D01*
X001677Y012236D01*
X001648Y012243D01*
X001619Y012253D01*
X001593Y012267D01*
X001568Y012284D01*
X001545Y012305D01*
X001526Y012328D01*
X001509Y012353D01*
X001496Y012380D01*
X001487Y012409D01*
X001481Y012439D01*
X001479Y012469D01*
X006569Y020500D02*
X006571Y020550D01*
X006577Y020600D01*
X006587Y020649D01*
X006601Y020697D01*
X006618Y020744D01*
X006639Y020789D01*
X006664Y020833D01*
X006692Y020874D01*
X006724Y020913D01*
X006758Y020950D01*
X006795Y020984D01*
X006835Y021014D01*
X006877Y021041D01*
X006921Y021065D01*
X006967Y021086D01*
X007014Y021102D01*
X007062Y021115D01*
X007112Y021124D01*
X007161Y021129D01*
X007212Y021130D01*
X007262Y021127D01*
X007311Y021120D01*
X007360Y021109D01*
X007408Y021094D01*
X007454Y021076D01*
X007499Y021054D01*
X007542Y021028D01*
X007583Y020999D01*
X007622Y020967D01*
X007658Y020932D01*
X007690Y020894D01*
X007720Y020854D01*
X007747Y020811D01*
X007770Y020767D01*
X007789Y020721D01*
X007805Y020673D01*
X007817Y020624D01*
X007825Y020575D01*
X007829Y020525D01*
X007829Y020475D01*
X007825Y020425D01*
X007817Y020376D01*
X007805Y020327D01*
X007789Y020279D01*
X007770Y020233D01*
X007747Y020189D01*
X007720Y020146D01*
X007690Y020106D01*
X007658Y020068D01*
X007622Y020033D01*
X007583Y020001D01*
X007542Y019972D01*
X007499Y019946D01*
X007454Y019924D01*
X007408Y019906D01*
X007360Y019891D01*
X007311Y019880D01*
X007262Y019873D01*
X007212Y019870D01*
X007161Y019871D01*
X007112Y019876D01*
X007062Y019885D01*
X007014Y019898D01*
X006967Y019914D01*
X006921Y019935D01*
X006877Y019959D01*
X006835Y019986D01*
X006795Y020016D01*
X006758Y020050D01*
X006724Y020087D01*
X006692Y020126D01*
X006664Y020167D01*
X006639Y020211D01*
X006618Y020256D01*
X006601Y020303D01*
X006587Y020351D01*
X006577Y020400D01*
X006571Y020450D01*
X006569Y020500D01*
X026569Y014500D02*
X026571Y014550D01*
X026577Y014600D01*
X026587Y014649D01*
X026601Y014697D01*
X026618Y014744D01*
X026639Y014789D01*
X026664Y014833D01*
X026692Y014874D01*
X026724Y014913D01*
X026758Y014950D01*
X026795Y014984D01*
X026835Y015014D01*
X026877Y015041D01*
X026921Y015065D01*
X026967Y015086D01*
X027014Y015102D01*
X027062Y015115D01*
X027112Y015124D01*
X027161Y015129D01*
X027212Y015130D01*
X027262Y015127D01*
X027311Y015120D01*
X027360Y015109D01*
X027408Y015094D01*
X027454Y015076D01*
X027499Y015054D01*
X027542Y015028D01*
X027583Y014999D01*
X027622Y014967D01*
X027658Y014932D01*
X027690Y014894D01*
X027720Y014854D01*
X027747Y014811D01*
X027770Y014767D01*
X027789Y014721D01*
X027805Y014673D01*
X027817Y014624D01*
X027825Y014575D01*
X027829Y014525D01*
X027829Y014475D01*
X027825Y014425D01*
X027817Y014376D01*
X027805Y014327D01*
X027789Y014279D01*
X027770Y014233D01*
X027747Y014189D01*
X027720Y014146D01*
X027690Y014106D01*
X027658Y014068D01*
X027622Y014033D01*
X027583Y014001D01*
X027542Y013972D01*
X027499Y013946D01*
X027454Y013924D01*
X027408Y013906D01*
X027360Y013891D01*
X027311Y013880D01*
X027262Y013873D01*
X027212Y013870D01*
X027161Y013871D01*
X027112Y013876D01*
X027062Y013885D01*
X027014Y013898D01*
X026967Y013914D01*
X026921Y013935D01*
X026877Y013959D01*
X026835Y013986D01*
X026795Y014016D01*
X026758Y014050D01*
X026724Y014087D01*
X026692Y014126D01*
X026664Y014167D01*
X026639Y014211D01*
X026618Y014256D01*
X026601Y014303D01*
X026587Y014351D01*
X026577Y014400D01*
X026571Y014450D01*
X026569Y014500D01*
X026569Y003500D02*
X026571Y003550D01*
X026577Y003600D01*
X026587Y003649D01*
X026601Y003697D01*
X026618Y003744D01*
X026639Y003789D01*
X026664Y003833D01*
X026692Y003874D01*
X026724Y003913D01*
X026758Y003950D01*
X026795Y003984D01*
X026835Y004014D01*
X026877Y004041D01*
X026921Y004065D01*
X026967Y004086D01*
X027014Y004102D01*
X027062Y004115D01*
X027112Y004124D01*
X027161Y004129D01*
X027212Y004130D01*
X027262Y004127D01*
X027311Y004120D01*
X027360Y004109D01*
X027408Y004094D01*
X027454Y004076D01*
X027499Y004054D01*
X027542Y004028D01*
X027583Y003999D01*
X027622Y003967D01*
X027658Y003932D01*
X027690Y003894D01*
X027720Y003854D01*
X027747Y003811D01*
X027770Y003767D01*
X027789Y003721D01*
X027805Y003673D01*
X027817Y003624D01*
X027825Y003575D01*
X027829Y003525D01*
X027829Y003475D01*
X027825Y003425D01*
X027817Y003376D01*
X027805Y003327D01*
X027789Y003279D01*
X027770Y003233D01*
X027747Y003189D01*
X027720Y003146D01*
X027690Y003106D01*
X027658Y003068D01*
X027622Y003033D01*
X027583Y003001D01*
X027542Y002972D01*
X027499Y002946D01*
X027454Y002924D01*
X027408Y002906D01*
X027360Y002891D01*
X027311Y002880D01*
X027262Y002873D01*
X027212Y002870D01*
X027161Y002871D01*
X027112Y002876D01*
X027062Y002885D01*
X027014Y002898D01*
X026967Y002914D01*
X026921Y002935D01*
X026877Y002959D01*
X026835Y002986D01*
X026795Y003016D01*
X026758Y003050D01*
X026724Y003087D01*
X026692Y003126D01*
X026664Y003167D01*
X026639Y003211D01*
X026618Y003256D01*
X026601Y003303D01*
X026587Y003351D01*
X026577Y003400D01*
X026571Y003450D01*
X026569Y003500D01*
D11*
X020949Y015300D03*
X020949Y017200D03*
X011199Y015000D03*
X010199Y015000D03*
X009199Y015000D03*
X008199Y015000D03*
X006449Y015250D03*
X008199Y012000D03*
X009199Y012000D03*
X010199Y012000D03*
X011199Y012000D03*
X004999Y006000D03*
D12*
X003999Y006000D03*
X006699Y006750D03*
X006699Y009750D03*
X006699Y011000D03*
X006699Y013000D03*
X005449Y015250D03*
X007949Y016250D03*
X010199Y017500D03*
X011349Y017500D03*
X010949Y016250D03*
X011849Y016250D03*
X014849Y016250D03*
X011349Y019500D03*
X010199Y019500D03*
X005949Y020500D03*
X005949Y017500D03*
X022699Y017800D03*
X022699Y016800D03*
X022699Y015700D03*
X022699Y014700D03*
X016199Y003000D03*
X013199Y003000D03*
X012199Y003000D03*
X009199Y003000D03*
X008199Y003000D03*
X005199Y003000D03*
X005249Y001500D03*
X004249Y001500D03*
D13*
X007699Y005000D03*
X008699Y005000D03*
X008699Y006000D03*
X007699Y006000D03*
X007699Y007000D03*
X008699Y007000D03*
X008699Y008000D03*
X007699Y008000D03*
X007699Y009000D03*
X008699Y009000D03*
X009699Y009000D03*
X010699Y009000D03*
X011749Y009000D03*
X012699Y009000D03*
X013699Y009000D03*
X014699Y009000D03*
X015699Y009000D03*
X016699Y009000D03*
X017699Y009000D03*
X017699Y008000D03*
X016699Y008000D03*
X015699Y008000D03*
X014699Y008000D03*
X013699Y008000D03*
X012699Y008000D03*
X011699Y008000D03*
X010699Y008000D03*
X009699Y008000D03*
X009699Y007000D03*
X010699Y007000D03*
X011699Y007000D03*
X012699Y007000D03*
X013699Y007000D03*
X014699Y007000D03*
X015699Y007000D03*
X016699Y007000D03*
X017699Y007000D03*
X017699Y006000D03*
X018699Y006000D03*
X018699Y005000D03*
X017699Y005000D03*
X016699Y005000D03*
X015699Y005000D03*
X014699Y005000D03*
X013699Y005000D03*
X012699Y005000D03*
X011699Y005000D03*
X010699Y005000D03*
X009699Y005000D03*
X009699Y006000D03*
X010699Y006000D03*
X011699Y006000D03*
X012699Y006000D03*
X013699Y006000D03*
X014699Y006000D03*
X015699Y006000D03*
X016699Y006000D03*
X016699Y010000D03*
X015699Y010000D03*
X014699Y010000D03*
X013699Y010000D03*
X012699Y010000D03*
X011699Y010000D03*
X010699Y010000D03*
X009699Y010000D03*
X008699Y010000D03*
X007699Y010000D03*
X008199Y011000D03*
X012199Y012000D03*
X012199Y013000D03*
X012199Y014000D03*
X012199Y015000D03*
X013699Y012000D03*
X017699Y010000D03*
X007599Y018250D03*
D14*
X008599Y018250D03*
X014699Y012000D03*
D15*
X014599Y020500D03*
X015599Y020500D03*
X016599Y020500D03*
X017599Y020500D03*
X019199Y020500D03*
X020199Y020500D03*
X021199Y020500D03*
X022199Y020500D03*
X023199Y020500D03*
X024199Y020500D03*
X025199Y020500D03*
X026199Y020500D03*
X013599Y020500D03*
X012599Y020500D03*
X011599Y020500D03*
X010599Y020500D03*
X009599Y020500D03*
X008599Y020500D03*
X014199Y001500D03*
X015199Y001500D03*
X016199Y001500D03*
X017199Y001500D03*
X018199Y001500D03*
X019199Y001500D03*
X021199Y001500D03*
X022199Y001500D03*
X023199Y001500D03*
X024199Y001500D03*
X025199Y001500D03*
X026199Y001500D03*
D16*
X019262Y007666D02*
X019314Y007614D01*
X019142Y007614D01*
X019021Y007735D01*
X019021Y007907D01*
X019142Y008028D01*
X019314Y008028D01*
X019435Y007907D01*
X019435Y007735D01*
X019314Y007614D01*
X019282Y007692D01*
X019174Y007692D01*
X019099Y007767D01*
X019099Y007875D01*
X019174Y007950D01*
X019282Y007950D01*
X019357Y007875D01*
X019357Y007767D01*
X019282Y007692D01*
X019249Y007770D01*
X019207Y007770D01*
X019177Y007800D01*
X019177Y007842D01*
X019207Y007872D01*
X019249Y007872D01*
X019279Y007842D01*
X019279Y007800D01*
X019249Y007770D01*
X018555Y008374D02*
X018607Y008322D01*
X018435Y008322D01*
X018314Y008443D01*
X018314Y008615D01*
X018435Y008736D01*
X018607Y008736D01*
X018728Y008615D01*
X018728Y008443D01*
X018607Y008322D01*
X018575Y008400D01*
X018467Y008400D01*
X018392Y008475D01*
X018392Y008583D01*
X018467Y008658D01*
X018575Y008658D01*
X018650Y008583D01*
X018650Y008475D01*
X018575Y008400D01*
X018542Y008478D01*
X018500Y008478D01*
X018470Y008508D01*
X018470Y008550D01*
X018500Y008580D01*
X018542Y008580D01*
X018572Y008550D01*
X018572Y008508D01*
X018542Y008478D01*
X023044Y012576D02*
X022992Y012628D01*
X023164Y012628D01*
X023285Y012507D01*
X023285Y012335D01*
X023164Y012214D01*
X022992Y012214D01*
X022871Y012335D01*
X022871Y012507D01*
X022992Y012628D01*
X023024Y012550D01*
X023132Y012550D01*
X023207Y012475D01*
X023207Y012367D01*
X023132Y012292D01*
X023024Y012292D01*
X022949Y012367D01*
X022949Y012475D01*
X023024Y012550D01*
X023057Y012472D01*
X023099Y012472D01*
X023129Y012442D01*
X023129Y012400D01*
X023099Y012370D01*
X023057Y012370D01*
X023027Y012400D01*
X023027Y012442D01*
X023057Y012472D01*
X022337Y013284D02*
X022285Y013336D01*
X022457Y013336D01*
X022578Y013215D01*
X022578Y013043D01*
X022457Y012922D01*
X022285Y012922D01*
X022164Y013043D01*
X022164Y013215D01*
X022285Y013336D01*
X022317Y013258D01*
X022425Y013258D01*
X022500Y013183D01*
X022500Y013075D01*
X022425Y013000D01*
X022317Y013000D01*
X022242Y013075D01*
X022242Y013183D01*
X022317Y013258D01*
X022350Y013180D01*
X022392Y013180D01*
X022422Y013150D01*
X022422Y013108D01*
X022392Y013078D01*
X022350Y013078D01*
X022320Y013108D01*
X022320Y013150D01*
X022350Y013180D01*
D17*
X022199Y019500D03*
X023199Y019500D03*
X024199Y019500D03*
X025199Y019500D03*
X026199Y019500D03*
X021199Y019500D03*
X020199Y019500D03*
X019199Y019500D03*
X002199Y006500D03*
X002199Y005500D03*
X002199Y004500D03*
X002199Y003500D03*
X002199Y002500D03*
X002199Y001500D03*
X021199Y002500D03*
X022199Y002500D03*
X023199Y002500D03*
X024199Y002500D03*
X025199Y002500D03*
X026199Y002500D03*
D18*
X004587Y018500D03*
D19*
X004587Y019500D03*
X004587Y020500D03*
D20*
X012599Y019500D03*
X013599Y019500D03*
X013599Y018500D03*
X012599Y018500D03*
X014599Y018500D03*
X015599Y018500D03*
X015599Y019500D03*
X014599Y019500D03*
X016599Y019500D03*
X017599Y019500D03*
X017599Y018500D03*
X013199Y001500D03*
X012199Y001500D03*
X010699Y001500D03*
X009699Y001500D03*
X008699Y001500D03*
D21*
X004668Y008531D03*
X004668Y009516D03*
X002699Y010500D03*
X004668Y011484D03*
X004668Y012469D03*
D22*
X014858Y014102D02*
X015226Y014469D01*
X015933Y013762D02*
X015565Y013395D01*
X016273Y012687D02*
X016640Y013055D01*
X017347Y012348D02*
X016980Y011980D01*
X017687Y011273D02*
X018054Y011641D01*
X018762Y010934D02*
X018394Y010566D01*
X019101Y009859D02*
X019469Y010227D01*
X020176Y009520D02*
X019808Y009152D01*
X020515Y008445D02*
X020883Y008813D01*
X021590Y008105D02*
X021222Y007738D01*
X021929Y007031D02*
X022297Y007398D01*
X023004Y006691D02*
X022637Y006324D01*
X023344Y005616D02*
X023711Y005984D01*
X024418Y005277D02*
X024051Y004909D01*
X026172Y007031D02*
X026540Y007398D01*
X025833Y008105D02*
X025465Y007738D01*
X024758Y008445D02*
X025126Y008813D01*
X024418Y009520D02*
X024051Y009152D01*
X023344Y009859D02*
X023711Y010227D01*
X023004Y010934D02*
X022637Y010566D01*
X021929Y011273D02*
X022297Y011641D01*
X021590Y012348D02*
X021222Y011980D01*
X020515Y012687D02*
X020883Y013055D01*
X020176Y013762D02*
X019808Y013395D01*
X019101Y014102D02*
X019469Y014469D01*
X018762Y015176D02*
X018394Y014809D01*
X017687Y015516D02*
X018054Y015884D01*
X017347Y016591D02*
X016980Y016223D01*
D23*
X016560Y016033D02*
X015879Y016033D01*
X015879Y015875D02*
X016678Y015875D01*
X016719Y015833D02*
X016888Y015763D01*
X017071Y015763D01*
X017240Y015833D01*
X017737Y016330D01*
X017807Y016499D01*
X017807Y016682D01*
X017737Y016851D01*
X017608Y016981D01*
X017439Y017051D01*
X017256Y017051D01*
X017087Y016981D01*
X016590Y016484D01*
X016520Y016315D01*
X016520Y016132D01*
X016590Y015962D01*
X016719Y015833D01*
X016520Y016192D02*
X015879Y016192D01*
X015879Y016350D02*
X016534Y016350D01*
X016615Y016509D02*
X015879Y016509D01*
X015879Y016667D02*
X016773Y016667D01*
X016932Y016826D02*
X015879Y016826D01*
X015879Y016841D02*
X015977Y016939D01*
X015977Y017461D01*
X015860Y017578D01*
X015338Y017578D01*
X015221Y017461D01*
X015221Y016939D01*
X015319Y016841D01*
X015319Y015294D01*
X015362Y015191D01*
X015440Y015113D01*
X023962Y006591D01*
X024040Y006513D01*
X024143Y006470D01*
X024840Y006470D01*
X024938Y006372D01*
X024938Y006372D01*
X024938Y004698D01*
X024978Y004602D01*
X025652Y003928D01*
X025138Y003928D01*
X025021Y003811D01*
X025021Y003811D01*
X024377Y003811D01*
X024377Y004211D01*
X024260Y004328D01*
X023738Y004328D01*
X023621Y004211D01*
X023621Y004211D01*
X004277Y004211D01*
X004160Y004328D01*
X003638Y004328D01*
X003521Y004211D01*
X003521Y003689D01*
X003635Y003575D01*
X003571Y003511D01*
X003571Y002989D01*
X003688Y002872D01*
X004210Y002872D01*
X004327Y002989D01*
X004327Y003260D01*
X004357Y003289D01*
X004838Y003289D01*
X004739Y003191D01*
X004739Y002809D01*
X005009Y002540D01*
X005390Y002540D01*
X005659Y002809D01*
X005659Y003191D01*
X005560Y003289D01*
X007838Y003289D01*
X007739Y003191D01*
X007739Y002809D01*
X008009Y002540D01*
X008390Y002540D01*
X008659Y002809D01*
X008659Y003191D01*
X008560Y003289D01*
X008838Y003289D01*
X008739Y003191D01*
X008739Y002809D01*
X009009Y002540D01*
X009390Y002540D01*
X009659Y002809D01*
X009659Y003191D01*
X009560Y003289D01*
X011838Y003289D01*
X011739Y003191D01*
X011739Y002809D01*
X012009Y002540D01*
X012390Y002540D01*
X012659Y002809D01*
X012659Y003191D01*
X012560Y003289D01*
X012838Y003289D01*
X012739Y003191D01*
X012739Y002809D01*
X013009Y002540D01*
X013390Y002540D01*
X013659Y002809D01*
X013659Y003191D01*
X013560Y003289D01*
X015838Y003289D01*
X015739Y003191D01*
X015739Y002809D01*
X016009Y002540D01*
X016390Y002540D01*
X016659Y002809D01*
X016659Y003191D01*
X016560Y003289D01*
X016821Y003289D01*
X016821Y002889D01*
X016938Y002772D01*
X017171Y002772D01*
X017171Y002339D01*
X017288Y002222D01*
X017810Y002222D01*
X017908Y002320D01*
X019340Y002320D01*
X019438Y002222D01*
X019960Y002222D01*
X020077Y002339D01*
X020077Y002861D01*
X020049Y002889D01*
X020811Y002889D01*
X020649Y002728D01*
X020649Y002272D01*
X020935Y001986D01*
X020669Y001720D01*
X020669Y001280D01*
X020980Y000970D01*
X021419Y000970D01*
X021699Y001250D01*
X021980Y000970D01*
X022419Y000970D01*
X022699Y001250D01*
X022980Y000970D01*
X023419Y000970D01*
X023699Y001250D01*
X023980Y000970D01*
X024419Y000970D01*
X024699Y001250D01*
X024980Y000970D01*
X025419Y000970D01*
X025699Y001250D01*
X025980Y000970D01*
X026419Y000970D01*
X026729Y001280D01*
X026729Y001720D01*
X026463Y001986D01*
X026749Y002272D01*
X026749Y002728D01*
X026427Y003050D01*
X026243Y003050D01*
X026304Y003111D01*
X026347Y003129D01*
X026420Y003202D01*
X026422Y003207D01*
X026495Y003030D01*
X026729Y002796D01*
X027034Y002670D01*
X027364Y002670D01*
X027669Y002796D01*
X027903Y003030D01*
X027999Y003263D01*
X027999Y002583D01*
X027061Y001645D01*
X026999Y001583D01*
X026999Y001583D01*
X026999Y001583D01*
X026999Y001500D01*
X026999Y000700D01*
X006936Y000700D01*
X007169Y000796D01*
X007403Y001030D01*
X007529Y001335D01*
X007529Y001665D01*
X007403Y001970D01*
X007169Y002204D01*
X006864Y002330D01*
X006534Y002330D01*
X006229Y002204D01*
X005995Y001970D01*
X005869Y001665D01*
X005869Y001335D01*
X005995Y001030D01*
X006229Y000796D01*
X006462Y000700D01*
X001399Y000700D01*
X001399Y008230D01*
X001468Y008162D01*
X001628Y008095D01*
X001802Y008095D01*
X001962Y008162D01*
X002085Y008284D01*
X002151Y008445D01*
X002151Y008618D01*
X002085Y008779D01*
X001962Y008901D01*
X001802Y008968D01*
X001628Y008968D01*
X001468Y008901D01*
X001399Y008833D01*
X001399Y012167D01*
X001468Y012099D01*
X001628Y012032D01*
X001802Y012032D01*
X001962Y012099D01*
X002085Y012221D01*
X002151Y012382D01*
X002151Y012555D01*
X002085Y012716D01*
X001962Y012838D01*
X001802Y012905D01*
X001628Y012905D01*
X001468Y012838D01*
X001399Y012770D01*
X001399Y021296D01*
X006955Y021297D01*
X006729Y021204D01*
X006495Y020970D01*
X006388Y020711D01*
X006140Y020960D01*
X005759Y020960D01*
X005489Y020691D01*
X005489Y020309D01*
X005759Y020040D01*
X006140Y020040D01*
X006388Y020289D01*
X006495Y020030D01*
X006729Y019796D01*
X007034Y019670D01*
X007364Y019670D01*
X007669Y019796D01*
X007903Y020030D01*
X008029Y020335D01*
X008029Y020665D01*
X007903Y020970D01*
X007669Y021204D01*
X007443Y021297D01*
X026516Y021301D01*
X026999Y020817D01*
X026999Y016483D01*
X026999Y016389D01*
X026999Y016317D01*
X027057Y016259D01*
X027116Y016200D01*
X027116Y016200D01*
X027999Y015317D01*
X027999Y014737D01*
X027903Y014970D01*
X027669Y015204D01*
X027364Y015330D01*
X027034Y015330D01*
X026729Y015204D01*
X026495Y014970D01*
X026369Y014665D01*
X026369Y014335D01*
X026495Y014030D01*
X026729Y013796D01*
X027034Y013670D01*
X027364Y013670D01*
X027669Y013796D01*
X027903Y014030D01*
X027999Y014263D01*
X027999Y003737D01*
X027903Y003970D01*
X027669Y004204D01*
X027364Y004330D01*
X027034Y004330D01*
X026729Y004204D01*
X026495Y003970D01*
X026443Y003843D01*
X026420Y003898D01*
X026347Y003971D01*
X025460Y004858D01*
X025460Y006372D01*
X025577Y006489D01*
X025577Y007011D01*
X025460Y007128D01*
X024938Y007128D01*
X024840Y007030D01*
X024315Y007030D01*
X015879Y015466D01*
X015879Y016841D01*
X015977Y016984D02*
X017095Y016984D01*
X017600Y016984D02*
X019419Y016984D01*
X019419Y016826D02*
X017748Y016826D01*
X017807Y016667D02*
X019419Y016667D01*
X019419Y016509D02*
X017807Y016509D01*
X017746Y016350D02*
X019419Y016350D01*
X019419Y016192D02*
X018397Y016192D01*
X018444Y016144D02*
X018315Y016274D01*
X018146Y016344D01*
X017963Y016344D01*
X017794Y016274D01*
X017297Y015776D01*
X017227Y015607D01*
X017227Y015424D01*
X017297Y015255D01*
X017426Y015126D01*
X017595Y015056D01*
X017778Y015056D01*
X017947Y015126D01*
X018444Y015623D01*
X018514Y015792D01*
X018514Y015975D01*
X018444Y016144D01*
X018490Y016033D02*
X019419Y016033D01*
X019419Y015875D02*
X018514Y015875D01*
X018483Y015716D02*
X019419Y015716D01*
X019419Y015558D02*
X019031Y015558D01*
X019022Y015566D02*
X018853Y015636D01*
X018670Y015636D01*
X018501Y015566D01*
X018004Y015069D01*
X017934Y014900D01*
X017934Y014717D01*
X018004Y014548D01*
X018133Y014419D01*
X018302Y014349D01*
X018485Y014349D01*
X018654Y014419D01*
X019152Y014916D01*
X019222Y015085D01*
X019222Y015268D01*
X019152Y015437D01*
X019022Y015566D01*
X019167Y015399D02*
X019419Y015399D01*
X019419Y015241D02*
X019222Y015241D01*
X019220Y015082D02*
X019419Y015082D01*
X019419Y014980D02*
X019343Y014980D01*
X019240Y014937D01*
X019161Y014858D01*
X018790Y014487D01*
X018712Y014409D01*
X018669Y014306D01*
X018669Y014261D01*
X018641Y014193D01*
X018641Y014010D01*
X018669Y013942D01*
X018669Y013194D01*
X018712Y013091D01*
X018790Y013013D01*
X018790Y013013D01*
X020360Y011443D01*
X020463Y011400D01*
X020575Y011400D01*
X020678Y011443D01*
X020756Y011521D01*
X020799Y011624D01*
X020799Y011736D01*
X020756Y011839D01*
X020328Y012267D01*
X020424Y012227D01*
X020607Y012227D01*
X020776Y012298D01*
X021273Y012795D01*
X021343Y012964D01*
X021343Y013147D01*
X021273Y013316D01*
X021143Y013445D01*
X020974Y013515D01*
X020791Y013515D01*
X020622Y013445D01*
X020125Y012948D01*
X020055Y012779D01*
X020055Y012596D01*
X020095Y012500D01*
X019621Y012974D01*
X019717Y012935D01*
X019900Y012935D01*
X020069Y013005D01*
X020566Y013502D01*
X020636Y013671D01*
X020636Y013854D01*
X020566Y014023D01*
X020436Y014152D01*
X020267Y014222D01*
X020084Y014222D01*
X019915Y014152D01*
X019418Y013655D01*
X019348Y013486D01*
X019348Y013303D01*
X019388Y013207D01*
X019229Y013366D01*
X019229Y013657D01*
X019362Y013712D01*
X019859Y014209D01*
X019929Y014378D01*
X019929Y014533D01*
X019936Y014541D01*
X019979Y014644D01*
X019979Y017884D01*
X021045Y018950D01*
X021427Y018950D01*
X021699Y019222D01*
X021971Y018950D01*
X022403Y018950D01*
X023969Y017384D01*
X023969Y012166D01*
X023167Y011364D01*
X023096Y011394D01*
X022913Y011394D01*
X022744Y011324D01*
X022247Y010827D01*
X022177Y010658D01*
X022177Y010530D01*
X022065Y010530D01*
X021742Y010853D01*
X021838Y010813D01*
X022021Y010813D01*
X022190Y010883D01*
X022687Y011380D01*
X022757Y011549D01*
X022757Y011732D01*
X022687Y011902D01*
X022558Y012031D01*
X022389Y012101D01*
X022206Y012101D01*
X022037Y012031D01*
X021539Y011534D01*
X021469Y011365D01*
X021469Y011182D01*
X021509Y011086D01*
X021078Y011517D01*
X020975Y011560D01*
X020863Y011560D01*
X020760Y011517D01*
X020682Y011439D01*
X020639Y011336D01*
X020639Y011224D01*
X020682Y011121D01*
X021712Y010091D01*
X021790Y010013D01*
X021893Y009970D01*
X022755Y009970D01*
X022858Y010013D01*
X022936Y010091D01*
X022946Y010101D01*
X022884Y009951D01*
X022884Y009768D01*
X022954Y009598D01*
X023083Y009469D01*
X023252Y009399D01*
X023435Y009399D01*
X023604Y009469D01*
X024101Y009966D01*
X024171Y010135D01*
X024171Y010318D01*
X024101Y010487D01*
X023972Y010617D01*
X023803Y010687D01*
X023620Y010687D01*
X023451Y010617D01*
X023444Y010610D01*
X023479Y010694D01*
X023479Y010884D01*
X024486Y011891D01*
X024529Y011994D01*
X024529Y017556D01*
X024486Y017659D01*
X023195Y018950D01*
X023427Y018950D01*
X023699Y019222D01*
X023971Y018950D01*
X024427Y018950D01*
X024699Y019222D01*
X024971Y018950D01*
X025427Y018950D01*
X025699Y019222D01*
X025971Y018950D01*
X026427Y018950D01*
X026749Y019272D01*
X026749Y019728D01*
X026463Y020014D01*
X026729Y020280D01*
X026729Y020720D01*
X026419Y021030D01*
X025980Y021030D01*
X025699Y020750D01*
X025419Y021030D01*
X024980Y021030D01*
X024699Y020750D01*
X024419Y021030D01*
X023980Y021030D01*
X023699Y020750D01*
X023419Y021030D01*
X022980Y021030D01*
X022699Y020750D01*
X022419Y021030D01*
X021980Y021030D01*
X021699Y020750D01*
X021419Y021030D01*
X020980Y021030D01*
X020699Y020750D01*
X020419Y021030D01*
X019980Y021030D01*
X019699Y020750D01*
X019419Y021030D01*
X018980Y021030D01*
X018669Y020720D01*
X018669Y020280D01*
X018935Y020014D01*
X018649Y019728D01*
X018649Y019272D01*
X018971Y018950D01*
X019427Y018950D01*
X019699Y019222D01*
X019971Y018950D01*
X020253Y018950D01*
X019540Y018237D01*
X019462Y018159D01*
X019419Y018056D01*
X019419Y014980D01*
X019227Y014924D02*
X019155Y014924D01*
X019161Y014858D02*
X019161Y014858D01*
X019068Y014765D02*
X019001Y014765D01*
X018910Y014607D02*
X018842Y014607D01*
X018790Y014487D02*
X018790Y014487D01*
X018751Y014448D02*
X018684Y014448D01*
X018669Y014290D02*
X017056Y014290D01*
X017214Y014131D02*
X018641Y014131D01*
X018657Y013973D02*
X017373Y013973D01*
X017531Y013814D02*
X018669Y013814D01*
X018669Y013656D02*
X017690Y013656D01*
X017848Y013497D02*
X018669Y013497D01*
X018669Y013339D02*
X018007Y013339D01*
X018165Y013180D02*
X018675Y013180D01*
X018782Y013022D02*
X018324Y013022D01*
X018482Y012863D02*
X018940Y012863D01*
X019099Y012705D02*
X018641Y012705D01*
X018799Y012546D02*
X019257Y012546D01*
X019416Y012388D02*
X018958Y012388D01*
X019116Y012229D02*
X019574Y012229D01*
X019733Y012071D02*
X019275Y012071D01*
X019433Y011912D02*
X019891Y011912D01*
X020050Y011754D02*
X019592Y011754D01*
X019750Y011595D02*
X020208Y011595D01*
X020375Y011437D02*
X019909Y011437D01*
X020067Y011278D02*
X020639Y011278D01*
X020663Y011437D02*
X020681Y011437D01*
X020787Y011595D02*
X021009Y011595D01*
X020992Y011604D02*
X021053Y011573D01*
X021119Y011551D01*
X021188Y011540D01*
X021257Y011540D01*
X021325Y011551D01*
X021391Y011573D01*
X021453Y011604D01*
X021509Y011645D01*
X021717Y011853D01*
X021406Y012164D01*
X020911Y011669D01*
X020936Y011645D01*
X020992Y011604D01*
X020911Y011669D02*
X021406Y012164D01*
X021406Y012164D01*
X021406Y012164D01*
X021095Y012475D01*
X020887Y012267D01*
X020846Y012211D01*
X020815Y012149D01*
X020793Y012083D01*
X020782Y012015D01*
X020782Y011946D01*
X020793Y011877D01*
X020815Y011811D01*
X020846Y011750D01*
X020887Y011694D01*
X020911Y011669D01*
X020844Y011754D02*
X020792Y011754D01*
X020788Y011912D02*
X020683Y011912D01*
X020791Y012071D02*
X020525Y012071D01*
X020610Y012229D02*
X020859Y012229D01*
X020866Y012388D02*
X021007Y012388D01*
X021095Y012475D02*
X021406Y012164D01*
X021406Y012164D01*
X021717Y011853D01*
X021926Y012061D01*
X021966Y012117D01*
X021998Y012179D01*
X022019Y012245D01*
X022030Y012313D01*
X022030Y012383D01*
X022019Y012451D01*
X021998Y012517D01*
X021966Y012579D01*
X021926Y012635D01*
X021901Y012659D01*
X021406Y012164D01*
X021406Y012164D01*
X021901Y012659D01*
X021877Y012684D01*
X021821Y012724D01*
X021759Y012756D01*
X021693Y012777D01*
X021625Y012788D01*
X021555Y012788D01*
X021487Y012777D01*
X021421Y012756D01*
X021359Y012724D01*
X021303Y012684D01*
X021095Y012475D01*
X021024Y012546D02*
X021166Y012546D01*
X021183Y012388D02*
X021183Y012388D01*
X021341Y012229D02*
X021341Y012229D01*
X021471Y012229D02*
X021471Y012229D01*
X021500Y012071D02*
X021500Y012071D01*
X021312Y012071D02*
X021312Y012071D01*
X021154Y011912D02*
X021154Y011912D01*
X020995Y011754D02*
X020995Y011754D01*
X020519Y011680D02*
X018949Y013250D01*
X018949Y013950D01*
X019285Y014286D01*
X018949Y014250D02*
X018949Y013950D01*
X018949Y014250D02*
X019399Y014700D01*
X019699Y014700D01*
X019699Y018000D01*
X021199Y019500D01*
X021569Y019500D01*
X021829Y019500D02*
X022199Y019500D01*
X022449Y019300D01*
X024249Y017500D01*
X024249Y012050D01*
X023199Y011000D01*
X023199Y010750D01*
X022699Y010250D01*
X022699Y010629D01*
X022820Y010750D01*
X022539Y011120D02*
X022426Y011120D01*
X022381Y010961D02*
X022268Y010961D01*
X022237Y010803D02*
X021793Y010803D01*
X021951Y010644D02*
X022177Y010644D01*
X021949Y010250D02*
X022699Y010250D01*
X022851Y010010D02*
X022908Y010010D01*
X022884Y009852D02*
X021494Y009852D01*
X021335Y010010D02*
X021797Y010010D01*
X021635Y010169D02*
X021177Y010169D01*
X021018Y010327D02*
X021476Y010327D01*
X021318Y010486D02*
X020860Y010486D01*
X020701Y010644D02*
X021159Y010644D01*
X021001Y010803D02*
X020543Y010803D01*
X020384Y010961D02*
X020842Y010961D01*
X020684Y011120D02*
X020226Y011120D01*
X019751Y010803D02*
X019205Y010803D01*
X019222Y010842D02*
X019152Y010673D01*
X018654Y010176D01*
X018485Y010106D01*
X018302Y010106D01*
X018214Y010143D01*
X018214Y009787D01*
X017927Y009500D01*
X018214Y009213D01*
X018214Y008873D01*
X018330Y008989D01*
X018711Y008989D01*
X018980Y008719D01*
X018980Y008338D01*
X018711Y008069D01*
X018330Y008069D01*
X018214Y008184D01*
X018214Y007787D01*
X017927Y007500D01*
X018214Y007213D01*
X018214Y006787D01*
X017927Y006500D01*
X018199Y006228D01*
X018486Y006515D01*
X018912Y006515D01*
X019214Y006213D01*
X019214Y005787D01*
X018913Y005486D01*
X019194Y005205D01*
X019194Y005000D01*
X018699Y005000D01*
X018699Y005000D01*
X018699Y004505D01*
X018494Y004505D01*
X018213Y004786D01*
X017912Y004485D01*
X017486Y004485D01*
X017199Y004772D01*
X016912Y004485D01*
X016486Y004485D01*
X016199Y004772D01*
X015912Y004485D01*
X015486Y004485D01*
X015199Y004772D01*
X014912Y004485D01*
X014486Y004485D01*
X014199Y004772D01*
X013912Y004485D01*
X013486Y004485D01*
X013199Y004772D01*
X012912Y004485D01*
X012486Y004485D01*
X012199Y004772D01*
X011912Y004485D01*
X011486Y004485D01*
X011199Y004772D01*
X010912Y004485D01*
X010486Y004485D01*
X010199Y004772D01*
X009912Y004485D01*
X009486Y004485D01*
X009199Y004772D01*
X008912Y004485D01*
X008486Y004485D01*
X008199Y004772D01*
X007912Y004485D01*
X007486Y004485D01*
X007184Y004787D01*
X007184Y005213D01*
X007471Y005500D01*
X007184Y005787D01*
X007184Y006213D01*
X007471Y006500D01*
X007184Y006787D01*
X007184Y007213D01*
X007471Y007500D01*
X007184Y007787D01*
X007184Y008213D01*
X007471Y008500D01*
X007184Y008787D01*
X007184Y009213D01*
X007471Y009500D01*
X007184Y009787D01*
X007184Y010213D01*
X007486Y010515D01*
X007912Y010515D01*
X008199Y010228D01*
X008486Y010515D01*
X008912Y010515D01*
X009199Y010228D01*
X009486Y010515D01*
X009912Y010515D01*
X010199Y010228D01*
X010486Y010515D01*
X010912Y010515D01*
X011199Y010228D01*
X011486Y010515D01*
X011912Y010515D01*
X012199Y010228D01*
X012486Y010515D01*
X012912Y010515D01*
X013199Y010228D01*
X013486Y010515D01*
X013912Y010515D01*
X014199Y010228D01*
X014486Y010515D01*
X014912Y010515D01*
X015199Y010228D01*
X015486Y010515D01*
X015912Y010515D01*
X016199Y010228D01*
X016486Y010515D01*
X016912Y010515D01*
X017199Y010228D01*
X017486Y010515D01*
X017912Y010515D01*
X017934Y010493D01*
X017934Y010658D01*
X018004Y010827D01*
X018501Y011324D01*
X018670Y011394D01*
X018853Y011394D01*
X019022Y011324D01*
X019152Y011194D01*
X019222Y011025D01*
X019222Y010842D01*
X019222Y010961D02*
X019592Y010961D01*
X019434Y011120D02*
X019183Y011120D01*
X019275Y011278D02*
X019068Y011278D01*
X019117Y011437D02*
X018468Y011437D01*
X018444Y011380D02*
X018514Y011549D01*
X018514Y011732D01*
X018444Y011902D01*
X018315Y012031D01*
X018146Y012101D01*
X017963Y012101D01*
X017794Y012031D01*
X017297Y011534D01*
X017227Y011365D01*
X017227Y011182D01*
X017297Y011013D01*
X017426Y010883D01*
X017595Y010813D01*
X017778Y010813D01*
X017947Y010883D01*
X018444Y011380D01*
X018455Y011278D02*
X018342Y011278D01*
X018297Y011120D02*
X018184Y011120D01*
X018138Y010961D02*
X018025Y010961D01*
X017994Y010803D02*
X014148Y010803D01*
X014108Y010763D02*
X014850Y011505D01*
X014991Y011563D01*
X015136Y011708D01*
X015214Y011898D01*
X015214Y012102D01*
X015136Y012292D01*
X014991Y012437D01*
X014801Y012515D01*
X014597Y012515D01*
X014407Y012437D01*
X014262Y012292D01*
X014194Y012127D01*
X014194Y012205D01*
X013904Y012495D01*
X013699Y012495D01*
X013494Y012495D01*
X013204Y012205D01*
X013204Y012000D01*
X013204Y011795D01*
X013494Y011505D01*
X013699Y011505D01*
X013699Y012000D01*
X013204Y012000D01*
X013699Y012000D01*
X013699Y012000D01*
X013699Y012000D01*
X013699Y012495D01*
X013699Y012000D01*
X013699Y012000D01*
X013699Y011505D01*
X013904Y011505D01*
X014194Y011795D01*
X014194Y011873D01*
X014262Y011709D01*
X013833Y011280D01*
X011065Y011280D01*
X010594Y011751D01*
X010659Y011908D01*
X010659Y012091D01*
X010589Y012261D01*
X010460Y012390D01*
X010291Y012460D01*
X010108Y012460D01*
X009938Y012390D01*
X009809Y012261D01*
X009739Y012091D01*
X009739Y011908D01*
X009809Y011739D01*
X009938Y011610D01*
X009957Y011602D01*
X009962Y011591D01*
X010712Y010841D01*
X010790Y010763D01*
X010893Y010720D01*
X014005Y010720D01*
X014108Y010763D01*
X014306Y010961D02*
X017348Y010961D01*
X017253Y011120D02*
X014465Y011120D01*
X014623Y011278D02*
X017227Y011278D01*
X017257Y011437D02*
X014782Y011437D01*
X015022Y011595D02*
X016714Y011595D01*
X016719Y011590D02*
X016888Y011520D01*
X017071Y011520D01*
X017240Y011590D01*
X017737Y012087D01*
X017807Y012257D01*
X017807Y012440D01*
X017737Y012609D01*
X017608Y012738D01*
X017439Y012808D01*
X017256Y012808D01*
X017087Y012738D01*
X016590Y012241D01*
X016520Y012072D01*
X016520Y011889D01*
X016590Y011720D01*
X016719Y011590D01*
X016576Y011754D02*
X015154Y011754D01*
X015214Y011912D02*
X016520Y011912D01*
X016520Y012071D02*
X015214Y012071D01*
X015162Y012229D02*
X016177Y012229D01*
X016181Y012227D02*
X016364Y012227D01*
X016533Y012298D01*
X017030Y012795D01*
X017100Y012964D01*
X017100Y013147D01*
X017030Y013316D01*
X016901Y013445D01*
X016732Y013515D01*
X016549Y013515D01*
X016380Y013445D01*
X015883Y012948D01*
X015813Y012779D01*
X015813Y012596D01*
X015883Y012427D01*
X016012Y012298D01*
X016181Y012227D01*
X016368Y012229D02*
X016585Y012229D01*
X016623Y012388D02*
X016736Y012388D01*
X016782Y012546D02*
X016895Y012546D01*
X016940Y012705D02*
X017053Y012705D01*
X017059Y012863D02*
X017690Y012863D01*
X017641Y012705D02*
X017849Y012705D01*
X017763Y012546D02*
X018007Y012546D01*
X018166Y012388D02*
X017807Y012388D01*
X017796Y012229D02*
X018324Y012229D01*
X018219Y012071D02*
X018483Y012071D01*
X018434Y011912D02*
X018641Y011912D01*
X018506Y011754D02*
X018800Y011754D01*
X018958Y011595D02*
X018514Y011595D01*
X017889Y012071D02*
X017720Y012071D01*
X017675Y011912D02*
X017562Y011912D01*
X017517Y011754D02*
X017403Y011754D01*
X017358Y011595D02*
X017245Y011595D01*
X017934Y010644D02*
X008571Y010644D01*
X008456Y010486D02*
X008413Y010486D01*
X008412Y010485D02*
X008714Y010787D01*
X008714Y011213D01*
X008412Y011515D01*
X007986Y011515D01*
X007684Y011213D01*
X007684Y010787D01*
X007986Y010485D01*
X008412Y010485D01*
X008298Y010327D02*
X008100Y010327D01*
X007985Y010486D02*
X007942Y010486D01*
X007827Y010644D02*
X006994Y010644D01*
X006890Y010540D02*
X007159Y010809D01*
X007159Y011191D01*
X006890Y011460D01*
X006509Y011460D01*
X006269Y011221D01*
X006269Y012779D01*
X006509Y012540D01*
X006763Y012540D01*
X007540Y011763D01*
X007643Y011720D01*
X007829Y011720D01*
X007938Y011610D01*
X008108Y011540D01*
X008291Y011540D01*
X008460Y011610D01*
X008589Y011739D01*
X008659Y011908D01*
X008659Y012087D01*
X008739Y012007D01*
X008739Y011908D01*
X008809Y011739D01*
X008938Y011610D01*
X009108Y011540D01*
X009291Y011540D01*
X009460Y011610D01*
X009589Y011739D01*
X009659Y011908D01*
X009659Y012091D01*
X009589Y012261D01*
X009460Y012390D01*
X009291Y012460D01*
X009192Y012460D01*
X007932Y013720D01*
X008755Y013720D01*
X008858Y013763D01*
X009358Y014263D01*
X009436Y014341D01*
X009479Y014444D01*
X009479Y014629D01*
X009589Y014739D01*
X009659Y014908D01*
X009659Y015091D01*
X009589Y015261D01*
X009460Y015390D01*
X009291Y015460D01*
X009108Y015460D01*
X008938Y015390D01*
X008809Y015261D01*
X008739Y015091D01*
X008739Y014908D01*
X008809Y014739D01*
X008919Y014629D01*
X008919Y014616D01*
X008583Y014280D01*
X008065Y014280D01*
X007729Y014616D01*
X007729Y015806D01*
X007719Y015829D01*
X007759Y015790D01*
X008140Y015790D01*
X008409Y016059D01*
X008409Y016441D01*
X008140Y016710D01*
X007759Y016710D01*
X007489Y016441D01*
X007489Y016106D01*
X006858Y016737D01*
X006755Y016780D01*
X005815Y016780D01*
X004533Y018063D01*
X004587Y018063D01*
X004768Y018063D01*
X005024Y018319D01*
X005024Y018500D01*
X005024Y018681D01*
X004768Y018937D01*
X004587Y018937D01*
X004587Y018500D01*
X005024Y018500D01*
X004587Y018500D01*
X004587Y018500D01*
X004587Y018500D01*
X004587Y018063D01*
X004587Y018500D01*
X004587Y018500D01*
X004587Y018937D01*
X004406Y018937D01*
X004149Y018681D01*
X004149Y018500D01*
X004587Y018500D01*
X004149Y018500D01*
X004149Y018446D01*
X003979Y018616D01*
X003979Y018641D01*
X004077Y018739D01*
X004077Y019261D01*
X003960Y019378D01*
X003438Y019378D01*
X003321Y019261D01*
X003321Y018739D01*
X003419Y018641D01*
X003419Y018444D01*
X003462Y018341D01*
X005462Y016341D01*
X005540Y016263D01*
X005643Y016220D01*
X006583Y016220D01*
X007169Y015634D01*
X007169Y014444D01*
X007212Y014341D01*
X007483Y014070D01*
X006135Y014070D01*
X006018Y014021D01*
X005928Y013931D01*
X005678Y013681D01*
X005629Y013564D01*
X005629Y007083D01*
X005007Y006460D01*
X004908Y006460D01*
X004738Y006390D01*
X004609Y006261D01*
X004539Y006091D01*
X004539Y005908D01*
X004609Y005739D01*
X004738Y005610D01*
X004908Y005540D01*
X005091Y005540D01*
X005260Y005610D01*
X005389Y005739D01*
X005459Y005908D01*
X005459Y006007D01*
X006220Y006769D01*
X006259Y006862D01*
X006259Y006750D01*
X006259Y006568D01*
X006517Y006310D01*
X006699Y006310D01*
X006699Y006750D01*
X006259Y006750D01*
X006699Y006750D01*
X006699Y006750D01*
X006699Y007190D01*
X006517Y007190D01*
X006269Y006942D01*
X006269Y009529D01*
X006509Y009290D01*
X006890Y009290D01*
X007159Y009559D01*
X007159Y009941D01*
X006890Y010210D01*
X006509Y010210D01*
X006269Y009971D01*
X006269Y010779D01*
X006509Y010540D01*
X006890Y010540D01*
X007152Y010803D02*
X007684Y010803D01*
X007684Y010961D02*
X007159Y010961D01*
X007159Y011120D02*
X007684Y011120D01*
X007749Y011278D02*
X007072Y011278D01*
X006913Y011437D02*
X007907Y011437D01*
X007975Y011595D02*
X006269Y011595D01*
X006269Y011437D02*
X006485Y011437D01*
X006327Y011278D02*
X006269Y011278D01*
X006269Y011754D02*
X007562Y011754D01*
X007391Y011912D02*
X006269Y011912D01*
X006269Y012071D02*
X007233Y012071D01*
X007074Y012229D02*
X006269Y012229D01*
X006269Y012388D02*
X006916Y012388D01*
X006502Y012546D02*
X006269Y012546D01*
X006269Y012705D02*
X006344Y012705D01*
X006699Y013000D02*
X007699Y012000D01*
X008199Y012000D01*
X008423Y011595D02*
X008975Y011595D01*
X008803Y011754D02*
X008595Y011754D01*
X008659Y011912D02*
X008739Y011912D01*
X008676Y012071D02*
X008659Y012071D01*
X009106Y012546D02*
X011925Y012546D01*
X011971Y012500D02*
X011684Y012213D01*
X011684Y011787D01*
X011986Y011485D01*
X012412Y011485D01*
X012714Y011787D01*
X012714Y012213D01*
X012427Y012500D01*
X012714Y012787D01*
X012714Y013213D01*
X012427Y013500D01*
X012714Y013787D01*
X012714Y014213D01*
X012427Y014500D01*
X012714Y014787D01*
X012714Y015213D01*
X012412Y015515D01*
X011986Y015515D01*
X011684Y015213D01*
X011684Y014787D01*
X011971Y014500D01*
X011684Y014213D01*
X011684Y013787D01*
X011971Y013500D01*
X011684Y013213D01*
X011684Y012787D01*
X011971Y012500D01*
X011858Y012388D02*
X011462Y012388D01*
X011460Y012390D02*
X011291Y012460D01*
X011108Y012460D01*
X010938Y012390D01*
X010809Y012261D01*
X010739Y012091D01*
X010739Y011908D01*
X010809Y011739D01*
X010938Y011610D01*
X011108Y011540D01*
X011291Y011540D01*
X011460Y011610D01*
X011589Y011739D01*
X011659Y011908D01*
X011659Y012091D01*
X011589Y012261D01*
X011460Y012390D01*
X011602Y012229D02*
X011700Y012229D01*
X011684Y012071D02*
X011659Y012071D01*
X011659Y011912D02*
X011684Y011912D01*
X011717Y011754D02*
X011595Y011754D01*
X011423Y011595D02*
X011876Y011595D01*
X012522Y011595D02*
X013404Y011595D01*
X013246Y011754D02*
X012681Y011754D01*
X012714Y011912D02*
X013204Y011912D01*
X013204Y012071D02*
X012714Y012071D01*
X012698Y012229D02*
X013228Y012229D01*
X013387Y012388D02*
X012540Y012388D01*
X012473Y012546D02*
X015833Y012546D01*
X015813Y012705D02*
X012632Y012705D01*
X012714Y012863D02*
X015847Y012863D01*
X015826Y013005D02*
X015657Y012935D01*
X015474Y012935D01*
X015305Y013005D01*
X015175Y013134D01*
X015105Y013303D01*
X015105Y013486D01*
X015175Y013655D01*
X015673Y014152D01*
X015842Y014222D01*
X016025Y014222D01*
X016194Y014152D01*
X016323Y014023D01*
X016393Y013854D01*
X016393Y013671D01*
X016323Y013502D01*
X015826Y013005D01*
X015843Y013022D02*
X015956Y013022D01*
X016001Y013180D02*
X016115Y013180D01*
X016160Y013339D02*
X016273Y013339D01*
X016318Y013497D02*
X016505Y013497D01*
X016387Y013656D02*
X016898Y013656D01*
X016776Y013497D02*
X017056Y013497D01*
X017007Y013339D02*
X017215Y013339D01*
X017086Y013180D02*
X017373Y013180D01*
X017532Y013022D02*
X017100Y013022D01*
X016739Y013814D02*
X016393Y013814D01*
X016344Y013973D02*
X016581Y013973D01*
X016422Y014131D02*
X016215Y014131D01*
X016264Y014290D02*
X015649Y014290D01*
X015616Y014209D02*
X015686Y014378D01*
X015686Y014561D01*
X015616Y014730D01*
X015487Y014859D01*
X015318Y014929D01*
X015135Y014929D01*
X014965Y014859D01*
X014468Y014362D01*
X014398Y014193D01*
X014398Y014010D01*
X014468Y013841D01*
X014598Y013712D01*
X014767Y013642D01*
X014950Y013642D01*
X015119Y013712D01*
X015616Y014209D01*
X015651Y014131D02*
X015538Y014131D01*
X015493Y013973D02*
X015380Y013973D01*
X015334Y013814D02*
X015221Y013814D01*
X015176Y013656D02*
X014983Y013656D01*
X015110Y013497D02*
X012430Y013497D01*
X012583Y013656D02*
X014733Y013656D01*
X014495Y013814D02*
X012714Y013814D01*
X012714Y013973D02*
X014414Y013973D01*
X014398Y014131D02*
X012714Y014131D01*
X012638Y014290D02*
X014438Y014290D01*
X014554Y014448D02*
X012479Y014448D01*
X012534Y014607D02*
X014713Y014607D01*
X014871Y014765D02*
X012692Y014765D01*
X012714Y014924D02*
X015120Y014924D01*
X015332Y014924D02*
X015630Y014924D01*
X015581Y014765D02*
X015788Y014765D01*
X015667Y014607D02*
X015947Y014607D01*
X016105Y014448D02*
X015686Y014448D01*
X016422Y014924D02*
X017944Y014924D01*
X017934Y014765D02*
X016580Y014765D01*
X016739Y014607D02*
X017980Y014607D01*
X018104Y014448D02*
X016897Y014448D01*
X016263Y015082D02*
X017532Y015082D01*
X017312Y015241D02*
X016105Y015241D01*
X015946Y015399D02*
X017237Y015399D01*
X017227Y015558D02*
X015879Y015558D01*
X015879Y015716D02*
X017272Y015716D01*
X017282Y015875D02*
X017395Y015875D01*
X017440Y016033D02*
X017553Y016033D01*
X017599Y016192D02*
X017712Y016192D01*
X018379Y015558D02*
X018492Y015558D01*
X018334Y015399D02*
X018220Y015399D01*
X018175Y015241D02*
X018062Y015241D01*
X018017Y015082D02*
X017841Y015082D01*
X019464Y013814D02*
X019577Y013814D01*
X019622Y013973D02*
X019736Y013973D01*
X019781Y014131D02*
X019894Y014131D01*
X019892Y014290D02*
X022459Y014290D01*
X022509Y014240D02*
X022890Y014240D01*
X023159Y014509D01*
X023159Y014891D01*
X022890Y015160D01*
X022509Y015160D01*
X022239Y014891D01*
X022239Y014509D01*
X022509Y014240D01*
X022300Y014448D02*
X019929Y014448D01*
X019964Y014607D02*
X022239Y014607D01*
X022239Y014765D02*
X019979Y014765D01*
X019979Y014924D02*
X020675Y014924D01*
X020688Y014910D02*
X020858Y014840D01*
X021041Y014840D01*
X021210Y014910D01*
X021339Y015039D01*
X021409Y015208D01*
X021409Y015391D01*
X021339Y015561D01*
X021210Y015690D01*
X021041Y015760D01*
X020858Y015760D01*
X020688Y015690D01*
X020559Y015561D01*
X020489Y015391D01*
X020489Y015208D01*
X020559Y015039D01*
X020688Y014910D01*
X020541Y015082D02*
X019979Y015082D01*
X019979Y015241D02*
X020489Y015241D01*
X020492Y015399D02*
X019979Y015399D01*
X019979Y015558D02*
X020558Y015558D01*
X020751Y015716D02*
X019979Y015716D01*
X019979Y015875D02*
X022259Y015875D01*
X022259Y015882D02*
X022259Y015700D01*
X022259Y015518D01*
X022517Y015260D01*
X022699Y015260D01*
X022699Y015700D01*
X022259Y015700D01*
X022699Y015700D01*
X022699Y015700D01*
X022699Y016140D01*
X022517Y016140D01*
X022259Y015882D01*
X022259Y015716D02*
X021147Y015716D01*
X021340Y015558D02*
X022259Y015558D01*
X022378Y015399D02*
X021406Y015399D01*
X021409Y015241D02*
X023969Y015241D01*
X023969Y015399D02*
X023020Y015399D01*
X023139Y015518D02*
X023139Y015700D01*
X023139Y015882D01*
X022881Y016140D01*
X022699Y016140D01*
X022699Y015700D01*
X022699Y015700D01*
X022699Y015700D01*
X022699Y015260D01*
X022881Y015260D01*
X023139Y015518D01*
X023139Y015558D02*
X023969Y015558D01*
X023969Y015716D02*
X023139Y015716D01*
X023139Y015700D02*
X022699Y015700D01*
X022699Y015700D01*
X023139Y015700D01*
X023139Y015875D02*
X023969Y015875D01*
X023969Y016033D02*
X022988Y016033D01*
X022699Y016033D02*
X022699Y016033D01*
X022699Y015875D02*
X022699Y015875D01*
X022699Y015716D02*
X022699Y015716D01*
X022699Y015558D02*
X022699Y015558D01*
X022699Y015399D02*
X022699Y015399D01*
X022431Y015082D02*
X021357Y015082D01*
X021223Y014924D02*
X022272Y014924D01*
X022968Y015082D02*
X023969Y015082D01*
X023969Y014924D02*
X023126Y014924D01*
X023159Y014765D02*
X023969Y014765D01*
X023969Y014607D02*
X023159Y014607D01*
X023098Y014448D02*
X023969Y014448D01*
X023969Y014290D02*
X022939Y014290D01*
X022553Y013569D02*
X022188Y013569D01*
X022059Y013440D01*
X021931Y013311D01*
X021931Y012946D01*
X022059Y012817D01*
X022188Y012689D01*
X022553Y012689D01*
X022682Y012817D01*
X022371Y013129D01*
X022682Y013440D01*
X022371Y013129D01*
X022371Y013129D01*
X022682Y012817D01*
X022810Y012946D01*
X022810Y013311D01*
X022682Y013440D01*
X022553Y013569D01*
X022624Y013497D02*
X023969Y013497D01*
X023969Y013339D02*
X022783Y013339D01*
X022810Y013180D02*
X023969Y013180D01*
X023969Y013022D02*
X022810Y013022D01*
X022887Y012881D02*
X023268Y012881D01*
X023538Y012612D01*
X023538Y012231D01*
X023268Y011961D01*
X022887Y011961D01*
X022618Y012231D01*
X022618Y012612D01*
X022887Y012881D01*
X022869Y012863D02*
X022727Y012863D01*
X022636Y012863D02*
X022636Y012863D01*
X022569Y012705D02*
X022710Y012705D01*
X022618Y012546D02*
X021983Y012546D01*
X022029Y012388D02*
X022618Y012388D01*
X022619Y012229D02*
X022014Y012229D01*
X021932Y012071D02*
X022132Y012071D01*
X021918Y011912D02*
X021776Y011912D01*
X021658Y011912D02*
X021658Y011912D01*
X021618Y011754D02*
X021759Y011754D01*
X021601Y011595D02*
X021435Y011595D01*
X021499Y011437D02*
X021159Y011437D01*
X021317Y011278D02*
X021469Y011278D01*
X021476Y011120D02*
X021495Y011120D01*
X020919Y011280D02*
X021949Y010250D01*
X021652Y009693D02*
X022915Y009693D01*
X023018Y009535D02*
X021811Y009535D01*
X021969Y009376D02*
X023646Y009376D01*
X023661Y009413D02*
X023591Y009243D01*
X023591Y009060D01*
X023661Y008891D01*
X023790Y008762D01*
X023959Y008692D01*
X024142Y008692D01*
X024311Y008762D01*
X024808Y009259D01*
X024878Y009428D01*
X024878Y009611D01*
X024808Y009780D01*
X024679Y009910D01*
X024510Y009980D01*
X024327Y009980D01*
X024158Y009910D01*
X023661Y009413D01*
X023670Y009535D02*
X023783Y009535D01*
X023828Y009693D02*
X023941Y009693D01*
X023987Y009852D02*
X024100Y009852D01*
X024119Y010010D02*
X027999Y010010D01*
X027999Y009852D02*
X024737Y009852D01*
X024845Y009693D02*
X027999Y009693D01*
X027999Y009535D02*
X024878Y009535D01*
X024857Y009376D02*
X027999Y009376D01*
X027999Y009218D02*
X025350Y009218D01*
X025386Y009202D02*
X025217Y009273D01*
X025034Y009273D01*
X024865Y009202D01*
X024368Y008705D01*
X024298Y008536D01*
X024298Y008353D01*
X024368Y008184D01*
X024497Y008055D01*
X024666Y007985D01*
X024849Y007985D01*
X025018Y008055D01*
X025516Y008552D01*
X025586Y008721D01*
X025586Y008904D01*
X025516Y009073D01*
X025386Y009202D01*
X025521Y009059D02*
X027999Y009059D01*
X027999Y008901D02*
X025586Y008901D01*
X025586Y008742D02*
X027999Y008742D01*
X027999Y008584D02*
X025529Y008584D01*
X025572Y008495D02*
X025075Y007998D01*
X025005Y007829D01*
X025005Y007646D01*
X025075Y007477D01*
X025204Y007348D01*
X025373Y007278D01*
X025556Y007278D01*
X025726Y007348D01*
X026223Y007845D01*
X026293Y008014D01*
X026293Y008197D01*
X026223Y008366D01*
X026093Y008495D01*
X025924Y008565D01*
X025741Y008565D01*
X025572Y008495D01*
X025502Y008425D02*
X025389Y008425D01*
X025343Y008267D02*
X025230Y008267D01*
X025185Y008108D02*
X025072Y008108D01*
X025055Y007950D02*
X023396Y007950D01*
X023237Y008108D02*
X024444Y008108D01*
X024334Y008267D02*
X023079Y008267D01*
X022920Y008425D02*
X024298Y008425D01*
X024317Y008584D02*
X022762Y008584D01*
X022603Y008742D02*
X023838Y008742D01*
X023657Y008901D02*
X022445Y008901D01*
X022286Y009059D02*
X023591Y009059D01*
X023591Y009218D02*
X022128Y009218D01*
X021653Y008901D02*
X021343Y008901D01*
X021343Y008904D02*
X021273Y009073D01*
X021143Y009202D01*
X020974Y009273D01*
X020791Y009273D01*
X020622Y009202D01*
X020125Y008705D01*
X020055Y008536D01*
X020055Y008353D01*
X020125Y008184D01*
X020255Y008055D01*
X020424Y007985D01*
X020607Y007985D01*
X020776Y008055D01*
X021273Y008552D01*
X021343Y008721D01*
X021343Y008904D01*
X021343Y008742D02*
X021811Y008742D01*
X021682Y008565D02*
X021499Y008565D01*
X021329Y008495D01*
X020832Y007998D01*
X020762Y007829D01*
X020762Y007646D01*
X020832Y007477D01*
X020962Y007348D01*
X021131Y007278D01*
X021314Y007278D01*
X021483Y007348D01*
X021980Y007845D01*
X022050Y008014D01*
X022050Y008197D01*
X021980Y008366D01*
X021851Y008495D01*
X021682Y008565D01*
X021921Y008425D02*
X022128Y008425D01*
X022021Y008267D02*
X022287Y008267D01*
X022445Y008108D02*
X022050Y008108D01*
X022023Y007950D02*
X022604Y007950D01*
X022551Y007791D02*
X022762Y007791D01*
X022687Y007659D02*
X022757Y007490D01*
X022757Y007307D01*
X022687Y007138D01*
X022190Y006641D01*
X022021Y006571D01*
X021838Y006571D01*
X021669Y006641D01*
X021539Y006770D01*
X021469Y006939D01*
X021469Y007122D01*
X021539Y007291D01*
X022037Y007788D01*
X022206Y007858D01*
X022389Y007858D01*
X022558Y007788D01*
X022687Y007659D01*
X022698Y007633D02*
X022921Y007633D01*
X023079Y007474D02*
X022757Y007474D01*
X022757Y007316D02*
X023238Y007316D01*
X023096Y007151D02*
X022913Y007151D01*
X022744Y007081D01*
X022247Y006584D01*
X022177Y006415D01*
X022177Y006232D01*
X022247Y006063D01*
X022376Y005934D01*
X022545Y005864D01*
X022728Y005864D01*
X022897Y005934D01*
X023394Y006431D01*
X023464Y006600D01*
X023464Y006783D01*
X023394Y006952D01*
X023265Y007081D01*
X023096Y007151D01*
X023347Y006999D02*
X023555Y006999D01*
X023440Y006840D02*
X023713Y006840D01*
X023872Y006682D02*
X023464Y006682D01*
X023432Y006523D02*
X024030Y006523D01*
X023972Y006374D02*
X023803Y006444D01*
X023620Y006444D01*
X023451Y006374D01*
X022954Y005877D01*
X022884Y005708D01*
X022884Y005525D01*
X022954Y005356D01*
X023083Y005226D01*
X023252Y005156D01*
X023435Y005156D01*
X023604Y005226D01*
X024101Y005724D01*
X024171Y005893D01*
X024171Y006076D01*
X024101Y006245D01*
X023972Y006374D01*
X023981Y006365D02*
X024938Y006365D01*
X024938Y006206D02*
X024117Y006206D01*
X024171Y006048D02*
X024938Y006048D01*
X024938Y005889D02*
X024170Y005889D01*
X024104Y005731D02*
X024311Y005731D01*
X024327Y005737D02*
X024158Y005667D01*
X023661Y005170D01*
X023591Y005001D01*
X023591Y004818D01*
X023661Y004649D01*
X023790Y004519D01*
X023959Y004449D01*
X024142Y004449D01*
X024311Y004519D01*
X024808Y005016D01*
X024878Y005185D01*
X024878Y005368D01*
X024808Y005538D01*
X024679Y005667D01*
X024510Y005737D01*
X024327Y005737D01*
X024526Y005731D02*
X024938Y005731D01*
X024938Y005572D02*
X024774Y005572D01*
X024860Y005414D02*
X024938Y005414D01*
X024938Y005255D02*
X024878Y005255D01*
X024842Y005097D02*
X024938Y005097D01*
X024938Y004938D02*
X024730Y004938D01*
X024571Y004780D02*
X024938Y004780D01*
X024970Y004621D02*
X024413Y004621D01*
X024174Y004463D02*
X025118Y004463D01*
X025276Y004304D02*
X024284Y004304D01*
X024377Y004146D02*
X025435Y004146D01*
X025593Y003987D02*
X024377Y003987D01*
X024377Y003829D02*
X025038Y003829D01*
X025855Y004463D02*
X027999Y004463D01*
X027999Y004621D02*
X025697Y004621D01*
X025538Y004780D02*
X027999Y004780D01*
X027999Y004938D02*
X025460Y004938D01*
X025460Y005097D02*
X027999Y005097D01*
X027999Y005255D02*
X025460Y005255D01*
X025460Y005414D02*
X027999Y005414D01*
X027999Y005572D02*
X025460Y005572D01*
X025460Y005731D02*
X027999Y005731D01*
X027999Y005889D02*
X025460Y005889D01*
X025460Y006048D02*
X027999Y006048D01*
X027999Y006206D02*
X025460Y006206D01*
X025460Y006365D02*
X027999Y006365D01*
X027999Y006523D02*
X025577Y006523D01*
X025577Y006682D02*
X025871Y006682D01*
X025911Y006641D02*
X026081Y006571D01*
X026264Y006571D01*
X026433Y006641D01*
X026930Y007138D01*
X027000Y007307D01*
X027000Y007490D01*
X026930Y007659D01*
X026800Y007788D01*
X026631Y007858D01*
X026448Y007858D01*
X026279Y007788D01*
X025782Y007291D01*
X025712Y007122D01*
X025712Y006939D01*
X025782Y006770D01*
X025911Y006641D01*
X025753Y006840D02*
X025577Y006840D01*
X025577Y006999D02*
X025712Y006999D01*
X025727Y007157D02*
X024188Y007157D01*
X024030Y007316D02*
X025282Y007316D01*
X025078Y007474D02*
X023871Y007474D01*
X023713Y007633D02*
X025011Y007633D01*
X025005Y007791D02*
X023554Y007791D01*
X023396Y007157D02*
X022695Y007157D01*
X022661Y006999D02*
X022548Y006999D01*
X022502Y006840D02*
X022389Y006840D01*
X022344Y006682D02*
X022231Y006682D01*
X022221Y006523D02*
X017950Y006523D01*
X018063Y006365D02*
X018335Y006365D01*
X018109Y006682D02*
X021628Y006682D01*
X021510Y006840D02*
X018214Y006840D01*
X018214Y006999D02*
X021469Y006999D01*
X021484Y007157D02*
X018214Y007157D01*
X018112Y007316D02*
X021040Y007316D01*
X020835Y007474D02*
X019502Y007474D01*
X019539Y007510D02*
X019228Y007821D01*
X019228Y007821D01*
X019539Y007510D01*
X019410Y007381D01*
X019045Y007381D01*
X018916Y007510D01*
X019228Y007821D01*
X018916Y007510D01*
X018788Y007639D01*
X018788Y008004D01*
X018916Y008133D01*
X019228Y007821D01*
X019228Y007821D01*
X019228Y007821D01*
X019539Y008133D01*
X019410Y008261D01*
X019045Y008261D01*
X018916Y008133D01*
X019228Y007821D01*
X019539Y008133D01*
X019668Y008004D01*
X019668Y007639D01*
X019539Y007510D01*
X019661Y007633D02*
X020768Y007633D01*
X020762Y007791D02*
X019668Y007791D01*
X019668Y007950D02*
X020812Y007950D01*
X020829Y008108D02*
X020942Y008108D01*
X020987Y008267D02*
X021101Y008267D01*
X021146Y008425D02*
X021259Y008425D01*
X021286Y008584D02*
X021970Y008584D01*
X021494Y009059D02*
X021279Y009059D01*
X021336Y009218D02*
X021107Y009218D01*
X021177Y009376D02*
X020592Y009376D01*
X020584Y009351D02*
X020605Y009417D01*
X020616Y009485D01*
X020616Y009554D01*
X020605Y009623D01*
X020584Y009689D01*
X020552Y009750D01*
X020511Y009806D01*
X020487Y009831D01*
X020462Y009855D01*
X020406Y009896D01*
X020345Y009927D01*
X020279Y009949D01*
X020210Y009960D01*
X020141Y009960D01*
X020073Y009949D01*
X020007Y009927D01*
X019945Y009896D01*
X019889Y009855D01*
X019681Y009647D01*
X019992Y009336D01*
X020487Y009831D01*
X019992Y009336D01*
X019992Y009336D01*
X019992Y009336D01*
X019681Y009647D01*
X019472Y009439D01*
X019432Y009383D01*
X019400Y009321D01*
X019379Y009255D01*
X019368Y009187D01*
X019368Y009117D01*
X019379Y009049D01*
X019400Y008983D01*
X019432Y008921D01*
X019472Y008865D01*
X019497Y008841D01*
X019992Y009336D01*
X020303Y009025D01*
X020511Y009233D01*
X020552Y009289D01*
X020584Y009351D01*
X020659Y009218D02*
X020496Y009218D01*
X020479Y009059D02*
X020337Y009059D01*
X020303Y009025D02*
X019992Y009336D01*
X019992Y009336D01*
X019992Y009336D01*
X019497Y008841D01*
X019521Y008816D01*
X019577Y008776D01*
X019639Y008744D01*
X019705Y008723D01*
X019773Y008712D01*
X019843Y008712D01*
X019911Y008723D01*
X019977Y008744D01*
X020039Y008776D01*
X020095Y008816D01*
X020303Y009025D01*
X020269Y009059D02*
X020269Y009059D01*
X020320Y008901D02*
X020179Y008901D01*
X020162Y008742D02*
X019970Y008742D01*
X020075Y008584D02*
X018980Y008584D01*
X018980Y008425D02*
X020055Y008425D01*
X020091Y008267D02*
X018909Y008267D01*
X018892Y008108D02*
X018750Y008108D01*
X018788Y007950D02*
X018214Y007950D01*
X018214Y008108D02*
X018291Y008108D01*
X018214Y007791D02*
X018788Y007791D01*
X018794Y007633D02*
X018060Y007633D01*
X017953Y007474D02*
X018953Y007474D01*
X019039Y007633D02*
X019039Y007633D01*
X019197Y007791D02*
X019197Y007791D01*
X019228Y007821D02*
X019228Y007821D01*
X019258Y007791D02*
X019258Y007791D01*
X019356Y007950D02*
X019356Y007950D01*
X019514Y008108D02*
X019514Y008108D01*
X019563Y008108D02*
X020201Y008108D01*
X019646Y008742D02*
X018958Y008742D01*
X018799Y008901D02*
X019447Y008901D01*
X019557Y008901D02*
X019557Y008901D01*
X019715Y009059D02*
X019715Y009059D01*
X019874Y009218D02*
X019874Y009218D01*
X019952Y009376D02*
X019952Y009376D01*
X020032Y009376D02*
X020032Y009376D01*
X020110Y009218D02*
X020110Y009218D01*
X020191Y009535D02*
X020191Y009535D01*
X020349Y009693D02*
X020349Y009693D01*
X020466Y009852D02*
X020702Y009852D01*
X020581Y009693D02*
X020860Y009693D01*
X021019Y009535D02*
X020616Y009535D01*
X019885Y009852D02*
X019744Y009852D01*
X019727Y009693D02*
X019586Y009693D01*
X019568Y009535D02*
X019427Y009535D01*
X019362Y009469D02*
X019192Y009399D01*
X019009Y009399D01*
X018840Y009469D01*
X018711Y009598D01*
X018641Y009768D01*
X018641Y009951D01*
X018711Y010120D01*
X019208Y010617D01*
X019377Y010687D01*
X019560Y010687D01*
X019729Y010617D01*
X019859Y010487D01*
X019929Y010318D01*
X019929Y010135D01*
X019859Y009966D01*
X019362Y009469D01*
X019428Y009376D02*
X018051Y009376D01*
X017962Y009535D02*
X018775Y009535D01*
X018672Y009693D02*
X018120Y009693D01*
X018214Y009852D02*
X018641Y009852D01*
X018666Y010010D02*
X018214Y010010D01*
X018636Y010169D02*
X018760Y010169D01*
X018805Y010327D02*
X018918Y010327D01*
X018964Y010486D02*
X019077Y010486D01*
X019122Y010644D02*
X019274Y010644D01*
X019663Y010644D02*
X019909Y010644D01*
X019859Y010486D02*
X020068Y010486D01*
X019925Y010327D02*
X020226Y010327D01*
X020385Y010169D02*
X019929Y010169D01*
X019877Y010010D02*
X020543Y010010D01*
X019793Y009535D02*
X019793Y009535D01*
X019373Y009218D02*
X018210Y009218D01*
X018214Y009059D02*
X019377Y009059D01*
X018941Y008108D02*
X018941Y008108D01*
X019100Y007950D02*
X019100Y007950D01*
X019417Y007633D02*
X019417Y007633D01*
X019063Y006365D02*
X022177Y006365D01*
X022187Y006206D02*
X019214Y006206D01*
X019214Y006048D02*
X022262Y006048D01*
X022483Y005889D02*
X019214Y005889D01*
X019158Y005731D02*
X022893Y005731D01*
X022884Y005572D02*
X018999Y005572D01*
X018986Y005414D02*
X022930Y005414D01*
X023054Y005255D02*
X019144Y005255D01*
X019194Y005097D02*
X023630Y005097D01*
X023633Y005255D02*
X023746Y005255D01*
X023791Y005414D02*
X023904Y005414D01*
X023950Y005572D02*
X024063Y005572D01*
X023591Y004938D02*
X019194Y004938D01*
X019194Y005000D02*
X019194Y004795D01*
X018904Y004505D01*
X018699Y004505D01*
X018699Y005000D01*
X018699Y005000D01*
X019194Y005000D01*
X019179Y004780D02*
X023607Y004780D01*
X023688Y004621D02*
X019020Y004621D01*
X018699Y004621D02*
X018699Y004621D01*
X018699Y004780D02*
X018699Y004780D01*
X018699Y004938D02*
X018699Y004938D01*
X018378Y004621D02*
X018048Y004621D01*
X018207Y004780D02*
X018220Y004780D01*
X017350Y004621D02*
X017048Y004621D01*
X016350Y004621D02*
X016048Y004621D01*
X015350Y004621D02*
X015048Y004621D01*
X014350Y004621D02*
X014048Y004621D01*
X013350Y004621D02*
X013048Y004621D01*
X012350Y004621D02*
X012048Y004621D01*
X011350Y004621D02*
X011048Y004621D01*
X010350Y004621D02*
X010048Y004621D01*
X009350Y004621D02*
X009048Y004621D01*
X008350Y004621D02*
X008048Y004621D01*
X007350Y004621D02*
X002729Y004621D01*
X002729Y004720D02*
X002449Y005000D01*
X002729Y005280D01*
X002729Y005480D01*
X002219Y005480D01*
X002219Y004520D01*
X002179Y004520D01*
X002179Y004480D01*
X001669Y004480D01*
X001669Y004280D01*
X001935Y004014D01*
X001649Y003728D01*
X001649Y003272D01*
X001921Y003000D01*
X001649Y002728D01*
X001649Y002272D01*
X001921Y002000D01*
X001649Y001728D01*
X001649Y001272D01*
X001971Y000950D01*
X002427Y000950D01*
X002749Y001272D01*
X002749Y001728D01*
X002477Y002000D01*
X002749Y002272D01*
X002749Y002728D01*
X002477Y003000D01*
X002749Y003272D01*
X002749Y003728D01*
X002463Y004014D01*
X002729Y004280D01*
X002729Y004480D01*
X002219Y004480D01*
X002219Y004520D01*
X002729Y004520D01*
X002729Y004720D01*
X002669Y004780D02*
X007191Y004780D01*
X007184Y004938D02*
X002511Y004938D01*
X002545Y005097D02*
X007184Y005097D01*
X007226Y005255D02*
X002704Y005255D01*
X002729Y005414D02*
X007384Y005414D01*
X007399Y005572D02*
X005168Y005572D01*
X005380Y005731D02*
X007240Y005731D01*
X007184Y005889D02*
X005451Y005889D01*
X005499Y006048D02*
X007184Y006048D01*
X007184Y006206D02*
X005658Y006206D01*
X005816Y006365D02*
X006462Y006365D01*
X006304Y006523D02*
X005975Y006523D01*
X006133Y006682D02*
X006259Y006682D01*
X006250Y006840D02*
X006259Y006840D01*
X006269Y006999D02*
X006325Y006999D01*
X006269Y007157D02*
X006484Y007157D01*
X006699Y007157D02*
X006699Y007157D01*
X006699Y007190D02*
X006699Y006750D01*
X006699Y006750D01*
X006699Y006750D01*
X006699Y006310D01*
X006881Y006310D01*
X007139Y006568D01*
X007139Y006750D01*
X007139Y006932D01*
X006881Y007190D01*
X006699Y007190D01*
X006699Y006999D02*
X006699Y006999D01*
X006699Y006840D02*
X006699Y006840D01*
X006699Y006750D02*
X007139Y006750D01*
X006699Y006750D01*
X006699Y006750D01*
X006699Y006682D02*
X006699Y006682D01*
X006699Y006523D02*
X006699Y006523D01*
X006699Y006365D02*
X006699Y006365D01*
X006936Y006365D02*
X007335Y006365D01*
X007448Y006523D02*
X007094Y006523D01*
X007139Y006682D02*
X007289Y006682D01*
X007184Y006840D02*
X007139Y006840D01*
X007184Y006999D02*
X007073Y006999D01*
X007184Y007157D02*
X006914Y007157D01*
X007286Y007316D02*
X006269Y007316D01*
X006269Y007474D02*
X007445Y007474D01*
X007338Y007633D02*
X006269Y007633D01*
X006269Y007791D02*
X007184Y007791D01*
X007184Y007950D02*
X006269Y007950D01*
X006269Y008108D02*
X007184Y008108D01*
X007237Y008267D02*
X006269Y008267D01*
X006269Y008425D02*
X007396Y008425D01*
X007387Y008584D02*
X006269Y008584D01*
X006269Y008742D02*
X007229Y008742D01*
X007184Y008901D02*
X006269Y008901D01*
X006269Y009059D02*
X007184Y009059D01*
X007188Y009218D02*
X006269Y009218D01*
X006269Y009376D02*
X006423Y009376D01*
X006976Y009376D02*
X007347Y009376D01*
X007436Y009535D02*
X007134Y009535D01*
X007159Y009693D02*
X007278Y009693D01*
X007184Y009852D02*
X007159Y009852D01*
X007184Y010010D02*
X007090Y010010D01*
X007184Y010169D02*
X006931Y010169D01*
X007298Y010327D02*
X006269Y010327D01*
X006269Y010169D02*
X006467Y010169D01*
X006309Y010010D02*
X006269Y010010D01*
X006269Y010486D02*
X007456Y010486D01*
X006405Y010644D02*
X006269Y010644D01*
X005629Y010644D02*
X005080Y010644D01*
X005104Y010587D02*
X005037Y010747D01*
X004915Y010870D01*
X004889Y010880D01*
X005032Y010939D01*
X005213Y011120D01*
X005310Y011356D01*
X005310Y011612D01*
X005213Y011848D01*
X005085Y011976D01*
X005213Y012104D01*
X005310Y012341D01*
X005310Y012596D01*
X005213Y012833D01*
X005032Y013014D01*
X004795Y013111D01*
X004540Y013111D01*
X004303Y013014D01*
X004123Y012833D01*
X004025Y012596D01*
X004025Y012341D01*
X004123Y012104D01*
X004250Y011976D01*
X004123Y011848D01*
X004025Y011612D01*
X004025Y011356D01*
X004123Y011120D01*
X004303Y010939D01*
X004446Y010880D01*
X004420Y010870D01*
X004298Y010747D01*
X004231Y010587D01*
X004231Y010413D01*
X004298Y010253D01*
X004420Y010130D01*
X004446Y010120D01*
X004303Y010061D01*
X004123Y009880D01*
X004025Y009644D01*
X004025Y009388D01*
X004123Y009152D01*
X004250Y009024D01*
X004123Y008896D01*
X004025Y008659D01*
X004025Y008404D01*
X004123Y008167D01*
X004303Y007986D01*
X004540Y007889D01*
X004795Y007889D01*
X005032Y007986D01*
X005213Y008167D01*
X005310Y008404D01*
X005310Y008659D01*
X005213Y008896D01*
X005085Y009024D01*
X005213Y009152D01*
X005310Y009388D01*
X005310Y009644D01*
X005213Y009880D01*
X005032Y010061D01*
X004889Y010120D01*
X004915Y010130D01*
X005037Y010253D01*
X005104Y010413D01*
X005104Y010587D01*
X005104Y010486D02*
X005629Y010486D01*
X005629Y010327D02*
X005068Y010327D01*
X004953Y010169D02*
X005629Y010169D01*
X005629Y010010D02*
X005083Y010010D01*
X005224Y009852D02*
X005629Y009852D01*
X005629Y009693D02*
X005290Y009693D01*
X005310Y009535D02*
X005629Y009535D01*
X005629Y009376D02*
X005306Y009376D01*
X005240Y009218D02*
X005629Y009218D01*
X005629Y009059D02*
X005120Y009059D01*
X005208Y008901D02*
X005629Y008901D01*
X005629Y008742D02*
X005276Y008742D01*
X005310Y008584D02*
X005629Y008584D01*
X005629Y008425D02*
X005310Y008425D01*
X005254Y008267D02*
X005629Y008267D01*
X005629Y008108D02*
X005153Y008108D01*
X004943Y007950D02*
X005629Y007950D01*
X005629Y007791D02*
X001399Y007791D01*
X001399Y007633D02*
X005629Y007633D01*
X005629Y007474D02*
X001399Y007474D01*
X001399Y007316D02*
X005629Y007316D01*
X005629Y007157D02*
X001399Y007157D01*
X001399Y006999D02*
X001920Y006999D01*
X001971Y007050D02*
X001649Y006728D01*
X001649Y006272D01*
X001935Y005986D01*
X001669Y005720D01*
X001669Y005520D01*
X002179Y005520D01*
X002179Y005480D01*
X001669Y005480D01*
X001669Y005280D01*
X001950Y005000D01*
X001669Y004720D01*
X001669Y004520D01*
X002179Y004520D01*
X002179Y005030D01*
X002179Y005480D01*
X002219Y005480D01*
X002219Y005520D01*
X002729Y005520D01*
X002729Y005720D01*
X002463Y005986D01*
X002749Y006272D01*
X002749Y006728D01*
X002427Y007050D01*
X001971Y007050D01*
X001761Y006840D02*
X001399Y006840D01*
X001399Y006682D02*
X001649Y006682D01*
X001649Y006523D02*
X001399Y006523D01*
X001399Y006365D02*
X001649Y006365D01*
X001715Y006206D02*
X001399Y006206D01*
X001399Y006048D02*
X001874Y006048D01*
X001839Y005889D02*
X001399Y005889D01*
X001399Y005731D02*
X001680Y005731D01*
X001669Y005572D02*
X001399Y005572D01*
X001399Y005414D02*
X001669Y005414D01*
X001695Y005255D02*
X001399Y005255D01*
X001399Y005097D02*
X001853Y005097D01*
X001888Y004938D02*
X001399Y004938D01*
X001399Y004780D02*
X001729Y004780D01*
X001669Y004621D02*
X001399Y004621D01*
X001399Y004463D02*
X001669Y004463D01*
X001669Y004304D02*
X001399Y004304D01*
X001399Y004146D02*
X001804Y004146D01*
X001908Y003987D02*
X001399Y003987D01*
X001399Y003829D02*
X001750Y003829D01*
X001649Y003670D02*
X001399Y003670D01*
X001399Y003512D02*
X001649Y003512D01*
X001649Y003353D02*
X001399Y003353D01*
X001399Y003195D02*
X001727Y003195D01*
X001885Y003036D02*
X001399Y003036D01*
X001399Y002878D02*
X001799Y002878D01*
X001649Y002719D02*
X001399Y002719D01*
X001399Y002561D02*
X001649Y002561D01*
X001649Y002402D02*
X001399Y002402D01*
X001399Y002244D02*
X001678Y002244D01*
X001836Y002085D02*
X001399Y002085D01*
X001399Y001927D02*
X001848Y001927D01*
X001689Y001768D02*
X001399Y001768D01*
X001399Y001610D02*
X001649Y001610D01*
X001649Y001451D02*
X001399Y001451D01*
X001399Y001293D02*
X001649Y001293D01*
X001787Y001134D02*
X001399Y001134D01*
X001399Y000976D02*
X001946Y000976D01*
X002452Y000976D02*
X006050Y000976D01*
X005952Y001134D02*
X005534Y001134D01*
X005440Y001040D02*
X005709Y001309D01*
X005709Y001691D01*
X005440Y001960D01*
X005059Y001960D01*
X004789Y001691D01*
X004789Y001309D01*
X005059Y001040D01*
X005440Y001040D01*
X005692Y001293D02*
X005887Y001293D01*
X005869Y001451D02*
X005709Y001451D01*
X005709Y001610D02*
X005869Y001610D01*
X005912Y001768D02*
X005632Y001768D01*
X005473Y001927D02*
X005977Y001927D01*
X006110Y002085D02*
X002562Y002085D01*
X002550Y001927D02*
X004053Y001927D01*
X004067Y001940D02*
X003809Y001682D01*
X003809Y001500D01*
X004249Y001500D01*
X003809Y001500D01*
X003809Y001318D01*
X004067Y001060D01*
X004249Y001060D01*
X004249Y001500D01*
X004249Y001500D01*
X004249Y001500D01*
X004249Y001940D01*
X004067Y001940D01*
X004249Y001940D02*
X004431Y001940D01*
X004689Y001682D01*
X004689Y001500D01*
X004249Y001500D01*
X004249Y001500D01*
X004249Y001060D01*
X004431Y001060D01*
X004689Y001318D01*
X004689Y001500D01*
X004249Y001500D01*
X004249Y001940D01*
X004249Y001927D02*
X004249Y001927D01*
X004249Y001768D02*
X004249Y001768D01*
X004249Y001610D02*
X004249Y001610D01*
X004249Y001500D02*
X004249Y001500D01*
X004249Y001451D02*
X004249Y001451D01*
X004249Y001293D02*
X004249Y001293D01*
X004249Y001134D02*
X004249Y001134D01*
X003993Y001134D02*
X002611Y001134D01*
X002749Y001293D02*
X003834Y001293D01*
X003809Y001451D02*
X002749Y001451D01*
X002749Y001610D02*
X003809Y001610D01*
X003895Y001768D02*
X002709Y001768D01*
X002720Y002244D02*
X006325Y002244D01*
X007073Y002244D02*
X017266Y002244D01*
X017171Y002402D02*
X002749Y002402D01*
X002749Y002561D02*
X004988Y002561D01*
X004830Y002719D02*
X002749Y002719D01*
X002599Y002878D02*
X003682Y002878D01*
X003571Y003036D02*
X002513Y003036D01*
X002671Y003195D02*
X003571Y003195D01*
X003571Y003353D02*
X002749Y003353D01*
X002749Y003512D02*
X003571Y003512D01*
X003540Y003670D02*
X002749Y003670D01*
X002648Y003829D02*
X003521Y003829D01*
X003521Y003987D02*
X002490Y003987D01*
X002594Y004146D02*
X003521Y004146D01*
X003614Y004304D02*
X002729Y004304D01*
X002729Y004463D02*
X023927Y004463D01*
X023714Y004304D02*
X004184Y004304D01*
X004277Y004211D02*
X004277Y004211D01*
X004327Y003195D02*
X004743Y003195D01*
X004739Y003036D02*
X004327Y003036D01*
X004216Y002878D02*
X004739Y002878D01*
X005410Y002561D02*
X007988Y002561D01*
X007830Y002719D02*
X005569Y002719D01*
X005659Y002878D02*
X007739Y002878D01*
X007739Y003036D02*
X005659Y003036D01*
X005655Y003195D02*
X007743Y003195D01*
X008655Y003195D02*
X008743Y003195D01*
X008739Y003036D02*
X008659Y003036D01*
X008659Y002878D02*
X008739Y002878D01*
X008830Y002719D02*
X008569Y002719D01*
X008410Y002561D02*
X008988Y002561D01*
X009410Y002561D02*
X011988Y002561D01*
X011830Y002719D02*
X009569Y002719D01*
X009659Y002878D02*
X011739Y002878D01*
X011739Y003036D02*
X009659Y003036D01*
X009655Y003195D02*
X011743Y003195D01*
X012655Y003195D02*
X012743Y003195D01*
X012739Y003036D02*
X012659Y003036D01*
X012659Y002878D02*
X012739Y002878D01*
X012830Y002719D02*
X012569Y002719D01*
X012410Y002561D02*
X012988Y002561D01*
X013410Y002561D02*
X015988Y002561D01*
X015830Y002719D02*
X013569Y002719D01*
X013659Y002878D02*
X015739Y002878D01*
X015739Y003036D02*
X013659Y003036D01*
X013655Y003195D02*
X015743Y003195D01*
X016655Y003195D02*
X016821Y003195D01*
X016821Y003036D02*
X016659Y003036D01*
X016659Y002878D02*
X016832Y002878D01*
X016569Y002719D02*
X017171Y002719D01*
X017171Y002561D02*
X016410Y002561D01*
X016419Y002030D02*
X015980Y002030D01*
X015699Y001750D01*
X015419Y002030D01*
X014980Y002030D01*
X014699Y001750D01*
X014419Y002030D01*
X013980Y002030D01*
X013709Y001759D01*
X013682Y001823D01*
X013522Y001983D01*
X013312Y002070D01*
X013086Y002070D01*
X012876Y001983D01*
X012716Y001823D01*
X012699Y001782D01*
X012682Y001823D01*
X012522Y001983D01*
X012312Y002070D01*
X012086Y002070D01*
X011876Y001983D01*
X011716Y001823D01*
X011629Y001613D01*
X011629Y001387D01*
X011716Y001177D01*
X011876Y001017D01*
X012086Y000930D01*
X012312Y000930D01*
X012522Y001017D01*
X012682Y001177D01*
X012699Y001218D01*
X012716Y001177D01*
X012876Y001017D01*
X013086Y000930D01*
X013312Y000930D01*
X013522Y001017D01*
X013682Y001177D01*
X013709Y001241D01*
X013980Y000970D01*
X014419Y000970D01*
X014699Y001250D01*
X014980Y000970D01*
X015419Y000970D01*
X015699Y001250D01*
X015980Y000970D01*
X016419Y000970D01*
X016713Y001265D01*
X016988Y000990D01*
X017181Y000990D01*
X017181Y001482D01*
X017217Y001482D01*
X017217Y000990D01*
X017410Y000990D01*
X017699Y001279D01*
X017988Y000990D01*
X018181Y000990D01*
X018181Y001482D01*
X017217Y001482D01*
X017217Y001518D01*
X017181Y001518D01*
X017181Y002010D01*
X016988Y002010D01*
X016713Y001735D01*
X016419Y002030D01*
X016522Y001927D02*
X016904Y001927D01*
X016746Y001768D02*
X016681Y001768D01*
X017181Y001768D02*
X017217Y001768D01*
X017217Y001610D02*
X017181Y001610D01*
X017217Y001518D02*
X017217Y002010D01*
X017410Y002010D01*
X017699Y001721D01*
X017988Y002010D01*
X018181Y002010D01*
X018181Y001518D01*
X018181Y001482D01*
X018217Y001482D01*
X018217Y000990D01*
X018410Y000990D01*
X018685Y001265D01*
X018980Y000970D01*
X019419Y000970D01*
X019729Y001280D01*
X019729Y001720D01*
X019419Y002030D01*
X018980Y002030D01*
X018685Y001735D01*
X018410Y002010D01*
X018217Y002010D01*
X018217Y001518D01*
X018181Y001518D01*
X017709Y001518D01*
X017217Y001518D01*
X017217Y001451D02*
X017181Y001451D01*
X017181Y001293D02*
X017217Y001293D01*
X017217Y001134D02*
X017181Y001134D01*
X016844Y001134D02*
X016583Y001134D01*
X016424Y000976D02*
X018974Y000976D01*
X018816Y001134D02*
X018554Y001134D01*
X018217Y001134D02*
X018181Y001134D01*
X018181Y001293D02*
X018217Y001293D01*
X018217Y001451D02*
X018181Y001451D01*
X018217Y001482D02*
X018217Y001518D01*
X018669Y001518D01*
X018669Y001482D01*
X018217Y001482D01*
X018217Y001610D02*
X018181Y001610D01*
X018181Y001768D02*
X018217Y001768D01*
X018217Y001927D02*
X018181Y001927D01*
X017904Y001927D02*
X017494Y001927D01*
X017652Y001768D02*
X017746Y001768D01*
X017832Y002244D02*
X019416Y002244D01*
X019699Y002600D02*
X017549Y002600D01*
X017217Y001927D02*
X017181Y001927D01*
X017554Y001134D02*
X017844Y001134D01*
X018494Y001927D02*
X018876Y001927D01*
X018718Y001768D02*
X018652Y001768D01*
X019522Y001927D02*
X020876Y001927D01*
X020836Y002085D02*
X007288Y002085D01*
X007421Y001927D02*
X008319Y001927D01*
X008376Y001983D02*
X008216Y001823D01*
X008129Y001613D01*
X008129Y001387D01*
X008216Y001177D01*
X008376Y001017D01*
X008586Y000930D01*
X008812Y000930D01*
X009022Y001017D01*
X009182Y001177D01*
X009199Y001218D01*
X009216Y001177D01*
X009376Y001017D01*
X009586Y000930D01*
X009812Y000930D01*
X010022Y001017D01*
X010182Y001177D01*
X010199Y001218D01*
X010216Y001177D01*
X010376Y001017D01*
X010586Y000930D01*
X010812Y000930D01*
X011022Y001017D01*
X011182Y001177D01*
X011269Y001387D01*
X011269Y001613D01*
X011182Y001823D01*
X011022Y001983D01*
X010812Y002070D01*
X010586Y002070D01*
X010376Y001983D01*
X010216Y001823D01*
X010199Y001782D01*
X010182Y001823D01*
X010022Y001983D01*
X009812Y002070D01*
X009586Y002070D01*
X009376Y001983D01*
X009216Y001823D01*
X009199Y001782D01*
X009182Y001823D01*
X009022Y001983D01*
X008812Y002070D01*
X008586Y002070D01*
X008376Y001983D01*
X008193Y001768D02*
X007486Y001768D01*
X007529Y001610D02*
X008129Y001610D01*
X008129Y001451D02*
X007529Y001451D01*
X007511Y001293D02*
X008168Y001293D01*
X008259Y001134D02*
X007446Y001134D01*
X007348Y000976D02*
X008476Y000976D01*
X008922Y000976D02*
X009476Y000976D01*
X009259Y001134D02*
X009139Y001134D01*
X009922Y000976D02*
X010476Y000976D01*
X010259Y001134D02*
X010139Y001134D01*
X010079Y001927D02*
X010319Y001927D01*
X011079Y001927D02*
X011819Y001927D01*
X011693Y001768D02*
X011205Y001768D01*
X011269Y001610D02*
X011629Y001610D01*
X011629Y001451D02*
X011269Y001451D01*
X011230Y001293D02*
X011668Y001293D01*
X011759Y001134D02*
X011139Y001134D01*
X010922Y000976D02*
X011976Y000976D01*
X012422Y000976D02*
X012976Y000976D01*
X012759Y001134D02*
X012639Y001134D01*
X012579Y001927D02*
X012819Y001927D01*
X013579Y001927D02*
X013876Y001927D01*
X013718Y001768D02*
X013705Y001768D01*
X013639Y001134D02*
X013816Y001134D01*
X013974Y000976D02*
X013422Y000976D01*
X014424Y000976D02*
X014974Y000976D01*
X014816Y001134D02*
X014583Y001134D01*
X014681Y001768D02*
X014718Y001768D01*
X014876Y001927D02*
X014522Y001927D01*
X015522Y001927D02*
X015876Y001927D01*
X015718Y001768D02*
X015681Y001768D01*
X015583Y001134D02*
X015816Y001134D01*
X015974Y000976D02*
X015424Y000976D01*
X019424Y000976D02*
X020974Y000976D01*
X020816Y001134D02*
X019583Y001134D01*
X019729Y001293D02*
X020669Y001293D01*
X020669Y001451D02*
X019729Y001451D01*
X019729Y001610D02*
X020669Y001610D01*
X020718Y001768D02*
X019681Y001768D01*
X019982Y002244D02*
X020678Y002244D01*
X020649Y002402D02*
X020077Y002402D01*
X020077Y002561D02*
X020649Y002561D01*
X020649Y002719D02*
X020077Y002719D01*
X020061Y002878D02*
X020799Y002878D01*
X021583Y001134D02*
X021816Y001134D01*
X021974Y000976D02*
X021424Y000976D01*
X022424Y000976D02*
X022974Y000976D01*
X022816Y001134D02*
X022583Y001134D01*
X023424Y000976D02*
X023974Y000976D01*
X023816Y001134D02*
X023583Y001134D01*
X024424Y000976D02*
X024974Y000976D01*
X024816Y001134D02*
X024583Y001134D01*
X025424Y000976D02*
X025974Y000976D01*
X025816Y001134D02*
X025583Y001134D01*
X026424Y000976D02*
X026999Y000976D01*
X026999Y001134D02*
X026583Y001134D01*
X026729Y001293D02*
X026999Y001293D01*
X026999Y001451D02*
X026729Y001451D01*
X026729Y001610D02*
X027026Y001610D01*
X027184Y001768D02*
X026681Y001768D01*
X026522Y001927D02*
X027343Y001927D01*
X027501Y002085D02*
X026562Y002085D01*
X026720Y002244D02*
X027660Y002244D01*
X027818Y002402D02*
X026749Y002402D01*
X026749Y002561D02*
X027977Y002561D01*
X027999Y002719D02*
X027482Y002719D01*
X027750Y002878D02*
X027999Y002878D01*
X027999Y003036D02*
X027905Y003036D01*
X027971Y003195D02*
X027999Y003195D01*
X027999Y003829D02*
X027961Y003829D01*
X027999Y003987D02*
X027886Y003987D01*
X027999Y004146D02*
X027727Y004146D01*
X027999Y004304D02*
X027427Y004304D01*
X026971Y004304D02*
X026014Y004304D01*
X026172Y004146D02*
X026671Y004146D01*
X026512Y003987D02*
X026331Y003987D01*
X026412Y003195D02*
X026427Y003195D01*
X026441Y003036D02*
X026493Y003036D01*
X026599Y002878D02*
X026648Y002878D01*
X026749Y002719D02*
X026916Y002719D01*
X026999Y000817D02*
X007190Y000817D01*
X006208Y000817D02*
X001399Y000817D01*
X004505Y001134D02*
X004965Y001134D01*
X004806Y001293D02*
X004664Y001293D01*
X004689Y001451D02*
X004789Y001451D01*
X004789Y001610D02*
X004689Y001610D01*
X004603Y001768D02*
X004867Y001768D01*
X005025Y001927D02*
X004445Y001927D01*
X002219Y004621D02*
X002179Y004621D01*
X002179Y004780D02*
X002219Y004780D01*
X002219Y004938D02*
X002179Y004938D01*
X002179Y005097D02*
X002219Y005097D01*
X002219Y005255D02*
X002179Y005255D01*
X002179Y005414D02*
X002219Y005414D01*
X002729Y005572D02*
X003805Y005572D01*
X003817Y005560D02*
X003999Y005560D01*
X003999Y006000D01*
X003559Y006000D01*
X003999Y006000D01*
X003999Y006000D01*
X003999Y006000D01*
X003999Y006440D01*
X003817Y006440D01*
X003559Y006182D01*
X003559Y006000D01*
X003559Y005818D01*
X003817Y005560D01*
X003999Y005560D02*
X004181Y005560D01*
X004439Y005818D01*
X004439Y006000D01*
X004439Y006182D01*
X004181Y006440D01*
X003999Y006440D01*
X003999Y006000D01*
X003999Y006000D01*
X003999Y005560D01*
X003999Y005572D02*
X003999Y005572D01*
X003999Y005731D02*
X003999Y005731D01*
X003999Y005889D02*
X003999Y005889D01*
X003999Y006000D02*
X003999Y006000D01*
X004439Y006000D01*
X003999Y006000D01*
X003999Y006048D02*
X003999Y006048D01*
X003999Y006206D02*
X003999Y006206D01*
X003999Y006365D02*
X003999Y006365D01*
X003741Y006365D02*
X002749Y006365D01*
X002749Y006523D02*
X005070Y006523D01*
X005228Y006682D02*
X002749Y006682D01*
X002637Y006840D02*
X005387Y006840D01*
X005545Y006999D02*
X002478Y006999D01*
X002949Y007500D02*
X001949Y007500D01*
X001399Y007950D02*
X004393Y007950D01*
X004182Y008108D02*
X002817Y008108D01*
X002786Y008095D02*
X002946Y008162D01*
X003069Y008284D01*
X003135Y008445D01*
X003135Y008618D01*
X003069Y008779D01*
X002946Y008901D01*
X002786Y008968D01*
X002612Y008968D01*
X002452Y008901D01*
X002329Y008779D01*
X002263Y008618D01*
X002263Y008445D01*
X002329Y008284D01*
X002452Y008162D01*
X002612Y008095D01*
X002786Y008095D01*
X002582Y008108D02*
X001832Y008108D01*
X001597Y008108D02*
X001399Y008108D01*
X002067Y008267D02*
X002347Y008267D01*
X002271Y008425D02*
X002143Y008425D01*
X002151Y008584D02*
X002263Y008584D01*
X002314Y008742D02*
X002100Y008742D01*
X001963Y008901D02*
X002451Y008901D01*
X002947Y008901D02*
X004127Y008901D01*
X004059Y008742D02*
X003084Y008742D01*
X003135Y008584D02*
X004025Y008584D01*
X004025Y008425D02*
X003127Y008425D01*
X003051Y008267D02*
X004081Y008267D01*
X004215Y009059D02*
X001399Y009059D01*
X001399Y008901D02*
X001467Y008901D01*
X001399Y009218D02*
X004095Y009218D01*
X004030Y009376D02*
X001399Y009376D01*
X001399Y009535D02*
X004025Y009535D01*
X004045Y009693D02*
X001399Y009693D01*
X001399Y009852D02*
X004111Y009852D01*
X004253Y010010D02*
X003084Y010010D01*
X003105Y010025D02*
X003174Y010094D01*
X003232Y010174D01*
X003276Y010261D01*
X003307Y010354D01*
X003319Y010432D01*
X002767Y010432D01*
X002767Y010568D01*
X002631Y010568D01*
X002631Y010432D01*
X002767Y010432D01*
X002767Y009880D01*
X002845Y009892D01*
X002938Y009923D01*
X003026Y009967D01*
X003105Y010025D01*
X003228Y010169D02*
X004382Y010169D01*
X004267Y010327D02*
X003298Y010327D01*
X003319Y010568D02*
X003307Y010646D01*
X003276Y010739D01*
X003232Y010826D01*
X003174Y010906D01*
X003105Y010975D01*
X003026Y011033D01*
X002938Y011077D01*
X002845Y011108D01*
X002767Y011120D01*
X002767Y010568D01*
X003319Y010568D01*
X003307Y010644D02*
X004255Y010644D01*
X004231Y010486D02*
X002767Y010486D01*
X002631Y010486D02*
X001399Y010486D01*
X001399Y010644D02*
X002091Y010644D01*
X002091Y010646D02*
X002079Y010568D01*
X002631Y010568D01*
X002631Y011120D01*
X002553Y011108D01*
X002460Y011077D01*
X002373Y011033D01*
X002293Y010975D01*
X002224Y010906D01*
X002166Y010826D01*
X002122Y010739D01*
X002091Y010646D01*
X002154Y010803D02*
X001399Y010803D01*
X001399Y010961D02*
X002279Y010961D01*
X002631Y010961D02*
X002767Y010961D01*
X002767Y010803D02*
X002631Y010803D01*
X002631Y010644D02*
X002767Y010644D01*
X002631Y010432D02*
X002079Y010432D01*
X002091Y010354D01*
X002122Y010261D01*
X002166Y010174D01*
X002224Y010094D01*
X002293Y010025D01*
X002373Y009967D01*
X002460Y009923D01*
X002553Y009892D01*
X002631Y009880D01*
X002631Y010432D01*
X002631Y010327D02*
X002767Y010327D01*
X002767Y010169D02*
X002631Y010169D01*
X002631Y010010D02*
X002767Y010010D01*
X002314Y010010D02*
X001399Y010010D01*
X001399Y010169D02*
X002170Y010169D01*
X002100Y010327D02*
X001399Y010327D01*
X001399Y011120D02*
X002629Y011120D01*
X002631Y011120D02*
X002767Y011120D01*
X002770Y011120D02*
X004123Y011120D01*
X004057Y011278D02*
X001399Y011278D01*
X001399Y011437D02*
X004025Y011437D01*
X004025Y011595D02*
X001399Y011595D01*
X001399Y011754D02*
X004083Y011754D01*
X004186Y011912D02*
X001399Y011912D01*
X001399Y012071D02*
X001536Y012071D01*
X001894Y012071D02*
X002520Y012071D01*
X002452Y012099D02*
X002612Y012032D01*
X002786Y012032D01*
X002946Y012099D01*
X003069Y012221D01*
X003135Y012382D01*
X003135Y012555D01*
X003069Y012716D01*
X002946Y012838D01*
X002786Y012905D01*
X002612Y012905D01*
X002452Y012838D01*
X002329Y012716D01*
X002263Y012555D01*
X002263Y012382D01*
X002329Y012221D01*
X002452Y012099D01*
X002326Y012229D02*
X002088Y012229D01*
X002151Y012388D02*
X002263Y012388D01*
X002263Y012546D02*
X002151Y012546D01*
X002089Y012705D02*
X002325Y012705D01*
X002512Y012863D02*
X001902Y012863D01*
X001527Y012863D02*
X001399Y012863D01*
X001399Y013022D02*
X004323Y013022D01*
X004153Y012863D02*
X002887Y012863D01*
X003073Y012705D02*
X004069Y012705D01*
X004025Y012546D02*
X003135Y012546D01*
X003135Y012388D02*
X004025Y012388D01*
X004071Y012229D02*
X003072Y012229D01*
X002878Y012071D02*
X004156Y012071D01*
X005149Y011912D02*
X005629Y011912D01*
X005629Y011754D02*
X005252Y011754D01*
X005310Y011595D02*
X005629Y011595D01*
X005629Y011437D02*
X005310Y011437D01*
X005278Y011278D02*
X005629Y011278D01*
X005629Y011120D02*
X005212Y011120D01*
X005054Y010961D02*
X005629Y010961D01*
X005629Y010803D02*
X004982Y010803D01*
X004353Y010803D02*
X003244Y010803D01*
X003119Y010961D02*
X004282Y010961D01*
X005179Y012071D02*
X005629Y012071D01*
X005629Y012229D02*
X005264Y012229D01*
X005310Y012388D02*
X005629Y012388D01*
X005629Y012546D02*
X005310Y012546D01*
X005266Y012705D02*
X005629Y012705D01*
X005629Y012863D02*
X005182Y012863D01*
X005012Y013022D02*
X005629Y013022D01*
X005629Y013180D02*
X001399Y013180D01*
X001399Y013339D02*
X005629Y013339D01*
X005629Y013497D02*
X001399Y013497D01*
X001399Y013656D02*
X005667Y013656D01*
X005811Y013814D02*
X001399Y013814D01*
X001399Y013973D02*
X005969Y013973D01*
X005640Y014790D02*
X005259Y014790D01*
X004989Y015059D01*
X004989Y015441D01*
X005259Y015710D01*
X005640Y015710D01*
X005909Y015441D01*
X005909Y015059D01*
X005640Y014790D01*
X005773Y014924D02*
X006125Y014924D01*
X006188Y014860D02*
X006358Y014790D01*
X006541Y014790D01*
X006710Y014860D01*
X006839Y014989D01*
X006909Y015158D01*
X006909Y015341D01*
X006839Y015511D01*
X006710Y015640D01*
X006541Y015710D01*
X006358Y015710D01*
X006188Y015640D01*
X006059Y015511D01*
X005989Y015341D01*
X005989Y015158D01*
X006059Y014989D01*
X006188Y014860D01*
X006021Y015082D02*
X005909Y015082D01*
X005909Y015241D02*
X005989Y015241D01*
X006013Y015399D02*
X005909Y015399D01*
X005792Y015558D02*
X006106Y015558D01*
X006792Y015558D02*
X007169Y015558D01*
X007169Y015399D02*
X006885Y015399D01*
X006909Y015241D02*
X007169Y015241D01*
X007169Y015082D02*
X006877Y015082D01*
X006773Y014924D02*
X007169Y014924D01*
X007169Y014765D02*
X001399Y014765D01*
X001399Y014607D02*
X007169Y014607D01*
X007169Y014448D02*
X001399Y014448D01*
X001399Y014290D02*
X007264Y014290D01*
X007422Y014131D02*
X001399Y014131D01*
X001399Y014924D02*
X005125Y014924D01*
X004989Y015082D02*
X001399Y015082D01*
X001399Y015241D02*
X004989Y015241D01*
X004989Y015399D02*
X001399Y015399D01*
X001399Y015558D02*
X005106Y015558D01*
X005453Y016350D02*
X001399Y016350D01*
X001399Y016192D02*
X006612Y016192D01*
X006770Y016033D02*
X001399Y016033D01*
X001399Y015875D02*
X006929Y015875D01*
X007087Y015716D02*
X001399Y015716D01*
X001399Y016509D02*
X005295Y016509D01*
X005136Y016667D02*
X001399Y016667D01*
X001399Y016826D02*
X004978Y016826D01*
X004819Y016984D02*
X001399Y016984D01*
X001399Y017143D02*
X004661Y017143D01*
X004502Y017301D02*
X001399Y017301D01*
X001399Y017460D02*
X004344Y017460D01*
X004185Y017618D02*
X001399Y017618D01*
X001399Y017777D02*
X004027Y017777D01*
X003868Y017935D02*
X001399Y017935D01*
X001399Y018094D02*
X003710Y018094D01*
X003551Y018252D02*
X001399Y018252D01*
X001399Y018411D02*
X003433Y018411D01*
X003419Y018569D02*
X001399Y018569D01*
X001399Y018728D02*
X003332Y018728D01*
X003321Y018886D02*
X001399Y018886D01*
X001399Y019045D02*
X003321Y019045D01*
X003321Y019203D02*
X001399Y019203D01*
X001399Y019362D02*
X003422Y019362D01*
X003699Y019000D02*
X003699Y018500D01*
X005699Y016500D01*
X006699Y016500D01*
X007449Y015750D01*
X007449Y014500D01*
X007949Y014000D01*
X008699Y014000D01*
X009199Y014500D01*
X009199Y015000D01*
X008798Y014765D02*
X008572Y014765D01*
X008575Y014769D02*
X008607Y014831D01*
X008628Y014897D01*
X008639Y014965D01*
X008639Y015000D01*
X008639Y015035D01*
X008628Y015103D01*
X008607Y015169D01*
X008575Y015231D01*
X008535Y015287D01*
X008486Y015336D01*
X008430Y015376D01*
X008368Y015408D01*
X008302Y015429D01*
X008234Y015440D01*
X008199Y015440D01*
X008164Y015440D01*
X008096Y015429D01*
X008030Y015408D01*
X007968Y015376D01*
X007912Y015336D01*
X007863Y015287D01*
X007823Y015231D01*
X007791Y015169D01*
X007770Y015103D01*
X007759Y015035D01*
X007759Y015000D01*
X007759Y014965D01*
X007770Y014897D01*
X007791Y014831D01*
X007823Y014769D01*
X007863Y014713D01*
X007912Y014664D01*
X007968Y014624D01*
X008030Y014592D01*
X008096Y014571D01*
X008164Y014560D01*
X008199Y014560D01*
X008199Y015000D01*
X007759Y015000D01*
X008199Y015000D01*
X008199Y015000D01*
X008199Y015440D01*
X008199Y015000D01*
X008199Y015000D01*
X008199Y015000D01*
X008199Y014560D01*
X008234Y014560D01*
X008302Y014571D01*
X008368Y014592D01*
X008430Y014624D01*
X008486Y014664D01*
X008535Y014713D01*
X008575Y014769D01*
X008632Y014924D02*
X008739Y014924D01*
X008639Y015000D02*
X008199Y015000D01*
X008639Y015000D01*
X008632Y015082D02*
X008739Y015082D01*
X008801Y015241D02*
X008568Y015241D01*
X008385Y015399D02*
X008960Y015399D01*
X009438Y015399D02*
X010013Y015399D01*
X010030Y015408D02*
X009968Y015376D01*
X009912Y015336D01*
X009863Y015287D01*
X009823Y015231D01*
X009791Y015169D01*
X009770Y015103D01*
X009759Y015035D01*
X009759Y015000D01*
X009759Y014965D01*
X009770Y014897D01*
X009791Y014831D01*
X009823Y014769D01*
X009863Y014713D01*
X009912Y014664D01*
X009968Y014624D01*
X010030Y014592D01*
X010096Y014571D01*
X010164Y014560D01*
X010199Y014560D01*
X010199Y015000D01*
X009759Y015000D01*
X010199Y015000D01*
X010199Y015000D01*
X010199Y015440D01*
X010164Y015440D01*
X010096Y015429D01*
X010030Y015408D01*
X010199Y015399D02*
X010199Y015399D01*
X010199Y015440D02*
X010199Y015000D01*
X010199Y015000D01*
X010199Y015000D01*
X010199Y014560D01*
X010234Y014560D01*
X010302Y014571D01*
X010368Y014592D01*
X010430Y014624D01*
X010486Y014664D01*
X010535Y014713D01*
X010575Y014769D01*
X010607Y014831D01*
X010628Y014897D01*
X010639Y014965D01*
X010639Y015000D01*
X010639Y015035D01*
X010628Y015103D01*
X010607Y015169D01*
X010575Y015231D01*
X010535Y015287D01*
X010486Y015336D01*
X010430Y015376D01*
X010368Y015408D01*
X010302Y015429D01*
X010234Y015440D01*
X010199Y015440D01*
X010385Y015399D02*
X010960Y015399D01*
X010938Y015390D02*
X010809Y015261D01*
X010739Y015091D01*
X010739Y014908D01*
X010809Y014739D01*
X010938Y014610D01*
X011108Y014540D01*
X011291Y014540D01*
X011460Y014610D01*
X011589Y014739D01*
X011659Y014908D01*
X011659Y015091D01*
X011589Y015261D01*
X011460Y015390D01*
X011291Y015460D01*
X011108Y015460D01*
X010938Y015390D01*
X010801Y015241D02*
X010568Y015241D01*
X010632Y015082D02*
X010739Y015082D01*
X010639Y015000D02*
X010199Y015000D01*
X010199Y015000D01*
X010639Y015000D01*
X010632Y014924D02*
X010739Y014924D01*
X010798Y014765D02*
X010572Y014765D01*
X010396Y014607D02*
X010947Y014607D01*
X011451Y014607D02*
X011864Y014607D01*
X011919Y014448D02*
X009479Y014448D01*
X009479Y014607D02*
X010002Y014607D01*
X010199Y014607D02*
X010199Y014607D01*
X010199Y014765D02*
X010199Y014765D01*
X010199Y014924D02*
X010199Y014924D01*
X010199Y015082D02*
X010199Y015082D01*
X010199Y015241D02*
X010199Y015241D01*
X009830Y015241D02*
X009597Y015241D01*
X009659Y015082D02*
X009767Y015082D01*
X009766Y014924D02*
X009659Y014924D01*
X009600Y014765D02*
X009826Y014765D01*
X009385Y014290D02*
X011760Y014290D01*
X011684Y014131D02*
X009226Y014131D01*
X009068Y013973D02*
X011684Y013973D01*
X011684Y013814D02*
X008909Y013814D01*
X008593Y014290D02*
X008056Y014290D01*
X007897Y014448D02*
X008751Y014448D01*
X008910Y014607D02*
X008396Y014607D01*
X008199Y014607D02*
X008199Y014607D01*
X008199Y014765D02*
X008199Y014765D01*
X008199Y014924D02*
X008199Y014924D01*
X008199Y015000D02*
X008199Y015000D01*
X008199Y015082D02*
X008199Y015082D01*
X008199Y015241D02*
X008199Y015241D01*
X008199Y015399D02*
X008199Y015399D01*
X008013Y015399D02*
X007729Y015399D01*
X007729Y015241D02*
X007830Y015241D01*
X007767Y015082D02*
X007729Y015082D01*
X007729Y014924D02*
X007766Y014924D01*
X007729Y014765D02*
X007826Y014765D01*
X007739Y014607D02*
X008002Y014607D01*
X007729Y015558D02*
X015319Y015558D01*
X015319Y015716D02*
X007729Y015716D01*
X008224Y015875D02*
X010674Y015875D01*
X010759Y015790D02*
X010489Y016059D01*
X010489Y016441D01*
X010759Y016710D01*
X011140Y016710D01*
X011399Y016451D01*
X011659Y016710D01*
X012040Y016710D01*
X012309Y016441D01*
X012309Y016059D01*
X012040Y015790D01*
X011659Y015790D01*
X011399Y016049D01*
X011140Y015790D01*
X010759Y015790D01*
X010515Y016033D02*
X008383Y016033D01*
X008409Y016192D02*
X010489Y016192D01*
X010489Y016350D02*
X008409Y016350D01*
X008341Y016509D02*
X010557Y016509D01*
X010716Y016667D02*
X008183Y016667D01*
X007716Y016667D02*
X006928Y016667D01*
X007087Y016509D02*
X007557Y016509D01*
X007489Y016350D02*
X007245Y016350D01*
X007404Y016192D02*
X007489Y016192D01*
X006401Y017301D02*
X009747Y017301D01*
X009739Y017309D02*
X010009Y017040D01*
X010390Y017040D01*
X010659Y017309D01*
X010659Y017691D01*
X010390Y017960D01*
X010009Y017960D01*
X009739Y017691D01*
X009739Y017309D01*
X009739Y017460D02*
X006409Y017460D01*
X006409Y017309D02*
X006140Y017040D01*
X005759Y017040D01*
X005489Y017309D01*
X005489Y017691D01*
X005759Y017960D01*
X006140Y017960D01*
X006409Y017691D01*
X006409Y017309D01*
X006242Y017143D02*
X009906Y017143D01*
X009739Y017618D02*
X006409Y017618D01*
X006323Y017777D02*
X007344Y017777D01*
X007386Y017735D02*
X007812Y017735D01*
X008114Y018037D01*
X008114Y018075D01*
X008162Y017958D01*
X008307Y017813D01*
X008497Y017735D01*
X008701Y017735D01*
X008891Y017813D01*
X009036Y017958D01*
X009114Y018148D01*
X009114Y018352D01*
X009036Y018542D01*
X008891Y018687D01*
X008701Y018765D01*
X008497Y018765D01*
X008307Y018687D01*
X008162Y018542D01*
X008114Y018425D01*
X008114Y018463D01*
X007812Y018765D01*
X007386Y018765D01*
X007084Y018463D01*
X007084Y018037D01*
X007386Y017735D01*
X007186Y017935D02*
X006165Y017935D01*
X005734Y017935D02*
X004660Y017935D01*
X004587Y018094D02*
X004587Y018094D01*
X004587Y018252D02*
X004587Y018252D01*
X004587Y018411D02*
X004587Y018411D01*
X004587Y018500D02*
X004587Y018500D01*
X004587Y018569D02*
X004587Y018569D01*
X004587Y018728D02*
X004587Y018728D01*
X004587Y018886D02*
X004587Y018886D01*
X004678Y019043D02*
X004846Y019112D01*
X004975Y019241D01*
X005044Y019409D01*
X005044Y019591D01*
X004975Y019759D01*
X004846Y019888D01*
X004678Y019957D01*
X004496Y019957D01*
X004328Y019888D01*
X004199Y019759D01*
X004129Y019591D01*
X004129Y019409D01*
X004199Y019241D01*
X004328Y019112D01*
X004496Y019043D01*
X004678Y019043D01*
X004683Y019045D02*
X012248Y019045D01*
X012276Y019017D02*
X012317Y019000D01*
X012276Y018983D01*
X012116Y018823D01*
X012029Y018613D01*
X012029Y018387D01*
X012116Y018177D01*
X012276Y018017D01*
X012486Y017930D01*
X012712Y017930D01*
X012922Y018017D01*
X013082Y018177D01*
X013099Y018218D01*
X013116Y018177D01*
X013276Y018017D01*
X013486Y017930D01*
X013712Y017930D01*
X013922Y018017D01*
X014082Y018177D01*
X014099Y018218D01*
X014116Y018177D01*
X014276Y018017D01*
X014486Y017930D01*
X014712Y017930D01*
X014922Y018017D01*
X015082Y018177D01*
X015099Y018218D01*
X015116Y018177D01*
X015276Y018017D01*
X015486Y017930D01*
X015712Y017930D01*
X015922Y018017D01*
X016082Y018177D01*
X016169Y018387D01*
X016169Y018613D01*
X016082Y018823D01*
X015922Y018983D01*
X015881Y019000D01*
X015922Y019017D01*
X016082Y019177D01*
X016099Y019218D01*
X016116Y019177D01*
X016276Y019017D01*
X016486Y018930D01*
X016712Y018930D01*
X016922Y019017D01*
X017082Y019177D01*
X017099Y019218D01*
X017116Y019177D01*
X017276Y019017D01*
X017317Y019000D01*
X017276Y018983D01*
X017116Y018823D01*
X017029Y018613D01*
X017029Y018387D01*
X017116Y018177D01*
X017276Y018017D01*
X017486Y017930D01*
X017712Y017930D01*
X017922Y018017D01*
X018082Y018177D01*
X018169Y018387D01*
X018169Y018613D01*
X018082Y018823D01*
X017922Y018983D01*
X017881Y019000D01*
X017922Y019017D01*
X018082Y019177D01*
X018169Y019387D01*
X018169Y019613D01*
X018082Y019823D01*
X017922Y019983D01*
X017858Y020010D01*
X018129Y020280D01*
X018129Y020720D01*
X017819Y021030D01*
X017380Y021030D01*
X017099Y020750D01*
X016819Y021030D01*
X016380Y021030D01*
X016099Y020750D01*
X015819Y021030D01*
X015380Y021030D01*
X015099Y020750D01*
X014819Y021030D01*
X014380Y021030D01*
X014099Y020750D01*
X013819Y021030D01*
X013380Y021030D01*
X013099Y020750D01*
X012819Y021030D01*
X012380Y021030D01*
X012085Y020735D01*
X011810Y021010D01*
X011617Y021010D01*
X011617Y020518D01*
X011581Y020518D01*
X011129Y020518D01*
X011129Y020482D01*
X011581Y020482D01*
X011581Y020518D01*
X011581Y021010D01*
X011388Y021010D01*
X011113Y020735D01*
X010819Y021030D01*
X010380Y021030D01*
X010099Y020750D01*
X009819Y021030D01*
X009380Y021030D01*
X009099Y020750D01*
X008819Y021030D01*
X008380Y021030D01*
X008069Y020720D01*
X008069Y020280D01*
X008380Y019970D01*
X008819Y019970D01*
X009099Y020250D01*
X009380Y019970D01*
X009819Y019970D01*
X010099Y020250D01*
X010380Y019970D01*
X010819Y019970D01*
X011113Y020265D01*
X011388Y019990D01*
X011581Y019990D01*
X011581Y020482D01*
X011617Y020482D01*
X011617Y019990D01*
X011810Y019990D01*
X012085Y020265D01*
X012340Y020010D01*
X012276Y019983D01*
X012116Y019823D01*
X012029Y019613D01*
X012029Y019387D01*
X012116Y019177D01*
X012276Y019017D01*
X012179Y018886D02*
X004820Y018886D01*
X004978Y018728D02*
X007348Y018728D01*
X007190Y018569D02*
X005024Y018569D01*
X005024Y018411D02*
X007084Y018411D01*
X007084Y018252D02*
X004958Y018252D01*
X004799Y018094D02*
X007084Y018094D01*
X007854Y017777D02*
X008396Y017777D01*
X008186Y017935D02*
X008012Y017935D01*
X008008Y018569D02*
X008190Y018569D01*
X008406Y018728D02*
X007850Y018728D01*
X007599Y019100D02*
X008599Y019100D01*
X008792Y018728D02*
X012076Y018728D01*
X012029Y018569D02*
X009008Y018569D01*
X009090Y018411D02*
X012029Y018411D01*
X012085Y018252D02*
X009114Y018252D01*
X009092Y018094D02*
X012199Y018094D01*
X012474Y017935D02*
X011565Y017935D01*
X011540Y017960D02*
X011159Y017960D01*
X010889Y017691D01*
X010889Y017309D01*
X011159Y017040D01*
X011540Y017040D01*
X011809Y017309D01*
X011809Y017691D01*
X011540Y017960D01*
X011723Y017777D02*
X019419Y017777D01*
X019419Y017935D02*
X017725Y017935D01*
X017474Y017935D02*
X015725Y017935D01*
X015474Y017935D02*
X014725Y017935D01*
X014474Y017935D02*
X013725Y017935D01*
X013474Y017935D02*
X012725Y017935D01*
X012999Y018094D02*
X013199Y018094D01*
X013999Y018094D02*
X014199Y018094D01*
X014999Y018094D02*
X015199Y018094D01*
X015221Y017460D02*
X011809Y017460D01*
X011809Y017618D02*
X019419Y017618D01*
X019419Y017460D02*
X015977Y017460D01*
X015977Y017301D02*
X019419Y017301D01*
X019419Y017143D02*
X015977Y017143D01*
X015599Y017200D02*
X015599Y015350D01*
X024199Y006750D01*
X025199Y006750D01*
X025460Y006372D02*
X025460Y006372D01*
X025648Y007316D02*
X025806Y007316D01*
X025852Y007474D02*
X025965Y007474D01*
X026010Y007633D02*
X026123Y007633D01*
X026169Y007791D02*
X026286Y007791D01*
X026266Y007950D02*
X027999Y007950D01*
X027999Y008108D02*
X026293Y008108D01*
X026264Y008267D02*
X027999Y008267D01*
X027999Y008425D02*
X026164Y008425D01*
X026794Y007791D02*
X027999Y007791D01*
X027999Y007633D02*
X026941Y007633D01*
X027000Y007474D02*
X027999Y007474D01*
X027999Y007316D02*
X027000Y007316D01*
X026938Y007157D02*
X027999Y007157D01*
X027999Y006999D02*
X026790Y006999D01*
X026632Y006840D02*
X027999Y006840D01*
X027999Y006682D02*
X026473Y006682D01*
X024404Y008742D02*
X024263Y008742D01*
X024450Y008901D02*
X024563Y008901D01*
X024608Y009059D02*
X024721Y009059D01*
X024767Y009218D02*
X024901Y009218D01*
X024171Y010169D02*
X027999Y010169D01*
X027999Y010327D02*
X024168Y010327D01*
X024102Y010486D02*
X027999Y010486D01*
X027999Y010644D02*
X023906Y010644D01*
X023556Y010961D02*
X027999Y010961D01*
X027999Y010803D02*
X023479Y010803D01*
X023458Y010644D02*
X023517Y010644D01*
X023715Y011120D02*
X027999Y011120D01*
X027999Y011278D02*
X023873Y011278D01*
X024032Y011437D02*
X027999Y011437D01*
X027999Y011595D02*
X024190Y011595D01*
X024349Y011754D02*
X027999Y011754D01*
X027999Y011912D02*
X024495Y011912D01*
X024529Y012071D02*
X027999Y012071D01*
X027999Y012229D02*
X024529Y012229D01*
X024529Y012388D02*
X027999Y012388D01*
X027999Y012546D02*
X024529Y012546D01*
X024529Y012705D02*
X027999Y012705D01*
X027999Y012863D02*
X024529Y012863D01*
X024529Y013022D02*
X027999Y013022D01*
X027999Y013180D02*
X024529Y013180D01*
X024529Y013339D02*
X027999Y013339D01*
X027999Y013497D02*
X024529Y013497D01*
X024529Y013656D02*
X027999Y013656D01*
X027999Y013814D02*
X027687Y013814D01*
X027845Y013973D02*
X027999Y013973D01*
X027999Y014131D02*
X027945Y014131D01*
X027988Y014765D02*
X027999Y014765D01*
X027999Y014924D02*
X027922Y014924D01*
X027999Y015082D02*
X027791Y015082D01*
X027999Y015241D02*
X027580Y015241D01*
X027759Y015558D02*
X024529Y015558D01*
X024529Y015716D02*
X027600Y015716D01*
X027442Y015875D02*
X024529Y015875D01*
X024529Y016033D02*
X027283Y016033D01*
X027125Y016192D02*
X024529Y016192D01*
X024529Y016350D02*
X026999Y016350D01*
X026999Y016317D02*
X026999Y016317D01*
X026999Y016317D01*
X026999Y016483D02*
X026999Y016483D01*
X026999Y016509D02*
X024529Y016509D01*
X024529Y016667D02*
X026999Y016667D01*
X026999Y016826D02*
X024529Y016826D01*
X024529Y016984D02*
X026999Y016984D01*
X026999Y017143D02*
X024529Y017143D01*
X024529Y017301D02*
X026999Y017301D01*
X026999Y017460D02*
X024529Y017460D01*
X024503Y017618D02*
X026999Y017618D01*
X026999Y017777D02*
X024369Y017777D01*
X024210Y017935D02*
X026999Y017935D01*
X026999Y018094D02*
X024052Y018094D01*
X023893Y018252D02*
X026999Y018252D01*
X026999Y018411D02*
X023735Y018411D01*
X023576Y018569D02*
X026999Y018569D01*
X026999Y018728D02*
X023418Y018728D01*
X023259Y018886D02*
X026999Y018886D01*
X026999Y019045D02*
X026521Y019045D01*
X026680Y019203D02*
X026999Y019203D01*
X026999Y019362D02*
X026749Y019362D01*
X026749Y019520D02*
X026999Y019520D01*
X026999Y019679D02*
X026749Y019679D01*
X026640Y019837D02*
X026999Y019837D01*
X026999Y019996D02*
X026481Y019996D01*
X026603Y020154D02*
X026999Y020154D01*
X026999Y020313D02*
X026729Y020313D01*
X026729Y020471D02*
X026999Y020471D01*
X026999Y020630D02*
X026729Y020630D01*
X026661Y020788D02*
X026999Y020788D01*
X026870Y020947D02*
X026502Y020947D01*
X026712Y021105D02*
X007768Y021105D01*
X007912Y020947D02*
X008296Y020947D01*
X008138Y020788D02*
X007978Y020788D01*
X008029Y020630D02*
X008069Y020630D01*
X008069Y020471D02*
X008029Y020471D01*
X008020Y020313D02*
X008069Y020313D01*
X007954Y020154D02*
X008195Y020154D01*
X008354Y019996D02*
X007868Y019996D01*
X007710Y019837D02*
X009914Y019837D01*
X010017Y019940D02*
X009759Y019682D01*
X009759Y019500D01*
X009759Y019318D01*
X010017Y019060D01*
X010199Y019060D01*
X010199Y019500D01*
X009759Y019500D01*
X010199Y019500D01*
X010199Y019500D01*
X010199Y019940D01*
X010017Y019940D01*
X009844Y019996D02*
X010354Y019996D01*
X010381Y019940D02*
X010199Y019940D01*
X010199Y019500D01*
X010199Y019500D01*
X010199Y019500D01*
X010199Y019060D01*
X010381Y019060D01*
X010639Y019318D01*
X010639Y019500D01*
X010639Y019682D01*
X010381Y019940D01*
X010484Y019837D02*
X011064Y019837D01*
X011167Y019940D02*
X010909Y019682D01*
X010909Y019500D01*
X010909Y019318D01*
X011167Y019060D01*
X011349Y019060D01*
X011349Y019500D01*
X010909Y019500D01*
X011349Y019500D01*
X011349Y019500D01*
X011349Y019940D01*
X011167Y019940D01*
X011349Y019940D02*
X011349Y019500D01*
X011349Y019500D01*
X011349Y019500D01*
X011349Y019060D01*
X011531Y019060D01*
X011789Y019318D01*
X011789Y019500D01*
X011789Y019682D01*
X011531Y019940D01*
X011349Y019940D01*
X011382Y019996D02*
X010844Y019996D01*
X011003Y020154D02*
X011224Y020154D01*
X011349Y019837D02*
X011349Y019837D01*
X011349Y019679D02*
X011349Y019679D01*
X011349Y019520D02*
X011349Y019520D01*
X011349Y019500D02*
X011789Y019500D01*
X011349Y019500D01*
X011349Y019500D01*
X011349Y019362D02*
X011349Y019362D01*
X011349Y019203D02*
X011349Y019203D01*
X011024Y019203D02*
X010524Y019203D01*
X010639Y019362D02*
X010909Y019362D01*
X010909Y019520D02*
X010639Y019520D01*
X010639Y019500D02*
X010199Y019500D01*
X010199Y019500D01*
X010639Y019500D01*
X010639Y019679D02*
X010909Y019679D01*
X011634Y019837D02*
X012130Y019837D01*
X012056Y019679D02*
X011789Y019679D01*
X011789Y019520D02*
X012029Y019520D01*
X012039Y019362D02*
X011789Y019362D01*
X011674Y019203D02*
X012105Y019203D01*
X012306Y019996D02*
X011816Y019996D01*
X011617Y019996D02*
X011581Y019996D01*
X011581Y020154D02*
X011617Y020154D01*
X011617Y020313D02*
X011581Y020313D01*
X011581Y020471D02*
X011617Y020471D01*
X011617Y020482D02*
X011617Y020518D01*
X012069Y020518D01*
X012069Y020482D01*
X011617Y020482D01*
X011617Y020630D02*
X011581Y020630D01*
X011581Y020788D02*
X011617Y020788D01*
X011617Y020947D02*
X011581Y020947D01*
X011324Y020947D02*
X010902Y020947D01*
X011061Y020788D02*
X011166Y020788D01*
X011874Y020947D02*
X012296Y020947D01*
X012138Y020788D02*
X012032Y020788D01*
X011974Y020154D02*
X012195Y020154D01*
X012902Y020947D02*
X013296Y020947D01*
X013138Y020788D02*
X013061Y020788D01*
X013902Y020947D02*
X014296Y020947D01*
X014138Y020788D02*
X014061Y020788D01*
X014902Y020947D02*
X015296Y020947D01*
X015138Y020788D02*
X015061Y020788D01*
X015902Y020947D02*
X016296Y020947D01*
X016138Y020788D02*
X016061Y020788D01*
X016902Y020947D02*
X017296Y020947D01*
X017138Y020788D02*
X017061Y020788D01*
X017902Y020947D02*
X018896Y020947D01*
X018738Y020788D02*
X018061Y020788D01*
X018129Y020630D02*
X018669Y020630D01*
X018669Y020471D02*
X018129Y020471D01*
X018129Y020313D02*
X018669Y020313D01*
X018795Y020154D02*
X018003Y020154D01*
X017892Y019996D02*
X018917Y019996D01*
X018758Y019837D02*
X018068Y019837D01*
X018142Y019679D02*
X018649Y019679D01*
X018649Y019520D02*
X018169Y019520D01*
X018159Y019362D02*
X018649Y019362D01*
X018718Y019203D02*
X018093Y019203D01*
X017950Y019045D02*
X018877Y019045D01*
X019521Y019045D02*
X019877Y019045D01*
X019718Y019203D02*
X019680Y019203D01*
X020031Y018728D02*
X018122Y018728D01*
X018169Y018569D02*
X019872Y018569D01*
X019714Y018411D02*
X018169Y018411D01*
X018113Y018252D02*
X019555Y018252D01*
X019540Y018237D02*
X019540Y018237D01*
X019435Y018094D02*
X017999Y018094D01*
X017199Y018094D02*
X015999Y018094D01*
X016113Y018252D02*
X017085Y018252D01*
X017029Y018411D02*
X016169Y018411D01*
X016169Y018569D02*
X017029Y018569D01*
X017076Y018728D02*
X016122Y018728D01*
X016019Y018886D02*
X017179Y018886D01*
X017248Y019045D02*
X016950Y019045D01*
X017093Y019203D02*
X017105Y019203D01*
X016248Y019045D02*
X015950Y019045D01*
X016093Y019203D02*
X016105Y019203D01*
X018019Y018886D02*
X020189Y018886D01*
X020664Y018569D02*
X022784Y018569D01*
X022626Y018728D02*
X020823Y018728D01*
X020981Y018886D02*
X022467Y018886D01*
X021877Y019045D02*
X021521Y019045D01*
X021680Y019203D02*
X021718Y019203D01*
X022509Y018260D02*
X022239Y017991D01*
X022239Y017609D01*
X022509Y017340D01*
X022890Y017340D01*
X023159Y017609D01*
X023159Y017991D01*
X022890Y018260D01*
X022509Y018260D01*
X022501Y018252D02*
X020347Y018252D01*
X020189Y018094D02*
X022342Y018094D01*
X022239Y017935D02*
X020030Y017935D01*
X019979Y017777D02*
X022239Y017777D01*
X022239Y017618D02*
X021142Y017618D01*
X021210Y017590D02*
X021041Y017660D01*
X020858Y017660D01*
X020688Y017590D01*
X020559Y017461D01*
X020489Y017291D01*
X020489Y017108D01*
X020559Y016939D01*
X020688Y016810D01*
X020858Y016740D01*
X021041Y016740D01*
X021210Y016810D01*
X021339Y016939D01*
X021409Y017108D01*
X021409Y017291D01*
X021339Y017461D01*
X021210Y017590D01*
X021339Y017460D02*
X022389Y017460D01*
X022517Y017240D02*
X022259Y016982D01*
X022259Y016800D01*
X022259Y016618D01*
X022517Y016360D01*
X022699Y016360D01*
X022699Y016800D01*
X022259Y016800D01*
X022699Y016800D01*
X022699Y016800D01*
X022699Y017240D01*
X022517Y017240D01*
X022419Y017143D02*
X021409Y017143D01*
X021405Y017301D02*
X023969Y017301D01*
X023969Y017143D02*
X022979Y017143D01*
X022881Y017240D02*
X022699Y017240D01*
X022699Y016800D01*
X022699Y016800D01*
X022699Y016800D01*
X022699Y016360D01*
X022881Y016360D01*
X023139Y016618D01*
X023139Y016800D01*
X023139Y016982D01*
X022881Y017240D01*
X022699Y017143D02*
X022699Y017143D01*
X022699Y016984D02*
X022699Y016984D01*
X022699Y016826D02*
X022699Y016826D01*
X022699Y016800D02*
X023139Y016800D01*
X022699Y016800D01*
X022699Y016800D01*
X022699Y016667D02*
X022699Y016667D01*
X022699Y016509D02*
X022699Y016509D01*
X022368Y016509D02*
X019979Y016509D01*
X019979Y016667D02*
X022259Y016667D01*
X022259Y016826D02*
X021225Y016826D01*
X021357Y016984D02*
X022261Y016984D01*
X023137Y016984D02*
X023969Y016984D01*
X023969Y016826D02*
X023139Y016826D01*
X023139Y016667D02*
X023969Y016667D01*
X023969Y016509D02*
X023030Y016509D01*
X022410Y016033D02*
X019979Y016033D01*
X019979Y016192D02*
X023969Y016192D01*
X023969Y016350D02*
X019979Y016350D01*
X019979Y016826D02*
X020673Y016826D01*
X020541Y016984D02*
X019979Y016984D01*
X019979Y017143D02*
X020489Y017143D01*
X020493Y017301D02*
X019979Y017301D01*
X019979Y017460D02*
X020559Y017460D01*
X020756Y017618D02*
X019979Y017618D01*
X020506Y018411D02*
X022943Y018411D01*
X022898Y018252D02*
X023101Y018252D01*
X023056Y018094D02*
X023260Y018094D01*
X023159Y017935D02*
X023418Y017935D01*
X023577Y017777D02*
X023159Y017777D01*
X023159Y017618D02*
X023735Y017618D01*
X023894Y017460D02*
X023009Y017460D01*
X023521Y019045D02*
X023877Y019045D01*
X023718Y019203D02*
X023680Y019203D01*
X024521Y019045D02*
X024877Y019045D01*
X024718Y019203D02*
X024680Y019203D01*
X025521Y019045D02*
X025877Y019045D01*
X025718Y019203D02*
X025680Y019203D01*
X025661Y020788D02*
X025738Y020788D01*
X025896Y020947D02*
X025502Y020947D01*
X024896Y020947D02*
X024502Y020947D01*
X024661Y020788D02*
X024738Y020788D01*
X023896Y020947D02*
X023502Y020947D01*
X023661Y020788D02*
X023738Y020788D01*
X022896Y020947D02*
X022502Y020947D01*
X022661Y020788D02*
X022738Y020788D01*
X021896Y020947D02*
X021502Y020947D01*
X021661Y020788D02*
X021738Y020788D01*
X020896Y020947D02*
X020502Y020947D01*
X020661Y020788D02*
X020738Y020788D01*
X019896Y020947D02*
X019502Y020947D01*
X019661Y020788D02*
X019738Y020788D01*
X015221Y017301D02*
X011801Y017301D01*
X011642Y017143D02*
X015221Y017143D01*
X015221Y016984D02*
X005611Y016984D01*
X005656Y017143D02*
X005453Y017143D01*
X005497Y017301D02*
X005294Y017301D01*
X005136Y017460D02*
X005489Y017460D01*
X005489Y017618D02*
X004977Y017618D01*
X004819Y017777D02*
X005575Y017777D01*
X005770Y016826D02*
X015319Y016826D01*
X015319Y016667D02*
X015083Y016667D01*
X015040Y016710D02*
X014659Y016710D01*
X014389Y016441D01*
X014389Y016059D01*
X014659Y015790D01*
X015040Y015790D01*
X015309Y016059D01*
X015309Y016441D01*
X015040Y016710D01*
X015241Y016509D02*
X015319Y016509D01*
X015309Y016350D02*
X015319Y016350D01*
X015309Y016192D02*
X015319Y016192D01*
X015319Y016033D02*
X015283Y016033D01*
X015319Y015875D02*
X015124Y015875D01*
X015319Y015399D02*
X012528Y015399D01*
X012687Y015241D02*
X015341Y015241D01*
X015471Y015082D02*
X012714Y015082D01*
X011870Y015399D02*
X011438Y015399D01*
X011597Y015241D02*
X011711Y015241D01*
X011684Y015082D02*
X011659Y015082D01*
X011659Y014924D02*
X011684Y014924D01*
X011706Y014765D02*
X011600Y014765D01*
X011574Y015875D02*
X011224Y015875D01*
X011383Y016033D02*
X011415Y016033D01*
X012124Y015875D02*
X014574Y015875D01*
X014415Y016033D02*
X012283Y016033D01*
X012309Y016192D02*
X014389Y016192D01*
X014389Y016350D02*
X012309Y016350D01*
X012241Y016509D02*
X014457Y016509D01*
X014616Y016667D02*
X012083Y016667D01*
X011616Y016667D02*
X011183Y016667D01*
X011341Y016509D02*
X011457Y016509D01*
X011056Y017143D02*
X010492Y017143D01*
X010651Y017301D02*
X010897Y017301D01*
X010889Y017460D02*
X010659Y017460D01*
X010659Y017618D02*
X010889Y017618D01*
X010975Y017777D02*
X010573Y017777D01*
X010415Y017935D02*
X011134Y017935D01*
X009984Y017935D02*
X009012Y017935D01*
X008802Y017777D02*
X009825Y017777D01*
X009874Y019203D02*
X004937Y019203D01*
X005025Y019362D02*
X009759Y019362D01*
X009759Y019520D02*
X005044Y019520D01*
X005008Y019679D02*
X007014Y019679D01*
X006688Y019837D02*
X004897Y019837D01*
X004846Y020112D02*
X004678Y020043D01*
X004496Y020043D01*
X004328Y020112D01*
X004199Y020241D01*
X004129Y020409D01*
X004129Y020591D01*
X004199Y020759D01*
X004328Y020888D01*
X004496Y020957D01*
X004678Y020957D01*
X004846Y020888D01*
X004975Y020759D01*
X005044Y020591D01*
X005044Y020409D01*
X004975Y020241D01*
X004846Y020112D01*
X004888Y020154D02*
X005644Y020154D01*
X005489Y020313D02*
X005004Y020313D01*
X005044Y020471D02*
X005489Y020471D01*
X005489Y020630D02*
X005028Y020630D01*
X004946Y020788D02*
X005587Y020788D01*
X005745Y020947D02*
X004704Y020947D01*
X004469Y020947D02*
X001399Y020947D01*
X001399Y021105D02*
X006630Y021105D01*
X006486Y020947D02*
X006153Y020947D01*
X006312Y020788D02*
X006420Y020788D01*
X006444Y020154D02*
X006254Y020154D01*
X006530Y019996D02*
X001399Y019996D01*
X001399Y020154D02*
X004286Y020154D01*
X004169Y020313D02*
X001399Y020313D01*
X001399Y020471D02*
X004129Y020471D01*
X004145Y020630D02*
X001399Y020630D01*
X001399Y020788D02*
X004228Y020788D01*
X004277Y019837D02*
X001399Y019837D01*
X001399Y019679D02*
X004166Y019679D01*
X004129Y019520D02*
X001399Y019520D01*
X001399Y021264D02*
X006874Y021264D01*
X007524Y021264D02*
X026554Y021264D01*
X027917Y015399D02*
X024529Y015399D01*
X024529Y015241D02*
X026818Y015241D01*
X026607Y015082D02*
X024529Y015082D01*
X024529Y014924D02*
X026476Y014924D01*
X026411Y014765D02*
X024529Y014765D01*
X024529Y014607D02*
X026369Y014607D01*
X026369Y014448D02*
X024529Y014448D01*
X024529Y014290D02*
X026388Y014290D01*
X026454Y014131D02*
X024529Y014131D01*
X024529Y013973D02*
X026553Y013973D01*
X026711Y013814D02*
X024529Y013814D01*
X023969Y013814D02*
X020636Y013814D01*
X020629Y013656D02*
X023969Y013656D01*
X023969Y013973D02*
X020587Y013973D01*
X020458Y014131D02*
X023969Y014131D01*
X022580Y013339D02*
X022580Y013339D01*
X022422Y013180D02*
X022422Y013180D01*
X022370Y013129D02*
X022370Y013129D01*
X022059Y013440D01*
X022370Y013129D01*
X022370Y013129D01*
X022059Y012817D01*
X022370Y013129D01*
X022371Y013129D02*
X022371Y013129D01*
X022319Y013180D02*
X022319Y013180D01*
X022263Y013022D02*
X022263Y013022D01*
X022478Y013022D02*
X022478Y013022D01*
X022161Y013339D02*
X022161Y013339D01*
X022117Y013497D02*
X021018Y013497D01*
X020748Y013497D02*
X020561Y013497D01*
X020516Y013339D02*
X020403Y013339D01*
X020357Y013180D02*
X020244Y013180D01*
X020199Y013022D02*
X020086Y013022D01*
X020090Y012863D02*
X019732Y012863D01*
X019891Y012705D02*
X020055Y012705D01*
X020049Y012546D02*
X020076Y012546D01*
X020366Y012229D02*
X020420Y012229D01*
X021183Y012705D02*
X021332Y012705D01*
X021301Y012863D02*
X022014Y012863D01*
X022105Y012863D02*
X022105Y012863D01*
X022172Y012705D02*
X021848Y012705D01*
X021788Y012546D02*
X021788Y012546D01*
X021629Y012388D02*
X021629Y012388D01*
X021343Y013022D02*
X021931Y013022D01*
X021931Y013180D02*
X021329Y013180D01*
X021250Y013339D02*
X021958Y013339D01*
X023287Y012863D02*
X023969Y012863D01*
X023969Y012705D02*
X023445Y012705D01*
X023538Y012546D02*
X023969Y012546D01*
X023969Y012388D02*
X023538Y012388D01*
X023536Y012229D02*
X023969Y012229D01*
X023874Y012071D02*
X023377Y012071D01*
X023557Y011754D02*
X022748Y011754D01*
X022757Y011595D02*
X023398Y011595D01*
X023240Y011437D02*
X022710Y011437D01*
X022698Y011278D02*
X022585Y011278D01*
X022677Y011912D02*
X023715Y011912D01*
X022778Y012071D02*
X022462Y012071D01*
X019348Y013339D02*
X019257Y013339D01*
X019229Y013497D02*
X019353Y013497D01*
X019419Y013656D02*
X019229Y013656D01*
X015922Y012388D02*
X015040Y012388D01*
X014699Y012000D02*
X014699Y011750D01*
X013949Y011000D01*
X010949Y011000D01*
X010199Y011750D01*
X010199Y012000D01*
X009796Y012229D02*
X009602Y012229D01*
X009659Y012071D02*
X009739Y012071D01*
X009739Y011912D02*
X009659Y011912D01*
X009595Y011754D02*
X009803Y011754D01*
X009960Y011595D02*
X009423Y011595D01*
X010117Y011437D02*
X008491Y011437D01*
X008649Y011278D02*
X010275Y011278D01*
X010434Y011120D02*
X008714Y011120D01*
X008714Y010961D02*
X010592Y010961D01*
X010751Y010803D02*
X008714Y010803D01*
X008942Y010486D02*
X009456Y010486D01*
X009298Y010327D02*
X009100Y010327D01*
X009942Y010486D02*
X010456Y010486D01*
X010298Y010327D02*
X010100Y010327D01*
X010942Y010486D02*
X011456Y010486D01*
X011298Y010327D02*
X011100Y010327D01*
X011942Y010486D02*
X012456Y010486D01*
X012298Y010327D02*
X012100Y010327D01*
X012942Y010486D02*
X013456Y010486D01*
X013298Y010327D02*
X013100Y010327D01*
X013942Y010486D02*
X014456Y010486D01*
X014298Y010327D02*
X014100Y010327D01*
X014942Y010486D02*
X015456Y010486D01*
X015298Y010327D02*
X015100Y010327D01*
X015942Y010486D02*
X016456Y010486D01*
X016298Y010327D02*
X016100Y010327D01*
X016942Y010486D02*
X017456Y010486D01*
X017298Y010327D02*
X017100Y010327D01*
X018214Y008901D02*
X018242Y008901D01*
X021405Y007316D02*
X021564Y007316D01*
X021609Y007474D02*
X021722Y007474D01*
X021768Y007633D02*
X021881Y007633D01*
X021926Y007791D02*
X022043Y007791D01*
X023328Y006365D02*
X023441Y006365D01*
X023283Y006206D02*
X023170Y006206D01*
X023124Y006048D02*
X023011Y006048D01*
X022966Y005889D02*
X022790Y005889D01*
X014244Y011754D02*
X014153Y011754D01*
X014148Y011595D02*
X013994Y011595D01*
X013990Y011437D02*
X010909Y011437D01*
X010975Y011595D02*
X010750Y011595D01*
X010803Y011754D02*
X010595Y011754D01*
X010659Y011912D02*
X010739Y011912D01*
X010739Y012071D02*
X010659Y012071D01*
X010602Y012229D02*
X010796Y012229D01*
X010936Y012388D02*
X010462Y012388D01*
X009936Y012388D02*
X009462Y012388D01*
X008947Y012705D02*
X011766Y012705D01*
X011684Y012863D02*
X008789Y012863D01*
X008630Y013022D02*
X011684Y013022D01*
X011684Y013180D02*
X008472Y013180D01*
X008313Y013339D02*
X011809Y013339D01*
X011968Y013497D02*
X008155Y013497D01*
X007996Y013656D02*
X011815Y013656D01*
X012589Y013339D02*
X015105Y013339D01*
X015156Y013180D02*
X012714Y013180D01*
X012714Y013022D02*
X015288Y013022D01*
X014358Y012388D02*
X014012Y012388D01*
X014170Y012229D02*
X014236Y012229D01*
X013699Y012229D02*
X013699Y012229D01*
X013699Y012071D02*
X013699Y012071D01*
X013699Y011912D02*
X013699Y011912D01*
X013699Y011754D02*
X013699Y011754D01*
X013699Y011595D02*
X013699Y011595D01*
X013699Y012388D02*
X013699Y012388D01*
X010199Y019203D02*
X010199Y019203D01*
X010199Y019362D02*
X010199Y019362D01*
X010199Y019520D02*
X010199Y019520D01*
X010199Y019679D02*
X010199Y019679D01*
X010199Y019837D02*
X010199Y019837D01*
X010195Y020154D02*
X010003Y020154D01*
X009759Y019679D02*
X007385Y019679D01*
X008844Y019996D02*
X009354Y019996D01*
X009195Y020154D02*
X009003Y020154D01*
X009061Y020788D02*
X009138Y020788D01*
X009296Y020947D02*
X008902Y020947D01*
X009902Y020947D02*
X010296Y020947D01*
X010138Y020788D02*
X010061Y020788D01*
X004491Y019045D02*
X004077Y019045D01*
X004077Y019203D02*
X004237Y019203D01*
X004149Y019362D02*
X003977Y019362D01*
X004077Y018886D02*
X004354Y018886D01*
X004196Y018728D02*
X004066Y018728D01*
X004026Y018569D02*
X004149Y018569D01*
X004257Y006365D02*
X004713Y006365D01*
X004586Y006206D02*
X004415Y006206D01*
X004439Y006048D02*
X004539Y006048D01*
X004547Y005889D02*
X004439Y005889D01*
X004352Y005731D02*
X004618Y005731D01*
X004830Y005572D02*
X004193Y005572D01*
X003646Y005731D02*
X002718Y005731D01*
X002560Y005889D02*
X003559Y005889D01*
X003559Y006048D02*
X002524Y006048D01*
X002683Y006206D02*
X003583Y006206D01*
X009079Y001927D02*
X009319Y001927D01*
D24*
X004999Y006000D02*
X005949Y006950D01*
X005949Y013500D01*
X006199Y013750D01*
X007449Y013750D01*
X009199Y012000D01*
D25*
X009699Y013500D03*
X015599Y017200D03*
X017449Y014500D03*
X021699Y013700D03*
X023749Y016250D03*
X021949Y018350D03*
X026699Y015750D03*
X026699Y013250D03*
X023199Y009000D03*
X025199Y006750D03*
X026699Y005000D03*
X025399Y003550D03*
X023999Y003950D03*
X019699Y002600D03*
X017549Y002600D03*
X017199Y003150D03*
X018199Y004350D03*
X006699Y004350D03*
X006699Y005500D03*
X003899Y003950D03*
X003949Y003250D03*
X002949Y007500D03*
X001949Y007500D03*
X002199Y009500D03*
X002199Y011500D03*
X003699Y019000D03*
X002949Y020500D03*
X007599Y019100D03*
X008599Y019100D03*
D26*
X025199Y006750D02*
X025199Y004750D01*
X026199Y003750D01*
X026199Y003350D01*
X026174Y003350D01*
X025974Y003150D01*
X017199Y003150D01*
X018199Y004350D02*
X006699Y004350D01*
X004249Y003550D02*
X003949Y003250D01*
X004249Y003550D02*
X025399Y003550D01*
X023999Y003950D02*
X003899Y003950D01*
M02*
