G75*
G70*
%OFA0B0*%
%FSLAX24Y24*%
%IPPOS*%
%LPD*%
%AMOC8*
5,1,8,0,0,1.08239X$1,22.5*
%
%ADD10C,0.0000*%
%ADD11C,0.0520*%
%ADD12OC8,0.0520*%
%ADD13OC8,0.0630*%
%ADD14C,0.0630*%
%ADD15OC8,0.0660*%
%ADD16C,0.0104*%
%ADD17OC8,0.0700*%
%ADD18OC8,0.0515*%
%ADD19C,0.0515*%
%ADD20C,0.0740*%
%ADD21C,0.0886*%
%ADD22C,0.0520*%
%ADD23C,0.0160*%
%ADD24C,0.0320*%
%ADD25R,0.0356X0.0356*%
%ADD26C,0.0121*%
%ADD27C,0.0240*%
%ADD28C,0.0660*%
%ADD29C,0.0120*%
D10*
X001199Y000500D02*
X001199Y021496D01*
X026599Y021501D01*
X027199Y020900D01*
X027199Y016400D01*
X028199Y015400D01*
X028199Y002500D01*
X027199Y001500D01*
X027199Y000500D01*
X001199Y000500D01*
X006069Y001500D02*
X006071Y001550D01*
X006077Y001600D01*
X006087Y001649D01*
X006101Y001697D01*
X006118Y001744D01*
X006139Y001789D01*
X006164Y001833D01*
X006192Y001874D01*
X006224Y001913D01*
X006258Y001950D01*
X006295Y001984D01*
X006335Y002014D01*
X006377Y002041D01*
X006421Y002065D01*
X006467Y002086D01*
X006514Y002102D01*
X006562Y002115D01*
X006612Y002124D01*
X006661Y002129D01*
X006712Y002130D01*
X006762Y002127D01*
X006811Y002120D01*
X006860Y002109D01*
X006908Y002094D01*
X006954Y002076D01*
X006999Y002054D01*
X007042Y002028D01*
X007083Y001999D01*
X007122Y001967D01*
X007158Y001932D01*
X007190Y001894D01*
X007220Y001854D01*
X007247Y001811D01*
X007270Y001767D01*
X007289Y001721D01*
X007305Y001673D01*
X007317Y001624D01*
X007325Y001575D01*
X007329Y001525D01*
X007329Y001475D01*
X007325Y001425D01*
X007317Y001376D01*
X007305Y001327D01*
X007289Y001279D01*
X007270Y001233D01*
X007247Y001189D01*
X007220Y001146D01*
X007190Y001106D01*
X007158Y001068D01*
X007122Y001033D01*
X007083Y001001D01*
X007042Y000972D01*
X006999Y000946D01*
X006954Y000924D01*
X006908Y000906D01*
X006860Y000891D01*
X006811Y000880D01*
X006762Y000873D01*
X006712Y000870D01*
X006661Y000871D01*
X006612Y000876D01*
X006562Y000885D01*
X006514Y000898D01*
X006467Y000914D01*
X006421Y000935D01*
X006377Y000959D01*
X006335Y000986D01*
X006295Y001016D01*
X006258Y001050D01*
X006224Y001087D01*
X006192Y001126D01*
X006164Y001167D01*
X006139Y001211D01*
X006118Y001256D01*
X006101Y001303D01*
X006087Y001351D01*
X006077Y001400D01*
X006071Y001450D01*
X006069Y001500D01*
X002463Y008531D02*
X002465Y008561D01*
X002471Y008591D01*
X002480Y008620D01*
X002493Y008647D01*
X002510Y008672D01*
X002529Y008695D01*
X002552Y008716D01*
X002577Y008733D01*
X002603Y008747D01*
X002632Y008757D01*
X002661Y008764D01*
X002691Y008767D01*
X002722Y008766D01*
X002752Y008761D01*
X002781Y008752D01*
X002808Y008740D01*
X002834Y008725D01*
X002858Y008706D01*
X002879Y008684D01*
X002897Y008660D01*
X002912Y008633D01*
X002923Y008605D01*
X002931Y008576D01*
X002935Y008546D01*
X002935Y008516D01*
X002931Y008486D01*
X002923Y008457D01*
X002912Y008429D01*
X002897Y008402D01*
X002879Y008378D01*
X002858Y008356D01*
X002834Y008337D01*
X002808Y008322D01*
X002781Y008310D01*
X002752Y008301D01*
X002722Y008296D01*
X002691Y008295D01*
X002661Y008298D01*
X002632Y008305D01*
X002603Y008315D01*
X002577Y008329D01*
X002552Y008346D01*
X002529Y008367D01*
X002510Y008390D01*
X002493Y008415D01*
X002480Y008442D01*
X002471Y008471D01*
X002465Y008501D01*
X002463Y008531D01*
X001479Y008531D02*
X001481Y008561D01*
X001487Y008591D01*
X001496Y008620D01*
X001509Y008647D01*
X001526Y008672D01*
X001545Y008695D01*
X001568Y008716D01*
X001593Y008733D01*
X001619Y008747D01*
X001648Y008757D01*
X001677Y008764D01*
X001707Y008767D01*
X001738Y008766D01*
X001768Y008761D01*
X001797Y008752D01*
X001824Y008740D01*
X001850Y008725D01*
X001874Y008706D01*
X001895Y008684D01*
X001913Y008660D01*
X001928Y008633D01*
X001939Y008605D01*
X001947Y008576D01*
X001951Y008546D01*
X001951Y008516D01*
X001947Y008486D01*
X001939Y008457D01*
X001928Y008429D01*
X001913Y008402D01*
X001895Y008378D01*
X001874Y008356D01*
X001850Y008337D01*
X001824Y008322D01*
X001797Y008310D01*
X001768Y008301D01*
X001738Y008296D01*
X001707Y008295D01*
X001677Y008298D01*
X001648Y008305D01*
X001619Y008315D01*
X001593Y008329D01*
X001568Y008346D01*
X001545Y008367D01*
X001526Y008390D01*
X001509Y008415D01*
X001496Y008442D01*
X001487Y008471D01*
X001481Y008501D01*
X001479Y008531D01*
X004432Y010500D02*
X004434Y010530D01*
X004440Y010560D01*
X004449Y010589D01*
X004462Y010616D01*
X004479Y010641D01*
X004498Y010664D01*
X004521Y010685D01*
X004546Y010702D01*
X004572Y010716D01*
X004601Y010726D01*
X004630Y010733D01*
X004660Y010736D01*
X004691Y010735D01*
X004721Y010730D01*
X004750Y010721D01*
X004777Y010709D01*
X004803Y010694D01*
X004827Y010675D01*
X004848Y010653D01*
X004866Y010629D01*
X004881Y010602D01*
X004892Y010574D01*
X004900Y010545D01*
X004904Y010515D01*
X004904Y010485D01*
X004900Y010455D01*
X004892Y010426D01*
X004881Y010398D01*
X004866Y010371D01*
X004848Y010347D01*
X004827Y010325D01*
X004803Y010306D01*
X004777Y010291D01*
X004750Y010279D01*
X004721Y010270D01*
X004691Y010265D01*
X004660Y010264D01*
X004630Y010267D01*
X004601Y010274D01*
X004572Y010284D01*
X004546Y010298D01*
X004521Y010315D01*
X004498Y010336D01*
X004479Y010359D01*
X004462Y010384D01*
X004449Y010411D01*
X004440Y010440D01*
X004434Y010470D01*
X004432Y010500D01*
X002463Y012469D02*
X002465Y012499D01*
X002471Y012529D01*
X002480Y012558D01*
X002493Y012585D01*
X002510Y012610D01*
X002529Y012633D01*
X002552Y012654D01*
X002577Y012671D01*
X002603Y012685D01*
X002632Y012695D01*
X002661Y012702D01*
X002691Y012705D01*
X002722Y012704D01*
X002752Y012699D01*
X002781Y012690D01*
X002808Y012678D01*
X002834Y012663D01*
X002858Y012644D01*
X002879Y012622D01*
X002897Y012598D01*
X002912Y012571D01*
X002923Y012543D01*
X002931Y012514D01*
X002935Y012484D01*
X002935Y012454D01*
X002931Y012424D01*
X002923Y012395D01*
X002912Y012367D01*
X002897Y012340D01*
X002879Y012316D01*
X002858Y012294D01*
X002834Y012275D01*
X002808Y012260D01*
X002781Y012248D01*
X002752Y012239D01*
X002722Y012234D01*
X002691Y012233D01*
X002661Y012236D01*
X002632Y012243D01*
X002603Y012253D01*
X002577Y012267D01*
X002552Y012284D01*
X002529Y012305D01*
X002510Y012328D01*
X002493Y012353D01*
X002480Y012380D01*
X002471Y012409D01*
X002465Y012439D01*
X002463Y012469D01*
X001479Y012469D02*
X001481Y012499D01*
X001487Y012529D01*
X001496Y012558D01*
X001509Y012585D01*
X001526Y012610D01*
X001545Y012633D01*
X001568Y012654D01*
X001593Y012671D01*
X001619Y012685D01*
X001648Y012695D01*
X001677Y012702D01*
X001707Y012705D01*
X001738Y012704D01*
X001768Y012699D01*
X001797Y012690D01*
X001824Y012678D01*
X001850Y012663D01*
X001874Y012644D01*
X001895Y012622D01*
X001913Y012598D01*
X001928Y012571D01*
X001939Y012543D01*
X001947Y012514D01*
X001951Y012484D01*
X001951Y012454D01*
X001947Y012424D01*
X001939Y012395D01*
X001928Y012367D01*
X001913Y012340D01*
X001895Y012316D01*
X001874Y012294D01*
X001850Y012275D01*
X001824Y012260D01*
X001797Y012248D01*
X001768Y012239D01*
X001738Y012234D01*
X001707Y012233D01*
X001677Y012236D01*
X001648Y012243D01*
X001619Y012253D01*
X001593Y012267D01*
X001568Y012284D01*
X001545Y012305D01*
X001526Y012328D01*
X001509Y012353D01*
X001496Y012380D01*
X001487Y012409D01*
X001481Y012439D01*
X001479Y012469D01*
X006569Y020500D02*
X006571Y020550D01*
X006577Y020600D01*
X006587Y020649D01*
X006601Y020697D01*
X006618Y020744D01*
X006639Y020789D01*
X006664Y020833D01*
X006692Y020874D01*
X006724Y020913D01*
X006758Y020950D01*
X006795Y020984D01*
X006835Y021014D01*
X006877Y021041D01*
X006921Y021065D01*
X006967Y021086D01*
X007014Y021102D01*
X007062Y021115D01*
X007112Y021124D01*
X007161Y021129D01*
X007212Y021130D01*
X007262Y021127D01*
X007311Y021120D01*
X007360Y021109D01*
X007408Y021094D01*
X007454Y021076D01*
X007499Y021054D01*
X007542Y021028D01*
X007583Y020999D01*
X007622Y020967D01*
X007658Y020932D01*
X007690Y020894D01*
X007720Y020854D01*
X007747Y020811D01*
X007770Y020767D01*
X007789Y020721D01*
X007805Y020673D01*
X007817Y020624D01*
X007825Y020575D01*
X007829Y020525D01*
X007829Y020475D01*
X007825Y020425D01*
X007817Y020376D01*
X007805Y020327D01*
X007789Y020279D01*
X007770Y020233D01*
X007747Y020189D01*
X007720Y020146D01*
X007690Y020106D01*
X007658Y020068D01*
X007622Y020033D01*
X007583Y020001D01*
X007542Y019972D01*
X007499Y019946D01*
X007454Y019924D01*
X007408Y019906D01*
X007360Y019891D01*
X007311Y019880D01*
X007262Y019873D01*
X007212Y019870D01*
X007161Y019871D01*
X007112Y019876D01*
X007062Y019885D01*
X007014Y019898D01*
X006967Y019914D01*
X006921Y019935D01*
X006877Y019959D01*
X006835Y019986D01*
X006795Y020016D01*
X006758Y020050D01*
X006724Y020087D01*
X006692Y020126D01*
X006664Y020167D01*
X006639Y020211D01*
X006618Y020256D01*
X006601Y020303D01*
X006587Y020351D01*
X006577Y020400D01*
X006571Y020450D01*
X006569Y020500D01*
X026569Y014500D02*
X026571Y014550D01*
X026577Y014600D01*
X026587Y014649D01*
X026601Y014697D01*
X026618Y014744D01*
X026639Y014789D01*
X026664Y014833D01*
X026692Y014874D01*
X026724Y014913D01*
X026758Y014950D01*
X026795Y014984D01*
X026835Y015014D01*
X026877Y015041D01*
X026921Y015065D01*
X026967Y015086D01*
X027014Y015102D01*
X027062Y015115D01*
X027112Y015124D01*
X027161Y015129D01*
X027212Y015130D01*
X027262Y015127D01*
X027311Y015120D01*
X027360Y015109D01*
X027408Y015094D01*
X027454Y015076D01*
X027499Y015054D01*
X027542Y015028D01*
X027583Y014999D01*
X027622Y014967D01*
X027658Y014932D01*
X027690Y014894D01*
X027720Y014854D01*
X027747Y014811D01*
X027770Y014767D01*
X027789Y014721D01*
X027805Y014673D01*
X027817Y014624D01*
X027825Y014575D01*
X027829Y014525D01*
X027829Y014475D01*
X027825Y014425D01*
X027817Y014376D01*
X027805Y014327D01*
X027789Y014279D01*
X027770Y014233D01*
X027747Y014189D01*
X027720Y014146D01*
X027690Y014106D01*
X027658Y014068D01*
X027622Y014033D01*
X027583Y014001D01*
X027542Y013972D01*
X027499Y013946D01*
X027454Y013924D01*
X027408Y013906D01*
X027360Y013891D01*
X027311Y013880D01*
X027262Y013873D01*
X027212Y013870D01*
X027161Y013871D01*
X027112Y013876D01*
X027062Y013885D01*
X027014Y013898D01*
X026967Y013914D01*
X026921Y013935D01*
X026877Y013959D01*
X026835Y013986D01*
X026795Y014016D01*
X026758Y014050D01*
X026724Y014087D01*
X026692Y014126D01*
X026664Y014167D01*
X026639Y014211D01*
X026618Y014256D01*
X026601Y014303D01*
X026587Y014351D01*
X026577Y014400D01*
X026571Y014450D01*
X026569Y014500D01*
X026569Y003500D02*
X026571Y003550D01*
X026577Y003600D01*
X026587Y003649D01*
X026601Y003697D01*
X026618Y003744D01*
X026639Y003789D01*
X026664Y003833D01*
X026692Y003874D01*
X026724Y003913D01*
X026758Y003950D01*
X026795Y003984D01*
X026835Y004014D01*
X026877Y004041D01*
X026921Y004065D01*
X026967Y004086D01*
X027014Y004102D01*
X027062Y004115D01*
X027112Y004124D01*
X027161Y004129D01*
X027212Y004130D01*
X027262Y004127D01*
X027311Y004120D01*
X027360Y004109D01*
X027408Y004094D01*
X027454Y004076D01*
X027499Y004054D01*
X027542Y004028D01*
X027583Y003999D01*
X027622Y003967D01*
X027658Y003932D01*
X027690Y003894D01*
X027720Y003854D01*
X027747Y003811D01*
X027770Y003767D01*
X027789Y003721D01*
X027805Y003673D01*
X027817Y003624D01*
X027825Y003575D01*
X027829Y003525D01*
X027829Y003475D01*
X027825Y003425D01*
X027817Y003376D01*
X027805Y003327D01*
X027789Y003279D01*
X027770Y003233D01*
X027747Y003189D01*
X027720Y003146D01*
X027690Y003106D01*
X027658Y003068D01*
X027622Y003033D01*
X027583Y003001D01*
X027542Y002972D01*
X027499Y002946D01*
X027454Y002924D01*
X027408Y002906D01*
X027360Y002891D01*
X027311Y002880D01*
X027262Y002873D01*
X027212Y002870D01*
X027161Y002871D01*
X027112Y002876D01*
X027062Y002885D01*
X027014Y002898D01*
X026967Y002914D01*
X026921Y002935D01*
X026877Y002959D01*
X026835Y002986D01*
X026795Y003016D01*
X026758Y003050D01*
X026724Y003087D01*
X026692Y003126D01*
X026664Y003167D01*
X026639Y003211D01*
X026618Y003256D01*
X026601Y003303D01*
X026587Y003351D01*
X026577Y003400D01*
X026571Y003450D01*
X026569Y003500D01*
D11*
X020949Y015300D03*
X020949Y017200D03*
X011199Y015000D03*
X010199Y015000D03*
X009199Y015000D03*
X008199Y015000D03*
X006449Y015250D03*
X008199Y012000D03*
X009199Y012000D03*
X010199Y012000D03*
X011199Y012000D03*
X004999Y006000D03*
D12*
X003999Y006000D03*
X006699Y006750D03*
X006699Y009750D03*
X006699Y011000D03*
X006699Y013000D03*
X005449Y015250D03*
X007949Y016250D03*
X010199Y017500D03*
X011349Y017500D03*
X010949Y016250D03*
X011849Y016250D03*
X014849Y016250D03*
X011349Y019500D03*
X010199Y019500D03*
X005949Y020500D03*
X005949Y017500D03*
X022699Y017800D03*
X022699Y016800D03*
X022699Y015700D03*
X022699Y014700D03*
X016199Y003000D03*
X013199Y003000D03*
X012199Y003000D03*
X009199Y003000D03*
X008199Y003000D03*
X005199Y003000D03*
X005249Y001500D03*
X004249Y001500D03*
D13*
X007699Y005000D03*
X008699Y005000D03*
X008699Y006000D03*
X007699Y006000D03*
X007699Y007000D03*
X008699Y007000D03*
X008699Y008000D03*
X007699Y008000D03*
X007699Y009000D03*
X008699Y009000D03*
X009699Y009000D03*
X010699Y009000D03*
X011749Y009000D03*
X012699Y009000D03*
X013699Y009000D03*
X014699Y009000D03*
X015699Y009000D03*
X016699Y009000D03*
X017699Y009000D03*
X017699Y008000D03*
X016699Y008000D03*
X015699Y008000D03*
X014699Y008000D03*
X013699Y008000D03*
X012699Y008000D03*
X011699Y008000D03*
X010699Y008000D03*
X009699Y008000D03*
X009699Y007000D03*
X010699Y007000D03*
X011699Y007000D03*
X012699Y007000D03*
X013699Y007000D03*
X014699Y007000D03*
X015699Y007000D03*
X016699Y007000D03*
X017699Y007000D03*
X017699Y006000D03*
X018699Y006000D03*
X018699Y005000D03*
X017699Y005000D03*
X016699Y005000D03*
X015699Y005000D03*
X014699Y005000D03*
X013699Y005000D03*
X012699Y005000D03*
X011699Y005000D03*
X010699Y005000D03*
X009699Y005000D03*
X009699Y006000D03*
X010699Y006000D03*
X011699Y006000D03*
X012699Y006000D03*
X013699Y006000D03*
X014699Y006000D03*
X015699Y006000D03*
X016699Y006000D03*
X016699Y010000D03*
X015699Y010000D03*
X014699Y010000D03*
X013699Y010000D03*
X012699Y010000D03*
X011699Y010000D03*
X010699Y010000D03*
X009699Y010000D03*
X008699Y010000D03*
X007699Y010000D03*
X008199Y011000D03*
X012199Y012000D03*
X012199Y013000D03*
X012199Y014000D03*
X012199Y015000D03*
X013699Y012000D03*
X017699Y010000D03*
X007599Y018250D03*
D14*
X008599Y018250D03*
X014699Y012000D03*
D15*
X014599Y020500D03*
X015599Y020500D03*
X016599Y020500D03*
X017599Y020500D03*
X019199Y020500D03*
X020199Y020500D03*
X021199Y020500D03*
X022199Y020500D03*
X023199Y020500D03*
X024199Y020500D03*
X025199Y020500D03*
X026199Y020500D03*
X013599Y020500D03*
X012599Y020500D03*
X011599Y020500D03*
X010599Y020500D03*
X009599Y020500D03*
X008599Y020500D03*
X014199Y001500D03*
X015199Y001500D03*
X016199Y001500D03*
X017199Y001500D03*
X018199Y001500D03*
X019199Y001500D03*
X021199Y001500D03*
X022199Y001500D03*
X023199Y001500D03*
X024199Y001500D03*
X025199Y001500D03*
X026199Y001500D03*
D16*
X019262Y007666D02*
X019314Y007614D01*
X019142Y007614D01*
X019021Y007735D01*
X019021Y007907D01*
X019142Y008028D01*
X019314Y008028D01*
X019435Y007907D01*
X019435Y007735D01*
X019314Y007614D01*
X019282Y007692D01*
X019174Y007692D01*
X019099Y007767D01*
X019099Y007875D01*
X019174Y007950D01*
X019282Y007950D01*
X019357Y007875D01*
X019357Y007767D01*
X019282Y007692D01*
X019249Y007770D01*
X019207Y007770D01*
X019177Y007800D01*
X019177Y007842D01*
X019207Y007872D01*
X019249Y007872D01*
X019279Y007842D01*
X019279Y007800D01*
X019249Y007770D01*
X018555Y008374D02*
X018607Y008322D01*
X018435Y008322D01*
X018314Y008443D01*
X018314Y008615D01*
X018435Y008736D01*
X018607Y008736D01*
X018728Y008615D01*
X018728Y008443D01*
X018607Y008322D01*
X018575Y008400D01*
X018467Y008400D01*
X018392Y008475D01*
X018392Y008583D01*
X018467Y008658D01*
X018575Y008658D01*
X018650Y008583D01*
X018650Y008475D01*
X018575Y008400D01*
X018542Y008478D01*
X018500Y008478D01*
X018470Y008508D01*
X018470Y008550D01*
X018500Y008580D01*
X018542Y008580D01*
X018572Y008550D01*
X018572Y008508D01*
X018542Y008478D01*
X023044Y012576D02*
X022992Y012628D01*
X023164Y012628D01*
X023285Y012507D01*
X023285Y012335D01*
X023164Y012214D01*
X022992Y012214D01*
X022871Y012335D01*
X022871Y012507D01*
X022992Y012628D01*
X023024Y012550D01*
X023132Y012550D01*
X023207Y012475D01*
X023207Y012367D01*
X023132Y012292D01*
X023024Y012292D01*
X022949Y012367D01*
X022949Y012475D01*
X023024Y012550D01*
X023057Y012472D01*
X023099Y012472D01*
X023129Y012442D01*
X023129Y012400D01*
X023099Y012370D01*
X023057Y012370D01*
X023027Y012400D01*
X023027Y012442D01*
X023057Y012472D01*
X022337Y013284D02*
X022285Y013336D01*
X022457Y013336D01*
X022578Y013215D01*
X022578Y013043D01*
X022457Y012922D01*
X022285Y012922D01*
X022164Y013043D01*
X022164Y013215D01*
X022285Y013336D01*
X022317Y013258D01*
X022425Y013258D01*
X022500Y013183D01*
X022500Y013075D01*
X022425Y013000D01*
X022317Y013000D01*
X022242Y013075D01*
X022242Y013183D01*
X022317Y013258D01*
X022350Y013180D01*
X022392Y013180D01*
X022422Y013150D01*
X022422Y013108D01*
X022392Y013078D01*
X022350Y013078D01*
X022320Y013108D01*
X022320Y013150D01*
X022350Y013180D01*
D17*
X022199Y019500D03*
X023199Y019500D03*
X024199Y019500D03*
X025199Y019500D03*
X026199Y019500D03*
X021199Y019500D03*
X020199Y019500D03*
X019199Y019500D03*
X002199Y006500D03*
X002199Y005500D03*
X002199Y004500D03*
X002199Y003500D03*
X002199Y002500D03*
X002199Y001500D03*
X021199Y002500D03*
X022199Y002500D03*
X023199Y002500D03*
X024199Y002500D03*
X025199Y002500D03*
X026199Y002500D03*
D18*
X004587Y018500D03*
D19*
X004587Y019500D03*
X004587Y020500D03*
D20*
X012599Y019500D03*
X013599Y019500D03*
X013599Y018500D03*
X012599Y018500D03*
X014599Y018500D03*
X015599Y018500D03*
X015599Y019500D03*
X014599Y019500D03*
X016599Y019500D03*
X017599Y019500D03*
X017599Y018500D03*
X013199Y001500D03*
X012199Y001500D03*
X010699Y001500D03*
X009699Y001500D03*
X008699Y001500D03*
D21*
X004668Y008531D03*
X004668Y009516D03*
X002699Y010500D03*
X004668Y011484D03*
X004668Y012469D03*
D22*
X014858Y014102D02*
X015226Y014469D01*
X015933Y013762D02*
X015565Y013395D01*
X016273Y012687D02*
X016640Y013055D01*
X017347Y012348D02*
X016980Y011980D01*
X017687Y011273D02*
X018054Y011641D01*
X018762Y010934D02*
X018394Y010566D01*
X019101Y009859D02*
X019469Y010227D01*
X020176Y009520D02*
X019808Y009152D01*
X020515Y008445D02*
X020883Y008813D01*
X021590Y008105D02*
X021222Y007738D01*
X021929Y007031D02*
X022297Y007398D01*
X023004Y006691D02*
X022637Y006324D01*
X023344Y005616D02*
X023711Y005984D01*
X024418Y005277D02*
X024051Y004909D01*
X026172Y007031D02*
X026540Y007398D01*
X025833Y008105D02*
X025465Y007738D01*
X024758Y008445D02*
X025126Y008813D01*
X024418Y009520D02*
X024051Y009152D01*
X023344Y009859D02*
X023711Y010227D01*
X023004Y010934D02*
X022637Y010566D01*
X021929Y011273D02*
X022297Y011641D01*
X021590Y012348D02*
X021222Y011980D01*
X020515Y012687D02*
X020883Y013055D01*
X020176Y013762D02*
X019808Y013395D01*
X019101Y014102D02*
X019469Y014469D01*
X018762Y015176D02*
X018394Y014809D01*
X017687Y015516D02*
X018054Y015884D01*
X017347Y016591D02*
X016980Y016223D01*
D23*
X017164Y016407D02*
X018349Y017592D01*
X018349Y019100D01*
X017949Y019500D01*
X017599Y019500D01*
X018125Y019720D02*
X018082Y019823D01*
X017922Y019983D01*
X017858Y020010D01*
X018129Y020280D01*
X018129Y020720D01*
X017819Y021030D01*
X017380Y021030D01*
X017099Y020750D01*
X016819Y021030D01*
X016380Y021030D01*
X016099Y020750D01*
X015819Y021030D01*
X015380Y021030D01*
X015099Y020750D01*
X014819Y021030D01*
X014380Y021030D01*
X014099Y020750D01*
X013819Y021030D01*
X013380Y021030D01*
X013099Y020750D01*
X012819Y021030D01*
X012380Y021030D01*
X012085Y020735D01*
X011810Y021010D01*
X011617Y021010D01*
X011617Y020518D01*
X012069Y020518D01*
X012069Y020482D01*
X011617Y020482D01*
X011617Y019990D01*
X011810Y019990D01*
X012085Y020265D01*
X012319Y020030D01*
X012319Y020001D01*
X012276Y019983D01*
X012116Y019823D01*
X012029Y019613D01*
X012029Y019387D01*
X012116Y019177D01*
X012276Y019017D01*
X012317Y019000D01*
X012276Y018983D01*
X012116Y018823D01*
X012029Y018613D01*
X012029Y018387D01*
X012116Y018177D01*
X012276Y018017D01*
X012486Y017930D01*
X012650Y017930D01*
X012938Y017642D01*
X012938Y013448D01*
X012978Y013352D01*
X013051Y013279D01*
X013835Y012495D01*
X013699Y012495D01*
X013494Y012495D01*
X013204Y012205D01*
X013204Y012000D01*
X013204Y011795D01*
X013494Y011505D01*
X013699Y011505D01*
X013699Y012000D01*
X013204Y012000D01*
X013699Y012000D01*
X013699Y012000D01*
X013699Y012000D01*
X013699Y012495D01*
X013699Y012000D01*
X013699Y012000D01*
X013699Y011505D01*
X013904Y011505D01*
X013938Y011539D01*
X013938Y011448D01*
X013978Y011352D01*
X014051Y011279D01*
X014301Y011029D01*
X014397Y010989D01*
X017320Y010989D01*
X017426Y010883D01*
X017595Y010813D01*
X017778Y010813D01*
X017947Y010883D01*
X018444Y011380D01*
X018514Y011549D01*
X018514Y011732D01*
X018444Y011902D01*
X018315Y012031D01*
X018146Y012101D01*
X017963Y012101D01*
X017794Y012031D01*
X017297Y011534D01*
X017287Y011511D01*
X014863Y011511D01*
X014991Y011563D01*
X015136Y011708D01*
X015214Y011898D01*
X015214Y011966D01*
X015401Y011779D01*
X015497Y011739D01*
X016582Y011739D01*
X016590Y011720D01*
X016719Y011590D01*
X016888Y011520D01*
X017071Y011520D01*
X017240Y011590D01*
X017737Y012087D01*
X017807Y012257D01*
X017807Y012440D01*
X017737Y012609D01*
X017608Y012738D01*
X017439Y012808D01*
X017256Y012808D01*
X017087Y012738D01*
X016609Y012261D01*
X016444Y012261D01*
X016533Y012298D01*
X017030Y012795D01*
X017100Y012964D01*
X017100Y013147D01*
X017030Y013316D01*
X016901Y013445D01*
X016732Y013515D01*
X016549Y013515D01*
X016380Y013445D01*
X015945Y013011D01*
X015832Y013011D01*
X016323Y013502D01*
X016393Y013671D01*
X016393Y013826D01*
X016436Y013870D01*
X016479Y013972D01*
X016479Y016284D01*
X016527Y016332D01*
X016520Y016315D01*
X016520Y016132D01*
X016590Y015962D01*
X016719Y015833D01*
X016888Y015763D01*
X017071Y015763D01*
X017240Y015833D01*
X017737Y016330D01*
X017807Y016499D01*
X017807Y016655D01*
X018519Y017366D01*
X018519Y016744D01*
X018118Y016344D01*
X017963Y016344D01*
X017794Y016274D01*
X017297Y015776D01*
X017227Y015607D01*
X017227Y015424D01*
X017297Y015255D01*
X017426Y015126D01*
X017595Y015056D01*
X017778Y015056D01*
X017947Y015126D01*
X018444Y015623D01*
X018514Y015792D01*
X018514Y015948D01*
X019036Y016470D01*
X019079Y016572D01*
X019079Y018950D01*
X019427Y018950D01*
X019699Y019222D01*
X019919Y019002D01*
X019919Y018944D01*
X019962Y018841D01*
X020053Y018750D01*
X019540Y018237D01*
X019462Y018159D01*
X019419Y018056D01*
X019419Y015616D01*
X019177Y015374D01*
X019152Y015437D01*
X019022Y015566D01*
X018853Y015636D01*
X018670Y015636D01*
X018501Y015566D01*
X018004Y015069D01*
X017934Y014900D01*
X017934Y014717D01*
X018004Y014548D01*
X018119Y014433D01*
X018119Y013744D01*
X018162Y013641D01*
X020360Y011443D01*
X020463Y011400D01*
X020575Y011400D01*
X020678Y011443D01*
X020756Y011521D01*
X020799Y011624D01*
X020799Y011736D01*
X020756Y011839D01*
X020328Y012267D01*
X020424Y012227D01*
X020607Y012227D01*
X020776Y012298D01*
X021273Y012795D01*
X021343Y012964D01*
X021343Y013147D01*
X021273Y013316D01*
X021229Y013360D01*
X021229Y014624D01*
X021390Y014463D01*
X021493Y014420D01*
X022329Y014420D01*
X022509Y014240D01*
X022890Y014240D01*
X023159Y014509D01*
X023159Y014891D01*
X022890Y015160D01*
X022509Y015160D01*
X022329Y014980D01*
X021665Y014980D01*
X021409Y015236D01*
X021409Y015391D01*
X021339Y015561D01*
X021210Y015690D01*
X021041Y015760D01*
X020858Y015760D01*
X020688Y015690D01*
X020559Y015561D01*
X020529Y015488D01*
X020529Y016384D01*
X020885Y016740D01*
X021041Y016740D01*
X021210Y016810D01*
X021339Y016939D01*
X021409Y017108D01*
X021409Y017264D01*
X021665Y017520D01*
X022329Y017520D01*
X022509Y017340D01*
X022890Y017340D01*
X023159Y017609D01*
X023159Y017991D01*
X022890Y018260D01*
X022509Y018260D01*
X022329Y018080D01*
X021493Y018080D01*
X021390Y018037D01*
X021013Y017660D01*
X020858Y017660D01*
X020688Y017590D01*
X020559Y017461D01*
X020489Y017291D01*
X020489Y017136D01*
X020090Y016737D01*
X020012Y016659D01*
X019979Y016580D01*
X019979Y017884D01*
X020565Y018470D01*
X021605Y018470D01*
X021674Y018499D01*
X021743Y018470D01*
X022883Y018470D01*
X022890Y018463D01*
X023969Y017384D01*
X023969Y010916D01*
X023740Y010687D01*
X023620Y010687D01*
X023451Y010617D01*
X022954Y010120D01*
X022884Y009951D01*
X022884Y009930D01*
X022665Y009930D01*
X022449Y010146D01*
X022545Y010106D01*
X022728Y010106D01*
X022897Y010176D01*
X023394Y010673D01*
X023464Y010842D01*
X023464Y011025D01*
X023394Y011194D01*
X023265Y011324D01*
X023096Y011394D01*
X022913Y011394D01*
X022744Y011324D01*
X022247Y010827D01*
X022177Y010658D01*
X022177Y010475D01*
X022216Y010379D01*
X021824Y010771D01*
X021865Y010813D01*
X022021Y010813D01*
X022190Y010883D01*
X022687Y011380D01*
X022757Y011549D01*
X022757Y011705D01*
X023014Y011961D01*
X023268Y011961D01*
X023538Y012231D01*
X023538Y012612D01*
X023268Y012881D01*
X022887Y012881D01*
X022618Y012612D01*
X022618Y012357D01*
X022361Y012101D01*
X022206Y012101D01*
X022037Y012031D01*
X021539Y011534D01*
X021469Y011365D01*
X021469Y011209D01*
X021428Y011167D01*
X021108Y011487D01*
X021005Y011530D01*
X020893Y011530D01*
X020790Y011487D01*
X020712Y011409D01*
X020669Y011306D01*
X020669Y011194D01*
X020712Y011091D01*
X021069Y010734D01*
X021069Y010089D01*
X020605Y009624D01*
X020584Y009689D01*
X020552Y009750D01*
X020511Y009806D01*
X020487Y009831D01*
X020462Y009855D01*
X020406Y009896D01*
X020345Y009927D01*
X020279Y009949D01*
X020210Y009960D01*
X020141Y009960D01*
X020073Y009949D01*
X020007Y009927D01*
X019945Y009896D01*
X019889Y009855D01*
X019681Y009647D01*
X019992Y009336D01*
X020487Y009831D01*
X019992Y009336D01*
X019992Y009336D01*
X019992Y009336D01*
X020699Y010043D01*
X020699Y011500D01*
X021363Y012164D01*
X021406Y012164D01*
X020911Y011669D01*
X020936Y011645D01*
X020992Y011604D01*
X021053Y011573D01*
X021119Y011551D01*
X021188Y011540D01*
X021257Y011540D01*
X021325Y011551D01*
X021391Y011573D01*
X021453Y011604D01*
X021509Y011645D01*
X021717Y011853D01*
X021406Y012164D01*
X021406Y012164D01*
X020911Y011669D01*
X020887Y011694D01*
X020846Y011750D01*
X020815Y011811D01*
X020793Y011877D01*
X020782Y011946D01*
X020782Y012015D01*
X020793Y012083D01*
X020815Y012149D01*
X020846Y012211D01*
X020887Y012267D01*
X021095Y012475D01*
X021406Y012164D01*
X021406Y012164D01*
X021406Y012164D01*
X021717Y011853D01*
X021926Y012061D01*
X021966Y012117D01*
X021998Y012179D01*
X022019Y012245D01*
X022030Y012313D01*
X022030Y012383D01*
X022019Y012451D01*
X021998Y012517D01*
X021966Y012579D01*
X021926Y012635D01*
X021901Y012659D01*
X021406Y012164D01*
X021095Y012475D01*
X021303Y012684D01*
X021359Y012724D01*
X021421Y012756D01*
X021487Y012777D01*
X021555Y012788D01*
X021625Y012788D01*
X021693Y012777D01*
X021759Y012756D01*
X021821Y012724D01*
X021877Y012684D01*
X021901Y012659D01*
X021406Y012164D01*
X021406Y012164D01*
X021341Y012229D02*
X021341Y012229D01*
X021471Y012229D02*
X021471Y012229D01*
X021500Y012071D02*
X021500Y012071D01*
X021312Y012071D02*
X021312Y012071D01*
X021154Y011912D02*
X021154Y011912D01*
X020995Y011754D02*
X020995Y011754D01*
X020844Y011754D02*
X020792Y011754D01*
X020788Y011912D02*
X020683Y011912D01*
X020791Y012071D02*
X020525Y012071D01*
X020610Y012229D02*
X020859Y012229D01*
X020866Y012388D02*
X021007Y012388D01*
X021024Y012546D02*
X021166Y012546D01*
X021183Y012388D02*
X021183Y012388D01*
X021183Y012705D02*
X021332Y012705D01*
X021301Y012863D02*
X022014Y012863D01*
X022059Y012817D02*
X021931Y012946D01*
X021931Y013311D01*
X022059Y013440D01*
X022370Y013129D01*
X022370Y013129D01*
X022059Y013440D01*
X022188Y013569D01*
X022553Y013569D01*
X022682Y013440D01*
X022371Y013129D01*
X022682Y013440D01*
X022810Y013311D01*
X022810Y012946D01*
X022682Y012817D01*
X022371Y013129D01*
X022371Y013129D01*
X022682Y012817D01*
X022553Y012689D01*
X022188Y012689D01*
X022059Y012817D01*
X022370Y013129D01*
X022370Y013129D01*
X022059Y012817D01*
X022105Y012863D02*
X022105Y012863D01*
X022172Y012705D02*
X021848Y012705D01*
X021788Y012546D02*
X021788Y012546D01*
X021983Y012546D02*
X022618Y012546D01*
X022618Y012388D02*
X022029Y012388D01*
X022014Y012229D02*
X022489Y012229D01*
X022132Y012071D02*
X021932Y012071D01*
X021918Y011912D02*
X021776Y011912D01*
X021658Y011912D02*
X021658Y011912D01*
X021618Y011754D02*
X021759Y011754D01*
X021601Y011595D02*
X021435Y011595D01*
X021499Y011437D02*
X021159Y011437D01*
X021009Y011595D02*
X020787Y011595D01*
X020740Y011437D02*
X020663Y011437D01*
X020669Y011278D02*
X019068Y011278D01*
X019022Y011324D02*
X018853Y011394D01*
X018670Y011394D01*
X018501Y011324D01*
X018004Y010827D01*
X017977Y010761D01*
X016397Y010761D01*
X016301Y010721D01*
X016228Y010648D01*
X016004Y010423D01*
X015912Y010515D01*
X015486Y010515D01*
X015199Y010228D01*
X014912Y010515D01*
X014486Y010515D01*
X014199Y010228D01*
X013912Y010515D01*
X013486Y010515D01*
X013199Y010228D01*
X012912Y010515D01*
X012486Y010515D01*
X012199Y010228D01*
X011912Y010515D01*
X011486Y010515D01*
X011199Y010228D01*
X010912Y010515D01*
X010486Y010515D01*
X010199Y010228D01*
X009912Y010515D01*
X009486Y010515D01*
X009199Y010228D01*
X008912Y010515D01*
X008486Y010515D01*
X008199Y010228D01*
X007912Y010515D01*
X007486Y010515D01*
X007184Y010213D01*
X007184Y009787D01*
X007471Y009500D01*
X007184Y009213D01*
X007184Y008787D01*
X007471Y008500D01*
X007184Y008213D01*
X007184Y007787D01*
X007471Y007500D01*
X007184Y007213D01*
X007184Y006787D01*
X007471Y006500D01*
X007184Y006213D01*
X007184Y005787D01*
X007471Y005500D01*
X007184Y005213D01*
X007184Y004787D01*
X007486Y004485D01*
X007912Y004485D01*
X008199Y004772D01*
X008486Y004485D01*
X008912Y004485D01*
X009199Y004772D01*
X009486Y004485D01*
X009912Y004485D01*
X010199Y004772D01*
X010486Y004485D01*
X010912Y004485D01*
X011199Y004772D01*
X011486Y004485D01*
X011912Y004485D01*
X012199Y004772D01*
X012486Y004485D01*
X012912Y004485D01*
X013199Y004772D01*
X013486Y004485D01*
X013912Y004485D01*
X014199Y004772D01*
X014486Y004485D01*
X014912Y004485D01*
X015199Y004772D01*
X015486Y004485D01*
X015912Y004485D01*
X015938Y004511D01*
X015938Y004358D01*
X014940Y003360D01*
X013490Y003360D01*
X013390Y003460D01*
X013009Y003460D01*
X012909Y003360D01*
X012490Y003360D01*
X012390Y003460D01*
X012009Y003460D01*
X011739Y003191D01*
X011739Y002809D01*
X012009Y002540D01*
X012390Y002540D01*
X012490Y002640D01*
X012909Y002640D01*
X013009Y002540D01*
X013390Y002540D01*
X013490Y002640D01*
X014800Y002640D01*
X015410Y002030D01*
X014980Y002030D01*
X014699Y001750D01*
X014419Y002030D01*
X013980Y002030D01*
X013709Y001759D01*
X013682Y001823D01*
X013522Y001983D01*
X013312Y002070D01*
X013086Y002070D01*
X012876Y001983D01*
X012716Y001823D01*
X012699Y001782D01*
X012682Y001823D01*
X012522Y001983D01*
X012312Y002070D01*
X012086Y002070D01*
X011876Y001983D01*
X011716Y001823D01*
X011629Y001613D01*
X011629Y001387D01*
X011716Y001177D01*
X011823Y001070D01*
X011075Y001070D01*
X011182Y001177D01*
X011269Y001387D01*
X011269Y001613D01*
X011182Y001823D01*
X011059Y001946D01*
X011059Y002072D01*
X011004Y002204D01*
X010903Y002305D01*
X009903Y003305D01*
X009771Y003360D01*
X009490Y003360D01*
X009390Y003460D01*
X009009Y003460D01*
X008739Y003191D01*
X008739Y002969D01*
X008659Y003049D01*
X008659Y003191D01*
X008390Y003460D01*
X008009Y003460D01*
X007909Y003360D01*
X007098Y003360D01*
X005809Y004649D01*
X005809Y005491D01*
X005812Y005553D01*
X005809Y005562D01*
X005809Y005572D01*
X007399Y005572D01*
X007384Y005414D02*
X005809Y005414D01*
X005809Y005572D02*
X005785Y005629D01*
X005765Y005688D01*
X005758Y005695D01*
X005754Y005704D01*
X005710Y005748D01*
X005459Y006027D01*
X005459Y006091D01*
X005389Y006261D01*
X005260Y006390D01*
X005091Y006460D01*
X004908Y006460D01*
X004738Y006390D01*
X004609Y006261D01*
X004539Y006091D01*
X004539Y006049D01*
X004439Y005949D01*
X004439Y006000D01*
X004439Y006182D01*
X004181Y006440D01*
X003999Y006440D01*
X003817Y006440D01*
X003559Y006182D01*
X003559Y006000D01*
X003999Y006000D01*
X003559Y006000D01*
X003559Y005818D01*
X003817Y005560D01*
X003999Y005560D01*
X003999Y006000D01*
X003999Y006000D01*
X003999Y006000D01*
X003999Y006440D01*
X003999Y006000D01*
X003999Y006000D01*
X004749Y006750D01*
X006699Y006750D01*
X006259Y006750D01*
X006259Y006568D01*
X006517Y006310D01*
X006699Y006310D01*
X006699Y006750D01*
X006699Y006750D01*
X006259Y006750D01*
X006259Y006932D01*
X006517Y007190D01*
X006699Y007190D01*
X006699Y006750D01*
X006699Y006750D01*
X006699Y006750D01*
X006699Y007000D01*
X007199Y007500D01*
X007199Y010500D01*
X007449Y010750D01*
X007449Y014250D01*
X008199Y015000D01*
X007759Y015000D01*
X007759Y014965D01*
X007770Y014897D01*
X007791Y014831D01*
X007823Y014769D01*
X007863Y014713D01*
X007912Y014664D01*
X007968Y014624D01*
X008030Y014592D01*
X008096Y014571D01*
X008164Y014560D01*
X008199Y014560D01*
X008199Y015000D01*
X008199Y015000D01*
X007759Y015000D01*
X007759Y015035D01*
X007770Y015103D01*
X007791Y015169D01*
X007823Y015231D01*
X007863Y015287D01*
X007912Y015336D01*
X007968Y015376D01*
X008030Y015408D01*
X008096Y015429D01*
X008164Y015440D01*
X008199Y015440D01*
X008199Y015000D01*
X008199Y015000D01*
X008199Y015000D01*
X008199Y015250D01*
X006699Y016750D01*
X005699Y016750D01*
X004587Y017862D01*
X004587Y018500D01*
X005024Y018500D01*
X005024Y018681D01*
X004768Y018937D01*
X004587Y018937D01*
X004587Y018500D01*
X004587Y018500D01*
X005024Y018500D01*
X005024Y018319D01*
X004768Y018063D01*
X004587Y018063D01*
X004587Y018500D01*
X004587Y018500D01*
X004587Y018500D01*
X005587Y019500D01*
X007199Y019500D01*
X007599Y019100D01*
X007386Y018765D02*
X007151Y018530D01*
X006643Y018530D01*
X006540Y018487D01*
X006013Y017960D01*
X005759Y017960D01*
X005489Y017691D01*
X005489Y017309D01*
X005759Y017040D01*
X006140Y017040D01*
X006409Y017309D01*
X006409Y017564D01*
X006815Y017970D01*
X007151Y017970D01*
X007386Y017735D01*
X007812Y017735D01*
X008114Y018037D01*
X008114Y018075D01*
X008162Y017958D01*
X008307Y017813D01*
X008497Y017735D01*
X008701Y017735D01*
X008891Y017813D01*
X009036Y017958D01*
X009041Y017970D01*
X009333Y017970D01*
X009739Y017564D01*
X009739Y017436D01*
X008833Y016530D01*
X008320Y016530D01*
X008140Y016710D01*
X007759Y016710D01*
X007489Y016441D01*
X007489Y016059D01*
X007759Y015790D01*
X008140Y015790D01*
X008320Y015970D01*
X009005Y015970D01*
X009108Y016013D01*
X009186Y016091D01*
X010135Y017040D01*
X010390Y017040D01*
X010659Y017309D01*
X010659Y017691D01*
X010390Y017960D01*
X010135Y017960D01*
X009608Y018487D01*
X009505Y018530D01*
X009041Y018530D01*
X009036Y018542D01*
X008891Y018687D01*
X008701Y018765D01*
X008497Y018765D01*
X008307Y018687D01*
X008162Y018542D01*
X008114Y018425D01*
X008114Y018463D01*
X007812Y018765D01*
X007386Y018765D01*
X007348Y018728D02*
X004978Y018728D01*
X005024Y018569D02*
X007190Y018569D01*
X007599Y018250D02*
X006699Y018250D01*
X005949Y017500D01*
X005489Y017460D02*
X001399Y017460D01*
X001399Y017618D02*
X005489Y017618D01*
X005575Y017777D02*
X001399Y017777D01*
X001399Y017935D02*
X005734Y017935D01*
X006147Y018094D02*
X004799Y018094D01*
X004587Y018094D02*
X004587Y018094D01*
X004587Y018063D02*
X004587Y018500D01*
X004587Y018937D01*
X004406Y018937D01*
X004149Y018681D01*
X004149Y018500D01*
X004587Y018500D01*
X004149Y018500D01*
X004149Y018319D01*
X004406Y018063D01*
X004587Y018063D01*
X004587Y018252D02*
X004587Y018252D01*
X004587Y018411D02*
X004587Y018411D01*
X004587Y018500D02*
X004587Y018500D01*
X004587Y018569D02*
X004587Y018569D01*
X004587Y018728D02*
X004587Y018728D01*
X004587Y018886D02*
X004587Y018886D01*
X004678Y019043D02*
X004846Y019112D01*
X004975Y019241D01*
X005044Y019409D01*
X005044Y019591D01*
X004975Y019759D01*
X004846Y019888D01*
X004678Y019957D01*
X004496Y019957D01*
X004328Y019888D01*
X004220Y019780D01*
X004143Y019780D01*
X004040Y019737D01*
X003681Y019378D01*
X003438Y019378D01*
X003321Y019261D01*
X003321Y018739D01*
X003438Y018622D01*
X003960Y018622D01*
X004077Y018739D01*
X004077Y018982D01*
X004267Y019172D01*
X004328Y019112D01*
X004496Y019043D01*
X004678Y019043D01*
X004683Y019045D02*
X012248Y019045D01*
X012179Y018886D02*
X004820Y018886D01*
X004937Y019203D02*
X009874Y019203D01*
X009759Y019318D02*
X010017Y019060D01*
X010199Y019060D01*
X010199Y019500D01*
X009759Y019500D01*
X009759Y019318D01*
X009759Y019362D02*
X005025Y019362D01*
X005044Y019520D02*
X009759Y019520D01*
X009759Y019500D02*
X009759Y019682D01*
X010017Y019940D01*
X010199Y019940D01*
X010199Y019500D01*
X010199Y019500D01*
X009759Y019500D01*
X009759Y019679D02*
X007385Y019679D01*
X007364Y019670D02*
X007669Y019796D01*
X007903Y020030D01*
X008029Y020335D01*
X008029Y020665D01*
X007903Y020970D01*
X007669Y021204D01*
X007443Y021297D01*
X026516Y021301D01*
X026999Y020817D01*
X026999Y016483D01*
X026999Y016389D01*
X026999Y016317D01*
X027057Y016259D01*
X027116Y016200D01*
X027116Y016200D01*
X027999Y015317D01*
X027999Y014737D01*
X027903Y014970D01*
X027669Y015204D01*
X027364Y015330D01*
X027034Y015330D01*
X026729Y015204D01*
X026495Y014970D01*
X026369Y014665D01*
X026369Y014335D01*
X026495Y014030D01*
X026729Y013796D01*
X027034Y013670D01*
X027364Y013670D01*
X027669Y013796D01*
X027903Y014030D01*
X027999Y014263D01*
X027999Y003737D01*
X027903Y003970D01*
X027669Y004204D01*
X027364Y004330D01*
X027034Y004330D01*
X026729Y004204D01*
X026495Y003970D01*
X026369Y003665D01*
X026369Y003335D01*
X026495Y003030D01*
X026729Y002796D01*
X027034Y002670D01*
X027364Y002670D01*
X027669Y002796D01*
X027903Y003030D01*
X027999Y003263D01*
X027999Y002583D01*
X027061Y001645D01*
X026999Y001583D01*
X026999Y001583D01*
X026999Y001583D01*
X026999Y001500D01*
X026999Y000700D01*
X019102Y000700D01*
X019372Y000970D01*
X019419Y000970D01*
X019729Y001280D01*
X019729Y001720D01*
X019419Y002030D01*
X018980Y002030D01*
X018685Y001735D01*
X018410Y002010D01*
X018217Y002010D01*
X018217Y001518D01*
X018669Y001518D01*
X018669Y001482D01*
X018217Y001482D01*
X018217Y001070D01*
X018181Y001070D01*
X018181Y001482D01*
X017217Y001482D01*
X017217Y001518D01*
X017709Y001518D01*
X018181Y001518D01*
X018181Y001482D01*
X018217Y001482D01*
X018217Y001518D01*
X018181Y001518D01*
X018181Y002010D01*
X017988Y002010D01*
X017699Y001721D01*
X017410Y002010D01*
X017217Y002010D01*
X017217Y001518D01*
X017181Y001518D01*
X017181Y002010D01*
X016988Y002010D01*
X016713Y001735D01*
X016647Y001802D01*
X017165Y002320D01*
X017190Y002320D01*
X017288Y002222D01*
X017810Y002222D01*
X017927Y002339D01*
X017927Y002861D01*
X017810Y002978D01*
X017577Y002978D01*
X017577Y003411D01*
X017460Y003528D01*
X016938Y003528D01*
X016821Y003411D01*
X016821Y003411D01*
X016439Y003411D01*
X016390Y003460D01*
X016009Y003460D01*
X015739Y003191D01*
X015739Y002809D01*
X016009Y002540D01*
X016390Y002540D01*
X016659Y002809D01*
X016659Y002889D01*
X016821Y002889D01*
X016882Y002828D01*
X016812Y002759D01*
X016812Y002759D01*
X016256Y002203D01*
X015388Y003070D01*
X016347Y004029D01*
X016420Y004102D01*
X016460Y004198D01*
X016460Y004511D01*
X016486Y004485D01*
X016912Y004485D01*
X017199Y004772D01*
X017486Y004485D01*
X017912Y004485D01*
X018213Y004786D01*
X018494Y004505D01*
X018699Y004505D01*
X018699Y005000D01*
X018699Y005000D01*
X018699Y004850D01*
X018199Y004350D01*
X018199Y001500D01*
X017199Y001500D01*
X017181Y001610D02*
X017217Y001610D01*
X017217Y001768D02*
X017181Y001768D01*
X017181Y001927D02*
X017217Y001927D01*
X017494Y001927D02*
X017904Y001927D01*
X017746Y001768D02*
X017652Y001768D01*
X017832Y002244D02*
X019416Y002244D01*
X019438Y002222D02*
X019960Y002222D01*
X020077Y002339D01*
X020077Y002861D01*
X019979Y002959D01*
X019979Y003574D01*
X020737Y002816D01*
X020649Y002728D01*
X020649Y002272D01*
X020935Y001986D01*
X020669Y001720D01*
X020669Y001280D01*
X020980Y000970D01*
X021419Y000970D01*
X021699Y001250D01*
X021980Y000970D01*
X022419Y000970D01*
X022699Y001250D01*
X022980Y000970D01*
X023419Y000970D01*
X023699Y001250D01*
X023980Y000970D01*
X024419Y000970D01*
X024699Y001250D01*
X024980Y000970D01*
X025419Y000970D01*
X025699Y001250D01*
X025980Y000970D01*
X026419Y000970D01*
X026729Y001280D01*
X026729Y001720D01*
X026479Y001970D01*
X026479Y002002D01*
X026749Y002272D01*
X026749Y002728D01*
X026427Y003050D01*
X026295Y003050D01*
X025777Y003568D01*
X025777Y003811D01*
X025660Y003928D01*
X025417Y003928D01*
X024569Y004777D01*
X024808Y005016D01*
X024878Y005185D01*
X024878Y005368D01*
X024808Y005538D01*
X024679Y005667D01*
X024510Y005737D01*
X024327Y005737D01*
X024158Y005667D01*
X023661Y005170D01*
X023591Y005001D01*
X023591Y004818D01*
X023636Y004709D01*
X023479Y004866D01*
X023479Y005175D01*
X023604Y005226D01*
X024101Y005724D01*
X024171Y005893D01*
X024171Y006076D01*
X024101Y006245D01*
X023972Y006374D01*
X023803Y006444D01*
X023620Y006444D01*
X023451Y006374D01*
X022954Y005877D01*
X022884Y005708D01*
X022884Y005525D01*
X022919Y005439D01*
X022919Y004694D01*
X022962Y004591D01*
X023040Y004513D01*
X023040Y004513D01*
X023621Y003932D01*
X023621Y003724D01*
X022729Y004616D01*
X022729Y005864D01*
X022897Y005934D01*
X023394Y006431D01*
X023464Y006600D01*
X023464Y006783D01*
X023394Y006952D01*
X023265Y007081D01*
X023096Y007151D01*
X022913Y007151D01*
X022744Y007081D01*
X022247Y006584D01*
X022177Y006415D01*
X022177Y006232D01*
X022181Y006221D01*
X022169Y006192D01*
X022169Y004444D01*
X022212Y004341D01*
X022290Y004263D01*
X023737Y002816D01*
X023699Y002778D01*
X023427Y003050D01*
X023295Y003050D01*
X021979Y004366D01*
X021979Y006571D01*
X022021Y006571D01*
X022190Y006641D01*
X022687Y007138D01*
X022757Y007307D01*
X022757Y007490D01*
X022687Y007659D01*
X022558Y007788D01*
X022389Y007858D01*
X022206Y007858D01*
X022037Y007788D01*
X021539Y007291D01*
X021469Y007122D01*
X021469Y006967D01*
X021462Y006959D01*
X021419Y006856D01*
X021419Y004194D01*
X021462Y004091D01*
X022737Y002816D01*
X022699Y002778D01*
X022427Y003050D01*
X022295Y003050D01*
X021229Y004116D01*
X021229Y007278D01*
X021314Y007278D01*
X021483Y007348D01*
X021980Y007845D01*
X022050Y008014D01*
X022050Y008197D01*
X021980Y008366D01*
X021851Y008495D01*
X021682Y008565D01*
X021499Y008565D01*
X021329Y008495D01*
X020832Y007998D01*
X020762Y007829D01*
X020762Y007709D01*
X020712Y007659D01*
X020669Y007556D01*
X020669Y003944D01*
X020712Y003841D01*
X021737Y002816D01*
X021699Y002778D01*
X021427Y003050D01*
X021295Y003050D01*
X020479Y003866D01*
X020479Y007985D01*
X020607Y007985D01*
X020776Y008055D01*
X021273Y008552D01*
X021343Y008721D01*
X021343Y008904D01*
X021273Y009073D01*
X021143Y009202D01*
X020986Y009268D01*
X021461Y009743D01*
X021508Y009763D01*
X021586Y009841D01*
X021629Y009944D01*
X021629Y010174D01*
X022390Y009413D01*
X022493Y009370D01*
X022955Y009370D01*
X023058Y009413D01*
X023105Y009460D01*
X023252Y009399D01*
X023435Y009399D01*
X023604Y009469D01*
X024101Y009966D01*
X024171Y010135D01*
X024171Y010318D01*
X024169Y010324D01*
X024408Y010563D01*
X024486Y010641D01*
X024529Y010744D01*
X024529Y017556D01*
X024486Y017659D01*
X023441Y018704D01*
X023479Y018794D01*
X023479Y019002D01*
X023699Y019222D01*
X023971Y018950D01*
X024353Y018950D01*
X024869Y018434D01*
X024869Y010366D01*
X024482Y009980D01*
X024327Y009980D01*
X024158Y009910D01*
X023661Y009413D01*
X023591Y009243D01*
X023591Y009060D01*
X023661Y008891D01*
X023790Y008762D01*
X023959Y008692D01*
X024142Y008692D01*
X024311Y008762D01*
X024808Y009259D01*
X024878Y009428D01*
X024878Y009584D01*
X025319Y010024D01*
X025319Y009402D01*
X025190Y009273D01*
X025034Y009273D01*
X024865Y009202D01*
X024368Y008705D01*
X024298Y008536D01*
X024298Y008353D01*
X024368Y008184D01*
X024497Y008055D01*
X024666Y007985D01*
X024849Y007985D01*
X025018Y008055D01*
X025516Y008552D01*
X025586Y008721D01*
X025586Y008877D01*
X025769Y009060D01*
X025769Y008565D01*
X025741Y008565D01*
X025572Y008495D01*
X025075Y007998D01*
X025005Y007829D01*
X025005Y007646D01*
X025075Y007477D01*
X025204Y007348D01*
X025373Y007278D01*
X025556Y007278D01*
X025726Y007348D01*
X026223Y007845D01*
X026293Y008014D01*
X026293Y008178D01*
X026329Y008266D01*
X026329Y018950D01*
X026427Y018950D01*
X026749Y019272D01*
X026749Y019728D01*
X026463Y020014D01*
X026729Y020280D01*
X026729Y020720D01*
X026419Y021030D01*
X025980Y021030D01*
X025699Y020750D01*
X025419Y021030D01*
X024980Y021030D01*
X024699Y020750D01*
X024419Y021030D01*
X023980Y021030D01*
X023699Y020750D01*
X023419Y021030D01*
X022980Y021030D01*
X022699Y020750D01*
X022419Y021030D01*
X021980Y021030D01*
X021699Y020750D01*
X021419Y021030D01*
X020980Y021030D01*
X020699Y020750D01*
X020419Y021030D01*
X019980Y021030D01*
X019699Y020750D01*
X019419Y021030D01*
X018980Y021030D01*
X018669Y020720D01*
X018669Y020280D01*
X018935Y020014D01*
X018649Y019728D01*
X018649Y019346D01*
X018574Y019271D01*
X018508Y019337D01*
X018125Y019720D01*
X018167Y019679D02*
X018649Y019679D01*
X018649Y019520D02*
X018325Y019520D01*
X018484Y019362D02*
X018649Y019362D01*
X018799Y019100D02*
X018799Y016628D01*
X017871Y015700D01*
X017553Y016033D02*
X017440Y016033D01*
X017395Y015875D02*
X017282Y015875D01*
X017272Y015716D02*
X016479Y015716D01*
X016479Y015558D02*
X017227Y015558D01*
X017237Y015399D02*
X016479Y015399D01*
X016479Y015241D02*
X017312Y015241D01*
X017532Y015082D02*
X016479Y015082D01*
X016479Y014924D02*
X017944Y014924D01*
X017934Y014765D02*
X016479Y014765D01*
X016479Y014607D02*
X017980Y014607D01*
X018104Y014448D02*
X016479Y014448D01*
X016479Y014290D02*
X018119Y014290D01*
X018119Y014131D02*
X016479Y014131D01*
X016479Y013973D02*
X018119Y013973D01*
X018119Y013814D02*
X016393Y013814D01*
X016387Y013656D02*
X018156Y013656D01*
X018306Y013497D02*
X016776Y013497D01*
X016505Y013497D02*
X016318Y013497D01*
X016273Y013339D02*
X016160Y013339D01*
X016115Y013180D02*
X016001Y013180D01*
X015956Y013022D02*
X015843Y013022D01*
X015749Y013578D02*
X016199Y014028D01*
X016199Y016400D01*
X017599Y017800D01*
X017599Y018500D01*
X018799Y019100D02*
X019199Y019500D01*
X018758Y019837D02*
X018068Y019837D01*
X017892Y019996D02*
X018917Y019996D01*
X018795Y020154D02*
X018003Y020154D01*
X018129Y020313D02*
X018669Y020313D01*
X018669Y020471D02*
X018129Y020471D01*
X018129Y020630D02*
X018669Y020630D01*
X018738Y020788D02*
X018061Y020788D01*
X017902Y020947D02*
X018896Y020947D01*
X019502Y020947D02*
X019896Y020947D01*
X019738Y020788D02*
X019661Y020788D01*
X020502Y020947D02*
X020896Y020947D01*
X020738Y020788D02*
X020661Y020788D01*
X021502Y020947D02*
X021896Y020947D01*
X021738Y020788D02*
X021661Y020788D01*
X022502Y020947D02*
X022896Y020947D01*
X022738Y020788D02*
X022661Y020788D01*
X023502Y020947D02*
X023896Y020947D01*
X023738Y020788D02*
X023661Y020788D01*
X024502Y020947D02*
X024896Y020947D01*
X024738Y020788D02*
X024661Y020788D01*
X025502Y020947D02*
X025896Y020947D01*
X025738Y020788D02*
X025661Y020788D01*
X026502Y020947D02*
X026870Y020947D01*
X026999Y020788D02*
X026661Y020788D01*
X026729Y020630D02*
X026999Y020630D01*
X026999Y020471D02*
X026729Y020471D01*
X026729Y020313D02*
X026999Y020313D01*
X026999Y020154D02*
X026603Y020154D01*
X026481Y019996D02*
X026999Y019996D01*
X026999Y019837D02*
X026640Y019837D01*
X026749Y019679D02*
X026999Y019679D01*
X026999Y019520D02*
X026749Y019520D01*
X026749Y019362D02*
X026999Y019362D01*
X026999Y019203D02*
X026680Y019203D01*
X026521Y019045D02*
X026999Y019045D01*
X026999Y018886D02*
X026329Y018886D01*
X026329Y018728D02*
X026999Y018728D01*
X026999Y018569D02*
X026329Y018569D01*
X026329Y018411D02*
X026999Y018411D01*
X026999Y018252D02*
X026329Y018252D01*
X026329Y018094D02*
X026999Y018094D01*
X026999Y017935D02*
X026329Y017935D01*
X026329Y017777D02*
X026999Y017777D01*
X026999Y017618D02*
X026329Y017618D01*
X026329Y017460D02*
X026999Y017460D01*
X026999Y017301D02*
X026329Y017301D01*
X026329Y017143D02*
X026999Y017143D01*
X026999Y016984D02*
X026329Y016984D01*
X026329Y016826D02*
X026999Y016826D01*
X026999Y016667D02*
X026329Y016667D01*
X026329Y016509D02*
X026999Y016509D01*
X026999Y016483D02*
X026999Y016483D01*
X026999Y016350D02*
X026329Y016350D01*
X026329Y016192D02*
X027125Y016192D01*
X026999Y016317D02*
X026999Y016317D01*
X026999Y016317D01*
X027283Y016033D02*
X026329Y016033D01*
X026329Y015875D02*
X027442Y015875D01*
X027600Y015716D02*
X026329Y015716D01*
X026329Y015558D02*
X027759Y015558D01*
X027917Y015399D02*
X026329Y015399D01*
X026329Y015241D02*
X026818Y015241D01*
X026607Y015082D02*
X026329Y015082D01*
X026329Y014924D02*
X026476Y014924D01*
X026411Y014765D02*
X026329Y014765D01*
X026329Y014607D02*
X026369Y014607D01*
X026369Y014448D02*
X026329Y014448D01*
X026329Y014290D02*
X026388Y014290D01*
X026329Y014131D02*
X026454Y014131D01*
X026553Y013973D02*
X026329Y013973D01*
X026329Y013814D02*
X026711Y013814D01*
X026329Y013656D02*
X027999Y013656D01*
X027999Y013814D02*
X027687Y013814D01*
X027845Y013973D02*
X027999Y013973D01*
X027999Y014131D02*
X027945Y014131D01*
X027988Y014765D02*
X027999Y014765D01*
X027999Y014924D02*
X027922Y014924D01*
X027999Y015082D02*
X027791Y015082D01*
X027999Y015241D02*
X027580Y015241D01*
X027999Y013497D02*
X026329Y013497D01*
X026329Y013339D02*
X027999Y013339D01*
X027999Y013180D02*
X026329Y013180D01*
X026329Y013022D02*
X027999Y013022D01*
X027999Y012863D02*
X026329Y012863D01*
X026329Y012705D02*
X027999Y012705D01*
X027999Y012546D02*
X026329Y012546D01*
X026329Y012388D02*
X027999Y012388D01*
X027999Y012229D02*
X026329Y012229D01*
X026329Y012071D02*
X027999Y012071D01*
X027999Y011912D02*
X026329Y011912D01*
X026329Y011754D02*
X027999Y011754D01*
X027999Y011595D02*
X026329Y011595D01*
X026329Y011437D02*
X027999Y011437D01*
X027999Y011278D02*
X026329Y011278D01*
X026329Y011120D02*
X027999Y011120D01*
X027999Y010961D02*
X026329Y010961D01*
X026329Y010803D02*
X027999Y010803D01*
X027999Y010644D02*
X026329Y010644D01*
X026329Y010486D02*
X027999Y010486D01*
X027999Y010327D02*
X026329Y010327D01*
X026329Y010169D02*
X027999Y010169D01*
X027999Y010010D02*
X026329Y010010D01*
X026329Y009852D02*
X027999Y009852D01*
X027999Y009693D02*
X026329Y009693D01*
X026329Y009535D02*
X027999Y009535D01*
X027999Y009376D02*
X026329Y009376D01*
X026329Y009218D02*
X027999Y009218D01*
X027999Y009059D02*
X026329Y009059D01*
X026329Y008901D02*
X027999Y008901D01*
X027999Y008742D02*
X026329Y008742D01*
X026329Y008584D02*
X027999Y008584D01*
X027999Y008425D02*
X026329Y008425D01*
X026329Y008267D02*
X027999Y008267D01*
X027999Y008108D02*
X026293Y008108D01*
X026266Y007950D02*
X027999Y007950D01*
X027999Y007791D02*
X026794Y007791D01*
X026800Y007788D02*
X026631Y007858D01*
X026448Y007858D01*
X026279Y007788D01*
X025782Y007291D01*
X025712Y007122D01*
X025712Y007030D01*
X025558Y007030D01*
X025460Y007128D01*
X024938Y007128D01*
X024821Y007011D01*
X024821Y006489D01*
X024938Y006372D01*
X025460Y006372D01*
X025558Y006470D01*
X025947Y006470D01*
X026050Y006513D01*
X026108Y006571D01*
X026264Y006571D01*
X026433Y006641D01*
X026930Y007138D01*
X027000Y007307D01*
X027000Y007490D01*
X026930Y007659D01*
X026800Y007788D01*
X026941Y007633D02*
X027999Y007633D01*
X027999Y007474D02*
X027000Y007474D01*
X027000Y007316D02*
X027999Y007316D01*
X027999Y007157D02*
X026938Y007157D01*
X026790Y006999D02*
X027999Y006999D01*
X027999Y006840D02*
X026632Y006840D01*
X026473Y006682D02*
X027999Y006682D01*
X027999Y006523D02*
X026060Y006523D01*
X025891Y006750D02*
X026356Y007214D01*
X025965Y007474D02*
X025852Y007474D01*
X025806Y007316D02*
X025648Y007316D01*
X025727Y007157D02*
X022695Y007157D01*
X022661Y006999D02*
X022548Y006999D01*
X022502Y006840D02*
X022389Y006840D01*
X022344Y006682D02*
X022231Y006682D01*
X022221Y006523D02*
X021979Y006523D01*
X021979Y006365D02*
X022177Y006365D01*
X022175Y006206D02*
X021979Y006206D01*
X021979Y006048D02*
X022169Y006048D01*
X022169Y005889D02*
X021979Y005889D01*
X021979Y005731D02*
X022169Y005731D01*
X022169Y005572D02*
X021979Y005572D01*
X021979Y005414D02*
X022169Y005414D01*
X022169Y005255D02*
X021979Y005255D01*
X021979Y005097D02*
X022169Y005097D01*
X022169Y004938D02*
X021979Y004938D01*
X021979Y004780D02*
X022169Y004780D01*
X022169Y004621D02*
X021979Y004621D01*
X021979Y004463D02*
X022169Y004463D01*
X022249Y004304D02*
X022041Y004304D01*
X022200Y004146D02*
X022408Y004146D01*
X022358Y003987D02*
X022566Y003987D01*
X022517Y003829D02*
X022725Y003829D01*
X022675Y003670D02*
X022883Y003670D01*
X022834Y003512D02*
X023042Y003512D01*
X022992Y003353D02*
X023200Y003353D01*
X023151Y003195D02*
X023359Y003195D01*
X023441Y003036D02*
X023517Y003036D01*
X023599Y002878D02*
X023676Y002878D01*
X023199Y002750D02*
X023199Y002500D01*
X023199Y002750D02*
X021699Y004250D01*
X021699Y006800D01*
X022113Y007214D01*
X021722Y007474D02*
X021609Y007474D01*
X021564Y007316D02*
X021405Y007316D01*
X021484Y007157D02*
X021229Y007157D01*
X021229Y006999D02*
X021469Y006999D01*
X021419Y006840D02*
X021229Y006840D01*
X021229Y006682D02*
X021419Y006682D01*
X021419Y006523D02*
X021229Y006523D01*
X021229Y006365D02*
X021419Y006365D01*
X021419Y006206D02*
X021229Y006206D01*
X021229Y006048D02*
X021419Y006048D01*
X021419Y005889D02*
X021229Y005889D01*
X021229Y005731D02*
X021419Y005731D01*
X021419Y005572D02*
X021229Y005572D01*
X021229Y005414D02*
X021419Y005414D01*
X021419Y005255D02*
X021229Y005255D01*
X021229Y005097D02*
X021419Y005097D01*
X021419Y004938D02*
X021229Y004938D01*
X021229Y004780D02*
X021419Y004780D01*
X021419Y004621D02*
X021229Y004621D01*
X021229Y004463D02*
X021419Y004463D01*
X021419Y004304D02*
X021229Y004304D01*
X021229Y004146D02*
X021439Y004146D01*
X021358Y003987D02*
X021566Y003987D01*
X021517Y003829D02*
X021725Y003829D01*
X021675Y003670D02*
X021883Y003670D01*
X021834Y003512D02*
X022042Y003512D01*
X021992Y003353D02*
X022200Y003353D01*
X022151Y003195D02*
X022359Y003195D01*
X022441Y003036D02*
X022517Y003036D01*
X022599Y002878D02*
X022676Y002878D01*
X022199Y002750D02*
X020949Y004000D01*
X020949Y007500D01*
X021371Y007922D01*
X021406Y007922D01*
X021768Y007633D02*
X021881Y007633D01*
X021926Y007791D02*
X022043Y007791D01*
X022023Y007950D02*
X025055Y007950D01*
X025072Y008108D02*
X025185Y008108D01*
X025230Y008267D02*
X025343Y008267D01*
X025389Y008425D02*
X025502Y008425D01*
X025529Y008584D02*
X025769Y008584D01*
X025769Y008742D02*
X025586Y008742D01*
X025610Y008901D02*
X025769Y008901D01*
X025768Y009059D02*
X025769Y009059D01*
X025599Y009286D02*
X024942Y008629D01*
X024563Y008901D02*
X024450Y008901D01*
X024404Y008742D02*
X024263Y008742D01*
X024317Y008584D02*
X021286Y008584D01*
X021259Y008425D02*
X021146Y008425D01*
X021101Y008267D02*
X020987Y008267D01*
X020942Y008108D02*
X020829Y008108D01*
X020812Y007950D02*
X020479Y007950D01*
X020479Y007791D02*
X020762Y007791D01*
X020701Y007633D02*
X020479Y007633D01*
X020479Y007474D02*
X020669Y007474D01*
X020669Y007316D02*
X020479Y007316D01*
X020479Y007157D02*
X020669Y007157D01*
X020669Y006999D02*
X020479Y006999D01*
X020479Y006840D02*
X020669Y006840D01*
X020669Y006682D02*
X020479Y006682D01*
X020479Y006523D02*
X020669Y006523D01*
X020669Y006365D02*
X020479Y006365D01*
X020479Y006206D02*
X020669Y006206D01*
X020669Y006048D02*
X020479Y006048D01*
X020479Y005889D02*
X020669Y005889D01*
X020669Y005731D02*
X020479Y005731D01*
X020479Y005572D02*
X020669Y005572D01*
X020669Y005414D02*
X020479Y005414D01*
X020479Y005255D02*
X020669Y005255D01*
X020669Y005097D02*
X020479Y005097D01*
X020479Y004938D02*
X020669Y004938D01*
X020669Y004780D02*
X020479Y004780D01*
X020479Y004621D02*
X020669Y004621D01*
X020669Y004463D02*
X020479Y004463D01*
X020479Y004304D02*
X020669Y004304D01*
X020669Y004146D02*
X020479Y004146D01*
X020479Y003987D02*
X020669Y003987D01*
X020725Y003829D02*
X020517Y003829D01*
X020675Y003670D02*
X020883Y003670D01*
X020834Y003512D02*
X021042Y003512D01*
X020992Y003353D02*
X021200Y003353D01*
X021151Y003195D02*
X021359Y003195D01*
X021441Y003036D02*
X021517Y003036D01*
X021599Y002878D02*
X021676Y002878D01*
X021199Y002750D02*
X021199Y002500D01*
X021199Y002750D02*
X020199Y003750D01*
X020199Y008150D01*
X020678Y008629D01*
X020699Y008629D01*
X021279Y009059D02*
X023591Y009059D01*
X023591Y009218D02*
X021107Y009218D01*
X021094Y009376D02*
X022479Y009376D01*
X022269Y009535D02*
X021252Y009535D01*
X021411Y009693D02*
X022110Y009693D01*
X021952Y009852D02*
X021591Y009852D01*
X021629Y010010D02*
X021793Y010010D01*
X021635Y010169D02*
X021629Y010169D01*
X021349Y010000D02*
X021349Y010850D01*
X021499Y010700D01*
X021499Y010843D01*
X022113Y011457D01*
X023078Y012421D01*
X023538Y012388D02*
X023969Y012388D01*
X023969Y012546D02*
X023538Y012546D01*
X023445Y012705D02*
X023969Y012705D01*
X023969Y012863D02*
X023287Y012863D01*
X022869Y012863D02*
X022727Y012863D01*
X022636Y012863D02*
X022636Y012863D01*
X022569Y012705D02*
X022710Y012705D01*
X022810Y013022D02*
X023969Y013022D01*
X023969Y013180D02*
X022810Y013180D01*
X022783Y013339D02*
X023969Y013339D01*
X023969Y013497D02*
X022624Y013497D01*
X022580Y013339D02*
X022580Y013339D01*
X022422Y013180D02*
X022422Y013180D01*
X022371Y013171D02*
X022228Y013171D01*
X021699Y013700D01*
X022117Y013497D02*
X021229Y013497D01*
X021229Y013656D02*
X023969Y013656D01*
X023969Y013814D02*
X021229Y013814D01*
X021229Y013973D02*
X023969Y013973D01*
X023969Y014131D02*
X021229Y014131D01*
X021229Y014290D02*
X022459Y014290D01*
X022939Y014290D02*
X023969Y014290D01*
X023969Y014448D02*
X023098Y014448D01*
X023159Y014607D02*
X023969Y014607D01*
X023969Y014765D02*
X023159Y014765D01*
X023126Y014924D02*
X023969Y014924D01*
X023969Y015082D02*
X022968Y015082D01*
X022881Y015260D02*
X022699Y015260D01*
X022699Y015700D01*
X022259Y015700D01*
X022259Y015518D01*
X022517Y015260D01*
X022699Y015260D01*
X022699Y015700D01*
X022699Y015700D01*
X022259Y015700D01*
X022259Y015882D01*
X022517Y016140D01*
X022699Y016140D01*
X022699Y015700D01*
X022699Y015700D01*
X022699Y015700D01*
X022749Y015700D01*
X023449Y015000D01*
X023449Y014250D01*
X022371Y013171D01*
X022371Y013129D02*
X022371Y013129D01*
X022319Y013180D02*
X022319Y013180D01*
X022263Y013022D02*
X022263Y013022D01*
X022478Y013022D02*
X022478Y013022D01*
X022161Y013339D02*
X022161Y013339D01*
X021958Y013339D02*
X021250Y013339D01*
X021329Y013180D02*
X021931Y013180D01*
X021931Y013022D02*
X021343Y013022D01*
X020949Y013121D02*
X020699Y012871D01*
X020949Y013121D02*
X020949Y015300D01*
X021549Y014700D01*
X022699Y014700D01*
X022431Y015082D02*
X021563Y015082D01*
X021409Y015241D02*
X023969Y015241D01*
X023969Y015399D02*
X023020Y015399D01*
X023139Y015518D02*
X023139Y015700D01*
X023139Y015882D01*
X022881Y016140D01*
X022699Y016140D01*
X022699Y015700D01*
X022699Y016800D01*
X022259Y016800D01*
X022259Y016618D01*
X022517Y016360D01*
X022699Y016360D01*
X022699Y016800D01*
X022699Y016800D01*
X022259Y016800D01*
X022259Y016982D01*
X022517Y017240D01*
X022699Y017240D01*
X022699Y016800D01*
X022699Y016800D01*
X022699Y016800D01*
X022699Y017240D01*
X022881Y017240D01*
X023139Y016982D01*
X023139Y016800D01*
X022699Y016800D01*
X022699Y016360D01*
X022881Y016360D01*
X023139Y016618D01*
X023139Y016800D01*
X022699Y016800D01*
X022699Y016800D01*
X022699Y016826D02*
X022699Y016826D01*
X022699Y016984D02*
X022699Y016984D01*
X022699Y017143D02*
X022699Y017143D01*
X022419Y017143D02*
X021409Y017143D01*
X021446Y017301D02*
X023969Y017301D01*
X023969Y017143D02*
X022979Y017143D01*
X023137Y016984D02*
X023969Y016984D01*
X023969Y016826D02*
X023139Y016826D01*
X023139Y016667D02*
X023969Y016667D01*
X023969Y016509D02*
X023030Y016509D01*
X022699Y016509D02*
X022699Y016509D01*
X022699Y016667D02*
X022699Y016667D01*
X022368Y016509D02*
X020654Y016509D01*
X020529Y016350D02*
X023969Y016350D01*
X023969Y016192D02*
X020529Y016192D01*
X020529Y016033D02*
X022410Y016033D01*
X022259Y015875D02*
X020529Y015875D01*
X020529Y015716D02*
X020751Y015716D01*
X020558Y015558D02*
X020529Y015558D01*
X021147Y015716D02*
X022259Y015716D01*
X022259Y015558D02*
X021340Y015558D01*
X021406Y015399D02*
X022378Y015399D01*
X022699Y015399D02*
X022699Y015399D01*
X022699Y015558D02*
X022699Y015558D01*
X022699Y015700D02*
X022699Y015700D01*
X023139Y015700D01*
X022699Y015700D01*
X022699Y015716D02*
X022699Y015716D01*
X022699Y015875D02*
X022699Y015875D01*
X022699Y016033D02*
X022699Y016033D01*
X022988Y016033D02*
X023969Y016033D01*
X023969Y015875D02*
X023139Y015875D01*
X023139Y015716D02*
X023969Y015716D01*
X023969Y015558D02*
X023139Y015558D01*
X023139Y015518D02*
X022881Y015260D01*
X021426Y014448D02*
X021229Y014448D01*
X021229Y014607D02*
X021247Y014607D01*
X020249Y013836D02*
X019992Y013578D01*
X020249Y013836D02*
X020249Y016500D01*
X020949Y017200D01*
X021549Y017800D01*
X022699Y017800D01*
X022342Y018094D02*
X020189Y018094D01*
X020347Y018252D02*
X022501Y018252D01*
X022898Y018252D02*
X023101Y018252D01*
X023056Y018094D02*
X023260Y018094D01*
X023159Y017935D02*
X023418Y017935D01*
X023577Y017777D02*
X023159Y017777D01*
X023159Y017618D02*
X023735Y017618D01*
X023894Y017460D02*
X023009Y017460D01*
X022389Y017460D02*
X021605Y017460D01*
X021357Y016984D02*
X022261Y016984D01*
X022259Y016826D02*
X021225Y016826D01*
X020812Y016667D02*
X022259Y016667D01*
X021130Y017777D02*
X019979Y017777D01*
X019979Y017618D02*
X020756Y017618D01*
X020559Y017460D02*
X019979Y017460D01*
X019979Y017301D02*
X020493Y017301D01*
X020489Y017143D02*
X019979Y017143D01*
X019979Y016984D02*
X020337Y016984D01*
X020179Y016826D02*
X019979Y016826D01*
X019979Y016667D02*
X020020Y016667D01*
X019419Y016667D02*
X019079Y016667D01*
X019079Y016826D02*
X019419Y016826D01*
X019419Y016984D02*
X019079Y016984D01*
X019079Y017143D02*
X019419Y017143D01*
X019419Y017301D02*
X019079Y017301D01*
X019079Y017460D02*
X019419Y017460D01*
X019419Y017618D02*
X019079Y017618D01*
X019079Y017777D02*
X019419Y017777D01*
X019419Y017935D02*
X019079Y017935D01*
X019079Y018094D02*
X019435Y018094D01*
X019555Y018252D02*
X019079Y018252D01*
X019079Y018411D02*
X019714Y018411D01*
X019872Y018569D02*
X019079Y018569D01*
X019079Y018728D02*
X020031Y018728D01*
X019943Y018886D02*
X019079Y018886D01*
X019521Y019045D02*
X019877Y019045D01*
X019718Y019203D02*
X019680Y019203D01*
X020199Y019000D02*
X020449Y018750D01*
X019699Y018000D01*
X019699Y015500D01*
X019199Y015000D01*
X018799Y015000D01*
X018399Y014600D01*
X018399Y014814D01*
X018578Y014993D01*
X018175Y015241D02*
X018062Y015241D01*
X018017Y015082D02*
X017841Y015082D01*
X018220Y015399D02*
X018334Y015399D01*
X018379Y015558D02*
X018492Y015558D01*
X018483Y015716D02*
X019419Y015716D01*
X019419Y015875D02*
X018514Y015875D01*
X018600Y016033D02*
X019419Y016033D01*
X019419Y016192D02*
X018758Y016192D01*
X018917Y016350D02*
X019419Y016350D01*
X019419Y016509D02*
X019053Y016509D01*
X018519Y016826D02*
X017978Y016826D01*
X018137Y016984D02*
X018519Y016984D01*
X018519Y017143D02*
X018295Y017143D01*
X018454Y017301D02*
X018519Y017301D01*
X018442Y016667D02*
X017820Y016667D01*
X017807Y016509D02*
X018283Y016509D01*
X018125Y016350D02*
X017746Y016350D01*
X017712Y016192D02*
X017599Y016192D01*
X016678Y015875D02*
X016479Y015875D01*
X016479Y016033D02*
X016560Y016033D01*
X016520Y016192D02*
X016479Y016192D01*
X015449Y016250D02*
X014849Y016250D01*
X014699Y016100D01*
X014699Y014000D01*
X014757Y014000D01*
X015042Y014286D01*
X013467Y012863D02*
X012714Y012863D01*
X012714Y012787D02*
X012714Y013213D01*
X012427Y013500D01*
X012714Y013787D01*
X012714Y014213D01*
X012479Y014448D01*
X012479Y014552D01*
X012714Y014787D01*
X012714Y015213D01*
X012412Y015515D01*
X011986Y015515D01*
X011751Y015280D01*
X011570Y015280D01*
X011460Y015390D01*
X011291Y015460D01*
X011108Y015460D01*
X010938Y015390D01*
X010809Y015261D01*
X010739Y015091D01*
X010739Y014908D01*
X010809Y014739D01*
X010938Y014610D01*
X011108Y014540D01*
X011291Y014540D01*
X011460Y014610D01*
X011570Y014720D01*
X011751Y014720D01*
X011919Y014552D01*
X011919Y014448D01*
X006979Y014448D01*
X006979Y014290D02*
X011760Y014290D01*
X011684Y014213D02*
X011684Y013787D01*
X011971Y013500D01*
X011684Y013213D01*
X011684Y012787D01*
X011919Y012552D01*
X011919Y012448D01*
X011751Y012280D01*
X011570Y012280D01*
X011460Y012390D01*
X011291Y012460D01*
X011108Y012460D01*
X010938Y012390D01*
X010809Y012261D01*
X010739Y012091D01*
X010739Y011908D01*
X010809Y011739D01*
X010938Y011610D01*
X011108Y011540D01*
X011291Y011540D01*
X011460Y011610D01*
X011570Y011720D01*
X011751Y011720D01*
X011986Y011485D01*
X012412Y011485D01*
X012714Y011787D01*
X012714Y012213D01*
X012479Y012448D01*
X012479Y012552D01*
X012714Y012787D01*
X012632Y012705D02*
X013626Y012705D01*
X013784Y012546D02*
X012479Y012546D01*
X012540Y012388D02*
X013387Y012388D01*
X013228Y012229D02*
X012698Y012229D01*
X012714Y012071D02*
X013204Y012071D01*
X013204Y011912D02*
X012714Y011912D01*
X012681Y011754D02*
X013246Y011754D01*
X013404Y011595D02*
X012522Y011595D01*
X012199Y012000D02*
X012199Y013000D01*
X011684Y013022D02*
X007159Y013022D01*
X007159Y013180D02*
X011684Y013180D01*
X011809Y013339D02*
X007011Y013339D01*
X006979Y013371D02*
X006979Y015056D01*
X006936Y015159D01*
X006909Y015186D01*
X006909Y015341D01*
X006839Y015511D01*
X006710Y015640D01*
X006541Y015710D01*
X006358Y015710D01*
X006188Y015640D01*
X006059Y015511D01*
X005989Y015341D01*
X005989Y015158D01*
X006059Y014989D01*
X006188Y014860D01*
X006358Y014790D01*
X006419Y014790D01*
X006419Y013371D01*
X006239Y013191D01*
X006239Y012809D01*
X006509Y012540D01*
X006890Y012540D01*
X007159Y012809D01*
X007159Y013191D01*
X006979Y013371D01*
X006979Y013497D02*
X011968Y013497D01*
X011815Y013656D02*
X006979Y013656D01*
X006979Y013814D02*
X011684Y013814D01*
X011684Y013973D02*
X006979Y013973D01*
X006979Y014131D02*
X011684Y014131D01*
X011684Y014213D02*
X011919Y014448D01*
X011864Y014607D02*
X011451Y014607D01*
X011199Y015000D02*
X012199Y015000D01*
X012199Y014000D01*
X012714Y013973D02*
X012938Y013973D01*
X012938Y014131D02*
X012714Y014131D01*
X012638Y014290D02*
X012938Y014290D01*
X012938Y014448D02*
X012479Y014448D01*
X012534Y014607D02*
X012938Y014607D01*
X012938Y014765D02*
X012692Y014765D01*
X012714Y014924D02*
X012938Y014924D01*
X012938Y015082D02*
X012714Y015082D01*
X012687Y015241D02*
X012938Y015241D01*
X012938Y015399D02*
X012528Y015399D01*
X012938Y015558D02*
X006792Y015558D01*
X006885Y015399D02*
X008013Y015399D01*
X008199Y015399D02*
X008199Y015399D01*
X008199Y015440D02*
X008199Y015000D01*
X008199Y014560D01*
X008234Y014560D01*
X008302Y014571D01*
X008368Y014592D01*
X008430Y014624D01*
X008486Y014664D01*
X008535Y014713D01*
X008575Y014769D01*
X008607Y014831D01*
X008628Y014897D01*
X008639Y014965D01*
X008639Y015000D01*
X008639Y015035D01*
X008628Y015103D01*
X008607Y015169D01*
X008575Y015231D01*
X008535Y015287D01*
X008486Y015336D01*
X008430Y015376D01*
X008368Y015408D01*
X008302Y015429D01*
X008234Y015440D01*
X008199Y015440D01*
X008199Y015250D02*
X008699Y015750D01*
X009699Y015750D01*
X010199Y015000D01*
X009759Y015000D01*
X009759Y014965D01*
X009770Y014897D01*
X009791Y014831D01*
X009823Y014769D01*
X009863Y014713D01*
X009912Y014664D01*
X009968Y014624D01*
X010030Y014592D01*
X010096Y014571D01*
X010164Y014560D01*
X010199Y014560D01*
X010199Y015000D01*
X010199Y015000D01*
X009759Y015000D01*
X009759Y015035D01*
X009770Y015103D01*
X009791Y015169D01*
X009823Y015231D01*
X009863Y015287D01*
X009912Y015336D01*
X009968Y015376D01*
X010030Y015408D01*
X010096Y015429D01*
X010164Y015440D01*
X010199Y015440D01*
X010199Y015000D01*
X010199Y015000D01*
X010199Y015000D01*
X010199Y015440D01*
X010234Y015440D01*
X010302Y015429D01*
X010368Y015408D01*
X010430Y015376D01*
X010486Y015336D01*
X010535Y015287D01*
X010575Y015231D01*
X010607Y015169D01*
X010628Y015103D01*
X010639Y015035D01*
X010639Y015000D01*
X010199Y015000D01*
X010199Y014560D01*
X010234Y014560D01*
X010302Y014571D01*
X010368Y014592D01*
X010430Y014624D01*
X010486Y014664D01*
X010535Y014713D01*
X010575Y014769D01*
X010607Y014831D01*
X010628Y014897D01*
X010639Y014965D01*
X010639Y015000D01*
X010199Y015000D01*
X010199Y015000D01*
X010199Y014924D02*
X010199Y014924D01*
X010199Y015082D02*
X010199Y015082D01*
X010199Y015241D02*
X010199Y015241D01*
X010199Y015399D02*
X010199Y015399D01*
X010013Y015399D02*
X009438Y015399D01*
X009460Y015390D02*
X009291Y015460D01*
X009108Y015460D01*
X008938Y015390D01*
X008809Y015261D01*
X008739Y015091D01*
X008739Y014908D01*
X008809Y014739D01*
X008938Y014610D01*
X009108Y014540D01*
X009291Y014540D01*
X009460Y014610D01*
X009589Y014739D01*
X009659Y014908D01*
X009659Y015091D01*
X009589Y015261D01*
X009460Y015390D01*
X009597Y015241D02*
X009830Y015241D01*
X009767Y015082D02*
X009659Y015082D01*
X009659Y014924D02*
X009766Y014924D01*
X009826Y014765D02*
X009600Y014765D01*
X009451Y014607D02*
X010002Y014607D01*
X010199Y014607D02*
X010199Y014607D01*
X010199Y014765D02*
X010199Y014765D01*
X010396Y014607D02*
X010947Y014607D01*
X010798Y014765D02*
X010572Y014765D01*
X010632Y014924D02*
X010739Y014924D01*
X010739Y015082D02*
X010632Y015082D01*
X010568Y015241D02*
X010801Y015241D01*
X010960Y015399D02*
X010385Y015399D01*
X010759Y015790D02*
X011140Y015790D01*
X011320Y015970D01*
X011479Y015970D01*
X011659Y015790D01*
X012040Y015790D01*
X012309Y016059D01*
X012309Y016441D01*
X012129Y016621D01*
X012129Y017056D01*
X012086Y017159D01*
X011809Y017436D01*
X011809Y017691D01*
X011540Y017960D01*
X011159Y017960D01*
X010889Y017691D01*
X010889Y017309D01*
X011159Y017040D01*
X011413Y017040D01*
X011569Y016884D01*
X011569Y016621D01*
X011479Y016530D01*
X011320Y016530D01*
X011140Y016710D01*
X010759Y016710D01*
X010489Y016441D01*
X010489Y016059D01*
X010759Y015790D01*
X010674Y015875D02*
X008224Y015875D01*
X007949Y016250D02*
X008949Y016250D01*
X010199Y017500D01*
X009449Y018250D01*
X008599Y018250D01*
X009008Y018569D02*
X012029Y018569D01*
X012029Y018411D02*
X009685Y018411D01*
X009843Y018252D02*
X012085Y018252D01*
X012199Y018094D02*
X010002Y018094D01*
X010415Y017935D02*
X011134Y017935D01*
X010975Y017777D02*
X010573Y017777D01*
X010659Y017618D02*
X010889Y017618D01*
X010889Y017460D02*
X010659Y017460D01*
X010651Y017301D02*
X010897Y017301D01*
X011056Y017143D02*
X010492Y017143D01*
X010079Y016984D02*
X011469Y016984D01*
X011569Y016826D02*
X009921Y016826D01*
X009762Y016667D02*
X010716Y016667D01*
X010557Y016509D02*
X009604Y016509D01*
X009445Y016350D02*
X010489Y016350D01*
X010489Y016192D02*
X009287Y016192D01*
X009128Y016033D02*
X010515Y016033D01*
X010949Y016250D02*
X011849Y016250D01*
X011849Y017000D01*
X011349Y017500D01*
X011809Y017460D02*
X012938Y017460D01*
X012938Y017618D02*
X011809Y017618D01*
X011723Y017777D02*
X012804Y017777D01*
X012474Y017935D02*
X011565Y017935D01*
X011944Y017301D02*
X012938Y017301D01*
X012938Y017143D02*
X012093Y017143D01*
X012129Y016984D02*
X012938Y016984D01*
X012938Y016826D02*
X012129Y016826D01*
X012129Y016667D02*
X012938Y016667D01*
X012938Y016509D02*
X012241Y016509D01*
X012309Y016350D02*
X012938Y016350D01*
X012938Y016192D02*
X012309Y016192D01*
X012283Y016033D02*
X012938Y016033D01*
X012938Y015875D02*
X012124Y015875D01*
X011870Y015399D02*
X011438Y015399D01*
X011574Y015875D02*
X011224Y015875D01*
X011183Y016667D02*
X011569Y016667D01*
X012938Y015716D02*
X001399Y015716D01*
X001399Y015558D02*
X005106Y015558D01*
X004989Y015441D02*
X004989Y015059D01*
X005169Y014879D01*
X005169Y013116D01*
X005049Y012996D01*
X005032Y013014D01*
X004795Y013111D01*
X004540Y013111D01*
X004303Y013014D01*
X004123Y012833D01*
X004025Y012596D01*
X004025Y012341D01*
X004123Y012104D01*
X004250Y011976D01*
X004123Y011848D01*
X004084Y011755D01*
X004040Y011737D01*
X003790Y011487D01*
X003712Y011409D01*
X003669Y011306D01*
X003669Y009694D01*
X003712Y009591D01*
X003803Y009500D01*
X003790Y009487D01*
X003712Y009409D01*
X003669Y009306D01*
X003669Y007866D01*
X002640Y006837D01*
X002427Y007050D01*
X001971Y007050D01*
X001649Y006728D01*
X001649Y006272D01*
X001935Y005986D01*
X001669Y005720D01*
X001669Y005520D01*
X002179Y005520D01*
X002179Y005480D01*
X001669Y005480D01*
X001669Y005280D01*
X001950Y005000D01*
X001669Y004720D01*
X001669Y004520D01*
X002179Y004520D01*
X002179Y004480D01*
X001669Y004480D01*
X001669Y004280D01*
X001935Y004014D01*
X001649Y003728D01*
X001649Y003272D01*
X001921Y003000D01*
X001649Y002728D01*
X001649Y002272D01*
X001921Y002000D01*
X001649Y001728D01*
X001649Y001272D01*
X001971Y000950D01*
X002427Y000950D01*
X002697Y001220D01*
X002755Y001220D01*
X002858Y001263D01*
X004108Y002513D01*
X004186Y002591D01*
X004229Y002694D01*
X004229Y002891D01*
X004327Y002989D01*
X004327Y003511D01*
X004213Y003625D01*
X004277Y003689D01*
X004277Y004211D01*
X004160Y004328D01*
X003836Y004328D01*
X004985Y005477D01*
X005089Y005362D01*
X005089Y004428D01*
X005144Y004296D01*
X005245Y004195D01*
X006745Y002695D01*
X006877Y002640D01*
X007909Y002640D01*
X008009Y002540D01*
X008150Y002540D01*
X008620Y002070D01*
X008586Y002070D01*
X008376Y001983D01*
X008216Y001823D01*
X008129Y001613D01*
X008129Y001387D01*
X008216Y001177D01*
X008376Y001017D01*
X008379Y001016D01*
X008379Y000936D01*
X008428Y000819D01*
X008518Y000729D01*
X008547Y000700D01*
X006936Y000700D01*
X007169Y000796D01*
X007403Y001030D01*
X007529Y001335D01*
X007529Y001665D01*
X007403Y001970D01*
X007169Y002204D01*
X006864Y002330D01*
X006534Y002330D01*
X006229Y002204D01*
X005995Y001970D01*
X005869Y001665D01*
X005869Y001335D01*
X005995Y001030D01*
X006229Y000796D01*
X006462Y000700D01*
X001399Y000700D01*
X001399Y008230D01*
X001468Y008162D01*
X001628Y008095D01*
X001802Y008095D01*
X001962Y008162D01*
X002085Y008284D01*
X002151Y008445D01*
X002151Y008618D01*
X002085Y008779D01*
X001962Y008901D01*
X001802Y008968D01*
X001628Y008968D01*
X001468Y008901D01*
X001399Y008833D01*
X001399Y012167D01*
X001468Y012099D01*
X001628Y012032D01*
X001802Y012032D01*
X001962Y012099D01*
X002085Y012221D01*
X002151Y012382D01*
X002151Y012555D01*
X002085Y012716D01*
X001962Y012838D01*
X001802Y012905D01*
X001628Y012905D01*
X001468Y012838D01*
X001399Y012770D01*
X001399Y021296D01*
X006955Y021297D01*
X006729Y021204D01*
X006495Y020970D01*
X006388Y020711D01*
X006140Y020960D01*
X005759Y020960D01*
X005579Y020780D01*
X004954Y020780D01*
X004846Y020888D01*
X004678Y020957D01*
X004496Y020957D01*
X004328Y020888D01*
X004199Y020759D01*
X004129Y020591D01*
X004129Y020409D01*
X004199Y020241D01*
X004328Y020112D01*
X004496Y020043D01*
X004678Y020043D01*
X004846Y020112D01*
X004954Y020220D01*
X005579Y020220D01*
X005759Y020040D01*
X006140Y020040D01*
X006388Y020289D01*
X006495Y020030D01*
X006729Y019796D01*
X007034Y019670D01*
X007364Y019670D01*
X007014Y019679D02*
X005008Y019679D01*
X004897Y019837D02*
X006688Y019837D01*
X006530Y019996D02*
X001399Y019996D01*
X001399Y020154D02*
X004286Y020154D01*
X004169Y020313D02*
X001399Y020313D01*
X001399Y020471D02*
X004129Y020471D01*
X004145Y020630D02*
X001399Y020630D01*
X001399Y020788D02*
X004228Y020788D01*
X004469Y020947D02*
X001399Y020947D01*
X001399Y021105D02*
X006630Y021105D01*
X006486Y020947D02*
X006153Y020947D01*
X006312Y020788D02*
X006420Y020788D01*
X005949Y020500D02*
X004587Y020500D01*
X004946Y020788D02*
X005587Y020788D01*
X005745Y020947D02*
X004704Y020947D01*
X004888Y020154D02*
X005644Y020154D01*
X006254Y020154D02*
X006444Y020154D01*
X007710Y019837D02*
X009914Y019837D01*
X009819Y019970D02*
X009380Y019970D01*
X009099Y020250D01*
X008819Y019970D01*
X008380Y019970D01*
X008069Y020280D01*
X008069Y020720D01*
X008380Y021030D01*
X008819Y021030D01*
X009099Y020750D01*
X009380Y021030D01*
X009819Y021030D01*
X010099Y020750D01*
X010380Y021030D01*
X010819Y021030D01*
X011113Y020735D01*
X011388Y021010D01*
X011581Y021010D01*
X011581Y020518D01*
X011129Y020518D01*
X011129Y020482D01*
X011581Y020482D01*
X011581Y020518D01*
X011617Y020518D01*
X011617Y020482D01*
X011581Y020482D01*
X011581Y019990D01*
X011388Y019990D01*
X011113Y020265D01*
X010819Y019970D01*
X010380Y019970D01*
X010099Y020250D01*
X009819Y019970D01*
X009844Y019996D02*
X010354Y019996D01*
X010381Y019940D02*
X010199Y019940D01*
X010199Y019500D01*
X010199Y019500D01*
X010199Y019500D01*
X008949Y019500D01*
X008599Y019100D01*
X008406Y018728D02*
X007850Y018728D01*
X008008Y018569D02*
X008190Y018569D01*
X008792Y018728D02*
X012076Y018728D01*
X012105Y019203D02*
X011674Y019203D01*
X011789Y019318D02*
X011531Y019060D01*
X011349Y019060D01*
X011349Y019500D01*
X010909Y019500D01*
X010909Y019318D01*
X011167Y019060D01*
X011349Y019060D01*
X011349Y019500D01*
X011349Y019500D01*
X010909Y019500D01*
X010909Y019682D01*
X011167Y019940D01*
X011349Y019940D01*
X011349Y019500D01*
X011349Y019500D01*
X011349Y019500D01*
X010199Y019500D01*
X010199Y019060D01*
X010381Y019060D01*
X010639Y019318D01*
X010639Y019500D01*
X010639Y019682D01*
X010381Y019940D01*
X010484Y019837D02*
X011064Y019837D01*
X010909Y019679D02*
X010639Y019679D01*
X010639Y019520D02*
X010909Y019520D01*
X010909Y019362D02*
X010639Y019362D01*
X010639Y019500D02*
X010199Y019500D01*
X010639Y019500D01*
X010524Y019203D02*
X011024Y019203D01*
X011349Y019203D02*
X011349Y019203D01*
X011349Y019362D02*
X011349Y019362D01*
X011349Y019500D02*
X011349Y019500D01*
X011599Y019750D01*
X011599Y020500D01*
X011581Y020471D02*
X011617Y020471D01*
X011617Y020313D02*
X011581Y020313D01*
X011581Y020154D02*
X011617Y020154D01*
X011617Y019996D02*
X011581Y019996D01*
X011531Y019940D02*
X011349Y019940D01*
X011349Y019500D01*
X011789Y019500D01*
X011789Y019682D01*
X011531Y019940D01*
X011634Y019837D02*
X012130Y019837D01*
X012056Y019679D02*
X011789Y019679D01*
X011789Y019520D02*
X012029Y019520D01*
X012039Y019362D02*
X011789Y019362D01*
X011789Y019318D02*
X011789Y019500D01*
X011349Y019500D01*
X011349Y019520D02*
X011349Y019520D01*
X011349Y019679D02*
X011349Y019679D01*
X011349Y019837D02*
X011349Y019837D01*
X011382Y019996D02*
X010844Y019996D01*
X011003Y020154D02*
X011224Y020154D01*
X011816Y019996D02*
X012306Y019996D01*
X012195Y020154D02*
X011974Y020154D01*
X012599Y020500D02*
X012599Y019500D01*
X013599Y019500D02*
X013599Y020500D01*
X013138Y020788D02*
X013061Y020788D01*
X012902Y020947D02*
X013296Y020947D01*
X013902Y020947D02*
X014296Y020947D01*
X014138Y020788D02*
X014061Y020788D01*
X014599Y020500D02*
X014599Y019500D01*
X015599Y019500D02*
X015599Y020500D01*
X015138Y020788D02*
X015061Y020788D01*
X014902Y020947D02*
X015296Y020947D01*
X015902Y020947D02*
X016296Y020947D01*
X016138Y020788D02*
X016061Y020788D01*
X016902Y020947D02*
X017296Y020947D01*
X017138Y020788D02*
X017061Y020788D01*
X016599Y019500D02*
X016599Y017400D01*
X015449Y016250D01*
X015599Y017200D02*
X015599Y018500D01*
X012296Y020947D02*
X011874Y020947D01*
X012032Y020788D02*
X012138Y020788D01*
X011617Y020788D02*
X011581Y020788D01*
X011581Y020630D02*
X011617Y020630D01*
X011617Y020947D02*
X011581Y020947D01*
X011324Y020947D02*
X010902Y020947D01*
X011061Y020788D02*
X011166Y020788D01*
X010296Y020947D02*
X009902Y020947D01*
X010061Y020788D02*
X010138Y020788D01*
X010195Y020154D02*
X010003Y020154D01*
X010199Y019837D02*
X010199Y019837D01*
X010199Y019679D02*
X010199Y019679D01*
X010199Y019520D02*
X010199Y019520D01*
X010199Y019500D02*
X010199Y019500D01*
X010199Y019362D02*
X010199Y019362D01*
X010199Y019203D02*
X010199Y019203D01*
X009354Y019996D02*
X008844Y019996D01*
X009003Y020154D02*
X009195Y020154D01*
X009138Y020788D02*
X009061Y020788D01*
X008902Y020947D02*
X009296Y020947D01*
X008296Y020947D02*
X007912Y020947D01*
X007978Y020788D02*
X008138Y020788D01*
X008069Y020630D02*
X008029Y020630D01*
X008029Y020471D02*
X008069Y020471D01*
X008069Y020313D02*
X008020Y020313D01*
X007954Y020154D02*
X008195Y020154D01*
X008354Y019996D02*
X007868Y019996D01*
X007768Y021105D02*
X026712Y021105D01*
X026554Y021264D02*
X007524Y021264D01*
X006874Y021264D02*
X001399Y021264D01*
X001399Y019837D02*
X004277Y019837D01*
X003982Y019679D02*
X001399Y019679D01*
X001399Y019520D02*
X003823Y019520D01*
X004199Y019500D02*
X003699Y019000D01*
X004077Y018886D02*
X004354Y018886D01*
X004491Y019045D02*
X004140Y019045D01*
X004196Y018728D02*
X004066Y018728D01*
X004149Y018569D02*
X001399Y018569D01*
X001399Y018411D02*
X004149Y018411D01*
X004216Y018252D02*
X001399Y018252D01*
X001399Y018094D02*
X004375Y018094D01*
X004958Y018252D02*
X006305Y018252D01*
X006464Y018411D02*
X005024Y018411D01*
X004587Y019500D02*
X004199Y019500D01*
X003422Y019362D02*
X001399Y019362D01*
X001399Y019203D02*
X003321Y019203D01*
X003321Y019045D02*
X001399Y019045D01*
X001399Y018886D02*
X003321Y018886D01*
X003332Y018728D02*
X001399Y018728D01*
X001399Y017301D02*
X005497Y017301D01*
X005656Y017143D02*
X001399Y017143D01*
X001399Y016984D02*
X009287Y016984D01*
X009129Y016826D02*
X001399Y016826D01*
X001399Y016667D02*
X007716Y016667D01*
X007557Y016509D02*
X001399Y016509D01*
X001399Y016350D02*
X007489Y016350D01*
X007489Y016192D02*
X001399Y016192D01*
X001399Y016033D02*
X007515Y016033D01*
X007674Y015875D02*
X001399Y015875D01*
X001399Y015399D02*
X004989Y015399D01*
X004989Y015441D02*
X005259Y015710D01*
X005640Y015710D01*
X005909Y015441D01*
X005909Y015059D01*
X005729Y014879D01*
X005729Y012944D01*
X005686Y012841D01*
X005345Y012500D01*
X005686Y012159D01*
X005729Y012056D01*
X005729Y008944D01*
X005686Y008841D01*
X005608Y008763D01*
X005310Y008465D01*
X005310Y008404D01*
X005213Y008167D01*
X005032Y007986D01*
X004795Y007889D01*
X004540Y007889D01*
X004303Y007986D01*
X004229Y008061D01*
X004229Y007694D01*
X004186Y007591D01*
X002936Y006341D01*
X002858Y006263D01*
X002755Y006220D01*
X002697Y006220D01*
X002463Y005986D01*
X002729Y005720D01*
X002729Y005520D01*
X002219Y005520D01*
X002219Y005480D01*
X002219Y004520D01*
X002179Y004520D01*
X002179Y005030D01*
X002179Y005480D01*
X002219Y005480D01*
X002729Y005480D01*
X002729Y005280D01*
X002449Y005000D01*
X002729Y004720D01*
X002729Y004520D01*
X002219Y004520D01*
X002219Y004480D01*
X002729Y004480D01*
X002729Y004280D01*
X002463Y004014D01*
X002483Y003993D01*
X004050Y005560D01*
X003999Y005560D01*
X003999Y006000D01*
X003499Y005500D01*
X002199Y005500D01*
X002199Y004500D01*
X001949Y004500D01*
X001449Y004000D01*
X001449Y001250D01*
X001949Y000750D01*
X003449Y000750D01*
X004199Y001500D01*
X004249Y001500D01*
X003809Y001500D01*
X004249Y001500D01*
X004249Y001500D01*
X004249Y001500D01*
X004249Y001060D01*
X004067Y001060D01*
X003809Y001318D01*
X003809Y001500D01*
X003809Y001682D01*
X004067Y001940D01*
X004249Y001940D01*
X004249Y001500D01*
X004249Y001500D01*
X004249Y001060D01*
X004431Y001060D01*
X004689Y001318D01*
X004689Y001500D01*
X004689Y001682D01*
X004431Y001940D01*
X004249Y001940D01*
X004249Y001500D01*
X004689Y001500D01*
X004249Y001500D01*
X004249Y001500D01*
X004249Y001451D02*
X004249Y001451D01*
X004249Y001293D02*
X004249Y001293D01*
X004249Y001134D02*
X004249Y001134D01*
X003993Y001134D02*
X002611Y001134D01*
X002452Y000976D02*
X006050Y000976D01*
X005952Y001134D02*
X005534Y001134D01*
X005440Y001040D02*
X005709Y001309D01*
X005709Y001691D01*
X005479Y001921D01*
X005479Y002629D01*
X005659Y002809D01*
X005659Y003191D01*
X005390Y003460D01*
X005009Y003460D01*
X004739Y003191D01*
X004739Y002809D01*
X004919Y002629D01*
X004919Y001821D01*
X004789Y001691D01*
X004789Y001309D01*
X005059Y001040D01*
X005440Y001040D01*
X005692Y001293D02*
X005887Y001293D01*
X005869Y001451D02*
X005709Y001451D01*
X005709Y001610D02*
X005869Y001610D01*
X005912Y001768D02*
X005632Y001768D01*
X005479Y001927D02*
X005977Y001927D01*
X006110Y002085D02*
X005479Y002085D01*
X005479Y002244D02*
X006325Y002244D01*
X006721Y002719D02*
X005569Y002719D01*
X005479Y002561D02*
X007988Y002561D01*
X008288Y002402D02*
X005479Y002402D01*
X005659Y002878D02*
X006562Y002878D01*
X006404Y003036D02*
X005659Y003036D01*
X005655Y003195D02*
X006245Y003195D01*
X006087Y003353D02*
X005497Y003353D01*
X005770Y003670D02*
X004258Y003670D01*
X004277Y003829D02*
X005611Y003829D01*
X005453Y003987D02*
X004277Y003987D01*
X004277Y004146D02*
X005294Y004146D01*
X005141Y004304D02*
X004184Y004304D01*
X003971Y004463D02*
X005089Y004463D01*
X005089Y004621D02*
X004129Y004621D01*
X004288Y004780D02*
X005089Y004780D01*
X005089Y004938D02*
X004446Y004938D01*
X004605Y005097D02*
X005089Y005097D01*
X005089Y005255D02*
X004763Y005255D01*
X004922Y005414D02*
X005043Y005414D01*
X005583Y005889D02*
X007184Y005889D01*
X007184Y006048D02*
X005459Y006048D01*
X005412Y006206D02*
X007184Y006206D01*
X007335Y006365D02*
X006936Y006365D01*
X006881Y006310D02*
X007139Y006568D01*
X007139Y006750D01*
X007139Y006932D01*
X006881Y007190D01*
X006699Y007190D01*
X006699Y006750D01*
X006699Y005500D01*
X006699Y004350D01*
X006313Y004146D02*
X015726Y004146D01*
X015884Y004304D02*
X006154Y004304D01*
X005996Y004463D02*
X015938Y004463D01*
X016460Y004463D02*
X019419Y004463D01*
X019419Y004621D02*
X019020Y004621D01*
X018904Y004505D02*
X019194Y004795D01*
X019194Y005000D01*
X019194Y005205D01*
X018913Y005486D01*
X019115Y005688D01*
X019419Y005384D01*
X019419Y002959D01*
X019321Y002861D01*
X019321Y002339D01*
X019438Y002222D01*
X019321Y002402D02*
X017927Y002402D01*
X017927Y002561D02*
X019321Y002561D01*
X019321Y002719D02*
X017927Y002719D01*
X017911Y002878D02*
X019337Y002878D01*
X019419Y003036D02*
X017577Y003036D01*
X017577Y003195D02*
X019419Y003195D01*
X019419Y003353D02*
X017577Y003353D01*
X017477Y003512D02*
X019419Y003512D01*
X019419Y003670D02*
X015988Y003670D01*
X016146Y003829D02*
X019419Y003829D01*
X019419Y003987D02*
X016305Y003987D01*
X016438Y004146D02*
X019419Y004146D01*
X019419Y004304D02*
X016460Y004304D01*
X017048Y004621D02*
X017350Y004621D01*
X018048Y004621D02*
X018378Y004621D01*
X018220Y004780D02*
X018207Y004780D01*
X018699Y004780D02*
X018699Y004780D01*
X018699Y004938D02*
X018699Y004938D01*
X018699Y005000D02*
X018699Y004505D01*
X018904Y004505D01*
X018699Y004621D02*
X018699Y004621D01*
X018699Y005000D02*
X018699Y005000D01*
X019194Y005000D01*
X018699Y005000D01*
X018413Y005414D02*
X018014Y005414D01*
X017927Y005500D02*
X018213Y005214D01*
X018485Y005486D01*
X018199Y005772D01*
X017927Y005500D01*
X017999Y005572D02*
X018399Y005572D01*
X018240Y005731D02*
X018158Y005731D01*
X018172Y005255D02*
X018254Y005255D01*
X018986Y005414D02*
X019390Y005414D01*
X019419Y005255D02*
X019144Y005255D01*
X019194Y005097D02*
X019419Y005097D01*
X019419Y004938D02*
X019194Y004938D01*
X019179Y004780D02*
X019419Y004780D01*
X019699Y005500D02*
X019199Y006000D01*
X018699Y006000D01*
X018699Y006250D01*
X018486Y006515D02*
X018199Y006228D01*
X017927Y006500D01*
X018214Y006787D01*
X018214Y007213D01*
X017927Y007500D01*
X018214Y007787D01*
X018214Y008184D01*
X018330Y008069D01*
X018711Y008069D01*
X018980Y008338D01*
X018980Y008719D01*
X018800Y008899D01*
X018800Y009163D01*
X019037Y009399D01*
X019192Y009399D01*
X019362Y009469D01*
X019859Y009966D01*
X019929Y010135D01*
X019929Y010318D01*
X019859Y010487D01*
X019729Y010617D01*
X019560Y010687D01*
X019377Y010687D01*
X019208Y010617D01*
X018711Y010120D01*
X018641Y009951D01*
X018641Y009795D01*
X018283Y009437D01*
X018241Y009334D01*
X018241Y008899D01*
X018214Y008873D01*
X018214Y009213D01*
X017927Y009500D01*
X018214Y009787D01*
X018214Y010143D01*
X018302Y010106D01*
X018485Y010106D01*
X018654Y010176D01*
X019152Y010673D01*
X019222Y010842D01*
X019222Y011025D01*
X019152Y011194D01*
X019022Y011324D01*
X019183Y011120D02*
X020700Y011120D01*
X020842Y010961D02*
X019222Y010961D01*
X019205Y010803D02*
X021001Y010803D01*
X021069Y010644D02*
X019663Y010644D01*
X019859Y010486D02*
X021069Y010486D01*
X021069Y010327D02*
X019925Y010327D01*
X019929Y010169D02*
X021069Y010169D01*
X020990Y010010D02*
X019877Y010010D01*
X019885Y009852D02*
X019744Y009852D01*
X019727Y009693D02*
X019586Y009693D01*
X019681Y009647D02*
X019472Y009439D01*
X019432Y009383D01*
X019400Y009321D01*
X019379Y009255D01*
X019368Y009187D01*
X019368Y009117D01*
X019379Y009049D01*
X019400Y008983D01*
X019432Y008921D01*
X019472Y008865D01*
X019497Y008841D01*
X019992Y009336D01*
X019681Y009647D01*
X019793Y009535D02*
X019793Y009535D01*
X019568Y009535D02*
X019427Y009535D01*
X019428Y009376D02*
X019014Y009376D01*
X018855Y009218D02*
X019373Y009218D01*
X019377Y009059D02*
X018800Y009059D01*
X018800Y008901D02*
X019447Y008901D01*
X019497Y008841D02*
X019521Y008816D01*
X019577Y008776D01*
X019639Y008744D01*
X019704Y008723D01*
X019551Y008571D01*
X019478Y008498D01*
X019438Y008402D01*
X019438Y008233D01*
X019410Y008261D01*
X019045Y008261D01*
X018916Y008133D01*
X018788Y008004D01*
X018788Y007639D01*
X018916Y007510D01*
X019228Y007821D01*
X018916Y007510D01*
X019045Y007381D01*
X019410Y007381D01*
X019438Y007410D01*
X019438Y007358D01*
X018595Y006515D01*
X018486Y006515D01*
X018603Y006523D02*
X017950Y006523D01*
X018063Y006365D02*
X018335Y006365D01*
X018109Y006682D02*
X018762Y006682D01*
X018920Y006840D02*
X018214Y006840D01*
X018214Y006999D02*
X019079Y006999D01*
X019237Y007157D02*
X018214Y007157D01*
X018112Y007316D02*
X019396Y007316D01*
X018953Y007474D02*
X017953Y007474D01*
X018060Y007633D02*
X018794Y007633D01*
X018788Y007791D02*
X018214Y007791D01*
X018214Y007950D02*
X018788Y007950D01*
X018750Y008108D02*
X018892Y008108D01*
X018916Y008133D02*
X019228Y007821D01*
X019228Y007821D01*
X019228Y007821D01*
X018916Y008133D01*
X018941Y008108D02*
X018941Y008108D01*
X018909Y008267D02*
X019438Y008267D01*
X019448Y008425D02*
X018980Y008425D01*
X018980Y008584D02*
X019564Y008584D01*
X019646Y008742D02*
X018958Y008742D01*
X018521Y008529D02*
X018521Y009279D01*
X019285Y010043D01*
X018918Y010327D02*
X018805Y010327D01*
X018760Y010169D02*
X018636Y010169D01*
X018666Y010010D02*
X018214Y010010D01*
X018214Y009852D02*
X018641Y009852D01*
X018539Y009693D02*
X018120Y009693D01*
X017962Y009535D02*
X018380Y009535D01*
X018258Y009376D02*
X018051Y009376D01*
X018210Y009218D02*
X018241Y009218D01*
X018241Y009059D02*
X018214Y009059D01*
X018214Y008901D02*
X018241Y008901D01*
X018214Y008108D02*
X018291Y008108D01*
X019100Y007950D02*
X019100Y007950D01*
X019197Y007791D02*
X019197Y007791D01*
X019039Y007633D02*
X019039Y007633D01*
X019497Y008841D02*
X019992Y009336D01*
X019992Y009336D01*
X020032Y009376D02*
X020032Y009376D01*
X019952Y009376D02*
X019952Y009376D01*
X019874Y009218D02*
X019874Y009218D01*
X019715Y009059D02*
X019715Y009059D01*
X019557Y008901D02*
X019557Y008901D01*
X020191Y009535D02*
X020191Y009535D01*
X020349Y009693D02*
X020349Y009693D01*
X020466Y009852D02*
X020832Y009852D01*
X020673Y009693D02*
X020581Y009693D01*
X021343Y008901D02*
X023657Y008901D01*
X023838Y008742D02*
X021343Y008742D01*
X021921Y008425D02*
X024298Y008425D01*
X024334Y008267D02*
X022021Y008267D01*
X022050Y008108D02*
X024444Y008108D01*
X025005Y007791D02*
X022551Y007791D01*
X022698Y007633D02*
X025011Y007633D01*
X025078Y007474D02*
X022757Y007474D01*
X022757Y007316D02*
X025282Y007316D01*
X024821Y006999D02*
X023347Y006999D01*
X023440Y006840D02*
X024821Y006840D01*
X024821Y006682D02*
X023464Y006682D01*
X023432Y006523D02*
X024821Y006523D01*
X025199Y006750D02*
X025891Y006750D01*
X026010Y007633D02*
X026123Y007633D01*
X026169Y007791D02*
X026286Y007791D01*
X026049Y008322D02*
X025649Y007922D01*
X026049Y008322D02*
X026049Y019350D01*
X026199Y019500D01*
X025599Y019100D02*
X025599Y009286D01*
X025293Y009376D02*
X024857Y009376D01*
X024878Y009535D02*
X025319Y009535D01*
X025319Y009693D02*
X024988Y009693D01*
X025146Y009852D02*
X025319Y009852D01*
X025305Y010010D02*
X025319Y010010D01*
X025149Y010250D02*
X024235Y009336D01*
X023941Y009693D02*
X023828Y009693D01*
X023783Y009535D02*
X023670Y009535D01*
X023646Y009376D02*
X022969Y009376D01*
X022899Y009650D02*
X022549Y009650D01*
X021499Y010700D01*
X021349Y010850D02*
X020949Y011250D01*
X021317Y011278D02*
X021469Y011278D01*
X021855Y010803D02*
X022237Y010803D01*
X022268Y010961D02*
X022381Y010961D01*
X022426Y011120D02*
X022539Y011120D01*
X022585Y011278D02*
X022698Y011278D01*
X022710Y011437D02*
X023969Y011437D01*
X023969Y011595D02*
X022757Y011595D01*
X022806Y011754D02*
X023969Y011754D01*
X023969Y011912D02*
X022964Y011912D01*
X023377Y012071D02*
X023969Y012071D01*
X023969Y012229D02*
X023536Y012229D01*
X023311Y011278D02*
X023969Y011278D01*
X023969Y011120D02*
X023425Y011120D01*
X023464Y010961D02*
X023969Y010961D01*
X023856Y010803D02*
X023448Y010803D01*
X023517Y010644D02*
X023365Y010644D01*
X023320Y010486D02*
X023206Y010486D01*
X023161Y010327D02*
X023048Y010327D01*
X023003Y010169D02*
X022879Y010169D01*
X022908Y010010D02*
X022585Y010010D01*
X022177Y010486D02*
X022110Y010486D01*
X022177Y010644D02*
X021951Y010644D01*
X023527Y010078D02*
X024249Y010800D01*
X024249Y017500D01*
X023049Y018700D01*
X023199Y018850D01*
X023199Y019500D01*
X023521Y019045D02*
X023877Y019045D01*
X023718Y019203D02*
X023680Y019203D01*
X023479Y018886D02*
X024417Y018886D01*
X024576Y018728D02*
X023451Y018728D01*
X023576Y018569D02*
X024734Y018569D01*
X024869Y018411D02*
X023735Y018411D01*
X023893Y018252D02*
X024869Y018252D01*
X024869Y018094D02*
X024052Y018094D01*
X024210Y017935D02*
X024869Y017935D01*
X024869Y017777D02*
X024369Y017777D01*
X024503Y017618D02*
X024869Y017618D01*
X024869Y017460D02*
X024529Y017460D01*
X024529Y017301D02*
X024869Y017301D01*
X024869Y017143D02*
X024529Y017143D01*
X024529Y016984D02*
X024869Y016984D01*
X024869Y016826D02*
X024529Y016826D01*
X024529Y016667D02*
X024869Y016667D01*
X024869Y016509D02*
X024529Y016509D01*
X024529Y016350D02*
X024869Y016350D01*
X024869Y016192D02*
X024529Y016192D01*
X024529Y016033D02*
X024869Y016033D01*
X024869Y015875D02*
X024529Y015875D01*
X024529Y015716D02*
X024869Y015716D01*
X024869Y015558D02*
X024529Y015558D01*
X024529Y015399D02*
X024869Y015399D01*
X024869Y015241D02*
X024529Y015241D01*
X024529Y015082D02*
X024869Y015082D01*
X024869Y014924D02*
X024529Y014924D01*
X024529Y014765D02*
X024869Y014765D01*
X024869Y014607D02*
X024529Y014607D01*
X024529Y014448D02*
X024869Y014448D01*
X024869Y014290D02*
X024529Y014290D01*
X024529Y014131D02*
X024869Y014131D01*
X024869Y013973D02*
X024529Y013973D01*
X024529Y013814D02*
X024869Y013814D01*
X024869Y013656D02*
X024529Y013656D01*
X024529Y013497D02*
X024869Y013497D01*
X024869Y013339D02*
X024529Y013339D01*
X024529Y013180D02*
X024869Y013180D01*
X024869Y013022D02*
X024529Y013022D01*
X024529Y012863D02*
X024869Y012863D01*
X024869Y012705D02*
X024529Y012705D01*
X024529Y012546D02*
X024869Y012546D01*
X024869Y012388D02*
X024529Y012388D01*
X024529Y012229D02*
X024869Y012229D01*
X024869Y012071D02*
X024529Y012071D01*
X024529Y011912D02*
X024869Y011912D01*
X024869Y011754D02*
X024529Y011754D01*
X024529Y011595D02*
X024869Y011595D01*
X024869Y011437D02*
X024529Y011437D01*
X024529Y011278D02*
X024869Y011278D01*
X024869Y011120D02*
X024529Y011120D01*
X024529Y010961D02*
X024869Y010961D01*
X024869Y010803D02*
X024529Y010803D01*
X024488Y010644D02*
X024869Y010644D01*
X024869Y010486D02*
X024331Y010486D01*
X024172Y010327D02*
X024830Y010327D01*
X024671Y010169D02*
X024171Y010169D01*
X024119Y010010D02*
X024513Y010010D01*
X024100Y009852D02*
X023987Y009852D01*
X023527Y010043D02*
X023527Y010078D01*
X024608Y009059D02*
X024721Y009059D01*
X024767Y009218D02*
X024901Y009218D01*
X025149Y010250D02*
X025149Y018550D01*
X024199Y019500D01*
X025199Y019500D02*
X025599Y019100D01*
X023049Y018700D02*
X022999Y018750D01*
X021799Y018750D01*
X021549Y018750D02*
X020449Y018750D01*
X020199Y019000D02*
X020199Y019500D01*
X020506Y018411D02*
X022943Y018411D01*
X021288Y017935D02*
X020030Y017935D01*
X019361Y015558D02*
X019031Y015558D01*
X019167Y015399D02*
X019202Y015399D01*
X018399Y014600D02*
X018399Y013800D01*
X020519Y011680D01*
X020375Y011437D02*
X018468Y011437D01*
X018455Y011278D02*
X018342Y011278D01*
X018297Y011120D02*
X018184Y011120D01*
X018138Y010961D02*
X018025Y010961D01*
X017994Y010803D02*
X008714Y010803D01*
X008714Y010787D02*
X008714Y011213D01*
X008479Y011448D01*
X008479Y011629D01*
X008589Y011739D01*
X008659Y011908D01*
X008659Y012091D01*
X008589Y012261D01*
X008460Y012390D01*
X008291Y012460D01*
X008108Y012460D01*
X007938Y012390D01*
X007809Y012261D01*
X007739Y012091D01*
X007739Y011908D01*
X007809Y011739D01*
X007919Y011629D01*
X007919Y011448D01*
X007684Y011213D01*
X007684Y010787D01*
X007986Y010485D01*
X008412Y010485D01*
X008714Y010787D01*
X008714Y010961D02*
X017348Y010961D01*
X017358Y011595D02*
X017245Y011595D01*
X017403Y011754D02*
X017517Y011754D01*
X017562Y011912D02*
X017675Y011912D01*
X017720Y012071D02*
X017889Y012071D01*
X017796Y012229D02*
X019574Y012229D01*
X019416Y012388D02*
X017807Y012388D01*
X017763Y012546D02*
X019257Y012546D01*
X019099Y012705D02*
X017641Y012705D01*
X017053Y012705D02*
X016940Y012705D01*
X016895Y012546D02*
X016782Y012546D01*
X016736Y012388D02*
X016623Y012388D01*
X017059Y012863D02*
X018940Y012863D01*
X018782Y013022D02*
X017100Y013022D01*
X017086Y013180D02*
X018623Y013180D01*
X018465Y013339D02*
X017007Y013339D01*
X018219Y012071D02*
X019733Y012071D01*
X019891Y011912D02*
X018434Y011912D01*
X018506Y011754D02*
X020050Y011754D01*
X020208Y011595D02*
X018514Y011595D01*
X019122Y010644D02*
X019274Y010644D01*
X019077Y010486D02*
X018964Y010486D01*
X020366Y012229D02*
X020420Y012229D01*
X021629Y012388D02*
X021629Y012388D01*
X016714Y011595D02*
X015022Y011595D01*
X015154Y011754D02*
X015463Y011754D01*
X015268Y011912D02*
X015214Y011912D01*
X014211Y011120D02*
X008714Y011120D01*
X008649Y011278D02*
X014052Y011278D01*
X013943Y011437D02*
X008491Y011437D01*
X008479Y011595D02*
X008975Y011595D01*
X008938Y011610D02*
X009108Y011540D01*
X009291Y011540D01*
X009460Y011610D01*
X009589Y011739D01*
X009659Y011908D01*
X009659Y012091D01*
X009589Y012261D01*
X009460Y012390D01*
X009291Y012460D01*
X009108Y012460D01*
X008938Y012390D01*
X008809Y012261D01*
X008739Y012091D01*
X008739Y011908D01*
X008809Y011739D01*
X008938Y011610D01*
X008803Y011754D02*
X008595Y011754D01*
X008659Y011912D02*
X008739Y011912D01*
X008739Y012071D02*
X008659Y012071D01*
X008602Y012229D02*
X008796Y012229D01*
X008936Y012388D02*
X008462Y012388D01*
X008199Y012000D02*
X008199Y011000D01*
X007827Y010644D02*
X006994Y010644D01*
X006979Y010629D02*
X007159Y010809D01*
X007159Y011191D01*
X006890Y011460D01*
X006509Y011460D01*
X006239Y011191D01*
X006239Y010809D01*
X006419Y010629D01*
X006419Y010121D01*
X006239Y009941D01*
X006239Y009559D01*
X006509Y009290D01*
X006890Y009290D01*
X007159Y009559D01*
X007159Y009941D01*
X006979Y010121D01*
X006979Y010629D01*
X006979Y010486D02*
X007456Y010486D01*
X007298Y010327D02*
X006979Y010327D01*
X006979Y010169D02*
X007184Y010169D01*
X007184Y010010D02*
X007090Y010010D01*
X007159Y009852D02*
X007184Y009852D01*
X007159Y009693D02*
X007278Y009693D01*
X007134Y009535D02*
X007436Y009535D01*
X007347Y009376D02*
X006976Y009376D01*
X007188Y009218D02*
X005729Y009218D01*
X005729Y009376D02*
X006423Y009376D01*
X006264Y009535D02*
X005729Y009535D01*
X005729Y009693D02*
X006239Y009693D01*
X006239Y009852D02*
X005729Y009852D01*
X005729Y010010D02*
X006309Y010010D01*
X006419Y010169D02*
X005729Y010169D01*
X005729Y010327D02*
X006419Y010327D01*
X006419Y010486D02*
X005729Y010486D01*
X005729Y010644D02*
X006405Y010644D01*
X006246Y010803D02*
X005729Y010803D01*
X005729Y010961D02*
X006239Y010961D01*
X006239Y011120D02*
X005729Y011120D01*
X005729Y011278D02*
X006327Y011278D01*
X006485Y011437D02*
X005729Y011437D01*
X005729Y011595D02*
X007919Y011595D01*
X007907Y011437D02*
X006913Y011437D01*
X007072Y011278D02*
X007749Y011278D01*
X007684Y011120D02*
X007159Y011120D01*
X007159Y010961D02*
X007684Y010961D01*
X007684Y010803D02*
X007152Y010803D01*
X006699Y011000D02*
X006699Y009750D01*
X007184Y009059D02*
X005729Y009059D01*
X005711Y008901D02*
X007184Y008901D01*
X007229Y008742D02*
X005587Y008742D01*
X005429Y008584D02*
X007387Y008584D01*
X007396Y008425D02*
X005310Y008425D01*
X005254Y008267D02*
X007237Y008267D01*
X007184Y008108D02*
X005153Y008108D01*
X004943Y007950D02*
X007184Y007950D01*
X007184Y007791D02*
X004229Y007791D01*
X004229Y007950D02*
X004393Y007950D01*
X004203Y007633D02*
X007338Y007633D01*
X007445Y007474D02*
X004069Y007474D01*
X003911Y007316D02*
X007286Y007316D01*
X007184Y007157D02*
X006914Y007157D01*
X006699Y007157D02*
X006699Y007157D01*
X006699Y006999D02*
X006699Y006999D01*
X006699Y006840D02*
X006699Y006840D01*
X006699Y006750D02*
X007139Y006750D01*
X006699Y006750D01*
X006699Y006310D01*
X006881Y006310D01*
X006699Y006365D02*
X006699Y006365D01*
X006699Y006523D02*
X006699Y006523D01*
X006699Y006682D02*
X006699Y006682D01*
X006699Y006750D02*
X006699Y006750D01*
X006259Y006682D02*
X003277Y006682D01*
X003435Y006840D02*
X006259Y006840D01*
X006325Y006999D02*
X003594Y006999D01*
X003752Y007157D02*
X006484Y007157D01*
X007073Y006999D02*
X007184Y006999D01*
X007184Y006840D02*
X007139Y006840D01*
X007139Y006682D02*
X007289Y006682D01*
X007448Y006523D02*
X007094Y006523D01*
X006462Y006365D02*
X005285Y006365D01*
X004713Y006365D02*
X004257Y006365D01*
X004415Y006206D02*
X004586Y006206D01*
X004537Y006048D02*
X004439Y006048D01*
X004439Y006000D02*
X003999Y006000D01*
X003999Y006000D01*
X004439Y006000D01*
X003999Y006048D02*
X003999Y006048D01*
X003999Y006206D02*
X003999Y006206D01*
X003999Y006365D02*
X003999Y006365D01*
X003741Y006365D02*
X002960Y006365D01*
X003118Y006523D02*
X006304Y006523D01*
X005728Y005731D02*
X007240Y005731D01*
X007226Y005255D02*
X005809Y005255D01*
X005809Y005097D02*
X007184Y005097D01*
X007184Y004938D02*
X005809Y004938D01*
X005809Y004780D02*
X007191Y004780D01*
X007350Y004621D02*
X005837Y004621D01*
X006471Y003987D02*
X015567Y003987D01*
X015409Y003829D02*
X006630Y003829D01*
X006788Y003670D02*
X015250Y003670D01*
X015092Y003512D02*
X006947Y003512D01*
X005928Y003512D02*
X004327Y003512D01*
X004327Y003353D02*
X004902Y003353D01*
X004743Y003195D02*
X004327Y003195D01*
X004327Y003036D02*
X004739Y003036D01*
X004739Y002878D02*
X004229Y002878D01*
X004229Y002719D02*
X004830Y002719D01*
X004919Y002561D02*
X004156Y002561D01*
X003997Y002402D02*
X004919Y002402D01*
X004919Y002244D02*
X003839Y002244D01*
X003680Y002085D02*
X004919Y002085D01*
X004919Y001927D02*
X004445Y001927D01*
X004249Y001927D02*
X004249Y001927D01*
X004249Y001768D02*
X004249Y001768D01*
X004249Y001610D02*
X004249Y001610D01*
X004053Y001927D02*
X003522Y001927D01*
X003363Y001768D02*
X003895Y001768D01*
X003809Y001610D02*
X003205Y001610D01*
X003046Y001451D02*
X003809Y001451D01*
X003834Y001293D02*
X002888Y001293D01*
X002699Y001500D02*
X003949Y002750D01*
X003949Y003250D01*
X003899Y003950D02*
X002449Y002500D01*
X002199Y002500D01*
X001799Y002878D02*
X001399Y002878D01*
X001399Y003036D02*
X001885Y003036D01*
X001727Y003195D02*
X001399Y003195D01*
X001399Y003353D02*
X001649Y003353D01*
X001649Y003512D02*
X001399Y003512D01*
X001399Y003670D02*
X001649Y003670D01*
X001750Y003829D02*
X001399Y003829D01*
X001399Y003987D02*
X001908Y003987D01*
X001804Y004146D02*
X001399Y004146D01*
X001399Y004304D02*
X001669Y004304D01*
X001669Y004463D02*
X001399Y004463D01*
X001399Y004621D02*
X001669Y004621D01*
X001729Y004780D02*
X001399Y004780D01*
X001399Y004938D02*
X001888Y004938D01*
X001853Y005097D02*
X001399Y005097D01*
X001399Y005255D02*
X001695Y005255D01*
X001669Y005414D02*
X001399Y005414D01*
X001399Y005572D02*
X001669Y005572D01*
X001680Y005731D02*
X001399Y005731D01*
X001399Y005889D02*
X001839Y005889D01*
X001874Y006048D02*
X001399Y006048D01*
X001449Y006000D02*
X001449Y007000D01*
X001949Y007500D01*
X001920Y006999D02*
X001399Y006999D01*
X001399Y007157D02*
X002960Y007157D01*
X002802Y006999D02*
X002478Y006999D01*
X002637Y006840D02*
X002643Y006840D01*
X002699Y006500D02*
X002199Y006500D01*
X002449Y006500D01*
X002699Y006500D02*
X003949Y007750D01*
X003949Y009250D01*
X004199Y009500D01*
X003949Y009750D01*
X003949Y011250D01*
X004199Y011500D01*
X004652Y011500D01*
X004668Y011484D01*
X004186Y011912D02*
X001399Y011912D01*
X001399Y011754D02*
X004079Y011754D01*
X003898Y011595D02*
X001399Y011595D01*
X001399Y011437D02*
X003740Y011437D01*
X003669Y011278D02*
X001399Y011278D01*
X001399Y011120D02*
X002629Y011120D01*
X002631Y011120D02*
X002553Y011108D01*
X002460Y011077D01*
X002373Y011033D01*
X002293Y010975D01*
X002224Y010906D01*
X002166Y010826D01*
X002122Y010739D01*
X002091Y010646D01*
X002079Y010568D01*
X002631Y010568D01*
X002631Y010432D01*
X002767Y010432D01*
X002767Y010568D01*
X002631Y010568D01*
X002631Y011120D01*
X002767Y011120D01*
X002845Y011108D01*
X002938Y011077D01*
X003026Y011033D01*
X003105Y010975D01*
X003174Y010906D01*
X003232Y010826D01*
X003276Y010739D01*
X003307Y010646D01*
X003319Y010568D01*
X002767Y010568D01*
X002767Y011120D01*
X002770Y011120D02*
X003669Y011120D01*
X003669Y010961D02*
X003119Y010961D01*
X003244Y010803D02*
X003669Y010803D01*
X003669Y010644D02*
X003307Y010644D01*
X003319Y010432D02*
X002767Y010432D01*
X002767Y009880D01*
X002845Y009892D01*
X002938Y009923D01*
X003026Y009967D01*
X003105Y010025D01*
X003174Y010094D01*
X003232Y010174D01*
X003276Y010261D01*
X003307Y010354D01*
X003319Y010432D01*
X003298Y010327D02*
X003669Y010327D01*
X003669Y010169D02*
X003228Y010169D01*
X003084Y010010D02*
X003669Y010010D01*
X003669Y009852D02*
X001399Y009852D01*
X001399Y010010D02*
X002314Y010010D01*
X002293Y010025D02*
X002373Y009967D01*
X002460Y009923D01*
X002553Y009892D01*
X002631Y009880D01*
X002631Y010432D01*
X002079Y010432D01*
X002091Y010354D01*
X002122Y010261D01*
X002166Y010174D01*
X002224Y010094D01*
X002293Y010025D01*
X002170Y010169D02*
X001399Y010169D01*
X001399Y010327D02*
X002100Y010327D01*
X002091Y010644D02*
X001399Y010644D01*
X001399Y010486D02*
X002631Y010486D01*
X002699Y010500D02*
X003449Y009750D01*
X003449Y008000D01*
X002949Y007500D01*
X003119Y007316D02*
X001399Y007316D01*
X001399Y007474D02*
X003277Y007474D01*
X003436Y007633D02*
X001399Y007633D01*
X001399Y007791D02*
X003594Y007791D01*
X003669Y007950D02*
X001399Y007950D01*
X001399Y008108D02*
X001597Y008108D01*
X001832Y008108D02*
X002582Y008108D01*
X002612Y008095D02*
X002786Y008095D01*
X002946Y008162D01*
X003069Y008284D01*
X003135Y008445D01*
X003135Y008618D01*
X003069Y008779D01*
X002946Y008901D01*
X002786Y008968D01*
X002612Y008968D01*
X002452Y008901D01*
X002329Y008779D01*
X002263Y008618D01*
X002263Y008445D01*
X002329Y008284D01*
X002452Y008162D01*
X002612Y008095D01*
X002817Y008108D02*
X003669Y008108D01*
X003669Y008267D02*
X003051Y008267D01*
X003127Y008425D02*
X003669Y008425D01*
X003669Y008584D02*
X003135Y008584D01*
X003084Y008742D02*
X003669Y008742D01*
X003669Y008901D02*
X002947Y008901D01*
X002451Y008901D02*
X001963Y008901D01*
X002100Y008742D02*
X002314Y008742D01*
X002263Y008584D02*
X002151Y008584D01*
X002143Y008425D02*
X002271Y008425D01*
X002347Y008267D02*
X002067Y008267D01*
X001467Y008901D02*
X001399Y008901D01*
X001399Y009059D02*
X003669Y009059D01*
X003669Y009218D02*
X001399Y009218D01*
X001399Y009376D02*
X003698Y009376D01*
X003769Y009535D02*
X001399Y009535D01*
X001399Y009693D02*
X003670Y009693D01*
X004183Y009516D02*
X004668Y009516D01*
X004652Y009500D01*
X004199Y009500D01*
X004668Y008531D02*
X004699Y008500D01*
X004949Y008500D01*
X005449Y009000D01*
X005449Y012000D01*
X004949Y012500D01*
X005449Y013000D01*
X005449Y015250D01*
X005909Y015241D02*
X005989Y015241D01*
X006013Y015399D02*
X005909Y015399D01*
X005792Y015558D02*
X006106Y015558D01*
X006449Y015250D02*
X006699Y015000D01*
X006699Y013000D01*
X006344Y012705D02*
X005550Y012705D01*
X005695Y012863D02*
X006239Y012863D01*
X006239Y013022D02*
X005729Y013022D01*
X005729Y013180D02*
X006239Y013180D01*
X006387Y013339D02*
X005729Y013339D01*
X005729Y013497D02*
X006419Y013497D01*
X006419Y013656D02*
X005729Y013656D01*
X005729Y013814D02*
X006419Y013814D01*
X006419Y013973D02*
X005729Y013973D01*
X005729Y014131D02*
X006419Y014131D01*
X006419Y014290D02*
X005729Y014290D01*
X005729Y014448D02*
X006419Y014448D01*
X006419Y014607D02*
X005729Y014607D01*
X005729Y014765D02*
X006419Y014765D01*
X006125Y014924D02*
X005773Y014924D01*
X005909Y015082D02*
X006021Y015082D01*
X006909Y015241D02*
X007830Y015241D01*
X007767Y015082D02*
X006968Y015082D01*
X006979Y014924D02*
X007766Y014924D01*
X007826Y014765D02*
X006979Y014765D01*
X006979Y014607D02*
X008002Y014607D01*
X008199Y014607D02*
X008199Y014607D01*
X008199Y014765D02*
X008199Y014765D01*
X008199Y014924D02*
X008199Y014924D01*
X008199Y015000D02*
X008199Y015000D01*
X008639Y015000D01*
X008199Y015000D01*
X008199Y015082D02*
X008199Y015082D01*
X008199Y015241D02*
X008199Y015241D01*
X008385Y015399D02*
X008960Y015399D01*
X008801Y015241D02*
X008568Y015241D01*
X008632Y015082D02*
X008739Y015082D01*
X008739Y014924D02*
X008632Y014924D01*
X008572Y014765D02*
X008798Y014765D01*
X008947Y014607D02*
X008396Y014607D01*
X007159Y012863D02*
X011684Y012863D01*
X011766Y012705D02*
X007054Y012705D01*
X006896Y012546D02*
X011919Y012546D01*
X011858Y012388D02*
X011462Y012388D01*
X011199Y012000D02*
X012199Y012000D01*
X011876Y011595D02*
X011423Y011595D01*
X010975Y011595D02*
X010423Y011595D01*
X010460Y011610D02*
X010589Y011739D01*
X010659Y011908D01*
X010659Y012091D01*
X010589Y012261D01*
X010460Y012390D01*
X010291Y012460D01*
X010108Y012460D01*
X009938Y012390D01*
X009809Y012261D01*
X009739Y012091D01*
X009739Y011908D01*
X009809Y011739D01*
X009938Y011610D01*
X010108Y011540D01*
X010291Y011540D01*
X010460Y011610D01*
X010595Y011754D02*
X010803Y011754D01*
X010739Y011912D02*
X010659Y011912D01*
X010659Y012071D02*
X010739Y012071D01*
X010796Y012229D02*
X010602Y012229D01*
X010462Y012388D02*
X010936Y012388D01*
X009936Y012388D02*
X009462Y012388D01*
X009602Y012229D02*
X009796Y012229D01*
X009739Y012071D02*
X009659Y012071D01*
X009659Y011912D02*
X009739Y011912D01*
X009803Y011754D02*
X009595Y011754D01*
X009423Y011595D02*
X009975Y011595D01*
X009942Y010486D02*
X010456Y010486D01*
X010298Y010327D02*
X010100Y010327D01*
X009456Y010486D02*
X008942Y010486D01*
X009100Y010327D02*
X009298Y010327D01*
X008571Y010644D02*
X016224Y010644D01*
X016066Y010486D02*
X015942Y010486D01*
X015456Y010486D02*
X014942Y010486D01*
X015100Y010327D02*
X015298Y010327D01*
X014456Y010486D02*
X013942Y010486D01*
X014100Y010327D02*
X014298Y010327D01*
X013456Y010486D02*
X012942Y010486D01*
X013100Y010327D02*
X013298Y010327D01*
X012456Y010486D02*
X011942Y010486D01*
X012100Y010327D02*
X012298Y010327D01*
X011456Y010486D02*
X010942Y010486D01*
X011100Y010327D02*
X011298Y010327D01*
X013699Y011595D02*
X013699Y011595D01*
X013699Y011754D02*
X013699Y011754D01*
X013699Y011912D02*
X013699Y011912D01*
X013699Y012071D02*
X013699Y012071D01*
X013699Y012229D02*
X013699Y012229D01*
X013699Y012388D02*
X013699Y012388D01*
X013309Y013022D02*
X012714Y013022D01*
X012714Y013180D02*
X013150Y013180D01*
X012992Y013339D02*
X012589Y013339D01*
X012430Y013497D02*
X012938Y013497D01*
X012938Y013656D02*
X012583Y013656D01*
X012714Y013814D02*
X012938Y013814D01*
X008970Y016667D02*
X008183Y016667D01*
X008396Y017777D02*
X007854Y017777D01*
X008012Y017935D02*
X008186Y017935D01*
X008802Y017777D02*
X009527Y017777D01*
X009368Y017935D02*
X009012Y017935D01*
X009685Y017618D02*
X006463Y017618D01*
X006409Y017460D02*
X009739Y017460D01*
X009604Y017301D02*
X006401Y017301D01*
X006242Y017143D02*
X009446Y017143D01*
X007344Y017777D02*
X006622Y017777D01*
X006780Y017935D02*
X007186Y017935D01*
X004989Y015241D02*
X001399Y015241D01*
X001399Y015082D02*
X004989Y015082D01*
X005125Y014924D02*
X001399Y014924D01*
X001399Y014765D02*
X005169Y014765D01*
X005169Y014607D02*
X001399Y014607D01*
X001399Y014448D02*
X005169Y014448D01*
X005169Y014290D02*
X001399Y014290D01*
X001399Y014131D02*
X005169Y014131D01*
X005169Y013973D02*
X001399Y013973D01*
X001399Y013814D02*
X005169Y013814D01*
X005169Y013656D02*
X001399Y013656D01*
X001399Y013497D02*
X005169Y013497D01*
X005169Y013339D02*
X001399Y013339D01*
X001399Y013180D02*
X005169Y013180D01*
X005075Y013022D02*
X005012Y013022D01*
X004323Y013022D02*
X001399Y013022D01*
X001399Y012863D02*
X001527Y012863D01*
X001902Y012863D02*
X002512Y012863D01*
X002452Y012838D02*
X002329Y012716D01*
X002263Y012555D01*
X002263Y012382D01*
X002329Y012221D01*
X002452Y012099D01*
X002612Y012032D01*
X002786Y012032D01*
X002946Y012099D01*
X003069Y012221D01*
X003135Y012382D01*
X003135Y012555D01*
X003069Y012716D01*
X002946Y012838D01*
X002786Y012905D01*
X002612Y012905D01*
X002452Y012838D01*
X002325Y012705D02*
X002089Y012705D01*
X002151Y012546D02*
X002263Y012546D01*
X002263Y012388D02*
X002151Y012388D01*
X002088Y012229D02*
X002326Y012229D01*
X002520Y012071D02*
X001894Y012071D01*
X001536Y012071D02*
X001399Y012071D01*
X001399Y010961D02*
X002279Y010961D01*
X002154Y010803D02*
X001399Y010803D01*
X002631Y010803D02*
X002767Y010803D01*
X002767Y010961D02*
X002631Y010961D01*
X002631Y010644D02*
X002767Y010644D01*
X002767Y010486D02*
X003669Y010486D01*
X002767Y010327D02*
X002631Y010327D01*
X002631Y010169D02*
X002767Y010169D01*
X002767Y010010D02*
X002631Y010010D01*
X002878Y012071D02*
X004156Y012071D01*
X004071Y012229D02*
X003072Y012229D01*
X003135Y012388D02*
X004025Y012388D01*
X004025Y012546D02*
X003135Y012546D01*
X003073Y012705D02*
X004069Y012705D01*
X004153Y012863D02*
X002887Y012863D01*
X004668Y012469D02*
X004699Y012500D01*
X004949Y012500D01*
X005391Y012546D02*
X006502Y012546D01*
X005723Y012071D02*
X007739Y012071D01*
X007739Y011912D02*
X005729Y011912D01*
X005729Y011754D02*
X007803Y011754D01*
X007796Y012229D02*
X005616Y012229D01*
X005458Y012388D02*
X007936Y012388D01*
X007942Y010486D02*
X007985Y010486D01*
X008100Y010327D02*
X008298Y010327D01*
X008413Y010486D02*
X008456Y010486D01*
X003583Y006206D02*
X002683Y006206D01*
X002524Y006048D02*
X003559Y006048D01*
X003559Y005889D02*
X002560Y005889D01*
X002718Y005731D02*
X003646Y005731D01*
X003805Y005572D02*
X002729Y005572D01*
X002729Y005414D02*
X003903Y005414D01*
X003999Y005572D02*
X003999Y005572D01*
X003999Y005731D02*
X003999Y005731D01*
X003999Y005889D02*
X003999Y005889D01*
X003745Y005255D02*
X002704Y005255D01*
X002545Y005097D02*
X003586Y005097D01*
X003428Y004938D02*
X002511Y004938D01*
X002669Y004780D02*
X003269Y004780D01*
X003111Y004621D02*
X002729Y004621D01*
X002729Y004463D02*
X002952Y004463D01*
X002794Y004304D02*
X002729Y004304D01*
X002635Y004146D02*
X002594Y004146D01*
X002219Y004621D02*
X002179Y004621D01*
X002179Y004780D02*
X002219Y004780D01*
X002219Y004938D02*
X002179Y004938D01*
X002179Y005097D02*
X002219Y005097D01*
X002219Y005255D02*
X002179Y005255D01*
X002179Y005414D02*
X002219Y005414D01*
X002199Y005500D02*
X001949Y005500D01*
X001449Y006000D01*
X001399Y006206D02*
X001715Y006206D01*
X001649Y006365D02*
X001399Y006365D01*
X001399Y006523D02*
X001649Y006523D01*
X001649Y006682D02*
X001399Y006682D01*
X001399Y006840D02*
X001761Y006840D01*
X005199Y003000D02*
X005199Y001750D01*
X005249Y001700D01*
X005249Y001500D01*
X004965Y001134D02*
X004505Y001134D01*
X004664Y001293D02*
X004806Y001293D01*
X004789Y001451D02*
X004689Y001451D01*
X004689Y001610D02*
X004789Y001610D01*
X004867Y001768D02*
X004603Y001768D01*
X006208Y000817D02*
X001399Y000817D01*
X001399Y000976D02*
X001946Y000976D01*
X001787Y001134D02*
X001399Y001134D01*
X001399Y001293D02*
X001649Y001293D01*
X001649Y001451D02*
X001399Y001451D01*
X001399Y001610D02*
X001649Y001610D01*
X001689Y001768D02*
X001399Y001768D01*
X001399Y001927D02*
X001848Y001927D01*
X001836Y002085D02*
X001399Y002085D01*
X001399Y002244D02*
X001678Y002244D01*
X001649Y002402D02*
X001399Y002402D01*
X001399Y002561D02*
X001649Y002561D01*
X001649Y002719D02*
X001399Y002719D01*
X002199Y001500D02*
X002699Y001500D01*
X007073Y002244D02*
X008446Y002244D01*
X008605Y002085D02*
X007288Y002085D01*
X007421Y001927D02*
X008319Y001927D01*
X008193Y001768D02*
X007486Y001768D01*
X007529Y001610D02*
X008129Y001610D01*
X008129Y001451D02*
X007529Y001451D01*
X007511Y001293D02*
X008168Y001293D01*
X008259Y001134D02*
X007446Y001134D01*
X007348Y000976D02*
X008379Y000976D01*
X008430Y000817D02*
X007190Y000817D01*
X008672Y003036D02*
X008739Y003036D01*
X008743Y003195D02*
X008655Y003195D01*
X008497Y003353D02*
X008902Y003353D01*
X009788Y003353D02*
X011902Y003353D01*
X011743Y003195D02*
X010014Y003195D01*
X010172Y003036D02*
X011739Y003036D01*
X011739Y002878D02*
X010331Y002878D01*
X010489Y002719D02*
X011830Y002719D01*
X011988Y002561D02*
X010648Y002561D01*
X010806Y002402D02*
X015038Y002402D01*
X015196Y002244D02*
X010965Y002244D01*
X011054Y002085D02*
X015355Y002085D01*
X014876Y001927D02*
X014522Y001927D01*
X014681Y001768D02*
X014718Y001768D01*
X014879Y002561D02*
X013410Y002561D01*
X012988Y002561D02*
X012410Y002561D01*
X012579Y001927D02*
X012819Y001927D01*
X013579Y001927D02*
X013876Y001927D01*
X013718Y001768D02*
X013705Y001768D01*
X015422Y003036D02*
X015739Y003036D01*
X015739Y002878D02*
X015581Y002878D01*
X015739Y002719D02*
X015830Y002719D01*
X015898Y002561D02*
X015988Y002561D01*
X016056Y002402D02*
X016455Y002402D01*
X016410Y002561D02*
X016614Y002561D01*
X016569Y002719D02*
X016772Y002719D01*
X016832Y002878D02*
X016659Y002878D01*
X016821Y002889D02*
X016821Y002889D01*
X017049Y002600D02*
X017549Y002600D01*
X017266Y002244D02*
X017089Y002244D01*
X016930Y002085D02*
X020836Y002085D01*
X020876Y001927D02*
X019522Y001927D01*
X019681Y001768D02*
X020718Y001768D01*
X020669Y001610D02*
X019729Y001610D01*
X019729Y001451D02*
X020669Y001451D01*
X020669Y001293D02*
X019729Y001293D01*
X019583Y001134D02*
X020816Y001134D01*
X020974Y000976D02*
X019424Y000976D01*
X019219Y000817D02*
X026999Y000817D01*
X026999Y000976D02*
X026424Y000976D01*
X026583Y001134D02*
X026999Y001134D01*
X026999Y001293D02*
X026729Y001293D01*
X026729Y001451D02*
X026999Y001451D01*
X027026Y001610D02*
X026729Y001610D01*
X026681Y001768D02*
X027184Y001768D01*
X027343Y001927D02*
X026522Y001927D01*
X026562Y002085D02*
X027501Y002085D01*
X027660Y002244D02*
X026720Y002244D01*
X026749Y002402D02*
X027818Y002402D01*
X027977Y002561D02*
X026749Y002561D01*
X026749Y002719D02*
X026916Y002719D01*
X026648Y002878D02*
X026599Y002878D01*
X026493Y003036D02*
X026441Y003036D01*
X026427Y003195D02*
X026151Y003195D01*
X025992Y003353D02*
X026369Y003353D01*
X026369Y003512D02*
X025834Y003512D01*
X025777Y003670D02*
X026371Y003670D01*
X026437Y003829D02*
X025760Y003829D01*
X025358Y003987D02*
X026512Y003987D01*
X026671Y004146D02*
X025200Y004146D01*
X025041Y004304D02*
X026971Y004304D01*
X027427Y004304D02*
X027999Y004304D01*
X027999Y004146D02*
X027727Y004146D01*
X027886Y003987D02*
X027999Y003987D01*
X027999Y003829D02*
X027961Y003829D01*
X027971Y003195D02*
X027999Y003195D01*
X027999Y003036D02*
X027905Y003036D01*
X027999Y002878D02*
X027750Y002878D01*
X027999Y002719D02*
X027482Y002719D01*
X026199Y002750D02*
X026199Y002500D01*
X026199Y001500D01*
X025816Y001134D02*
X025583Y001134D01*
X025424Y000976D02*
X025974Y000976D01*
X025199Y001500D02*
X025199Y002500D01*
X025199Y002750D01*
X023999Y003950D01*
X023199Y004750D01*
X023199Y005500D01*
X023499Y005800D01*
X023527Y005800D01*
X023124Y006048D02*
X023011Y006048D01*
X022966Y005889D02*
X022790Y005889D01*
X022729Y005731D02*
X022893Y005731D01*
X022884Y005572D02*
X022729Y005572D01*
X022729Y005414D02*
X022919Y005414D01*
X022919Y005255D02*
X022729Y005255D01*
X022729Y005097D02*
X022919Y005097D01*
X022919Y004938D02*
X022729Y004938D01*
X022729Y004780D02*
X022919Y004780D01*
X022949Y004621D02*
X022729Y004621D01*
X022883Y004463D02*
X023091Y004463D01*
X023041Y004304D02*
X023249Y004304D01*
X023200Y004146D02*
X023408Y004146D01*
X023358Y003987D02*
X023566Y003987D01*
X023517Y003829D02*
X023621Y003829D01*
X024199Y004750D02*
X024199Y005000D01*
X024235Y005036D01*
X024235Y005093D01*
X024199Y005058D02*
X024199Y005000D01*
X024571Y004780D02*
X027999Y004780D01*
X027999Y004938D02*
X024730Y004938D01*
X024842Y005097D02*
X027999Y005097D01*
X027999Y005255D02*
X024878Y005255D01*
X024860Y005414D02*
X027999Y005414D01*
X027999Y005572D02*
X024774Y005572D01*
X024526Y005731D02*
X027999Y005731D01*
X027999Y005889D02*
X024170Y005889D01*
X024171Y006048D02*
X027999Y006048D01*
X027999Y006206D02*
X024117Y006206D01*
X023981Y006365D02*
X027999Y006365D01*
X027999Y004621D02*
X024724Y004621D01*
X024883Y004463D02*
X027999Y004463D01*
X026199Y002750D02*
X025399Y003550D01*
X024199Y004750D01*
X023607Y004780D02*
X023566Y004780D01*
X023591Y004938D02*
X023479Y004938D01*
X023479Y005097D02*
X023630Y005097D01*
X023633Y005255D02*
X023746Y005255D01*
X023791Y005414D02*
X023904Y005414D01*
X023950Y005572D02*
X024063Y005572D01*
X024104Y005731D02*
X024311Y005731D01*
X023441Y006365D02*
X023328Y006365D01*
X023283Y006206D02*
X023170Y006206D01*
X022820Y006507D02*
X022449Y006136D01*
X022449Y004500D01*
X024199Y002750D01*
X024199Y002500D01*
X023816Y001134D02*
X023583Y001134D01*
X023424Y000976D02*
X023974Y000976D01*
X024424Y000976D02*
X024974Y000976D01*
X024816Y001134D02*
X024583Y001134D01*
X022974Y000976D02*
X022424Y000976D01*
X022583Y001134D02*
X022816Y001134D01*
X021974Y000976D02*
X021424Y000976D01*
X021583Y001134D02*
X021816Y001134D01*
X020678Y002244D02*
X019982Y002244D01*
X020077Y002402D02*
X020649Y002402D01*
X020649Y002561D02*
X020077Y002561D01*
X020077Y002719D02*
X020649Y002719D01*
X020676Y002878D02*
X020061Y002878D01*
X019979Y003036D02*
X020517Y003036D01*
X020359Y003195D02*
X019979Y003195D01*
X019979Y003353D02*
X020200Y003353D01*
X020042Y003512D02*
X019979Y003512D01*
X019699Y002600D02*
X019699Y005500D01*
X019231Y005572D02*
X018999Y005572D01*
X016921Y003512D02*
X015829Y003512D01*
X015902Y003353D02*
X015671Y003353D01*
X015743Y003195D02*
X015512Y003195D01*
X016215Y002244D02*
X016297Y002244D01*
X016199Y001750D02*
X017049Y002600D01*
X016904Y001927D02*
X016772Y001927D01*
X016746Y001768D02*
X016681Y001768D01*
X018181Y001768D02*
X018217Y001768D01*
X018217Y001610D02*
X018181Y001610D01*
X018181Y001451D02*
X018217Y001451D01*
X018217Y001293D02*
X018181Y001293D01*
X018181Y001134D02*
X018217Y001134D01*
X018652Y001768D02*
X018718Y001768D01*
X018876Y001927D02*
X018494Y001927D01*
X018217Y001927D02*
X018181Y001927D01*
X015350Y004621D02*
X015048Y004621D01*
X014350Y004621D02*
X014048Y004621D01*
X013350Y004621D02*
X013048Y004621D01*
X012350Y004621D02*
X012048Y004621D01*
X011350Y004621D02*
X011048Y004621D01*
X010350Y004621D02*
X010048Y004621D01*
X009350Y004621D02*
X009048Y004621D01*
X008350Y004621D02*
X008048Y004621D01*
X011079Y001927D02*
X011819Y001927D01*
X011693Y001768D02*
X011205Y001768D01*
X011269Y001610D02*
X011629Y001610D01*
X011629Y001451D02*
X011269Y001451D01*
X011230Y001293D02*
X011668Y001293D01*
X011759Y001134D02*
X011139Y001134D01*
X022199Y002500D02*
X022199Y002750D01*
D24*
X016199Y001750D02*
X016199Y001500D01*
X016199Y001750D02*
X014949Y003000D01*
X013199Y003000D01*
X012199Y003000D01*
X010699Y002000D02*
X010699Y001500D01*
X010699Y002000D02*
X009699Y003000D01*
X009199Y003000D01*
X008199Y003000D02*
X006949Y003000D01*
X005449Y004500D01*
X005449Y005500D01*
X004999Y006000D01*
X002499Y003500D01*
X002199Y003500D01*
X008199Y003000D02*
X009699Y001500D01*
D25*
X006699Y004350D03*
X006699Y005500D03*
X003899Y003950D03*
X003949Y003250D03*
X002949Y007500D03*
X001949Y007500D03*
X002199Y009500D03*
X002199Y011500D03*
X009699Y013500D03*
X015599Y017200D03*
X017449Y014500D03*
X021699Y013700D03*
X023749Y016250D03*
X021949Y018350D03*
X026699Y015750D03*
X026699Y013250D03*
X023199Y009000D03*
X025199Y006750D03*
X026699Y005000D03*
X025399Y003550D03*
X023999Y003950D03*
X019699Y002600D03*
X017549Y002600D03*
X017199Y003150D03*
X018199Y004350D03*
X003699Y019000D03*
X002949Y020500D03*
X007599Y019100D03*
X008599Y019100D03*
D26*
X012599Y018500D02*
X012699Y018400D01*
X012699Y018250D01*
X013199Y017750D01*
X013199Y013500D01*
X014199Y012500D01*
X014199Y011500D01*
X014449Y011250D01*
X017699Y011250D01*
X017871Y011422D01*
X017871Y011457D01*
X018578Y010750D02*
X018328Y010500D01*
X016449Y010500D01*
X016199Y010250D01*
X016199Y004250D01*
X014949Y003000D01*
X016199Y003000D02*
X016349Y003150D01*
X017199Y003150D01*
X018699Y006250D02*
X019699Y007250D01*
X019699Y008350D01*
X021349Y010000D01*
X017164Y012164D02*
X017113Y012164D01*
X016949Y012000D01*
X015549Y012000D01*
X013699Y013850D01*
X013699Y018400D01*
X013599Y018500D01*
X014199Y018100D02*
X014599Y018500D01*
X014199Y018100D02*
X014199Y013900D01*
X015349Y012750D01*
X016335Y012750D01*
X016456Y012871D01*
X013699Y012000D02*
X012199Y010500D01*
X007699Y010500D01*
X007449Y010750D01*
D27*
X008699Y001500D02*
X008699Y001000D01*
X008949Y000750D01*
X018699Y000750D01*
X019199Y001250D01*
X019199Y001500D01*
D28*
X021406Y012164D02*
X022371Y013129D01*
D29*
X019992Y009336D02*
X019228Y008571D01*
X019228Y007821D01*
X018199Y006793D01*
X018199Y005500D01*
X018699Y005000D01*
M02*
