G75*
G70*
%OFA0B0*%
%FSLAX24Y24*%
%IPPOS*%
%LPD*%
%AMOC8*
5,1,8,0,0,1.08239X$1,22.5*
%
%ADD10C,0.0000*%
D10*
X001199Y000500D02*
X001199Y021496D01*
X026599Y021501D01*
X027199Y020900D01*
X027199Y016400D01*
X028199Y015400D01*
X028199Y002500D01*
X027199Y001500D01*
X027199Y000500D01*
X001199Y000500D01*
X006069Y001500D02*
X006071Y001550D01*
X006077Y001600D01*
X006087Y001649D01*
X006101Y001697D01*
X006118Y001744D01*
X006139Y001789D01*
X006164Y001833D01*
X006192Y001874D01*
X006224Y001913D01*
X006258Y001950D01*
X006295Y001984D01*
X006335Y002014D01*
X006377Y002041D01*
X006421Y002065D01*
X006467Y002086D01*
X006514Y002102D01*
X006562Y002115D01*
X006612Y002124D01*
X006661Y002129D01*
X006712Y002130D01*
X006762Y002127D01*
X006811Y002120D01*
X006860Y002109D01*
X006908Y002094D01*
X006954Y002076D01*
X006999Y002054D01*
X007042Y002028D01*
X007083Y001999D01*
X007122Y001967D01*
X007158Y001932D01*
X007190Y001894D01*
X007220Y001854D01*
X007247Y001811D01*
X007270Y001767D01*
X007289Y001721D01*
X007305Y001673D01*
X007317Y001624D01*
X007325Y001575D01*
X007329Y001525D01*
X007329Y001475D01*
X007325Y001425D01*
X007317Y001376D01*
X007305Y001327D01*
X007289Y001279D01*
X007270Y001233D01*
X007247Y001189D01*
X007220Y001146D01*
X007190Y001106D01*
X007158Y001068D01*
X007122Y001033D01*
X007083Y001001D01*
X007042Y000972D01*
X006999Y000946D01*
X006954Y000924D01*
X006908Y000906D01*
X006860Y000891D01*
X006811Y000880D01*
X006762Y000873D01*
X006712Y000870D01*
X006661Y000871D01*
X006612Y000876D01*
X006562Y000885D01*
X006514Y000898D01*
X006467Y000914D01*
X006421Y000935D01*
X006377Y000959D01*
X006335Y000986D01*
X006295Y001016D01*
X006258Y001050D01*
X006224Y001087D01*
X006192Y001126D01*
X006164Y001167D01*
X006139Y001211D01*
X006118Y001256D01*
X006101Y001303D01*
X006087Y001351D01*
X006077Y001400D01*
X006071Y001450D01*
X006069Y001500D01*
X002463Y008531D02*
X002465Y008561D01*
X002471Y008591D01*
X002480Y008620D01*
X002493Y008647D01*
X002510Y008672D01*
X002529Y008695D01*
X002552Y008716D01*
X002577Y008733D01*
X002603Y008747D01*
X002632Y008757D01*
X002661Y008764D01*
X002691Y008767D01*
X002722Y008766D01*
X002752Y008761D01*
X002781Y008752D01*
X002808Y008740D01*
X002834Y008725D01*
X002858Y008706D01*
X002879Y008684D01*
X002897Y008660D01*
X002912Y008633D01*
X002923Y008605D01*
X002931Y008576D01*
X002935Y008546D01*
X002935Y008516D01*
X002931Y008486D01*
X002923Y008457D01*
X002912Y008429D01*
X002897Y008402D01*
X002879Y008378D01*
X002858Y008356D01*
X002834Y008337D01*
X002808Y008322D01*
X002781Y008310D01*
X002752Y008301D01*
X002722Y008296D01*
X002691Y008295D01*
X002661Y008298D01*
X002632Y008305D01*
X002603Y008315D01*
X002577Y008329D01*
X002552Y008346D01*
X002529Y008367D01*
X002510Y008390D01*
X002493Y008415D01*
X002480Y008442D01*
X002471Y008471D01*
X002465Y008501D01*
X002463Y008531D01*
X001479Y008531D02*
X001481Y008561D01*
X001487Y008591D01*
X001496Y008620D01*
X001509Y008647D01*
X001526Y008672D01*
X001545Y008695D01*
X001568Y008716D01*
X001593Y008733D01*
X001619Y008747D01*
X001648Y008757D01*
X001677Y008764D01*
X001707Y008767D01*
X001738Y008766D01*
X001768Y008761D01*
X001797Y008752D01*
X001824Y008740D01*
X001850Y008725D01*
X001874Y008706D01*
X001895Y008684D01*
X001913Y008660D01*
X001928Y008633D01*
X001939Y008605D01*
X001947Y008576D01*
X001951Y008546D01*
X001951Y008516D01*
X001947Y008486D01*
X001939Y008457D01*
X001928Y008429D01*
X001913Y008402D01*
X001895Y008378D01*
X001874Y008356D01*
X001850Y008337D01*
X001824Y008322D01*
X001797Y008310D01*
X001768Y008301D01*
X001738Y008296D01*
X001707Y008295D01*
X001677Y008298D01*
X001648Y008305D01*
X001619Y008315D01*
X001593Y008329D01*
X001568Y008346D01*
X001545Y008367D01*
X001526Y008390D01*
X001509Y008415D01*
X001496Y008442D01*
X001487Y008471D01*
X001481Y008501D01*
X001479Y008531D01*
X004432Y010500D02*
X004434Y010530D01*
X004440Y010560D01*
X004449Y010589D01*
X004462Y010616D01*
X004479Y010641D01*
X004498Y010664D01*
X004521Y010685D01*
X004546Y010702D01*
X004572Y010716D01*
X004601Y010726D01*
X004630Y010733D01*
X004660Y010736D01*
X004691Y010735D01*
X004721Y010730D01*
X004750Y010721D01*
X004777Y010709D01*
X004803Y010694D01*
X004827Y010675D01*
X004848Y010653D01*
X004866Y010629D01*
X004881Y010602D01*
X004892Y010574D01*
X004900Y010545D01*
X004904Y010515D01*
X004904Y010485D01*
X004900Y010455D01*
X004892Y010426D01*
X004881Y010398D01*
X004866Y010371D01*
X004848Y010347D01*
X004827Y010325D01*
X004803Y010306D01*
X004777Y010291D01*
X004750Y010279D01*
X004721Y010270D01*
X004691Y010265D01*
X004660Y010264D01*
X004630Y010267D01*
X004601Y010274D01*
X004572Y010284D01*
X004546Y010298D01*
X004521Y010315D01*
X004498Y010336D01*
X004479Y010359D01*
X004462Y010384D01*
X004449Y010411D01*
X004440Y010440D01*
X004434Y010470D01*
X004432Y010500D01*
X002463Y012469D02*
X002465Y012499D01*
X002471Y012529D01*
X002480Y012558D01*
X002493Y012585D01*
X002510Y012610D01*
X002529Y012633D01*
X002552Y012654D01*
X002577Y012671D01*
X002603Y012685D01*
X002632Y012695D01*
X002661Y012702D01*
X002691Y012705D01*
X002722Y012704D01*
X002752Y012699D01*
X002781Y012690D01*
X002808Y012678D01*
X002834Y012663D01*
X002858Y012644D01*
X002879Y012622D01*
X002897Y012598D01*
X002912Y012571D01*
X002923Y012543D01*
X002931Y012514D01*
X002935Y012484D01*
X002935Y012454D01*
X002931Y012424D01*
X002923Y012395D01*
X002912Y012367D01*
X002897Y012340D01*
X002879Y012316D01*
X002858Y012294D01*
X002834Y012275D01*
X002808Y012260D01*
X002781Y012248D01*
X002752Y012239D01*
X002722Y012234D01*
X002691Y012233D01*
X002661Y012236D01*
X002632Y012243D01*
X002603Y012253D01*
X002577Y012267D01*
X002552Y012284D01*
X002529Y012305D01*
X002510Y012328D01*
X002493Y012353D01*
X002480Y012380D01*
X002471Y012409D01*
X002465Y012439D01*
X002463Y012469D01*
X001479Y012469D02*
X001481Y012499D01*
X001487Y012529D01*
X001496Y012558D01*
X001509Y012585D01*
X001526Y012610D01*
X001545Y012633D01*
X001568Y012654D01*
X001593Y012671D01*
X001619Y012685D01*
X001648Y012695D01*
X001677Y012702D01*
X001707Y012705D01*
X001738Y012704D01*
X001768Y012699D01*
X001797Y012690D01*
X001824Y012678D01*
X001850Y012663D01*
X001874Y012644D01*
X001895Y012622D01*
X001913Y012598D01*
X001928Y012571D01*
X001939Y012543D01*
X001947Y012514D01*
X001951Y012484D01*
X001951Y012454D01*
X001947Y012424D01*
X001939Y012395D01*
X001928Y012367D01*
X001913Y012340D01*
X001895Y012316D01*
X001874Y012294D01*
X001850Y012275D01*
X001824Y012260D01*
X001797Y012248D01*
X001768Y012239D01*
X001738Y012234D01*
X001707Y012233D01*
X001677Y012236D01*
X001648Y012243D01*
X001619Y012253D01*
X001593Y012267D01*
X001568Y012284D01*
X001545Y012305D01*
X001526Y012328D01*
X001509Y012353D01*
X001496Y012380D01*
X001487Y012409D01*
X001481Y012439D01*
X001479Y012469D01*
X006569Y020500D02*
X006571Y020550D01*
X006577Y020600D01*
X006587Y020649D01*
X006601Y020697D01*
X006618Y020744D01*
X006639Y020789D01*
X006664Y020833D01*
X006692Y020874D01*
X006724Y020913D01*
X006758Y020950D01*
X006795Y020984D01*
X006835Y021014D01*
X006877Y021041D01*
X006921Y021065D01*
X006967Y021086D01*
X007014Y021102D01*
X007062Y021115D01*
X007112Y021124D01*
X007161Y021129D01*
X007212Y021130D01*
X007262Y021127D01*
X007311Y021120D01*
X007360Y021109D01*
X007408Y021094D01*
X007454Y021076D01*
X007499Y021054D01*
X007542Y021028D01*
X007583Y020999D01*
X007622Y020967D01*
X007658Y020932D01*
X007690Y020894D01*
X007720Y020854D01*
X007747Y020811D01*
X007770Y020767D01*
X007789Y020721D01*
X007805Y020673D01*
X007817Y020624D01*
X007825Y020575D01*
X007829Y020525D01*
X007829Y020475D01*
X007825Y020425D01*
X007817Y020376D01*
X007805Y020327D01*
X007789Y020279D01*
X007770Y020233D01*
X007747Y020189D01*
X007720Y020146D01*
X007690Y020106D01*
X007658Y020068D01*
X007622Y020033D01*
X007583Y020001D01*
X007542Y019972D01*
X007499Y019946D01*
X007454Y019924D01*
X007408Y019906D01*
X007360Y019891D01*
X007311Y019880D01*
X007262Y019873D01*
X007212Y019870D01*
X007161Y019871D01*
X007112Y019876D01*
X007062Y019885D01*
X007014Y019898D01*
X006967Y019914D01*
X006921Y019935D01*
X006877Y019959D01*
X006835Y019986D01*
X006795Y020016D01*
X006758Y020050D01*
X006724Y020087D01*
X006692Y020126D01*
X006664Y020167D01*
X006639Y020211D01*
X006618Y020256D01*
X006601Y020303D01*
X006587Y020351D01*
X006577Y020400D01*
X006571Y020450D01*
X006569Y020500D01*
X026569Y014500D02*
X026571Y014550D01*
X026577Y014600D01*
X026587Y014649D01*
X026601Y014697D01*
X026618Y014744D01*
X026639Y014789D01*
X026664Y014833D01*
X026692Y014874D01*
X026724Y014913D01*
X026758Y014950D01*
X026795Y014984D01*
X026835Y015014D01*
X026877Y015041D01*
X026921Y015065D01*
X026967Y015086D01*
X027014Y015102D01*
X027062Y015115D01*
X027112Y015124D01*
X027161Y015129D01*
X027212Y015130D01*
X027262Y015127D01*
X027311Y015120D01*
X027360Y015109D01*
X027408Y015094D01*
X027454Y015076D01*
X027499Y015054D01*
X027542Y015028D01*
X027583Y014999D01*
X027622Y014967D01*
X027658Y014932D01*
X027690Y014894D01*
X027720Y014854D01*
X027747Y014811D01*
X027770Y014767D01*
X027789Y014721D01*
X027805Y014673D01*
X027817Y014624D01*
X027825Y014575D01*
X027829Y014525D01*
X027829Y014475D01*
X027825Y014425D01*
X027817Y014376D01*
X027805Y014327D01*
X027789Y014279D01*
X027770Y014233D01*
X027747Y014189D01*
X027720Y014146D01*
X027690Y014106D01*
X027658Y014068D01*
X027622Y014033D01*
X027583Y014001D01*
X027542Y013972D01*
X027499Y013946D01*
X027454Y013924D01*
X027408Y013906D01*
X027360Y013891D01*
X027311Y013880D01*
X027262Y013873D01*
X027212Y013870D01*
X027161Y013871D01*
X027112Y013876D01*
X027062Y013885D01*
X027014Y013898D01*
X026967Y013914D01*
X026921Y013935D01*
X026877Y013959D01*
X026835Y013986D01*
X026795Y014016D01*
X026758Y014050D01*
X026724Y014087D01*
X026692Y014126D01*
X026664Y014167D01*
X026639Y014211D01*
X026618Y014256D01*
X026601Y014303D01*
X026587Y014351D01*
X026577Y014400D01*
X026571Y014450D01*
X026569Y014500D01*
X026569Y003500D02*
X026571Y003550D01*
X026577Y003600D01*
X026587Y003649D01*
X026601Y003697D01*
X026618Y003744D01*
X026639Y003789D01*
X026664Y003833D01*
X026692Y003874D01*
X026724Y003913D01*
X026758Y003950D01*
X026795Y003984D01*
X026835Y004014D01*
X026877Y004041D01*
X026921Y004065D01*
X026967Y004086D01*
X027014Y004102D01*
X027062Y004115D01*
X027112Y004124D01*
X027161Y004129D01*
X027212Y004130D01*
X027262Y004127D01*
X027311Y004120D01*
X027360Y004109D01*
X027408Y004094D01*
X027454Y004076D01*
X027499Y004054D01*
X027542Y004028D01*
X027583Y003999D01*
X027622Y003967D01*
X027658Y003932D01*
X027690Y003894D01*
X027720Y003854D01*
X027747Y003811D01*
X027770Y003767D01*
X027789Y003721D01*
X027805Y003673D01*
X027817Y003624D01*
X027825Y003575D01*
X027829Y003525D01*
X027829Y003475D01*
X027825Y003425D01*
X027817Y003376D01*
X027805Y003327D01*
X027789Y003279D01*
X027770Y003233D01*
X027747Y003189D01*
X027720Y003146D01*
X027690Y003106D01*
X027658Y003068D01*
X027622Y003033D01*
X027583Y003001D01*
X027542Y002972D01*
X027499Y002946D01*
X027454Y002924D01*
X027408Y002906D01*
X027360Y002891D01*
X027311Y002880D01*
X027262Y002873D01*
X027212Y002870D01*
X027161Y002871D01*
X027112Y002876D01*
X027062Y002885D01*
X027014Y002898D01*
X026967Y002914D01*
X026921Y002935D01*
X026877Y002959D01*
X026835Y002986D01*
X026795Y003016D01*
X026758Y003050D01*
X026724Y003087D01*
X026692Y003126D01*
X026664Y003167D01*
X026639Y003211D01*
X026618Y003256D01*
X026601Y003303D01*
X026587Y003351D01*
X026577Y003400D01*
X026571Y003450D01*
X026569Y003500D01*
M02*
