%
M48
M72
T01C0.0236
T02C0.0315
T03C0.0320
T04C0.0394
T05C0.0400
T06C0.0472
T07C0.0591
T08C0.1260
%
T01
X3949Y3250
X3899Y3950
X6699Y4350
X6699Y5500
X2949Y7500
X1949Y7500
X2199Y9500
X2199Y11500
X9699Y13500
X15599Y17200
X17449Y14500
X21699Y13700
X23749Y16250
X21949Y18350
X26699Y15750
X26699Y13250
X23199Y9000
X25199Y6750
X26699Y5000
X25399Y3550
X23999Y3950
X19699Y2600
X17549Y2600
X17199Y3150
X18199Y4350
X3699Y19000
X2949Y20500
X7599Y19100
X8599Y19100
T02
X4587Y19500
X4587Y18500
X4587Y20500
T03
X5949Y20500
X7599Y18250
X8599Y18250
X10199Y17500
X11349Y17500
X10949Y16250
X11849Y16250
X12199Y15000
X11199Y15000
X10199Y15000
X9199Y15000
X8199Y15000
X7949Y16250
X6449Y15250
X5449Y15250
X5949Y17500
X10199Y19500
X11349Y19500
X14849Y16250
X17164Y16407
X17871Y15700
X18578Y14993
X19285Y14286
X19992Y13578
X20699Y12871
X21406Y12164
X22113Y11457
X22820Y10750
X23527Y10043
X24235Y9336
X24942Y8629
X25649Y7922
X26356Y7214
X24235Y5093
X23527Y5800
X22820Y6507
X22113Y7214
X21406Y7922
X20699Y8629
X19992Y9336
X19285Y10043
X18578Y10750
X17871Y11457
X17164Y12164
X16456Y12871
X15749Y13578
X15042Y14286
X14699Y12000
X13699Y12000
X12199Y12000
X11199Y12000
X10199Y12000
X9199Y12000
X8199Y12000
X8199Y11000
X7699Y10000
X8699Y10000
X9699Y10000
X10699Y10000
X11699Y10000
X12699Y10000
X13699Y10000
X14699Y10000
X15699Y10000
X16699Y10000
X17699Y10000
X17699Y9000
X18521Y8529
X17699Y8000
X16699Y8000
X15699Y8000
X14699Y8000
X13699Y8000
X12699Y8000
X11699Y8000
X10699Y8000
X9699Y8000
X8699Y8000
X7699Y8000
X7699Y7000
X8699Y7000
X9699Y7000
X10699Y7000
X11699Y7000
X12699Y7000
X13699Y7000
X14699Y7000
X15699Y7000
X16699Y7000
X17699Y7000
X17699Y6000
X18699Y6000
X18699Y5000
X17699Y5000
X16699Y5000
X15699Y5000
X14699Y5000
X13699Y5000
X12699Y5000
X11699Y5000
X10699Y5000
X9699Y5000
X8699Y5000
X7699Y5000
X7699Y6000
X8699Y6000
X9699Y6000
X10699Y6000
X11699Y6000
X12699Y6000
X13699Y6000
X14699Y6000
X15699Y6000
X16699Y6000
X19228Y7821
X16699Y9000
X15699Y9000
X14699Y9000
X13699Y9000
X12699Y9000
X11749Y9000
X10699Y9000
X9699Y9000
X8699Y9000
X7699Y9000
X6699Y9750
X6699Y11000
X6699Y13000
X12199Y13000
X12199Y14000
X20949Y15300
X22699Y15700
X22699Y14700
X22371Y13129
X23078Y12421
X22699Y16800
X22699Y17800
X20949Y17200
X6699Y6750
X4999Y6000
X3999Y6000
X5199Y3000
X5249Y1500
X4249Y1500
X8199Y3000
X9199Y3000
X12199Y3000
X13199Y3000
X16199Y3000
T04
X16199Y1500
X17199Y1500
X18199Y1500
X19199Y1500
X21199Y1500
X22199Y1500
X23199Y1500
X24199Y1500
X25199Y1500
X26199Y1500
X15199Y1500
X14199Y1500
X14599Y20500
X15599Y20500
X16599Y20500
X17599Y20500
X19199Y20500
X20199Y20500
X21199Y20500
X22199Y20500
X23199Y20500
X24199Y20500
X25199Y20500
X26199Y20500
X13599Y20500
X12599Y20500
X11599Y20500
X10599Y20500
X9599Y20500
X8599Y20500
T05
X2199Y1500
X2199Y2500
X2199Y3500
X2199Y4500
X2199Y5500
X2199Y6500
X8699Y1500
X9699Y1500
X10699Y1500
X12199Y1500
X13199Y1500
X21199Y2500
X22199Y2500
X23199Y2500
X24199Y2500
X25199Y2500
X26199Y2500
X17599Y18500
X17599Y19500
X16599Y19500
X15599Y19500
X14599Y19500
X13599Y19500
X12599Y19500
X12599Y18500
X13599Y18500
X14599Y18500
X15599Y18500
X19199Y19500
X20199Y19500
X21199Y19500
X22199Y19500
X23199Y19500
X24199Y19500
X25199Y19500
X26199Y19500
T06
X4668Y10500
X2699Y8531
X1715Y8531
X1715Y12469
X2699Y12469
T07
X4668Y12469
X4668Y11484
X2699Y10500
X4668Y9516
X4668Y8531
T08
X6699Y1500
X27199Y3500
X27199Y14500
X7199Y20500
M30
