G75*
G70*
%OFA0B0*%
%FSLAX24Y24*%
%IPPOS*%
%LPD*%
%AMOC8*
5,1,8,0,0,1.08239X$1,22.5*
%
%ADD10C,0.0000*%
%ADD11C,0.0040*%
%ADD12C,0.0030*%
%ADD13C,0.0080*%
%ADD14C,0.0020*%
%ADD15R,0.0010X0.0130*%
%ADD16R,0.0010X0.0260*%
%ADD17R,0.0010X0.0330*%
%ADD18R,0.0010X0.0390*%
%ADD19R,0.0010X0.0450*%
%ADD20R,0.0010X0.0490*%
%ADD21R,0.0010X0.0530*%
%ADD22R,0.0010X0.0570*%
%ADD23R,0.0010X0.0610*%
%ADD24R,0.0010X0.0640*%
%ADD25R,0.0010X0.0670*%
%ADD26R,0.0010X0.0690*%
%ADD27R,0.0010X0.0730*%
%ADD28R,0.0010X0.0750*%
%ADD29R,0.0010X0.0770*%
%ADD30R,0.0010X0.0210*%
%ADD31R,0.0010X0.0320*%
%ADD32R,0.0010X0.0290*%
%ADD33R,0.0010X0.0370*%
%ADD34R,0.0010X0.0270*%
%ADD35R,0.0010X0.0420*%
%ADD36R,0.0010X0.0250*%
%ADD37R,0.0010X0.0460*%
%ADD38R,0.0010X0.0240*%
%ADD39R,0.0010X0.0520*%
%ADD40R,0.0010X0.0230*%
%ADD41R,0.0010X0.0550*%
%ADD42R,0.0010X0.0220*%
%ADD43R,0.0010X0.0800*%
%ADD44R,0.0010X0.0200*%
%ADD45R,0.0010X0.0190*%
%ADD46R,0.0010X0.0810*%
%ADD47R,0.0010X0.0280*%
%ADD48R,0.0010X0.0840*%
%ADD49R,0.0010X0.0360*%
%ADD50R,0.0010X0.0860*%
%ADD51R,0.0010X0.0880*%
%ADD52R,0.0010X0.0470*%
%ADD53R,0.0010X0.0350*%
%ADD54R,0.0010X0.0650*%
%ADD55R,0.0010X0.0310*%
%ADD56R,0.0010X0.0660*%
%ADD57R,0.0010X0.0410*%
%ADD58R,0.0010X0.0680*%
%ADD59R,0.0010X0.0700*%
%ADD60R,0.0010X0.0180*%
%ADD61R,0.0010X0.0170*%
%ADD62R,0.0010X0.0140*%
%ADD63R,0.0010X0.0110*%
%ADD64R,0.0010X0.0720*%
%ADD65R,0.0010X0.0090*%
%ADD66R,0.0010X0.0040*%
%ADD67R,0.0010X0.0160*%
%ADD68R,0.0010X0.0100*%
%ADD69R,0.0010X0.0050*%
%ADD70R,0.0010X0.0150*%
%ADD71R,0.0010X0.0120*%
%ADD72R,0.0010X0.0380*%
%ADD73R,0.0010X0.0590*%
%ADD74R,0.0010X0.0890*%
%ADD75R,0.0010X0.0970*%
%ADD76R,0.0010X0.0940*%
%ADD77R,0.0010X0.0740*%
%ADD78R,0.0010X0.0620*%
%ADD79R,0.0010X0.0510*%
%ADD80R,0.0010X0.0400*%
%ADD81R,0.0010X0.0500*%
%ADD82R,0.0010X0.0580*%
%ADD83R,0.0010X0.0760*%
%ADD84R,0.0010X0.0430*%
%ADD85R,0.0010X0.0340*%
%ADD86R,0.0010X0.0080*%
%ADD87R,0.0010X0.0440*%
%ADD88R,0.0010X0.0300*%
%ADD89R,0.0010X0.0980*%
%ADD90R,0.0010X0.1000*%
%ADD91R,0.0010X0.0630*%
%ADD92R,0.0010X0.0600*%
%ADD93R,0.0010X0.0560*%
%ADD94R,0.0010X0.0480*%
%ADD95C,0.0060*%
%ADD96C,0.0050*%
%ADD97C,0.0120*%
%ADD98C,0.0100*%
%ADD99C,0.0160*%
%ADD100C,0.0059*%
D10*
X001199Y000500D02*
X001199Y021496D01*
X026599Y021501D01*
X027199Y020900D01*
X027199Y016400D01*
X028199Y015400D01*
X028199Y002500D01*
X027199Y001500D01*
X027199Y000500D01*
X001199Y000500D01*
X006069Y001500D02*
X006071Y001550D01*
X006077Y001600D01*
X006087Y001649D01*
X006101Y001697D01*
X006118Y001744D01*
X006139Y001789D01*
X006164Y001833D01*
X006192Y001874D01*
X006224Y001913D01*
X006258Y001950D01*
X006295Y001984D01*
X006335Y002014D01*
X006377Y002041D01*
X006421Y002065D01*
X006467Y002086D01*
X006514Y002102D01*
X006562Y002115D01*
X006612Y002124D01*
X006661Y002129D01*
X006712Y002130D01*
X006762Y002127D01*
X006811Y002120D01*
X006860Y002109D01*
X006908Y002094D01*
X006954Y002076D01*
X006999Y002054D01*
X007042Y002028D01*
X007083Y001999D01*
X007122Y001967D01*
X007158Y001932D01*
X007190Y001894D01*
X007220Y001854D01*
X007247Y001811D01*
X007270Y001767D01*
X007289Y001721D01*
X007305Y001673D01*
X007317Y001624D01*
X007325Y001575D01*
X007329Y001525D01*
X007329Y001475D01*
X007325Y001425D01*
X007317Y001376D01*
X007305Y001327D01*
X007289Y001279D01*
X007270Y001233D01*
X007247Y001189D01*
X007220Y001146D01*
X007190Y001106D01*
X007158Y001068D01*
X007122Y001033D01*
X007083Y001001D01*
X007042Y000972D01*
X006999Y000946D01*
X006954Y000924D01*
X006908Y000906D01*
X006860Y000891D01*
X006811Y000880D01*
X006762Y000873D01*
X006712Y000870D01*
X006661Y000871D01*
X006612Y000876D01*
X006562Y000885D01*
X006514Y000898D01*
X006467Y000914D01*
X006421Y000935D01*
X006377Y000959D01*
X006335Y000986D01*
X006295Y001016D01*
X006258Y001050D01*
X006224Y001087D01*
X006192Y001126D01*
X006164Y001167D01*
X006139Y001211D01*
X006118Y001256D01*
X006101Y001303D01*
X006087Y001351D01*
X006077Y001400D01*
X006071Y001450D01*
X006069Y001500D01*
X002463Y008531D02*
X002465Y008561D01*
X002471Y008591D01*
X002480Y008620D01*
X002493Y008647D01*
X002510Y008672D01*
X002529Y008695D01*
X002552Y008716D01*
X002577Y008733D01*
X002603Y008747D01*
X002632Y008757D01*
X002661Y008764D01*
X002691Y008767D01*
X002722Y008766D01*
X002752Y008761D01*
X002781Y008752D01*
X002808Y008740D01*
X002834Y008725D01*
X002858Y008706D01*
X002879Y008684D01*
X002897Y008660D01*
X002912Y008633D01*
X002923Y008605D01*
X002931Y008576D01*
X002935Y008546D01*
X002935Y008516D01*
X002931Y008486D01*
X002923Y008457D01*
X002912Y008429D01*
X002897Y008402D01*
X002879Y008378D01*
X002858Y008356D01*
X002834Y008337D01*
X002808Y008322D01*
X002781Y008310D01*
X002752Y008301D01*
X002722Y008296D01*
X002691Y008295D01*
X002661Y008298D01*
X002632Y008305D01*
X002603Y008315D01*
X002577Y008329D01*
X002552Y008346D01*
X002529Y008367D01*
X002510Y008390D01*
X002493Y008415D01*
X002480Y008442D01*
X002471Y008471D01*
X002465Y008501D01*
X002463Y008531D01*
X001479Y008531D02*
X001481Y008561D01*
X001487Y008591D01*
X001496Y008620D01*
X001509Y008647D01*
X001526Y008672D01*
X001545Y008695D01*
X001568Y008716D01*
X001593Y008733D01*
X001619Y008747D01*
X001648Y008757D01*
X001677Y008764D01*
X001707Y008767D01*
X001738Y008766D01*
X001768Y008761D01*
X001797Y008752D01*
X001824Y008740D01*
X001850Y008725D01*
X001874Y008706D01*
X001895Y008684D01*
X001913Y008660D01*
X001928Y008633D01*
X001939Y008605D01*
X001947Y008576D01*
X001951Y008546D01*
X001951Y008516D01*
X001947Y008486D01*
X001939Y008457D01*
X001928Y008429D01*
X001913Y008402D01*
X001895Y008378D01*
X001874Y008356D01*
X001850Y008337D01*
X001824Y008322D01*
X001797Y008310D01*
X001768Y008301D01*
X001738Y008296D01*
X001707Y008295D01*
X001677Y008298D01*
X001648Y008305D01*
X001619Y008315D01*
X001593Y008329D01*
X001568Y008346D01*
X001545Y008367D01*
X001526Y008390D01*
X001509Y008415D01*
X001496Y008442D01*
X001487Y008471D01*
X001481Y008501D01*
X001479Y008531D01*
X004432Y010500D02*
X004434Y010530D01*
X004440Y010560D01*
X004449Y010589D01*
X004462Y010616D01*
X004479Y010641D01*
X004498Y010664D01*
X004521Y010685D01*
X004546Y010702D01*
X004572Y010716D01*
X004601Y010726D01*
X004630Y010733D01*
X004660Y010736D01*
X004691Y010735D01*
X004721Y010730D01*
X004750Y010721D01*
X004777Y010709D01*
X004803Y010694D01*
X004827Y010675D01*
X004848Y010653D01*
X004866Y010629D01*
X004881Y010602D01*
X004892Y010574D01*
X004900Y010545D01*
X004904Y010515D01*
X004904Y010485D01*
X004900Y010455D01*
X004892Y010426D01*
X004881Y010398D01*
X004866Y010371D01*
X004848Y010347D01*
X004827Y010325D01*
X004803Y010306D01*
X004777Y010291D01*
X004750Y010279D01*
X004721Y010270D01*
X004691Y010265D01*
X004660Y010264D01*
X004630Y010267D01*
X004601Y010274D01*
X004572Y010284D01*
X004546Y010298D01*
X004521Y010315D01*
X004498Y010336D01*
X004479Y010359D01*
X004462Y010384D01*
X004449Y010411D01*
X004440Y010440D01*
X004434Y010470D01*
X004432Y010500D01*
X002463Y012469D02*
X002465Y012499D01*
X002471Y012529D01*
X002480Y012558D01*
X002493Y012585D01*
X002510Y012610D01*
X002529Y012633D01*
X002552Y012654D01*
X002577Y012671D01*
X002603Y012685D01*
X002632Y012695D01*
X002661Y012702D01*
X002691Y012705D01*
X002722Y012704D01*
X002752Y012699D01*
X002781Y012690D01*
X002808Y012678D01*
X002834Y012663D01*
X002858Y012644D01*
X002879Y012622D01*
X002897Y012598D01*
X002912Y012571D01*
X002923Y012543D01*
X002931Y012514D01*
X002935Y012484D01*
X002935Y012454D01*
X002931Y012424D01*
X002923Y012395D01*
X002912Y012367D01*
X002897Y012340D01*
X002879Y012316D01*
X002858Y012294D01*
X002834Y012275D01*
X002808Y012260D01*
X002781Y012248D01*
X002752Y012239D01*
X002722Y012234D01*
X002691Y012233D01*
X002661Y012236D01*
X002632Y012243D01*
X002603Y012253D01*
X002577Y012267D01*
X002552Y012284D01*
X002529Y012305D01*
X002510Y012328D01*
X002493Y012353D01*
X002480Y012380D01*
X002471Y012409D01*
X002465Y012439D01*
X002463Y012469D01*
X001479Y012469D02*
X001481Y012499D01*
X001487Y012529D01*
X001496Y012558D01*
X001509Y012585D01*
X001526Y012610D01*
X001545Y012633D01*
X001568Y012654D01*
X001593Y012671D01*
X001619Y012685D01*
X001648Y012695D01*
X001677Y012702D01*
X001707Y012705D01*
X001738Y012704D01*
X001768Y012699D01*
X001797Y012690D01*
X001824Y012678D01*
X001850Y012663D01*
X001874Y012644D01*
X001895Y012622D01*
X001913Y012598D01*
X001928Y012571D01*
X001939Y012543D01*
X001947Y012514D01*
X001951Y012484D01*
X001951Y012454D01*
X001947Y012424D01*
X001939Y012395D01*
X001928Y012367D01*
X001913Y012340D01*
X001895Y012316D01*
X001874Y012294D01*
X001850Y012275D01*
X001824Y012260D01*
X001797Y012248D01*
X001768Y012239D01*
X001738Y012234D01*
X001707Y012233D01*
X001677Y012236D01*
X001648Y012243D01*
X001619Y012253D01*
X001593Y012267D01*
X001568Y012284D01*
X001545Y012305D01*
X001526Y012328D01*
X001509Y012353D01*
X001496Y012380D01*
X001487Y012409D01*
X001481Y012439D01*
X001479Y012469D01*
X006569Y020500D02*
X006571Y020550D01*
X006577Y020600D01*
X006587Y020649D01*
X006601Y020697D01*
X006618Y020744D01*
X006639Y020789D01*
X006664Y020833D01*
X006692Y020874D01*
X006724Y020913D01*
X006758Y020950D01*
X006795Y020984D01*
X006835Y021014D01*
X006877Y021041D01*
X006921Y021065D01*
X006967Y021086D01*
X007014Y021102D01*
X007062Y021115D01*
X007112Y021124D01*
X007161Y021129D01*
X007212Y021130D01*
X007262Y021127D01*
X007311Y021120D01*
X007360Y021109D01*
X007408Y021094D01*
X007454Y021076D01*
X007499Y021054D01*
X007542Y021028D01*
X007583Y020999D01*
X007622Y020967D01*
X007658Y020932D01*
X007690Y020894D01*
X007720Y020854D01*
X007747Y020811D01*
X007770Y020767D01*
X007789Y020721D01*
X007805Y020673D01*
X007817Y020624D01*
X007825Y020575D01*
X007829Y020525D01*
X007829Y020475D01*
X007825Y020425D01*
X007817Y020376D01*
X007805Y020327D01*
X007789Y020279D01*
X007770Y020233D01*
X007747Y020189D01*
X007720Y020146D01*
X007690Y020106D01*
X007658Y020068D01*
X007622Y020033D01*
X007583Y020001D01*
X007542Y019972D01*
X007499Y019946D01*
X007454Y019924D01*
X007408Y019906D01*
X007360Y019891D01*
X007311Y019880D01*
X007262Y019873D01*
X007212Y019870D01*
X007161Y019871D01*
X007112Y019876D01*
X007062Y019885D01*
X007014Y019898D01*
X006967Y019914D01*
X006921Y019935D01*
X006877Y019959D01*
X006835Y019986D01*
X006795Y020016D01*
X006758Y020050D01*
X006724Y020087D01*
X006692Y020126D01*
X006664Y020167D01*
X006639Y020211D01*
X006618Y020256D01*
X006601Y020303D01*
X006587Y020351D01*
X006577Y020400D01*
X006571Y020450D01*
X006569Y020500D01*
X026569Y014500D02*
X026571Y014550D01*
X026577Y014600D01*
X026587Y014649D01*
X026601Y014697D01*
X026618Y014744D01*
X026639Y014789D01*
X026664Y014833D01*
X026692Y014874D01*
X026724Y014913D01*
X026758Y014950D01*
X026795Y014984D01*
X026835Y015014D01*
X026877Y015041D01*
X026921Y015065D01*
X026967Y015086D01*
X027014Y015102D01*
X027062Y015115D01*
X027112Y015124D01*
X027161Y015129D01*
X027212Y015130D01*
X027262Y015127D01*
X027311Y015120D01*
X027360Y015109D01*
X027408Y015094D01*
X027454Y015076D01*
X027499Y015054D01*
X027542Y015028D01*
X027583Y014999D01*
X027622Y014967D01*
X027658Y014932D01*
X027690Y014894D01*
X027720Y014854D01*
X027747Y014811D01*
X027770Y014767D01*
X027789Y014721D01*
X027805Y014673D01*
X027817Y014624D01*
X027825Y014575D01*
X027829Y014525D01*
X027829Y014475D01*
X027825Y014425D01*
X027817Y014376D01*
X027805Y014327D01*
X027789Y014279D01*
X027770Y014233D01*
X027747Y014189D01*
X027720Y014146D01*
X027690Y014106D01*
X027658Y014068D01*
X027622Y014033D01*
X027583Y014001D01*
X027542Y013972D01*
X027499Y013946D01*
X027454Y013924D01*
X027408Y013906D01*
X027360Y013891D01*
X027311Y013880D01*
X027262Y013873D01*
X027212Y013870D01*
X027161Y013871D01*
X027112Y013876D01*
X027062Y013885D01*
X027014Y013898D01*
X026967Y013914D01*
X026921Y013935D01*
X026877Y013959D01*
X026835Y013986D01*
X026795Y014016D01*
X026758Y014050D01*
X026724Y014087D01*
X026692Y014126D01*
X026664Y014167D01*
X026639Y014211D01*
X026618Y014256D01*
X026601Y014303D01*
X026587Y014351D01*
X026577Y014400D01*
X026571Y014450D01*
X026569Y014500D01*
X026569Y003500D02*
X026571Y003550D01*
X026577Y003600D01*
X026587Y003649D01*
X026601Y003697D01*
X026618Y003744D01*
X026639Y003789D01*
X026664Y003833D01*
X026692Y003874D01*
X026724Y003913D01*
X026758Y003950D01*
X026795Y003984D01*
X026835Y004014D01*
X026877Y004041D01*
X026921Y004065D01*
X026967Y004086D01*
X027014Y004102D01*
X027062Y004115D01*
X027112Y004124D01*
X027161Y004129D01*
X027212Y004130D01*
X027262Y004127D01*
X027311Y004120D01*
X027360Y004109D01*
X027408Y004094D01*
X027454Y004076D01*
X027499Y004054D01*
X027542Y004028D01*
X027583Y003999D01*
X027622Y003967D01*
X027658Y003932D01*
X027690Y003894D01*
X027720Y003854D01*
X027747Y003811D01*
X027770Y003767D01*
X027789Y003721D01*
X027805Y003673D01*
X027817Y003624D01*
X027825Y003575D01*
X027829Y003525D01*
X027829Y003475D01*
X027825Y003425D01*
X027817Y003376D01*
X027805Y003327D01*
X027789Y003279D01*
X027770Y003233D01*
X027747Y003189D01*
X027720Y003146D01*
X027690Y003106D01*
X027658Y003068D01*
X027622Y003033D01*
X027583Y003001D01*
X027542Y002972D01*
X027499Y002946D01*
X027454Y002924D01*
X027408Y002906D01*
X027360Y002891D01*
X027311Y002880D01*
X027262Y002873D01*
X027212Y002870D01*
X027161Y002871D01*
X027112Y002876D01*
X027062Y002885D01*
X027014Y002898D01*
X026967Y002914D01*
X026921Y002935D01*
X026877Y002959D01*
X026835Y002986D01*
X026795Y003016D01*
X026758Y003050D01*
X026724Y003087D01*
X026692Y003126D01*
X026664Y003167D01*
X026639Y003211D01*
X026618Y003256D01*
X026601Y003303D01*
X026587Y003351D01*
X026577Y003400D01*
X026571Y003450D01*
X026569Y003500D01*
D11*
X027209Y005320D02*
X027382Y005493D01*
X027209Y005667D01*
X027729Y005667D01*
X027642Y005836D02*
X027556Y005922D01*
X027556Y006183D01*
X027469Y006183D02*
X027729Y006183D01*
X027729Y005922D01*
X027642Y005836D01*
X027382Y005922D02*
X027382Y006096D01*
X027469Y006183D01*
X027469Y006351D02*
X027642Y006351D01*
X027729Y006438D01*
X027729Y006698D01*
X027816Y006698D02*
X027382Y006698D01*
X027382Y006438D01*
X027469Y006351D01*
X027903Y006525D02*
X027903Y006612D01*
X027816Y006698D01*
X027729Y006867D02*
X027729Y007040D01*
X027729Y006954D02*
X027382Y006954D01*
X027382Y006867D01*
X027209Y006954D02*
X027122Y006954D01*
X027382Y007297D02*
X027469Y007211D01*
X027642Y007211D01*
X027729Y007297D01*
X027729Y007558D01*
X027382Y007558D02*
X027382Y007297D01*
X027209Y008242D02*
X027382Y008415D01*
X027209Y008589D01*
X027729Y008589D01*
X027642Y008758D02*
X027469Y008758D01*
X027382Y008844D01*
X027382Y009018D01*
X027469Y009105D01*
X027642Y009105D01*
X027729Y009018D01*
X027729Y008844D01*
X027642Y008758D01*
X027642Y009273D02*
X027382Y009273D01*
X027642Y009273D02*
X027729Y009360D01*
X027729Y009620D01*
X027382Y009620D01*
X027382Y009789D02*
X027382Y009962D01*
X027295Y009876D02*
X027642Y009876D01*
X027729Y009962D01*
X027729Y010133D02*
X027209Y010133D01*
X027382Y010219D02*
X027382Y010393D01*
X027469Y010480D01*
X027729Y010480D01*
X027469Y010133D02*
X027382Y010219D01*
X027382Y011164D02*
X027729Y011337D01*
X027382Y011511D01*
X027382Y011680D02*
X027209Y011853D01*
X027729Y011853D01*
X027729Y011680D02*
X027729Y012027D01*
X027729Y012195D02*
X027729Y012282D01*
X027642Y012282D01*
X027642Y012195D01*
X027729Y012195D01*
X027642Y012453D02*
X027295Y012453D01*
X027209Y012540D01*
X027209Y012713D01*
X027295Y012800D01*
X027642Y012453D01*
X027729Y012540D01*
X027729Y012713D01*
X027642Y012800D01*
X027295Y012800D01*
X026083Y013357D02*
X026083Y013433D01*
X026006Y013510D01*
X025622Y013510D01*
X025622Y013280D01*
X025699Y013203D01*
X025852Y013203D01*
X025929Y013280D01*
X025929Y013510D01*
X025852Y013664D02*
X025699Y013664D01*
X025622Y013740D01*
X025622Y013970D01*
X025469Y013970D02*
X025929Y013970D01*
X025929Y013740D01*
X025852Y013664D01*
X025929Y014124D02*
X025469Y014431D01*
X025622Y014584D02*
X025622Y014661D01*
X025699Y014738D01*
X025622Y014815D01*
X025699Y014891D01*
X025929Y014891D01*
X025929Y014738D02*
X025699Y014738D01*
X025622Y014584D02*
X025929Y014584D01*
X025852Y015045D02*
X025776Y015121D01*
X025776Y015352D01*
X025699Y015352D02*
X025929Y015352D01*
X025929Y015121D01*
X025852Y015045D01*
X025622Y015121D02*
X025622Y015275D01*
X025699Y015352D01*
X025699Y015505D02*
X025852Y015505D01*
X025929Y015582D01*
X025929Y015812D01*
X026006Y015812D02*
X025622Y015812D01*
X025622Y015582D01*
X025699Y015505D01*
X026083Y015659D02*
X026083Y015735D01*
X026006Y015812D01*
X025929Y015965D02*
X025929Y016119D01*
X025929Y016042D02*
X025622Y016042D01*
X025622Y015965D01*
X025469Y016042D02*
X025392Y016042D01*
X025699Y016272D02*
X025852Y016272D01*
X025929Y016349D01*
X025929Y016579D01*
X025929Y016733D02*
X025622Y016733D01*
X025622Y016810D01*
X025699Y016886D01*
X025622Y016963D01*
X025699Y017040D01*
X025929Y017040D01*
X025929Y016886D02*
X025699Y016886D01*
X025622Y016579D02*
X025622Y016349D01*
X025699Y016272D01*
X024929Y016372D02*
X024842Y016286D01*
X024929Y016372D02*
X024929Y016546D01*
X024842Y016633D01*
X024756Y016633D01*
X024669Y016546D01*
X024669Y016372D01*
X024582Y016286D01*
X024495Y016286D01*
X024409Y016372D01*
X024409Y016546D01*
X024495Y016633D01*
X024409Y016801D02*
X024582Y016975D01*
X024409Y017148D01*
X024929Y017148D01*
X024929Y017317D02*
X024409Y017317D01*
X024582Y017490D01*
X024409Y017664D01*
X024929Y017664D01*
X024929Y017833D02*
X024929Y018180D01*
X024929Y018006D02*
X024409Y018006D01*
X024582Y017833D01*
X024495Y018348D02*
X024409Y018435D01*
X024409Y018608D01*
X024495Y018695D01*
X024842Y018348D01*
X024929Y018435D01*
X024929Y018608D01*
X024842Y018695D01*
X024495Y018695D01*
X024495Y018348D02*
X024842Y018348D01*
X025469Y018421D02*
X025929Y018421D01*
X025929Y018267D02*
X025852Y018191D01*
X025545Y018191D01*
X025622Y018114D02*
X025622Y018267D01*
X025699Y018421D02*
X025622Y018498D01*
X025622Y018651D01*
X025699Y018728D01*
X025929Y018728D01*
X025929Y017961D02*
X025622Y017961D01*
X025929Y017961D02*
X025929Y017730D01*
X025852Y017654D01*
X025622Y017654D01*
X025699Y017500D02*
X025622Y017423D01*
X025622Y017270D01*
X025699Y017193D01*
X025852Y017193D01*
X025929Y017270D01*
X025929Y017423D01*
X025852Y017500D01*
X025699Y017500D01*
X024929Y016801D02*
X024409Y016801D01*
X024409Y016117D02*
X024929Y016117D01*
X024582Y015943D02*
X024409Y016117D01*
X024582Y015943D02*
X024409Y015770D01*
X024929Y015770D01*
X025852Y013050D02*
X025929Y013050D01*
X025929Y012973D01*
X025852Y012973D01*
X025852Y013050D01*
X025852Y012819D02*
X025776Y012743D01*
X025776Y012589D01*
X025699Y012513D01*
X025622Y012589D01*
X025622Y012819D01*
X025852Y012819D02*
X025929Y012743D01*
X025929Y012513D01*
X025929Y012359D02*
X025929Y012206D01*
X025929Y012282D02*
X025622Y012282D01*
X025622Y012206D01*
X025469Y012282D02*
X025392Y012282D01*
X025469Y012052D02*
X025929Y011745D01*
X025929Y011285D02*
X025469Y011592D01*
X025622Y011131D02*
X025699Y011131D01*
X025699Y011055D01*
X025622Y011055D01*
X025622Y011131D01*
X025852Y011131D02*
X025852Y011055D01*
X025929Y011055D01*
X025929Y011131D01*
X025852Y011131D01*
X025852Y010901D02*
X025699Y010901D01*
X025622Y010824D01*
X025622Y010594D01*
X026083Y010594D01*
X025929Y010594D02*
X025929Y010824D01*
X025852Y010901D01*
X025929Y010441D02*
X025852Y010364D01*
X025545Y010364D01*
X025622Y010287D02*
X025622Y010441D01*
X025622Y010134D02*
X025622Y009980D01*
X025545Y010057D02*
X025852Y010057D01*
X025929Y010134D01*
X025929Y009827D02*
X025699Y009827D01*
X025622Y009750D01*
X025622Y009597D01*
X025699Y009520D01*
X025469Y009520D02*
X025929Y009520D01*
X027209Y008242D02*
X027729Y008242D01*
X027729Y005320D02*
X027209Y005320D01*
X023610Y003904D02*
X023610Y003597D01*
X023533Y003520D01*
X023380Y003520D01*
X023303Y003597D01*
X023610Y003904D01*
X023533Y003980D01*
X023380Y003980D01*
X023303Y003904D01*
X023303Y003597D01*
X023150Y003597D02*
X023150Y003520D01*
X023073Y003520D01*
X023073Y003597D01*
X023150Y003597D01*
X022920Y003597D02*
X022843Y003520D01*
X022689Y003520D01*
X022613Y003597D01*
X022766Y003750D02*
X022843Y003750D01*
X022920Y003673D01*
X022920Y003597D01*
X022843Y003750D02*
X022920Y003827D01*
X022920Y003904D01*
X022843Y003980D01*
X022689Y003980D01*
X022613Y003904D01*
X021999Y003827D02*
X021999Y003520D01*
X021999Y003750D02*
X021692Y003750D01*
X021692Y003827D02*
X021845Y003980D01*
X021999Y003827D01*
X021692Y003827D02*
X021692Y003520D01*
X021538Y003597D02*
X021462Y003520D01*
X021308Y003520D01*
X021231Y003597D01*
X021308Y003750D02*
X021231Y003827D01*
X021231Y003904D01*
X021308Y003980D01*
X021462Y003980D01*
X021538Y003904D01*
X021462Y003750D02*
X021538Y003673D01*
X021538Y003597D01*
X021462Y003750D02*
X021308Y003750D01*
X021078Y003750D02*
X020771Y003750D01*
X020618Y003904D02*
X020618Y003980D01*
X020618Y003904D02*
X020464Y003750D01*
X020464Y003520D01*
X020464Y003750D02*
X020311Y003904D01*
X020311Y003980D01*
X020157Y003904D02*
X020157Y003827D01*
X020080Y003750D01*
X019850Y003750D01*
X019850Y003520D02*
X020080Y003520D01*
X020157Y003597D01*
X020157Y003673D01*
X020080Y003750D01*
X020157Y003904D02*
X020080Y003980D01*
X019850Y003980D01*
X019850Y003520D01*
X019236Y003597D02*
X019160Y003520D01*
X019006Y003520D01*
X018929Y003597D01*
X018929Y003904D01*
X019006Y003980D01*
X019160Y003980D01*
X019236Y003904D01*
X018776Y003904D02*
X018699Y003980D01*
X018546Y003980D01*
X018469Y003904D01*
X018469Y003597D01*
X018546Y003520D01*
X018699Y003520D01*
X018776Y003597D01*
X002179Y019020D02*
X001719Y019020D01*
X001719Y019250D01*
X001795Y019327D01*
X001949Y019327D01*
X002026Y019250D01*
X002026Y019020D01*
X002026Y019173D02*
X002179Y019327D01*
X001949Y019480D02*
X001719Y019711D01*
X002179Y019711D01*
X001949Y019787D02*
X001949Y019480D01*
D12*
X008214Y021113D02*
X008262Y021065D01*
X008359Y021065D01*
X008408Y021113D01*
X008408Y021162D01*
X008359Y021210D01*
X008262Y021210D01*
X008214Y021258D01*
X008214Y021307D01*
X008262Y021355D01*
X008359Y021355D01*
X008408Y021307D01*
X008509Y021307D02*
X008509Y021113D01*
X008557Y021065D01*
X008654Y021065D01*
X008702Y021113D01*
X008803Y021065D02*
X008803Y021355D01*
X008702Y021307D02*
X008654Y021355D01*
X008557Y021355D01*
X008509Y021307D01*
X008803Y021065D02*
X008997Y021065D01*
X009214Y021113D02*
X009262Y021065D01*
X009359Y021065D01*
X009408Y021113D01*
X009408Y021162D01*
X009359Y021210D01*
X009262Y021210D01*
X009214Y021258D01*
X009214Y021307D01*
X009262Y021355D01*
X009359Y021355D01*
X009408Y021307D01*
X009509Y021355D02*
X009654Y021355D01*
X009702Y021307D01*
X009702Y021113D01*
X009654Y021065D01*
X009509Y021065D01*
X009509Y021355D01*
X009803Y021258D02*
X009803Y021065D01*
X009803Y021210D02*
X009997Y021210D01*
X009997Y021258D02*
X009997Y021065D01*
X009997Y021258D02*
X009900Y021355D01*
X009803Y021258D01*
X010214Y021258D02*
X010214Y021065D01*
X010214Y021210D02*
X010408Y021210D01*
X010408Y021258D02*
X010408Y021065D01*
X010408Y021258D02*
X010311Y021355D01*
X010214Y021258D01*
X011214Y021307D02*
X011214Y021113D01*
X011262Y021065D01*
X011359Y021065D01*
X011408Y021113D01*
X011408Y021210D01*
X011311Y021210D01*
X011408Y021307D02*
X011359Y021355D01*
X011262Y021355D01*
X011214Y021307D01*
X011509Y021355D02*
X011509Y021065D01*
X011702Y021065D02*
X011509Y021355D01*
X011702Y021355D02*
X011702Y021065D01*
X011803Y021065D02*
X011948Y021065D01*
X011997Y021113D01*
X011997Y021307D01*
X011948Y021355D01*
X011803Y021355D01*
X011803Y021065D01*
X012214Y021065D02*
X012359Y021065D01*
X012408Y021113D01*
X012408Y021307D01*
X012359Y021355D01*
X012214Y021355D01*
X012214Y021065D01*
X012509Y021065D02*
X012702Y021065D01*
X012605Y021065D02*
X012605Y021355D01*
X012509Y021258D01*
X012803Y021307D02*
X012852Y021355D01*
X012948Y021355D01*
X012997Y021307D01*
X012997Y021258D01*
X012948Y021210D01*
X012997Y021162D01*
X012997Y021113D01*
X012948Y021065D01*
X012852Y021065D01*
X012803Y021113D01*
X012900Y021210D02*
X012948Y021210D01*
X013214Y021355D02*
X013214Y021065D01*
X013359Y021065D01*
X013408Y021113D01*
X013408Y021307D01*
X013359Y021355D01*
X013214Y021355D01*
X013509Y021258D02*
X013605Y021355D01*
X013605Y021065D01*
X013509Y021065D02*
X013702Y021065D01*
X013803Y021065D02*
X013997Y021258D01*
X013997Y021307D01*
X013948Y021355D01*
X013852Y021355D01*
X013803Y021307D01*
X013803Y021065D02*
X013997Y021065D01*
X014214Y021065D02*
X014214Y021355D01*
X014359Y021355D01*
X014408Y021307D01*
X014408Y021113D01*
X014359Y021065D01*
X014214Y021065D01*
X014509Y021065D02*
X014702Y021065D01*
X014605Y021065D02*
X014605Y021355D01*
X014509Y021258D01*
X014803Y021258D02*
X014900Y021355D01*
X014900Y021065D01*
X014803Y021065D02*
X014997Y021065D01*
X015214Y021065D02*
X015214Y021355D01*
X015359Y021355D01*
X015408Y021307D01*
X015408Y021113D01*
X015359Y021065D01*
X015214Y021065D01*
X015509Y021065D02*
X015702Y021065D01*
X015605Y021065D02*
X015605Y021355D01*
X015509Y021258D01*
X015803Y021307D02*
X015803Y021113D01*
X015997Y021307D01*
X015997Y021113D01*
X015948Y021065D01*
X015852Y021065D01*
X015803Y021113D01*
X015803Y021307D02*
X015852Y021355D01*
X015948Y021355D01*
X015997Y021307D01*
X016364Y021355D02*
X016364Y021065D01*
X016509Y021065D01*
X016558Y021113D01*
X016558Y021307D01*
X016509Y021355D01*
X016364Y021355D01*
X016659Y021307D02*
X016659Y021258D01*
X016707Y021210D01*
X016852Y021210D01*
X016852Y021113D02*
X016852Y021307D01*
X016804Y021355D01*
X016707Y021355D01*
X016659Y021307D01*
X016659Y021113D02*
X016707Y021065D01*
X016804Y021065D01*
X016852Y021113D01*
X017364Y021065D02*
X017509Y021065D01*
X017558Y021113D01*
X017558Y021307D01*
X017509Y021355D01*
X017364Y021355D01*
X017364Y021065D01*
X017659Y021113D02*
X017659Y021162D01*
X017707Y021210D01*
X017804Y021210D01*
X017852Y021162D01*
X017852Y021113D01*
X017804Y021065D01*
X017707Y021065D01*
X017659Y021113D01*
X017707Y021210D02*
X017659Y021258D01*
X017659Y021307D01*
X017707Y021355D01*
X017804Y021355D01*
X017852Y021307D01*
X017852Y021258D01*
X017804Y021210D01*
X018964Y021065D02*
X019109Y021065D01*
X019158Y021113D01*
X019158Y021307D01*
X019109Y021355D01*
X018964Y021355D01*
X018964Y021065D01*
X019259Y021065D02*
X019259Y021113D01*
X019452Y021307D01*
X019452Y021355D01*
X019259Y021355D01*
X019964Y021355D02*
X019964Y021065D01*
X020109Y021065D01*
X020158Y021113D01*
X020158Y021307D01*
X020109Y021355D01*
X019964Y021355D01*
X020259Y021210D02*
X020404Y021210D01*
X020452Y021162D01*
X020452Y021113D01*
X020404Y021065D01*
X020307Y021065D01*
X020259Y021113D01*
X020259Y021210D01*
X020355Y021307D01*
X020452Y021355D01*
X020964Y021355D02*
X020964Y021065D01*
X021109Y021065D01*
X021158Y021113D01*
X021158Y021307D01*
X021109Y021355D01*
X020964Y021355D01*
X021259Y021355D02*
X021259Y021210D01*
X021355Y021258D01*
X021404Y021258D01*
X021452Y021210D01*
X021452Y021113D01*
X021404Y021065D01*
X021307Y021065D01*
X021259Y021113D01*
X021259Y021355D02*
X021452Y021355D01*
X021964Y021355D02*
X021964Y021065D01*
X022109Y021065D01*
X022158Y021113D01*
X022158Y021307D01*
X022109Y021355D01*
X021964Y021355D01*
X022259Y021210D02*
X022452Y021210D01*
X022404Y021065D02*
X022404Y021355D01*
X022259Y021210D01*
X022964Y021065D02*
X023109Y021065D01*
X023158Y021113D01*
X023158Y021307D01*
X023109Y021355D01*
X022964Y021355D01*
X022964Y021065D01*
X023259Y021113D02*
X023307Y021065D01*
X023404Y021065D01*
X023452Y021113D01*
X023452Y021162D01*
X023404Y021210D01*
X023355Y021210D01*
X023404Y021210D02*
X023452Y021258D01*
X023452Y021307D01*
X023404Y021355D01*
X023307Y021355D01*
X023259Y021307D01*
X023964Y021355D02*
X023964Y021065D01*
X024109Y021065D01*
X024158Y021113D01*
X024158Y021307D01*
X024109Y021355D01*
X023964Y021355D01*
X024259Y021307D02*
X024307Y021355D01*
X024404Y021355D01*
X024452Y021307D01*
X024452Y021258D01*
X024259Y021065D01*
X024452Y021065D01*
X024964Y021065D02*
X024964Y021355D01*
X025109Y021355D01*
X025158Y021307D01*
X025158Y021113D01*
X025109Y021065D01*
X024964Y021065D01*
X025259Y021065D02*
X025452Y021065D01*
X025355Y021065D02*
X025355Y021355D01*
X025259Y021258D01*
X025964Y021355D02*
X025964Y021065D01*
X026109Y021065D01*
X026158Y021113D01*
X026158Y021307D01*
X026109Y021355D01*
X025964Y021355D01*
X026259Y021307D02*
X026259Y021113D01*
X026452Y021307D01*
X026452Y021113D01*
X026404Y021065D01*
X026307Y021065D01*
X026259Y021113D01*
X026259Y021307D02*
X026307Y021355D01*
X026404Y021355D01*
X026452Y021307D01*
X013055Y014205D02*
X013055Y013915D01*
X012959Y013915D02*
X013152Y013915D01*
X012959Y014108D02*
X013055Y014205D01*
X012858Y014157D02*
X012858Y014060D01*
X012809Y014012D01*
X012664Y014012D01*
X012664Y013915D02*
X012664Y014205D01*
X012809Y014205D01*
X012858Y014157D01*
X012809Y013205D02*
X012664Y013205D01*
X012664Y012915D01*
X012664Y013012D02*
X012809Y013012D01*
X012858Y013060D01*
X012858Y013157D01*
X012809Y013205D01*
X012959Y013157D02*
X012959Y013108D01*
X013007Y013060D01*
X013104Y013060D01*
X013152Y013012D01*
X013152Y012963D01*
X013104Y012915D01*
X013007Y012915D01*
X012959Y012963D01*
X012959Y013012D01*
X013007Y013060D01*
X013104Y013060D02*
X013152Y013108D01*
X013152Y013157D01*
X013104Y013205D01*
X013007Y013205D01*
X012959Y013157D01*
X009152Y011205D02*
X008959Y011205D01*
X008959Y011060D01*
X009055Y011108D01*
X009104Y011108D01*
X009152Y011060D01*
X009152Y010963D01*
X009104Y010915D01*
X009007Y010915D01*
X008959Y010963D01*
X008858Y011060D02*
X008809Y011012D01*
X008664Y011012D01*
X008664Y010915D02*
X008664Y011205D01*
X008809Y011205D01*
X008858Y011157D01*
X008858Y011060D01*
X001734Y006410D02*
X001444Y006410D01*
X001444Y006555D01*
X001492Y006603D01*
X001589Y006603D01*
X001637Y006555D01*
X001637Y006410D01*
X001637Y006308D02*
X001686Y006308D01*
X001734Y006260D01*
X001734Y006163D01*
X001686Y006115D01*
X001589Y006163D02*
X001589Y006260D01*
X001637Y006308D01*
X001492Y006308D02*
X001444Y006260D01*
X001444Y006163D01*
X001492Y006115D01*
X001541Y006115D01*
X001589Y006163D01*
X001589Y005898D02*
X001589Y005704D01*
X001589Y005603D02*
X001637Y005555D01*
X001637Y005410D01*
X001734Y005410D02*
X001444Y005410D01*
X001444Y005555D01*
X001492Y005603D01*
X001589Y005603D01*
X001637Y005308D02*
X001686Y005308D01*
X001734Y005260D01*
X001734Y005163D01*
X001686Y005115D01*
X001589Y005163D02*
X001589Y005260D01*
X001637Y005308D01*
X001492Y005308D02*
X001444Y005260D01*
X001444Y005163D01*
X001492Y005115D01*
X001541Y005115D01*
X001589Y005163D01*
X001686Y004898D02*
X001492Y004898D01*
X001444Y004849D01*
X001444Y004704D01*
X001734Y004704D01*
X001734Y004849D01*
X001686Y004898D01*
X001734Y004603D02*
X001444Y004603D01*
X001444Y004410D02*
X001734Y004603D01*
X001734Y004410D02*
X001444Y004410D01*
X001492Y004308D02*
X001444Y004260D01*
X001444Y004163D01*
X001492Y004115D01*
X001686Y004115D01*
X001734Y004163D01*
X001734Y004260D01*
X001686Y004308D01*
X001589Y004308D01*
X001589Y004212D01*
X001686Y003898D02*
X001734Y003849D01*
X001734Y003753D01*
X001686Y003704D01*
X001492Y003704D01*
X001444Y003753D01*
X001444Y003849D01*
X001492Y003898D01*
X001492Y003603D02*
X001444Y003555D01*
X001444Y003458D01*
X001492Y003410D01*
X001686Y003410D01*
X001734Y003458D01*
X001734Y003555D01*
X001686Y003603D01*
X001637Y003308D02*
X001444Y003308D01*
X001444Y003115D02*
X001637Y003115D01*
X001734Y003212D01*
X001637Y003308D01*
X001589Y002898D02*
X001589Y002704D01*
X001541Y002704D02*
X001444Y002801D01*
X001541Y002898D01*
X001734Y002898D01*
X001734Y002704D02*
X001541Y002704D01*
X001492Y002603D02*
X001444Y002555D01*
X001444Y002410D01*
X001734Y002410D01*
X001734Y002555D01*
X001686Y002603D01*
X001492Y002603D01*
X001492Y002308D02*
X001444Y002260D01*
X001444Y002163D01*
X001492Y002115D01*
X001541Y002115D01*
X001589Y002163D01*
X001589Y002260D01*
X001637Y002308D01*
X001686Y002308D01*
X001734Y002260D01*
X001734Y002163D01*
X001686Y002115D01*
X001734Y001898D02*
X001734Y001704D01*
X001444Y001704D01*
X001492Y001603D02*
X001444Y001555D01*
X001444Y001458D01*
X001492Y001410D01*
X001686Y001410D01*
X001734Y001458D01*
X001734Y001555D01*
X001686Y001603D01*
X001686Y001308D02*
X001734Y001260D01*
X001734Y001163D01*
X001686Y001115D01*
X001589Y001163D02*
X001589Y001260D01*
X001637Y001308D01*
X001686Y001308D01*
X001589Y001163D02*
X001541Y001115D01*
X001492Y001115D01*
X001444Y001163D01*
X001444Y001260D01*
X001492Y001308D01*
X003464Y001282D02*
X003512Y001330D01*
X003706Y001330D01*
X003754Y001282D01*
X003754Y001185D01*
X003706Y001136D01*
X003512Y001136D01*
X003464Y001185D01*
X003464Y001282D01*
X003464Y001431D02*
X003754Y001431D01*
X003657Y001528D01*
X003754Y001625D01*
X003464Y001625D01*
X003464Y001726D02*
X003754Y001726D01*
X003754Y001919D01*
X003754Y002020D02*
X003464Y002020D01*
X003464Y002165D01*
X003512Y002214D01*
X003609Y002214D01*
X003657Y002165D01*
X003657Y002020D01*
X003657Y002117D02*
X003754Y002214D01*
X003464Y001919D02*
X003464Y001726D01*
X003609Y001726D02*
X003609Y001822D01*
X003609Y001035D02*
X003657Y000987D01*
X003657Y000842D01*
X003754Y000842D02*
X003464Y000842D01*
X003464Y000987D01*
X003512Y001035D01*
X003609Y001035D01*
X008314Y002262D02*
X008411Y002165D01*
X008508Y002262D01*
X008508Y002455D01*
X008609Y002455D02*
X008705Y002455D01*
X008657Y002455D02*
X008657Y002165D01*
X008609Y002165D02*
X008705Y002165D01*
X008805Y002165D02*
X008805Y002455D01*
X008999Y002165D01*
X008999Y002455D01*
X009314Y002455D02*
X009314Y002262D01*
X009411Y002165D01*
X009508Y002262D01*
X009508Y002455D01*
X009609Y002407D02*
X009609Y002213D01*
X009657Y002165D01*
X009754Y002165D01*
X009802Y002213D01*
X009903Y002213D02*
X009952Y002165D01*
X010048Y002165D01*
X010097Y002213D01*
X009903Y002213D02*
X009903Y002407D01*
X009952Y002455D01*
X010048Y002455D01*
X010097Y002407D01*
X009802Y002407D02*
X009754Y002455D01*
X009657Y002455D01*
X009609Y002407D01*
X010464Y002455D02*
X010464Y002310D01*
X010561Y002358D01*
X010609Y002358D01*
X010658Y002310D01*
X010658Y002213D01*
X010609Y002165D01*
X010512Y002165D01*
X010464Y002213D01*
X010464Y002455D02*
X010658Y002455D01*
X010759Y002455D02*
X010759Y002262D01*
X010855Y002165D01*
X010952Y002262D01*
X010952Y002455D01*
X012814Y002355D02*
X012814Y002162D01*
X012911Y002065D01*
X013008Y002162D01*
X013008Y002355D01*
X013109Y002355D02*
X013205Y002355D01*
X013157Y002355D02*
X013157Y002065D01*
X013109Y002065D02*
X013205Y002065D01*
X013305Y002113D02*
X013354Y002065D01*
X013450Y002065D01*
X013499Y002113D01*
X013499Y002307D01*
X013450Y002355D01*
X013354Y002355D01*
X013305Y002307D01*
X013305Y002113D01*
X013814Y002065D02*
X013814Y002355D01*
X013959Y002355D01*
X014008Y002307D01*
X014008Y002210D01*
X013959Y002162D01*
X013814Y002162D01*
X013911Y002162D02*
X014008Y002065D01*
X014109Y002113D02*
X014157Y002065D01*
X014254Y002065D01*
X014302Y002113D01*
X014302Y002162D01*
X014254Y002210D01*
X014157Y002210D01*
X014109Y002258D01*
X014109Y002307D01*
X014157Y002355D01*
X014254Y002355D01*
X014302Y002307D01*
X014403Y002355D02*
X014597Y002355D01*
X014500Y002355D02*
X014500Y002065D01*
X014964Y002113D02*
X015012Y002065D01*
X015109Y002065D01*
X015158Y002113D01*
X015158Y002162D01*
X015109Y002210D01*
X015061Y002210D01*
X015109Y002210D02*
X015158Y002258D01*
X015158Y002307D01*
X015109Y002355D01*
X015012Y002355D01*
X014964Y002307D01*
X015259Y002355D02*
X015259Y002162D01*
X015355Y002065D01*
X015452Y002162D01*
X015452Y002355D01*
X015964Y002355D02*
X015964Y002210D01*
X016061Y002258D01*
X016109Y002258D01*
X016158Y002210D01*
X016158Y002113D01*
X016109Y002065D01*
X016012Y002065D01*
X015964Y002113D01*
X015964Y002355D02*
X016158Y002355D01*
X016259Y002355D02*
X016259Y002162D01*
X016355Y002065D01*
X016452Y002162D01*
X016452Y002355D01*
X016814Y002307D02*
X016814Y002113D01*
X016862Y002065D01*
X016959Y002065D01*
X017008Y002113D01*
X017008Y002210D01*
X016911Y002210D01*
X017008Y002307D02*
X016959Y002355D01*
X016862Y002355D01*
X016814Y002307D01*
X017109Y002355D02*
X017302Y002065D01*
X017302Y002355D01*
X017403Y002355D02*
X017403Y002065D01*
X017548Y002065D01*
X017597Y002113D01*
X017597Y002307D01*
X017548Y002355D01*
X017403Y002355D01*
X017109Y002355D02*
X017109Y002065D01*
X017814Y002113D02*
X017862Y002065D01*
X017959Y002065D01*
X018008Y002113D01*
X018008Y002210D01*
X017911Y002210D01*
X018008Y002307D02*
X017959Y002355D01*
X017862Y002355D01*
X017814Y002307D01*
X017814Y002113D01*
X018109Y002065D02*
X018109Y002355D01*
X018302Y002065D01*
X018302Y002355D01*
X018403Y002355D02*
X018548Y002355D01*
X018597Y002307D01*
X018597Y002113D01*
X018548Y002065D01*
X018403Y002065D01*
X018403Y002355D01*
X018864Y002355D02*
X018864Y002162D01*
X018961Y002065D01*
X019058Y002162D01*
X019058Y002355D01*
X019159Y002355D02*
X019255Y002355D01*
X019207Y002355D02*
X019207Y002065D01*
X019159Y002065D02*
X019255Y002065D01*
X019355Y002065D02*
X019355Y002355D01*
X019549Y002065D01*
X019549Y002355D01*
X020964Y000858D02*
X021061Y000955D01*
X021158Y000858D01*
X021158Y000665D01*
X021259Y000713D02*
X021452Y000907D01*
X021452Y000713D01*
X021404Y000665D01*
X021307Y000665D01*
X021259Y000713D01*
X021259Y000907D01*
X021307Y000955D01*
X021404Y000955D01*
X021452Y000907D01*
X021158Y000810D02*
X020964Y000810D01*
X020964Y000858D02*
X020964Y000665D01*
X021964Y000665D02*
X021964Y000858D01*
X022061Y000955D01*
X022158Y000858D01*
X022158Y000665D01*
X022259Y000665D02*
X022452Y000665D01*
X022355Y000665D02*
X022355Y000955D01*
X022259Y000858D01*
X022158Y000810D02*
X021964Y000810D01*
X022964Y000810D02*
X023158Y000810D01*
X023158Y000858D02*
X023158Y000665D01*
X023259Y000665D02*
X023452Y000858D01*
X023452Y000907D01*
X023404Y000955D01*
X023307Y000955D01*
X023259Y000907D01*
X023158Y000858D02*
X023061Y000955D01*
X022964Y000858D01*
X022964Y000665D01*
X023259Y000665D02*
X023452Y000665D01*
X023964Y000665D02*
X023964Y000858D01*
X024061Y000955D01*
X024158Y000858D01*
X024158Y000665D01*
X024259Y000713D02*
X024307Y000665D01*
X024404Y000665D01*
X024452Y000713D01*
X024452Y000762D01*
X024404Y000810D01*
X024355Y000810D01*
X024404Y000810D02*
X024452Y000858D01*
X024452Y000907D01*
X024404Y000955D01*
X024307Y000955D01*
X024259Y000907D01*
X024158Y000810D02*
X023964Y000810D01*
X024814Y000858D02*
X024862Y000810D01*
X024959Y000810D01*
X025008Y000762D01*
X025008Y000713D01*
X024959Y000665D01*
X024862Y000665D01*
X024814Y000713D01*
X024814Y000858D02*
X024814Y000907D01*
X024862Y000955D01*
X024959Y000955D01*
X025008Y000907D01*
X025109Y000955D02*
X025254Y000955D01*
X025302Y000907D01*
X025302Y000713D01*
X025254Y000665D01*
X025109Y000665D01*
X025109Y000955D01*
X025403Y000858D02*
X025500Y000955D01*
X025597Y000858D01*
X025597Y000665D01*
X025597Y000810D02*
X025403Y000810D01*
X025403Y000858D02*
X025403Y000665D01*
X025814Y000713D02*
X025862Y000665D01*
X025959Y000665D01*
X026008Y000713D01*
X026008Y000762D01*
X025959Y000810D01*
X025862Y000810D01*
X025814Y000858D01*
X025814Y000907D01*
X025862Y000955D01*
X025959Y000955D01*
X026008Y000907D01*
X026109Y000907D02*
X026109Y000713D01*
X026157Y000665D01*
X026254Y000665D01*
X026302Y000713D01*
X026403Y000665D02*
X026403Y000955D01*
X026302Y000907D02*
X026254Y000955D01*
X026157Y000955D01*
X026109Y000907D01*
X026403Y000665D02*
X026597Y000665D01*
X019434Y004663D02*
X019434Y004760D01*
X019386Y004808D01*
X019289Y004808D01*
X019289Y004712D01*
X019192Y004808D02*
X019144Y004760D01*
X019144Y004663D01*
X019192Y004615D01*
X019386Y004615D01*
X019434Y004663D01*
X019434Y004910D02*
X019144Y004910D01*
X019434Y005103D01*
X019144Y005103D01*
X019144Y005204D02*
X019144Y005349D01*
X019192Y005398D01*
X019386Y005398D01*
X019434Y005349D01*
X019434Y005204D01*
X019144Y005204D01*
X019144Y005765D02*
X019289Y005765D01*
X019241Y005862D01*
X019241Y005910D01*
X019289Y005958D01*
X019386Y005958D01*
X019434Y005910D01*
X019434Y005813D01*
X019386Y005765D01*
X019144Y005765D02*
X019144Y005958D01*
X019144Y006060D02*
X019337Y006060D01*
X019434Y006156D01*
X019337Y006253D01*
X019144Y006253D01*
X008314Y002455D02*
X008314Y002262D01*
X001686Y006801D02*
X001492Y006801D01*
X001589Y006704D02*
X001589Y006898D01*
D13*
X001321Y008138D02*
X004077Y008138D01*
X005258Y008138D02*
X005652Y008138D01*
X005652Y012862D01*
X005258Y012862D01*
X004077Y012862D02*
X001321Y012862D01*
X001321Y008138D01*
X008199Y001750D02*
X008449Y002000D01*
X008949Y002000D01*
X009199Y001750D01*
X009449Y002000D01*
X009949Y002000D01*
X010199Y001750D01*
X010449Y002000D01*
X010949Y002000D01*
X011199Y001750D01*
X011199Y001250D01*
X010949Y001000D01*
X010449Y001000D01*
X010199Y001250D01*
X009949Y001000D01*
X009449Y001000D01*
X009199Y001250D01*
X008949Y001000D01*
X008449Y001000D01*
X008199Y001250D01*
X008199Y001750D01*
X013889Y002487D02*
X014503Y002487D01*
X024730Y005022D02*
X024800Y004952D01*
X025295Y005447D01*
X025295Y005446D02*
X025266Y005479D01*
X025239Y005513D01*
X025216Y005550D01*
X025196Y005589D01*
X025179Y005629D01*
X025166Y005671D01*
X025157Y005713D01*
X025151Y005756D01*
X025149Y005800D01*
X025151Y005844D01*
X025157Y005887D01*
X025166Y005929D01*
X025179Y005971D01*
X025196Y006011D01*
X025216Y006050D01*
X025239Y006087D01*
X025266Y006121D01*
X025295Y006154D01*
X025328Y006183D01*
X025362Y006210D01*
X025399Y006233D01*
X025438Y006253D01*
X025478Y006270D01*
X025520Y006283D01*
X025562Y006292D01*
X025605Y006298D01*
X025649Y006300D01*
X025693Y006298D01*
X025736Y006292D01*
X025778Y006283D01*
X025820Y006270D01*
X025860Y006253D01*
X025899Y006233D01*
X025936Y006210D01*
X025970Y006183D01*
X026003Y006154D01*
X026002Y006154D02*
X026497Y006649D01*
X026427Y006719D01*
X016598Y016548D02*
X014901Y014851D01*
X014971Y014781D01*
X016669Y016478D02*
X016598Y016548D01*
X015849Y018000D02*
X015349Y018000D01*
X015099Y018250D01*
X015099Y018750D01*
X015349Y019000D01*
X015099Y019250D01*
X015099Y019750D01*
X015349Y020000D01*
X015849Y020000D01*
X016099Y019750D01*
X016099Y019250D01*
X015849Y019000D01*
X016099Y018750D01*
X016099Y018250D01*
X015849Y018000D01*
X015099Y018250D02*
X014849Y018000D01*
X014349Y018000D01*
X014099Y018250D01*
X014099Y018750D01*
X014349Y019000D01*
X014099Y019250D01*
X014099Y019750D01*
X014349Y020000D01*
X014849Y020000D01*
X015099Y019750D01*
X015099Y019250D01*
X014849Y019000D01*
X015099Y018750D01*
X015099Y018250D01*
X014099Y018250D02*
X013849Y018000D01*
X013349Y018000D01*
X013099Y018250D01*
X013099Y018750D01*
X013349Y019000D01*
X013099Y019250D01*
X013099Y019750D01*
X013349Y020000D01*
X013849Y020000D01*
X014099Y019750D01*
X014099Y019250D01*
X013849Y019000D01*
X014099Y018750D01*
X014099Y018250D01*
X013099Y018250D02*
X012849Y018000D01*
X012349Y018000D01*
X012099Y018250D01*
X012099Y018750D01*
X012349Y019000D01*
X012099Y019250D01*
X012099Y019750D01*
X012349Y020000D01*
X012849Y020000D01*
X013099Y019750D01*
X013099Y019250D01*
X012849Y019000D01*
X013099Y018750D01*
X013099Y018250D01*
D14*
X013259Y017880D02*
X013332Y017807D01*
X013406Y017880D01*
X013406Y017660D01*
X013480Y017660D02*
X013553Y017660D01*
X013517Y017660D02*
X013517Y017880D01*
X013553Y017880D02*
X013480Y017880D01*
X013627Y017843D02*
X013627Y017807D01*
X013664Y017770D01*
X013737Y017770D01*
X013774Y017733D01*
X013774Y017697D01*
X013737Y017660D01*
X013664Y017660D01*
X013627Y017697D01*
X013627Y017843D02*
X013664Y017880D01*
X013737Y017880D01*
X013774Y017843D01*
X013848Y017843D02*
X013848Y017697D01*
X013885Y017660D01*
X013958Y017660D01*
X013995Y017697D01*
X013995Y017843D01*
X013958Y017880D01*
X013885Y017880D01*
X013848Y017843D01*
X014259Y017880D02*
X014259Y017660D01*
X014406Y017660D02*
X014406Y017880D01*
X014332Y017807D01*
X014259Y017880D01*
X014480Y017843D02*
X014480Y017697D01*
X014517Y017660D01*
X014590Y017660D01*
X014627Y017697D01*
X014627Y017843D01*
X014590Y017880D01*
X014517Y017880D01*
X014480Y017843D01*
X014701Y017843D02*
X014701Y017807D01*
X014738Y017770D01*
X014811Y017770D01*
X014848Y017733D01*
X014848Y017697D01*
X014811Y017660D01*
X014738Y017660D01*
X014701Y017697D01*
X014701Y017843D02*
X014738Y017880D01*
X014811Y017880D01*
X014848Y017843D01*
X014922Y017880D02*
X014995Y017880D01*
X014959Y017880D02*
X014959Y017660D01*
X014995Y017660D02*
X014922Y017660D01*
X015359Y017660D02*
X015359Y017880D01*
X015469Y017880D01*
X015506Y017843D01*
X015506Y017770D01*
X015469Y017733D01*
X015359Y017733D01*
X015432Y017733D02*
X015506Y017660D01*
X015580Y017697D02*
X015617Y017660D01*
X015690Y017660D01*
X015727Y017697D01*
X015727Y017733D01*
X015690Y017770D01*
X015617Y017770D01*
X015580Y017807D01*
X015580Y017843D01*
X015617Y017880D01*
X015690Y017880D01*
X015727Y017843D01*
X015801Y017880D02*
X015948Y017880D01*
X015874Y017880D02*
X015874Y017660D01*
X017309Y017685D02*
X017419Y017685D01*
X017456Y017722D01*
X017456Y017868D01*
X017419Y017905D01*
X017309Y017905D01*
X017309Y017685D01*
X017530Y017685D02*
X017677Y017685D01*
X017603Y017685D02*
X017603Y017905D01*
X017530Y017832D01*
X017751Y017868D02*
X017751Y017722D01*
X017898Y017868D01*
X017898Y017722D01*
X017861Y017685D01*
X017788Y017685D01*
X017751Y017722D01*
X017751Y017868D02*
X017788Y017905D01*
X017861Y017905D01*
X017898Y017868D01*
X013259Y017880D02*
X013259Y017660D01*
X012898Y017660D02*
X012788Y017770D01*
X012751Y017733D02*
X012898Y017880D01*
X012751Y017880D02*
X012751Y017660D01*
X012677Y017697D02*
X012640Y017660D01*
X012567Y017660D01*
X012530Y017697D01*
X012530Y017843D01*
X012567Y017880D01*
X012640Y017880D01*
X012677Y017843D01*
X012456Y017843D02*
X012419Y017880D01*
X012346Y017880D01*
X012309Y017843D01*
X012309Y017807D01*
X012346Y017770D01*
X012419Y017770D01*
X012456Y017733D01*
X012456Y017697D01*
X012419Y017660D01*
X012346Y017660D01*
X012309Y017697D01*
X010951Y021060D02*
X010951Y021280D01*
X011098Y021280D01*
X011024Y021170D02*
X010951Y021170D01*
X010877Y021060D02*
X010730Y021060D01*
X010730Y021280D01*
X010877Y021280D01*
X010803Y021170D02*
X010730Y021170D01*
X010656Y021170D02*
X010619Y021133D01*
X010509Y021133D01*
X010509Y021060D02*
X010509Y021280D01*
X010619Y021280D01*
X010656Y021243D01*
X010656Y021170D01*
X010582Y021133D02*
X010656Y021060D01*
D15*
X004169Y015490D03*
X003749Y015010D03*
X003369Y015450D03*
X003339Y015430D03*
X003209Y015340D03*
X003179Y015320D03*
X003079Y015250D03*
X002599Y015600D03*
X002589Y015590D03*
X002609Y015610D03*
X002619Y015620D03*
X002629Y015630D03*
X002639Y015640D03*
X002549Y015560D03*
X002539Y015550D03*
X002529Y015540D03*
X002519Y015530D03*
X002509Y015520D03*
X002469Y015490D03*
X002459Y015480D03*
X002449Y015470D03*
X002439Y015460D03*
X002429Y015450D03*
X002419Y015440D03*
X002389Y015420D03*
X002379Y015410D03*
X002369Y015400D03*
X002359Y015390D03*
X002349Y015380D03*
X002339Y015370D03*
X002299Y015340D03*
X002289Y015330D03*
X002279Y015320D03*
X002269Y015310D03*
X002259Y015300D03*
X002249Y015290D03*
X002219Y015270D03*
X003469Y015520D03*
X003499Y015540D03*
D16*
X003639Y015565D03*
X003989Y015795D03*
X004159Y015495D03*
X003859Y016515D03*
X002379Y016605D03*
X001829Y016145D03*
X002119Y015245D03*
X002109Y015235D03*
X002099Y015225D03*
X002089Y015215D03*
X002079Y015205D03*
X001619Y015085D03*
X003759Y014475D03*
D17*
X004019Y015260D03*
X004149Y015490D03*
X002359Y016550D03*
X002289Y016460D03*
X001799Y016070D03*
X001629Y015080D03*
D18*
X001639Y015080D03*
X001819Y014820D03*
X002109Y014450D03*
X001819Y015510D03*
X003859Y015870D03*
X004139Y015490D03*
D19*
X004129Y015490D03*
X002199Y014350D03*
X002149Y014410D03*
X001649Y015080D03*
D20*
X002699Y015510D03*
X003019Y015390D03*
X004119Y015490D03*
D21*
X004109Y015490D03*
X001669Y015080D03*
D22*
X001679Y015080D03*
X002709Y015480D03*
X004099Y015490D03*
D23*
X004089Y015490D03*
X001689Y015080D03*
D24*
X001699Y015085D03*
X003889Y014855D03*
X004079Y015495D03*
D25*
X004069Y015490D03*
X003859Y014810D03*
X002809Y014870D03*
X001709Y015080D03*
D26*
X004059Y015490D03*
D27*
X004049Y015490D03*
X003789Y014740D03*
X002729Y015410D03*
X001729Y015080D03*
D28*
X001739Y015080D03*
X002759Y015190D03*
X002739Y015340D03*
X002799Y014900D03*
X004039Y015490D03*
D29*
X004029Y015490D03*
X001749Y015080D03*
D30*
X001949Y015070D03*
X001959Y015080D03*
X001969Y015090D03*
X001839Y014710D03*
X001849Y014700D03*
X002279Y014150D03*
X002289Y014140D03*
X002299Y014130D03*
X003119Y014260D03*
X001869Y015490D03*
X001879Y016210D03*
X001889Y016220D03*
X001899Y016230D03*
X003789Y016610D03*
X003799Y016600D03*
X003809Y016590D03*
X004029Y016220D03*
D31*
X004019Y015725D03*
X002679Y015575D03*
X001759Y015325D03*
X001759Y014845D03*
X001789Y014815D03*
X002209Y014265D03*
X002849Y014735D03*
X001669Y015845D03*
D32*
X002269Y016440D03*
X002879Y016170D03*
X002209Y015340D03*
X002199Y015330D03*
X002189Y015320D03*
X002179Y015310D03*
X002169Y015300D03*
X001769Y014820D03*
X002069Y014510D03*
X002219Y014240D03*
X004009Y015230D03*
X004009Y015750D03*
X004019Y016220D03*
D33*
X004009Y016230D03*
X003849Y015850D03*
X002349Y016520D03*
X002339Y016510D03*
X002329Y016500D03*
X002099Y014460D03*
D34*
X002229Y014220D03*
X002129Y015260D03*
X002139Y015270D03*
X002259Y016430D03*
X003609Y015540D03*
X003619Y015550D03*
X003629Y015560D03*
X003999Y015780D03*
X003999Y015210D03*
D35*
X003899Y014765D03*
X003879Y015915D03*
X003999Y016225D03*
X002129Y014435D03*
D36*
X002239Y014200D03*
X003059Y014210D03*
X003069Y014220D03*
X003749Y014460D03*
X003989Y015190D03*
X003649Y015580D03*
X003659Y015590D03*
X003979Y015810D03*
X002669Y015610D03*
X002069Y015190D03*
X002059Y015180D03*
X001839Y016160D03*
X002249Y016420D03*
X002389Y016620D03*
D37*
X003989Y016225D03*
D38*
X003849Y016535D03*
X003689Y015615D03*
X003679Y015605D03*
X003669Y015595D03*
X003979Y015175D03*
X003779Y014975D03*
X002859Y014705D03*
X003099Y014245D03*
X003089Y014235D03*
X003079Y014225D03*
X003049Y014195D03*
X002249Y014185D03*
X002039Y015165D03*
X002049Y015175D03*
X001859Y015495D03*
X002399Y016635D03*
D39*
X001709Y015845D03*
X003979Y016225D03*
D40*
X003839Y016550D03*
X003969Y015820D03*
X003729Y015650D03*
X003719Y015640D03*
X003709Y015630D03*
X003699Y015620D03*
X003969Y015160D03*
X003739Y014440D03*
X003729Y014430D03*
X003109Y014250D03*
X003039Y014180D03*
X003029Y014170D03*
X002259Y014180D03*
X002059Y014540D03*
X001999Y015120D03*
X002009Y015130D03*
X002019Y015140D03*
X002029Y015150D03*
X001659Y015840D03*
X001849Y016170D03*
X002409Y016650D03*
D41*
X003969Y016230D03*
D42*
X003829Y016565D03*
X003819Y016575D03*
X003759Y015675D03*
X003749Y015665D03*
X003739Y015655D03*
X003959Y015145D03*
X003949Y015135D03*
X003719Y014415D03*
X003709Y014405D03*
X003019Y014155D03*
X002269Y014165D03*
X001829Y014725D03*
X001979Y015095D03*
X001989Y015105D03*
X001859Y016185D03*
X001869Y016195D03*
X002239Y016405D03*
X002419Y016665D03*
X002429Y016675D03*
D43*
X002989Y015525D03*
X003949Y016135D03*
X003959Y016125D03*
X003939Y016155D03*
D44*
X003789Y015705D03*
X003779Y015695D03*
X003769Y015685D03*
X003939Y015125D03*
X003929Y015115D03*
X003919Y015105D03*
X003699Y014395D03*
X003689Y014385D03*
X003679Y014375D03*
X003129Y014265D03*
X003009Y014145D03*
X002999Y014135D03*
X002989Y014125D03*
X002979Y014115D03*
X001879Y014675D03*
X001869Y014685D03*
X001859Y014695D03*
X001909Y015025D03*
X001919Y015035D03*
X001929Y015045D03*
X001939Y015055D03*
X002439Y016685D03*
X002449Y016695D03*
X002459Y016705D03*
X002469Y016715D03*
D45*
X002479Y016720D03*
X002489Y016730D03*
X002499Y016740D03*
X002229Y016390D03*
X001919Y016250D03*
X001909Y016240D03*
X001879Y015490D03*
X001899Y015010D03*
X001889Y015000D03*
X001889Y014670D03*
X001899Y014660D03*
X002309Y014120D03*
X002319Y014110D03*
X002329Y014100D03*
X002959Y014100D03*
X002969Y014110D03*
X003139Y014270D03*
X003649Y014350D03*
X003659Y014360D03*
X003669Y014370D03*
X003929Y014760D03*
X003769Y014990D03*
X003899Y015090D03*
X003909Y015100D03*
X003799Y015710D03*
X003809Y015720D03*
X003819Y015730D03*
X002869Y016210D03*
X003139Y016710D03*
X003129Y016720D03*
X003119Y016730D03*
X003159Y016700D03*
X003739Y016650D03*
X003759Y016640D03*
X003769Y016630D03*
X003779Y016620D03*
D46*
X003929Y016160D03*
D47*
X003869Y016505D03*
X003599Y015535D03*
X003039Y015305D03*
X002159Y015285D03*
X002149Y015275D03*
X001849Y015495D03*
X001819Y016125D03*
X002369Y016585D03*
X003919Y014765D03*
X003769Y014495D03*
D48*
X002929Y015955D03*
X003919Y016165D03*
D49*
X002319Y016485D03*
X002309Y016475D03*
X001809Y014815D03*
X003909Y014765D03*
D50*
X003909Y016165D03*
D51*
X003899Y016165D03*
D52*
X003889Y015950D03*
X002189Y014370D03*
X002179Y014380D03*
X002169Y014390D03*
X002159Y014400D03*
D53*
X002299Y016470D03*
X003889Y016450D03*
D54*
X003879Y014840D03*
D55*
X003779Y014520D03*
X002079Y014490D03*
X001839Y015500D03*
X002279Y016450D03*
X003879Y016480D03*
D56*
X002719Y015445D03*
X001749Y015845D03*
X003869Y014825D03*
D57*
X002839Y014770D03*
X002689Y015540D03*
X003869Y015890D03*
X002119Y014440D03*
D58*
X003849Y014795D03*
D59*
X003839Y014785D03*
X003829Y014775D03*
X003819Y014765D03*
X002999Y015485D03*
X001759Y015845D03*
X001719Y015085D03*
D60*
X001869Y014985D03*
X001879Y014995D03*
X001909Y014655D03*
X001919Y014645D03*
X002339Y014095D03*
X002349Y014085D03*
X002369Y014075D03*
X002379Y014065D03*
X002929Y014075D03*
X002939Y014085D03*
X002949Y014095D03*
X003629Y014335D03*
X003639Y014345D03*
X003049Y015255D03*
X003829Y015735D03*
X003839Y015745D03*
X003749Y016645D03*
X003729Y016655D03*
X003719Y016665D03*
X003169Y016695D03*
X003149Y016705D03*
X003109Y016735D03*
X003099Y016745D03*
X003089Y016745D03*
X003079Y016755D03*
X002539Y016765D03*
X002519Y016755D03*
X002509Y016745D03*
X001969Y016285D03*
X001959Y016275D03*
X001939Y016265D03*
X001929Y016255D03*
D61*
X001949Y016270D03*
X001979Y016290D03*
X001989Y016300D03*
X001999Y016300D03*
X002009Y016310D03*
X002529Y016760D03*
X002549Y016770D03*
X002559Y016780D03*
X002579Y016790D03*
X003019Y016790D03*
X003039Y016780D03*
X003059Y016770D03*
X003069Y016760D03*
X003179Y016690D03*
X003249Y016710D03*
X003659Y016700D03*
X003679Y016690D03*
X003699Y016680D03*
X003709Y016670D03*
X003839Y015940D03*
X001999Y014600D03*
X001979Y014610D03*
X001959Y014620D03*
X001949Y014630D03*
X001939Y014630D03*
X001929Y014640D03*
X001829Y014940D03*
X001839Y014950D03*
X001849Y014960D03*
X001859Y014970D03*
X001889Y015490D03*
X003149Y014280D03*
X002919Y014070D03*
X002909Y014060D03*
X002899Y014060D03*
X002889Y014050D03*
X002879Y014050D03*
X002429Y014040D03*
X002409Y014050D03*
X002399Y014050D03*
X002389Y014060D03*
X002359Y014080D03*
X003549Y014290D03*
X003569Y014300D03*
X003589Y014310D03*
X003599Y014320D03*
X003609Y014320D03*
X003619Y014330D03*
D62*
X003379Y014245D03*
X003369Y014245D03*
X003329Y014245D03*
X003319Y014245D03*
X003309Y014245D03*
X003299Y014245D03*
X002879Y014685D03*
X002889Y014695D03*
X002989Y014805D03*
X002999Y014815D03*
X003009Y014825D03*
X003099Y014925D03*
X003109Y014935D03*
X003209Y015045D03*
X003219Y015055D03*
X003319Y015165D03*
X003329Y015175D03*
X003429Y015285D03*
X003439Y015295D03*
X003539Y015405D03*
X003549Y015415D03*
X003829Y015935D03*
X003509Y016745D03*
X003499Y016745D03*
X003379Y016745D03*
X002879Y016835D03*
X002649Y015645D03*
X002579Y015585D03*
X002569Y015575D03*
X002559Y015565D03*
X002499Y015515D03*
X002489Y015505D03*
X002479Y015495D03*
X002409Y015435D03*
X002399Y015425D03*
X002329Y015365D03*
X002319Y015355D03*
X002309Y015345D03*
X002239Y015285D03*
X002229Y015275D03*
X001899Y015485D03*
X002579Y013995D03*
D63*
X003819Y015930D03*
D64*
X003809Y014755D03*
X003799Y014745D03*
D65*
X003809Y015930D03*
D66*
X003799Y015925D03*
D67*
X003689Y016685D03*
X003669Y016695D03*
X003649Y016705D03*
X003639Y016705D03*
X003629Y016715D03*
X003619Y016715D03*
X003599Y016725D03*
X003589Y016725D03*
X003559Y016735D03*
X003329Y016735D03*
X003289Y016725D03*
X003269Y016715D03*
X003259Y016715D03*
X003239Y016705D03*
X003229Y016705D03*
X003219Y016695D03*
X003209Y016695D03*
X003199Y016685D03*
X003189Y016685D03*
X003049Y016775D03*
X003029Y016785D03*
X003009Y016795D03*
X002999Y016795D03*
X002989Y016805D03*
X002979Y016805D03*
X002969Y016815D03*
X002959Y016815D03*
X002929Y016825D03*
X002649Y016815D03*
X002639Y016815D03*
X002619Y016805D03*
X002609Y016805D03*
X002599Y016795D03*
X002589Y016795D03*
X002569Y016785D03*
X002099Y016345D03*
X002079Y016335D03*
X002069Y016335D03*
X002049Y016325D03*
X002039Y016325D03*
X002029Y016315D03*
X002019Y016315D03*
X002559Y015845D03*
X002569Y015855D03*
X002579Y015865D03*
X002589Y015875D03*
X002599Y015895D03*
X002609Y015905D03*
X002619Y015915D03*
X002629Y015925D03*
X002649Y015955D03*
X002659Y015965D03*
X002669Y015975D03*
X002679Y015985D03*
X002689Y016005D03*
X002699Y016015D03*
X002709Y016025D03*
X002719Y016035D03*
X002739Y016065D03*
X002749Y016075D03*
X002759Y016085D03*
X002779Y016115D03*
X002789Y016125D03*
X002799Y016135D03*
X002809Y016145D03*
X002819Y016165D03*
X002829Y016175D03*
X002839Y016185D03*
X002849Y016195D03*
X002549Y015825D03*
X002539Y015815D03*
X002529Y015805D03*
X002519Y015795D03*
X002499Y015765D03*
X002489Y015755D03*
X002479Y015745D03*
X002469Y015735D03*
X002459Y015715D03*
X002449Y015705D03*
X002439Y015695D03*
X002429Y015685D03*
X002419Y015665D03*
X002409Y015655D03*
X002399Y015645D03*
X002389Y015635D03*
X002369Y015605D03*
X002359Y015595D03*
X002349Y015585D03*
X002339Y015575D03*
X002329Y015555D03*
X002319Y015545D03*
X002309Y015535D03*
X002299Y015525D03*
X002289Y015505D03*
X002279Y015495D03*
X002269Y015485D03*
X002259Y015475D03*
X002249Y015455D03*
X002239Y015445D03*
X002229Y015435D03*
X002219Y015425D03*
X002659Y015645D03*
X003759Y015005D03*
X002869Y014675D03*
X003159Y014275D03*
X003169Y014275D03*
X003189Y014265D03*
X003199Y014265D03*
X003439Y014255D03*
X003479Y014265D03*
X003509Y014275D03*
X003519Y014275D03*
X003529Y014285D03*
X003539Y014285D03*
X003559Y014295D03*
X003579Y014305D03*
X002869Y014045D03*
X002859Y014035D03*
X002849Y014035D03*
X002839Y014025D03*
X002829Y014025D03*
X002809Y014015D03*
X002799Y014015D03*
X002769Y014005D03*
X002489Y014015D03*
X002479Y014015D03*
X002469Y014025D03*
X002459Y014025D03*
X002439Y014035D03*
X002419Y014045D03*
X002039Y014585D03*
X002019Y014595D03*
X002009Y014595D03*
X001989Y014605D03*
X001969Y014615D03*
D68*
X001919Y015485D03*
X003739Y015015D03*
D69*
X003729Y015020D03*
D70*
X003419Y015270D03*
X003409Y015260D03*
X003399Y015250D03*
X003389Y015240D03*
X003379Y015230D03*
X003369Y015220D03*
X003359Y015210D03*
X003349Y015200D03*
X003339Y015190D03*
X003309Y015150D03*
X003299Y015140D03*
X003289Y015130D03*
X003279Y015120D03*
X003269Y015110D03*
X003259Y015100D03*
X003249Y015090D03*
X003239Y015080D03*
X003229Y015070D03*
X003199Y015030D03*
X003189Y015020D03*
X003179Y015010D03*
X003169Y015000D03*
X003159Y014990D03*
X003149Y014980D03*
X003139Y014970D03*
X003129Y014960D03*
X003119Y014950D03*
X003089Y014910D03*
X003079Y014900D03*
X003069Y014890D03*
X003059Y014880D03*
X003049Y014870D03*
X003039Y014860D03*
X003029Y014850D03*
X003019Y014840D03*
X002979Y014790D03*
X002969Y014780D03*
X002959Y014770D03*
X002949Y014760D03*
X002939Y014750D03*
X002929Y014740D03*
X002919Y014730D03*
X002909Y014720D03*
X002899Y014710D03*
X003179Y014270D03*
X003209Y014260D03*
X003219Y014260D03*
X003229Y014260D03*
X003239Y014250D03*
X003249Y014250D03*
X003259Y014250D03*
X003269Y014250D03*
X003279Y014250D03*
X003289Y014250D03*
X003339Y014240D03*
X003349Y014240D03*
X003359Y014240D03*
X003389Y014250D03*
X003399Y014250D03*
X003409Y014250D03*
X003419Y014250D03*
X003429Y014250D03*
X003449Y014260D03*
X003459Y014260D03*
X003469Y014260D03*
X003489Y014270D03*
X003499Y014270D03*
X002819Y014020D03*
X002789Y014010D03*
X002779Y014010D03*
X002759Y014000D03*
X002749Y014000D03*
X002739Y014000D03*
X002729Y014000D03*
X002719Y014000D03*
X002709Y013990D03*
X002699Y013990D03*
X002689Y013990D03*
X002679Y013990D03*
X002669Y013990D03*
X002659Y013990D03*
X002649Y013990D03*
X002639Y013990D03*
X002629Y013990D03*
X002619Y013990D03*
X002609Y013990D03*
X002599Y013990D03*
X002589Y013990D03*
X002569Y014000D03*
X002559Y014000D03*
X002549Y014000D03*
X002539Y014000D03*
X002529Y014000D03*
X002519Y014010D03*
X002509Y014010D03*
X002499Y014010D03*
X002449Y014030D03*
X002049Y014580D03*
X002029Y014590D03*
X001609Y015080D03*
X002379Y015620D03*
X002509Y015780D03*
X002639Y015940D03*
X002729Y016050D03*
X002769Y016100D03*
X002859Y016210D03*
X002939Y016820D03*
X002949Y016820D03*
X002919Y016830D03*
X002909Y016830D03*
X002899Y016830D03*
X002889Y016830D03*
X002869Y016840D03*
X002859Y016840D03*
X002849Y016840D03*
X002839Y016840D03*
X002829Y016840D03*
X002819Y016840D03*
X002809Y016840D03*
X002799Y016840D03*
X002789Y016840D03*
X002779Y016840D03*
X002769Y016840D03*
X002759Y016840D03*
X002749Y016840D03*
X002739Y016840D03*
X002729Y016840D03*
X002719Y016830D03*
X002709Y016830D03*
X002699Y016830D03*
X002689Y016830D03*
X002679Y016820D03*
X002669Y016820D03*
X002659Y016820D03*
X002629Y016810D03*
X002219Y016370D03*
X002209Y016360D03*
X002199Y016360D03*
X002189Y016360D03*
X002179Y016360D03*
X002169Y016360D03*
X002159Y016360D03*
X002149Y016360D03*
X002139Y016350D03*
X002129Y016350D03*
X002119Y016350D03*
X002109Y016350D03*
X002089Y016340D03*
X002059Y016330D03*
X003279Y016720D03*
X003299Y016730D03*
X003309Y016730D03*
X003319Y016730D03*
X003339Y016740D03*
X003349Y016740D03*
X003359Y016740D03*
X003369Y016740D03*
X003389Y016750D03*
X003399Y016750D03*
X003409Y016750D03*
X003419Y016750D03*
X003429Y016750D03*
X003439Y016750D03*
X003449Y016750D03*
X003459Y016750D03*
X003469Y016750D03*
X003479Y016750D03*
X003489Y016750D03*
X003519Y016740D03*
X003529Y016740D03*
X003539Y016740D03*
X003549Y016740D03*
X003569Y016730D03*
X003579Y016730D03*
X003609Y016720D03*
X003589Y015460D03*
X003579Y015450D03*
X003569Y015440D03*
X003559Y015430D03*
X003529Y015390D03*
X003519Y015380D03*
X003509Y015370D03*
X003499Y015360D03*
X003489Y015350D03*
X003479Y015340D03*
X003469Y015330D03*
X003459Y015320D03*
X003449Y015310D03*
D71*
X003349Y015435D03*
X003359Y015445D03*
X003379Y015455D03*
X003389Y015465D03*
X003399Y015475D03*
X003409Y015475D03*
X003419Y015485D03*
X003429Y015495D03*
X003439Y015495D03*
X003449Y015505D03*
X003459Y015515D03*
X003479Y015525D03*
X003489Y015535D03*
X003509Y015545D03*
X003519Y015555D03*
X003529Y015565D03*
X003539Y015565D03*
X003549Y015575D03*
X003559Y015585D03*
X003569Y015585D03*
X003579Y015595D03*
X003589Y015605D03*
X003329Y015425D03*
X003319Y015415D03*
X003309Y015405D03*
X003299Y015405D03*
X003289Y015395D03*
X003279Y015385D03*
X003269Y015385D03*
X003259Y015375D03*
X003249Y015365D03*
X003239Y015365D03*
X003229Y015355D03*
X003219Y015345D03*
X003199Y015335D03*
X003189Y015325D03*
X003169Y015315D03*
X003159Y015305D03*
X003149Y015295D03*
X003139Y015295D03*
X003129Y015285D03*
X003119Y015275D03*
X003109Y015275D03*
X003099Y015265D03*
X003089Y015255D03*
X003069Y015245D03*
X003059Y015235D03*
X001909Y015485D03*
D72*
X001679Y015845D03*
X003029Y015345D03*
D73*
X003009Y015440D03*
D74*
X002979Y015570D03*
D75*
X002969Y015640D03*
X002959Y015730D03*
X002949Y015820D03*
X001789Y015740D03*
D76*
X002939Y015915D03*
D77*
X002919Y015995D03*
D78*
X002909Y016045D03*
D79*
X002899Y016080D03*
X001799Y015530D03*
D80*
X002889Y016125D03*
D81*
X001659Y015085D03*
X002829Y014805D03*
D82*
X002819Y014835D03*
D83*
X002789Y014965D03*
X002779Y015045D03*
X002769Y015115D03*
X002749Y015265D03*
D84*
X002139Y014420D03*
X001689Y015840D03*
D85*
X001829Y015505D03*
X001799Y014815D03*
X002089Y014475D03*
D86*
X001929Y015485D03*
X001649Y015845D03*
D87*
X001809Y015515D03*
D88*
X001809Y016105D03*
X001779Y014815D03*
D89*
X001779Y015725D03*
D90*
X001769Y015705D03*
D91*
X001739Y015840D03*
D92*
X001729Y015845D03*
D93*
X001719Y015845D03*
D94*
X001699Y015845D03*
D95*
X005499Y017850D02*
X005499Y018000D01*
X005549Y018050D01*
X005549Y019950D01*
X005499Y020000D01*
X005499Y020150D01*
X005501Y020167D01*
X005505Y020184D01*
X005512Y020200D01*
X005522Y020214D01*
X005535Y020227D01*
X005549Y020237D01*
X005565Y020244D01*
X005582Y020248D01*
X005599Y020250D01*
X006299Y020250D02*
X006316Y020248D01*
X006333Y020244D01*
X006349Y020237D01*
X006363Y020227D01*
X006376Y020214D01*
X006386Y020200D01*
X006393Y020184D01*
X006397Y020167D01*
X006399Y020150D01*
X006399Y020000D01*
X006349Y019950D01*
X006349Y018050D01*
X006399Y018000D01*
X006399Y017850D01*
X006397Y017833D01*
X006393Y017816D01*
X006386Y017800D01*
X006376Y017786D01*
X006363Y017773D01*
X006349Y017763D01*
X006333Y017756D01*
X006316Y017752D01*
X006299Y017750D01*
X005599Y017750D02*
X005582Y017752D01*
X005565Y017756D01*
X005549Y017763D01*
X005535Y017773D01*
X005522Y017786D01*
X005512Y017800D01*
X005505Y017816D01*
X005501Y017833D01*
X005499Y017850D01*
X006749Y018250D02*
X006751Y018323D01*
X006757Y018396D01*
X006767Y018468D01*
X006781Y018540D01*
X006798Y018611D01*
X006820Y018681D01*
X006845Y018750D01*
X006874Y018817D01*
X006906Y018882D01*
X006942Y018946D01*
X006982Y019008D01*
X007024Y019067D01*
X007070Y019124D01*
X007119Y019178D01*
X007171Y019230D01*
X007225Y019279D01*
X007282Y019325D01*
X007341Y019367D01*
X007403Y019407D01*
X007467Y019443D01*
X007532Y019475D01*
X007599Y019504D01*
X007668Y019529D01*
X007738Y019551D01*
X007809Y019568D01*
X007881Y019582D01*
X007953Y019592D01*
X008026Y019598D01*
X008099Y019600D01*
X008172Y019598D01*
X008245Y019592D01*
X008317Y019582D01*
X008389Y019568D01*
X008460Y019551D01*
X008530Y019529D01*
X008599Y019504D01*
X008666Y019475D01*
X008731Y019443D01*
X008795Y019407D01*
X008857Y019367D01*
X008916Y019325D01*
X008973Y019279D01*
X009027Y019230D01*
X009079Y019178D01*
X009128Y019124D01*
X009174Y019067D01*
X009216Y019008D01*
X009256Y018946D01*
X009292Y018882D01*
X009324Y018817D01*
X009353Y018750D01*
X009378Y018681D01*
X009400Y018611D01*
X009417Y018540D01*
X009431Y018468D01*
X009441Y018396D01*
X009447Y018323D01*
X009449Y018250D01*
X009447Y018177D01*
X009441Y018104D01*
X009431Y018032D01*
X009417Y017960D01*
X009400Y017889D01*
X009378Y017819D01*
X009353Y017750D01*
X009324Y017683D01*
X009292Y017618D01*
X009256Y017554D01*
X009216Y017492D01*
X009174Y017433D01*
X009128Y017376D01*
X009079Y017322D01*
X009027Y017270D01*
X008973Y017221D01*
X008916Y017175D01*
X008857Y017133D01*
X008795Y017093D01*
X008731Y017057D01*
X008666Y017025D01*
X008599Y016996D01*
X008530Y016971D01*
X008460Y016949D01*
X008389Y016932D01*
X008317Y016918D01*
X008245Y016908D01*
X008172Y016902D01*
X008099Y016900D01*
X008026Y016902D01*
X007953Y016908D01*
X007881Y016918D01*
X007809Y016932D01*
X007738Y016949D01*
X007668Y016971D01*
X007599Y016996D01*
X007532Y017025D01*
X007467Y017057D01*
X007403Y017093D01*
X007341Y017133D01*
X007282Y017175D01*
X007225Y017221D01*
X007171Y017270D01*
X007119Y017322D01*
X007070Y017376D01*
X007024Y017433D01*
X006982Y017492D01*
X006942Y017554D01*
X006906Y017618D01*
X006874Y017683D01*
X006845Y017750D01*
X006820Y017819D01*
X006798Y017889D01*
X006781Y017960D01*
X006767Y018032D01*
X006757Y018104D01*
X006751Y018177D01*
X006749Y018250D01*
X008299Y016700D02*
X008449Y016700D01*
X008499Y016650D01*
X010399Y016650D01*
X010449Y016700D01*
X010599Y016700D01*
X010616Y016698D01*
X010633Y016694D01*
X010649Y016687D01*
X010663Y016677D01*
X010676Y016664D01*
X010686Y016650D01*
X010693Y016634D01*
X010697Y016617D01*
X010699Y016600D01*
X010599Y017050D02*
X009799Y017050D01*
X009782Y017052D01*
X009765Y017056D01*
X009749Y017063D01*
X009735Y017073D01*
X009722Y017086D01*
X009712Y017100D01*
X009705Y017116D01*
X009701Y017133D01*
X009699Y017150D01*
X009699Y019850D01*
X009701Y019867D01*
X009705Y019884D01*
X009712Y019900D01*
X009722Y019914D01*
X009735Y019927D01*
X009749Y019937D01*
X009765Y019944D01*
X009782Y019948D01*
X009799Y019950D01*
X010599Y019950D01*
X010616Y019948D01*
X010633Y019944D01*
X010649Y019937D01*
X010663Y019927D01*
X010676Y019914D01*
X010686Y019900D01*
X010693Y019884D01*
X010697Y019867D01*
X010699Y019850D01*
X010699Y017150D01*
X010697Y017133D01*
X010693Y017116D01*
X010686Y017100D01*
X010676Y017086D01*
X010663Y017073D01*
X010649Y017063D01*
X010633Y017056D01*
X010616Y017052D01*
X010599Y017050D01*
X010849Y017150D02*
X010849Y019850D01*
X010851Y019867D01*
X010855Y019884D01*
X010862Y019900D01*
X010872Y019914D01*
X010885Y019927D01*
X010899Y019937D01*
X010915Y019944D01*
X010932Y019948D01*
X010949Y019950D01*
X011749Y019950D01*
X011766Y019948D01*
X011783Y019944D01*
X011799Y019937D01*
X011813Y019927D01*
X011826Y019914D01*
X011836Y019900D01*
X011843Y019884D01*
X011847Y019867D01*
X011849Y019850D01*
X011849Y017150D01*
X011847Y017133D01*
X011843Y017116D01*
X011836Y017100D01*
X011826Y017086D01*
X011813Y017073D01*
X011799Y017063D01*
X011783Y017056D01*
X011766Y017052D01*
X011749Y017050D01*
X010949Y017050D01*
X010932Y017052D01*
X010915Y017056D01*
X010899Y017063D01*
X010885Y017073D01*
X010872Y017086D01*
X010862Y017100D01*
X010855Y017116D01*
X010851Y017133D01*
X010849Y017150D01*
X011349Y017900D02*
X011349Y018380D01*
X011349Y018630D02*
X011349Y019100D01*
X010199Y019100D02*
X010199Y018630D01*
X010199Y018380D02*
X010199Y017900D01*
X009299Y018250D02*
X008999Y018250D01*
X009149Y018400D02*
X009149Y018100D01*
X008299Y016700D02*
X008282Y016698D01*
X008265Y016694D01*
X008249Y016687D01*
X008235Y016677D01*
X008222Y016664D01*
X008212Y016650D01*
X008205Y016634D01*
X008201Y016617D01*
X008199Y016600D01*
X008199Y015900D02*
X008201Y015883D01*
X008205Y015866D01*
X008212Y015850D01*
X008222Y015836D01*
X008235Y015823D01*
X008249Y015813D01*
X008265Y015806D01*
X008282Y015802D01*
X008299Y015800D01*
X008449Y015800D01*
X008499Y015850D01*
X010399Y015850D01*
X010449Y015800D01*
X010599Y015800D01*
X010616Y015802D01*
X010633Y015806D01*
X010649Y015813D01*
X010663Y015823D01*
X010676Y015836D01*
X010686Y015850D01*
X010693Y015866D01*
X010697Y015883D01*
X010699Y015900D01*
X012099Y015900D02*
X012101Y015883D01*
X012105Y015866D01*
X012112Y015850D01*
X012122Y015836D01*
X012135Y015823D01*
X012149Y015813D01*
X012165Y015806D01*
X012182Y015802D01*
X012199Y015800D01*
X012349Y015800D01*
X012399Y015850D01*
X014299Y015850D01*
X014349Y015800D01*
X014499Y015800D01*
X014516Y015802D01*
X014533Y015806D01*
X014549Y015813D01*
X014563Y015823D01*
X014576Y015836D01*
X014586Y015850D01*
X014593Y015866D01*
X014597Y015883D01*
X014599Y015900D01*
X014599Y016600D02*
X014597Y016617D01*
X014593Y016634D01*
X014586Y016650D01*
X014576Y016664D01*
X014563Y016677D01*
X014549Y016687D01*
X014533Y016694D01*
X014516Y016698D01*
X014499Y016700D01*
X014349Y016700D01*
X014299Y016650D01*
X012399Y016650D01*
X012349Y016700D01*
X012199Y016700D01*
X012182Y016698D01*
X012165Y016694D01*
X012149Y016687D01*
X012135Y016677D01*
X012122Y016664D01*
X012112Y016650D01*
X012105Y016634D01*
X012101Y016617D01*
X012099Y016600D01*
X011699Y014650D02*
X011699Y013900D01*
X011660Y013898D01*
X011621Y013892D01*
X011583Y013883D01*
X011546Y013870D01*
X011510Y013853D01*
X011477Y013833D01*
X011445Y013809D01*
X011416Y013783D01*
X011390Y013754D01*
X011366Y013722D01*
X011346Y013689D01*
X011329Y013653D01*
X011316Y013616D01*
X011307Y013578D01*
X011301Y013539D01*
X011299Y013500D01*
X011301Y013461D01*
X011307Y013422D01*
X011316Y013384D01*
X011329Y013347D01*
X011346Y013311D01*
X011366Y013278D01*
X011390Y013246D01*
X011416Y013217D01*
X011445Y013191D01*
X011477Y013167D01*
X011510Y013147D01*
X011546Y013130D01*
X011583Y013117D01*
X011621Y013108D01*
X011660Y013102D01*
X011699Y013100D01*
X011699Y012350D01*
X007699Y012350D01*
X007699Y014650D01*
X011699Y014650D01*
X012849Y012000D02*
X012851Y012073D01*
X012857Y012146D01*
X012867Y012218D01*
X012881Y012290D01*
X012898Y012361D01*
X012920Y012431D01*
X012945Y012500D01*
X012974Y012567D01*
X013006Y012632D01*
X013042Y012696D01*
X013082Y012758D01*
X013124Y012817D01*
X013170Y012874D01*
X013219Y012928D01*
X013271Y012980D01*
X013325Y013029D01*
X013382Y013075D01*
X013441Y013117D01*
X013503Y013157D01*
X013567Y013193D01*
X013632Y013225D01*
X013699Y013254D01*
X013768Y013279D01*
X013838Y013301D01*
X013909Y013318D01*
X013981Y013332D01*
X014053Y013342D01*
X014126Y013348D01*
X014199Y013350D01*
X014272Y013348D01*
X014345Y013342D01*
X014417Y013332D01*
X014489Y013318D01*
X014560Y013301D01*
X014630Y013279D01*
X014699Y013254D01*
X014766Y013225D01*
X014831Y013193D01*
X014895Y013157D01*
X014957Y013117D01*
X015016Y013075D01*
X015073Y013029D01*
X015127Y012980D01*
X015179Y012928D01*
X015228Y012874D01*
X015274Y012817D01*
X015316Y012758D01*
X015356Y012696D01*
X015392Y012632D01*
X015424Y012567D01*
X015453Y012500D01*
X015478Y012431D01*
X015500Y012361D01*
X015517Y012290D01*
X015531Y012218D01*
X015541Y012146D01*
X015547Y012073D01*
X015549Y012000D01*
X015547Y011927D01*
X015541Y011854D01*
X015531Y011782D01*
X015517Y011710D01*
X015500Y011639D01*
X015478Y011569D01*
X015453Y011500D01*
X015424Y011433D01*
X015392Y011368D01*
X015356Y011304D01*
X015316Y011242D01*
X015274Y011183D01*
X015228Y011126D01*
X015179Y011072D01*
X015127Y011020D01*
X015073Y010971D01*
X015016Y010925D01*
X014957Y010883D01*
X014895Y010843D01*
X014831Y010807D01*
X014766Y010775D01*
X014699Y010746D01*
X014630Y010721D01*
X014560Y010699D01*
X014489Y010682D01*
X014417Y010668D01*
X014345Y010658D01*
X014272Y010652D01*
X014199Y010650D01*
X014126Y010652D01*
X014053Y010658D01*
X013981Y010668D01*
X013909Y010682D01*
X013838Y010699D01*
X013768Y010721D01*
X013699Y010746D01*
X013632Y010775D01*
X013567Y010807D01*
X013503Y010843D01*
X013441Y010883D01*
X013382Y010925D01*
X013325Y010971D01*
X013271Y011020D01*
X013219Y011072D01*
X013170Y011126D01*
X013124Y011183D01*
X013082Y011242D01*
X013042Y011304D01*
X013006Y011368D01*
X012974Y011433D01*
X012945Y011500D01*
X012920Y011569D01*
X012898Y011639D01*
X012881Y011710D01*
X012867Y011782D01*
X012857Y011854D01*
X012851Y011927D01*
X012849Y012000D01*
X015099Y012000D02*
X015399Y012000D01*
X015249Y012150D02*
X015249Y011850D01*
X018485Y009130D02*
X017919Y008564D01*
X017908Y008550D01*
X017899Y008535D01*
X017893Y008519D01*
X017890Y008502D01*
X017890Y008484D01*
X017893Y008467D01*
X017899Y008451D01*
X017908Y008436D01*
X017919Y008422D01*
X019122Y007220D01*
X019121Y007220D02*
X019135Y007209D01*
X019150Y007200D01*
X019166Y007194D01*
X019183Y007191D01*
X019201Y007191D01*
X019218Y007194D01*
X019234Y007200D01*
X019249Y007209D01*
X019263Y007220D01*
X019829Y007786D01*
X019840Y007800D01*
X019849Y007815D01*
X019855Y007831D01*
X019858Y007848D01*
X019858Y007866D01*
X019855Y007883D01*
X019849Y007899D01*
X019840Y007914D01*
X019829Y007928D01*
X018627Y009130D01*
X018613Y009141D01*
X018598Y009150D01*
X018582Y009156D01*
X018565Y009159D01*
X018547Y009159D01*
X018530Y009156D01*
X018514Y009150D01*
X018499Y009141D01*
X018485Y009130D01*
X018768Y008281D02*
X018803Y008246D01*
X018945Y008104D02*
X018980Y008069D01*
X022972Y011820D02*
X021769Y013022D01*
X021758Y013036D01*
X021749Y013051D01*
X021743Y013067D01*
X021740Y013084D01*
X021740Y013102D01*
X021743Y013119D01*
X021749Y013135D01*
X021758Y013150D01*
X021769Y013164D01*
X022335Y013730D01*
X022349Y013741D01*
X022364Y013750D01*
X022380Y013756D01*
X022397Y013759D01*
X022415Y013759D01*
X022432Y013756D01*
X022448Y013750D01*
X022463Y013741D01*
X022477Y013730D01*
X023679Y012528D01*
X023690Y012514D01*
X023699Y012499D01*
X023705Y012483D01*
X023708Y012466D01*
X023708Y012448D01*
X023705Y012431D01*
X023699Y012415D01*
X023690Y012400D01*
X023679Y012386D01*
X023113Y011820D01*
X023099Y011809D01*
X023084Y011800D01*
X023068Y011794D01*
X023051Y011791D01*
X023033Y011791D01*
X023016Y011794D01*
X023000Y011800D01*
X022985Y011809D01*
X022971Y011820D01*
X022830Y012669D02*
X022795Y012704D01*
X022653Y012846D02*
X022618Y012881D01*
X022299Y014250D02*
X023099Y014250D01*
X023116Y014252D01*
X023133Y014256D01*
X023149Y014263D01*
X023163Y014273D01*
X023176Y014286D01*
X023186Y014300D01*
X023193Y014316D01*
X023197Y014333D01*
X023199Y014350D01*
X023199Y016050D01*
X023197Y016067D01*
X023193Y016084D01*
X023186Y016100D01*
X023176Y016114D01*
X023163Y016127D01*
X023149Y016137D01*
X023133Y016144D01*
X023116Y016148D01*
X023099Y016150D01*
X022299Y016150D01*
X022282Y016148D01*
X022265Y016144D01*
X022249Y016137D01*
X022235Y016127D01*
X022222Y016114D01*
X022212Y016100D01*
X022205Y016084D01*
X022201Y016067D01*
X022199Y016050D01*
X022199Y014350D01*
X022201Y014333D01*
X022205Y014316D01*
X022212Y014300D01*
X022222Y014286D01*
X022235Y014273D01*
X022249Y014263D01*
X022265Y014256D01*
X022282Y014252D01*
X022299Y014250D01*
X022699Y015050D02*
X022699Y015100D01*
X022699Y015300D02*
X022699Y015350D01*
X021599Y015050D02*
X021599Y017450D01*
X021597Y017500D01*
X021591Y017549D01*
X021582Y017598D01*
X021569Y017646D01*
X021552Y017693D01*
X021532Y017738D01*
X021508Y017782D01*
X021481Y017824D01*
X021450Y017864D01*
X021417Y017901D01*
X021381Y017935D01*
X021343Y017967D01*
X021302Y017996D01*
X021260Y018021D01*
X021215Y018043D01*
X021169Y018062D01*
X021121Y018077D01*
X021073Y018088D01*
X021024Y018096D01*
X020974Y018100D01*
X020924Y018100D01*
X020874Y018096D01*
X020825Y018088D01*
X020777Y018077D01*
X020729Y018062D01*
X020683Y018043D01*
X020638Y018021D01*
X020596Y017996D01*
X020555Y017967D01*
X020517Y017935D01*
X020481Y017901D01*
X020448Y017864D01*
X020417Y017824D01*
X020390Y017782D01*
X020366Y017738D01*
X020346Y017693D01*
X020329Y017646D01*
X020316Y017598D01*
X020307Y017549D01*
X020301Y017500D01*
X020299Y017450D01*
X020299Y015050D01*
X020301Y015000D01*
X020307Y014951D01*
X020316Y014902D01*
X020329Y014854D01*
X020346Y014807D01*
X020366Y014762D01*
X020390Y014718D01*
X020417Y014676D01*
X020448Y014636D01*
X020481Y014599D01*
X020517Y014565D01*
X020555Y014533D01*
X020596Y014504D01*
X020638Y014479D01*
X020683Y014457D01*
X020729Y014438D01*
X020777Y014423D01*
X020825Y014412D01*
X020874Y014404D01*
X020924Y014400D01*
X020974Y014400D01*
X021024Y014404D01*
X021073Y014412D01*
X021121Y014423D01*
X021169Y014438D01*
X021215Y014457D01*
X021260Y014479D01*
X021302Y014504D01*
X021343Y014533D01*
X021381Y014565D01*
X021417Y014599D01*
X021450Y014636D01*
X021481Y014676D01*
X021508Y014718D01*
X021532Y014762D01*
X021552Y014807D01*
X021569Y014854D01*
X021582Y014902D01*
X021591Y014951D01*
X021597Y015000D01*
X021599Y015050D01*
X020949Y015750D02*
X020949Y016000D01*
X020649Y016000D01*
X020649Y016150D02*
X020649Y016350D01*
X021249Y016350D01*
X021249Y016150D01*
X020649Y016150D01*
X020949Y016000D02*
X021249Y016000D01*
X021249Y016500D02*
X020949Y016500D01*
X020949Y016750D01*
X020949Y016500D02*
X020649Y016500D01*
X022199Y016450D02*
X022199Y018150D01*
X022201Y018167D01*
X022205Y018184D01*
X022212Y018200D01*
X022222Y018214D01*
X022235Y018227D01*
X022249Y018237D01*
X022265Y018244D01*
X022282Y018248D01*
X022299Y018250D01*
X023099Y018250D01*
X023116Y018248D01*
X023133Y018244D01*
X023149Y018237D01*
X023163Y018227D01*
X023176Y018214D01*
X023186Y018200D01*
X023193Y018184D01*
X023197Y018167D01*
X023199Y018150D01*
X023199Y016450D01*
X023197Y016433D01*
X023193Y016416D01*
X023186Y016400D01*
X023176Y016386D01*
X023163Y016373D01*
X023149Y016363D01*
X023133Y016356D01*
X023116Y016352D01*
X023099Y016350D01*
X022299Y016350D01*
X022282Y016352D01*
X022265Y016356D01*
X022249Y016363D01*
X022235Y016373D01*
X022222Y016386D01*
X022212Y016400D01*
X022205Y016416D01*
X022201Y016433D01*
X022199Y016450D01*
X022699Y017150D02*
X022699Y017200D01*
X022699Y017400D02*
X022699Y017450D01*
X007149Y015250D02*
X006849Y015250D01*
X006999Y015400D02*
X006999Y015100D01*
X004549Y015250D02*
X004551Y015325D01*
X004557Y015399D01*
X004567Y015473D01*
X004581Y015546D01*
X004598Y015618D01*
X004620Y015690D01*
X004645Y015760D01*
X004674Y015828D01*
X004707Y015896D01*
X004743Y015961D01*
X004782Y016024D01*
X004825Y016085D01*
X004871Y016144D01*
X004920Y016200D01*
X004972Y016253D01*
X005027Y016304D01*
X005084Y016351D01*
X005144Y016396D01*
X005206Y016437D01*
X005271Y016475D01*
X005337Y016509D01*
X005405Y016540D01*
X005474Y016567D01*
X005545Y016590D01*
X005617Y016610D01*
X005690Y016626D01*
X005763Y016638D01*
X005837Y016646D01*
X005912Y016650D01*
X005986Y016650D01*
X006061Y016646D01*
X006135Y016638D01*
X006208Y016626D01*
X006281Y016610D01*
X006353Y016590D01*
X006424Y016567D01*
X006493Y016540D01*
X006561Y016509D01*
X006627Y016475D01*
X006692Y016437D01*
X006754Y016396D01*
X006814Y016351D01*
X006871Y016304D01*
X006926Y016253D01*
X006978Y016200D01*
X007027Y016144D01*
X007073Y016085D01*
X007116Y016024D01*
X007155Y015961D01*
X007191Y015896D01*
X007224Y015828D01*
X007253Y015760D01*
X007278Y015690D01*
X007300Y015618D01*
X007317Y015546D01*
X007331Y015473D01*
X007341Y015399D01*
X007347Y015325D01*
X007349Y015250D01*
X007347Y015175D01*
X007341Y015101D01*
X007331Y015027D01*
X007317Y014954D01*
X007300Y014882D01*
X007278Y014810D01*
X007253Y014740D01*
X007224Y014672D01*
X007191Y014604D01*
X007155Y014539D01*
X007116Y014476D01*
X007073Y014415D01*
X007027Y014356D01*
X006978Y014300D01*
X006926Y014247D01*
X006871Y014196D01*
X006814Y014149D01*
X006754Y014104D01*
X006692Y014063D01*
X006627Y014025D01*
X006561Y013991D01*
X006493Y013960D01*
X006424Y013933D01*
X006353Y013910D01*
X006281Y013890D01*
X006208Y013874D01*
X006135Y013862D01*
X006061Y013854D01*
X005986Y013850D01*
X005912Y013850D01*
X005837Y013854D01*
X005763Y013862D01*
X005690Y013874D01*
X005617Y013890D01*
X005545Y013910D01*
X005474Y013933D01*
X005405Y013960D01*
X005337Y013991D01*
X005271Y014025D01*
X005206Y014063D01*
X005144Y014104D01*
X005084Y014149D01*
X005027Y014196D01*
X004972Y014247D01*
X004920Y014300D01*
X004871Y014356D01*
X004825Y014415D01*
X004782Y014476D01*
X004743Y014539D01*
X004707Y014604D01*
X004674Y014672D01*
X004645Y014740D01*
X004620Y014810D01*
X004598Y014882D01*
X004581Y014954D01*
X004567Y015027D01*
X004557Y015101D01*
X004551Y015175D01*
X004549Y015250D01*
X006299Y013450D02*
X007099Y013450D01*
X007116Y013448D01*
X007133Y013444D01*
X007149Y013437D01*
X007163Y013427D01*
X007176Y013414D01*
X007186Y013400D01*
X007193Y013384D01*
X007197Y013367D01*
X007199Y013350D01*
X007199Y010650D01*
X007197Y010633D01*
X007193Y010616D01*
X007186Y010600D01*
X007176Y010586D01*
X007163Y010573D01*
X007149Y010563D01*
X007133Y010556D01*
X007116Y010552D01*
X007099Y010550D01*
X006299Y010550D01*
X006282Y010552D01*
X006265Y010556D01*
X006249Y010563D01*
X006235Y010573D01*
X006222Y010586D01*
X006212Y010600D01*
X006205Y010616D01*
X006201Y010633D01*
X006199Y010650D01*
X006199Y013350D01*
X006201Y013367D01*
X006205Y013384D01*
X006212Y013400D01*
X006222Y013414D01*
X006235Y013427D01*
X006249Y013437D01*
X006265Y013444D01*
X006282Y013448D01*
X006299Y013450D01*
X006699Y012600D02*
X006699Y012120D01*
X006699Y011870D02*
X006699Y011400D01*
X006349Y009500D02*
X006332Y009498D01*
X006315Y009494D01*
X006299Y009487D01*
X006285Y009477D01*
X006272Y009464D01*
X006262Y009450D01*
X006255Y009434D01*
X006251Y009417D01*
X006249Y009400D01*
X006249Y009250D01*
X006299Y009200D01*
X006299Y007300D01*
X006249Y007250D01*
X006249Y007100D01*
X006251Y007083D01*
X006255Y007066D01*
X006262Y007050D01*
X006272Y007036D01*
X006285Y007023D01*
X006299Y007013D01*
X006315Y007006D01*
X006332Y007002D01*
X006349Y007000D01*
X007049Y007000D02*
X007066Y007002D01*
X007083Y007006D01*
X007099Y007013D01*
X007113Y007023D01*
X007126Y007036D01*
X007136Y007050D01*
X007143Y007066D01*
X007147Y007083D01*
X007149Y007100D01*
X007149Y007250D01*
X007099Y007300D01*
X007099Y009200D01*
X007149Y009250D01*
X007149Y009400D01*
X007147Y009417D01*
X007143Y009434D01*
X007136Y009450D01*
X007126Y009464D01*
X007113Y009477D01*
X007099Y009487D01*
X007083Y009494D01*
X007066Y009498D01*
X007049Y009500D01*
X005549Y006150D02*
X005549Y005850D01*
X005399Y006000D02*
X005699Y006000D01*
X003099Y006000D02*
X003101Y006075D01*
X003107Y006149D01*
X003117Y006223D01*
X003131Y006296D01*
X003148Y006368D01*
X003170Y006440D01*
X003195Y006510D01*
X003224Y006578D01*
X003257Y006646D01*
X003293Y006711D01*
X003332Y006774D01*
X003375Y006835D01*
X003421Y006894D01*
X003470Y006950D01*
X003522Y007003D01*
X003577Y007054D01*
X003634Y007101D01*
X003694Y007146D01*
X003756Y007187D01*
X003821Y007225D01*
X003887Y007259D01*
X003955Y007290D01*
X004024Y007317D01*
X004095Y007340D01*
X004167Y007360D01*
X004240Y007376D01*
X004313Y007388D01*
X004387Y007396D01*
X004462Y007400D01*
X004536Y007400D01*
X004611Y007396D01*
X004685Y007388D01*
X004758Y007376D01*
X004831Y007360D01*
X004903Y007340D01*
X004974Y007317D01*
X005043Y007290D01*
X005111Y007259D01*
X005177Y007225D01*
X005242Y007187D01*
X005304Y007146D01*
X005364Y007101D01*
X005421Y007054D01*
X005476Y007003D01*
X005528Y006950D01*
X005577Y006894D01*
X005623Y006835D01*
X005666Y006774D01*
X005705Y006711D01*
X005741Y006646D01*
X005774Y006578D01*
X005803Y006510D01*
X005828Y006440D01*
X005850Y006368D01*
X005867Y006296D01*
X005881Y006223D01*
X005891Y006149D01*
X005897Y006075D01*
X005899Y006000D01*
X005897Y005925D01*
X005891Y005851D01*
X005881Y005777D01*
X005867Y005704D01*
X005850Y005632D01*
X005828Y005560D01*
X005803Y005490D01*
X005774Y005422D01*
X005741Y005354D01*
X005705Y005289D01*
X005666Y005226D01*
X005623Y005165D01*
X005577Y005106D01*
X005528Y005050D01*
X005476Y004997D01*
X005421Y004946D01*
X005364Y004899D01*
X005304Y004854D01*
X005242Y004813D01*
X005177Y004775D01*
X005111Y004741D01*
X005043Y004710D01*
X004974Y004683D01*
X004903Y004660D01*
X004831Y004640D01*
X004758Y004624D01*
X004685Y004612D01*
X004611Y004604D01*
X004536Y004600D01*
X004462Y004600D01*
X004387Y004604D01*
X004313Y004612D01*
X004240Y004624D01*
X004167Y004640D01*
X004095Y004660D01*
X004024Y004683D01*
X003955Y004710D01*
X003887Y004741D01*
X003821Y004775D01*
X003756Y004813D01*
X003694Y004854D01*
X003634Y004899D01*
X003577Y004946D01*
X003522Y004997D01*
X003470Y005050D01*
X003421Y005106D01*
X003375Y005165D01*
X003332Y005226D01*
X003293Y005289D01*
X003257Y005354D01*
X003224Y005422D01*
X003195Y005490D01*
X003170Y005560D01*
X003148Y005632D01*
X003131Y005704D01*
X003117Y005777D01*
X003107Y005851D01*
X003101Y005925D01*
X003099Y006000D01*
X005549Y003450D02*
X005699Y003450D01*
X005749Y003400D01*
X007649Y003400D01*
X007699Y003450D01*
X007849Y003450D01*
X007866Y003448D01*
X007883Y003444D01*
X007899Y003437D01*
X007913Y003427D01*
X007926Y003414D01*
X007936Y003400D01*
X007943Y003384D01*
X007947Y003367D01*
X007949Y003350D01*
X007949Y002650D02*
X007947Y002633D01*
X007943Y002616D01*
X007936Y002600D01*
X007926Y002586D01*
X007913Y002573D01*
X007899Y002563D01*
X007883Y002556D01*
X007866Y002552D01*
X007849Y002550D01*
X007699Y002550D01*
X007649Y002600D01*
X005749Y002600D01*
X005699Y002550D01*
X005549Y002550D01*
X005532Y002552D01*
X005515Y002556D01*
X005499Y002563D01*
X005485Y002573D01*
X005472Y002586D01*
X005462Y002600D01*
X005455Y002616D01*
X005451Y002633D01*
X005449Y002650D01*
X005449Y003350D02*
X005451Y003367D01*
X005455Y003384D01*
X005462Y003400D01*
X005472Y003414D01*
X005485Y003427D01*
X005499Y003437D01*
X005515Y003444D01*
X005532Y003448D01*
X005549Y003450D01*
X004261Y001151D02*
X004290Y001114D01*
X004322Y001079D01*
X004357Y001046D01*
X004394Y001016D01*
X004433Y000990D01*
X004474Y000967D01*
X004518Y000946D01*
X004562Y000930D01*
X004608Y000917D01*
X004654Y000908D01*
X004702Y000902D01*
X004749Y000900D01*
X005223Y001868D02*
X005193Y001903D01*
X005162Y001936D01*
X005127Y001966D01*
X005091Y001993D01*
X005053Y002017D01*
X005013Y002039D01*
X004971Y002057D01*
X004928Y002073D01*
X004884Y002085D01*
X004840Y002093D01*
X004794Y002098D01*
X004749Y002100D01*
X005229Y001140D02*
X005200Y001104D01*
X005168Y001070D01*
X005133Y001039D01*
X005097Y001011D01*
X005058Y000986D01*
X005017Y000963D01*
X004975Y000944D01*
X004932Y000928D01*
X004887Y000916D01*
X004841Y000907D01*
X004795Y000902D01*
X004749Y000900D01*
X004275Y001868D02*
X004305Y001903D01*
X004336Y001936D01*
X004371Y001966D01*
X004407Y001993D01*
X004445Y002017D01*
X004485Y002039D01*
X004527Y002057D01*
X004570Y002073D01*
X004614Y002085D01*
X004658Y002093D01*
X004704Y002098D01*
X004749Y002100D01*
X009549Y002550D02*
X009699Y002550D01*
X009749Y002600D01*
X011649Y002600D01*
X011699Y002550D01*
X011849Y002550D01*
X011866Y002552D01*
X011883Y002556D01*
X011899Y002563D01*
X011913Y002573D01*
X011926Y002586D01*
X011936Y002600D01*
X011943Y002616D01*
X011947Y002633D01*
X011949Y002650D01*
X011949Y003350D02*
X011947Y003367D01*
X011943Y003384D01*
X011936Y003400D01*
X011926Y003414D01*
X011913Y003427D01*
X011899Y003437D01*
X011883Y003444D01*
X011866Y003448D01*
X011849Y003450D01*
X011699Y003450D01*
X011649Y003400D01*
X009749Y003400D01*
X009699Y003450D01*
X009549Y003450D01*
X009532Y003448D01*
X009515Y003444D01*
X009499Y003437D01*
X009485Y003427D01*
X009472Y003414D01*
X009462Y003400D01*
X009455Y003384D01*
X009451Y003367D01*
X009449Y003350D01*
X009449Y002650D02*
X009451Y002633D01*
X009455Y002616D01*
X009462Y002600D01*
X009472Y002586D01*
X009485Y002573D01*
X009499Y002563D01*
X009515Y002556D01*
X009532Y002552D01*
X009549Y002550D01*
X013549Y002550D02*
X013699Y002550D01*
X013749Y002600D01*
X015649Y002600D01*
X015699Y002550D01*
X015849Y002550D01*
X015866Y002552D01*
X015883Y002556D01*
X015899Y002563D01*
X015913Y002573D01*
X015926Y002586D01*
X015936Y002600D01*
X015943Y002616D01*
X015947Y002633D01*
X015949Y002650D01*
X015949Y003350D02*
X015947Y003367D01*
X015943Y003384D01*
X015936Y003400D01*
X015926Y003414D01*
X015913Y003427D01*
X015899Y003437D01*
X015883Y003444D01*
X015866Y003448D01*
X015849Y003450D01*
X015699Y003450D01*
X015649Y003400D01*
X013749Y003400D01*
X013699Y003450D01*
X013549Y003450D01*
X013532Y003448D01*
X013515Y003444D01*
X013499Y003437D01*
X013485Y003427D01*
X013472Y003414D01*
X013462Y003400D01*
X013455Y003384D01*
X013451Y003367D01*
X013449Y003350D01*
X013449Y002650D02*
X013451Y002633D01*
X013455Y002616D01*
X013462Y002600D01*
X013472Y002586D01*
X013485Y002573D01*
X013499Y002563D01*
X013515Y002556D01*
X013532Y002552D01*
X013549Y002550D01*
D96*
X014324Y002825D02*
X014324Y003275D01*
X014549Y003275D01*
X014624Y003200D01*
X014624Y003050D01*
X014549Y002975D01*
X014324Y002975D01*
X014474Y002975D02*
X014624Y002825D01*
X014784Y002900D02*
X014784Y002975D01*
X014860Y003050D01*
X015010Y003050D01*
X015085Y002975D01*
X015085Y002900D01*
X015010Y002825D01*
X014860Y002825D01*
X014784Y002900D01*
X014860Y003050D02*
X014784Y003125D01*
X014784Y003200D01*
X014860Y003275D01*
X015010Y003275D01*
X015085Y003200D01*
X015085Y003125D01*
X015010Y003050D01*
X011085Y002925D02*
X011010Y003000D01*
X010784Y003000D01*
X010784Y002850D01*
X010860Y002775D01*
X011010Y002775D01*
X011085Y002850D01*
X011085Y002925D01*
X010935Y003150D02*
X010784Y003000D01*
X010624Y003000D02*
X010624Y003150D01*
X010549Y003225D01*
X010324Y003225D01*
X010324Y002775D01*
X010324Y002925D02*
X010549Y002925D01*
X010624Y003000D01*
X010474Y002925D02*
X010624Y002775D01*
X010935Y003150D02*
X011085Y003225D01*
X007085Y003225D02*
X007085Y003150D01*
X006784Y002850D01*
X006784Y002775D01*
X006624Y002775D02*
X006474Y002925D01*
X006549Y002925D02*
X006324Y002925D01*
X006324Y002775D02*
X006324Y003225D01*
X006549Y003225D01*
X006624Y003150D01*
X006624Y003000D01*
X006549Y002925D01*
X006784Y003225D02*
X007085Y003225D01*
X004914Y005200D02*
X004614Y004900D01*
X004614Y004825D01*
X004454Y004900D02*
X004378Y004825D01*
X004228Y004825D01*
X004153Y004900D01*
X004153Y005200D01*
X004228Y005275D01*
X004378Y005275D01*
X004454Y005200D01*
X004614Y005275D02*
X004914Y005275D01*
X004914Y005200D01*
X004164Y006575D02*
X004164Y007025D01*
X004014Y007025D02*
X004314Y007025D01*
X003854Y007025D02*
X003553Y007025D01*
X003703Y007025D02*
X003703Y006575D01*
X006474Y007954D02*
X006474Y008179D01*
X006549Y008254D01*
X006699Y008254D01*
X006774Y008179D01*
X006774Y007954D01*
X006924Y007954D02*
X006474Y007954D01*
X006774Y008104D02*
X006924Y008254D01*
X006849Y008415D02*
X006924Y008490D01*
X006924Y008640D01*
X006849Y008715D01*
X006699Y008715D01*
X006624Y008640D01*
X006624Y008565D01*
X006699Y008415D01*
X006474Y008415D01*
X006474Y008715D01*
X007349Y010775D02*
X007649Y010775D01*
X007724Y010850D01*
X007724Y011000D01*
X007649Y011075D01*
X007649Y011235D02*
X007724Y011310D01*
X007724Y011461D01*
X007649Y011536D01*
X007499Y011536D01*
X007424Y011461D01*
X007424Y011386D01*
X007499Y011235D01*
X007274Y011235D01*
X007274Y011536D01*
X007349Y011075D02*
X007274Y011000D01*
X007274Y010850D01*
X007349Y010775D01*
X010724Y012975D02*
X010724Y013125D01*
X010724Y013050D02*
X011174Y013050D01*
X011174Y012975D02*
X011174Y013125D01*
X011099Y013282D02*
X010799Y013282D01*
X010724Y013357D01*
X010724Y013507D01*
X010799Y013582D01*
X010874Y013742D02*
X010724Y013892D01*
X011174Y013892D01*
X011174Y013742D02*
X011174Y014043D01*
X011099Y013582D02*
X011174Y013507D01*
X011174Y013357D01*
X011099Y013282D01*
X013853Y011250D02*
X013853Y010950D01*
X013928Y010875D01*
X014078Y010875D01*
X014154Y010950D01*
X014314Y011100D02*
X014614Y011100D01*
X014539Y010875D02*
X014539Y011325D01*
X014314Y011100D01*
X014154Y011250D02*
X014078Y011325D01*
X013928Y011325D01*
X013853Y011250D01*
X018000Y007539D02*
X018213Y007751D01*
X018319Y007751D01*
X018425Y007645D01*
X018425Y007539D01*
X018538Y007426D02*
X018485Y007372D01*
X018485Y007266D01*
X018644Y007107D01*
X018538Y007001D02*
X018751Y007213D01*
X018751Y007319D01*
X018644Y007426D01*
X018538Y007426D01*
X018326Y007213D02*
X018326Y007107D01*
X018432Y007001D01*
X018538Y007001D01*
X018213Y007326D02*
X018107Y007326D01*
X018000Y007433D01*
X018000Y007539D01*
X023456Y012930D02*
X023350Y013036D01*
X023350Y013142D01*
X023403Y013195D01*
X023509Y013195D01*
X023616Y013089D01*
X023616Y012983D01*
X023562Y012930D01*
X023456Y012930D01*
X023616Y013089D02*
X023722Y013089D01*
X023775Y013142D01*
X023775Y013248D01*
X023669Y013354D01*
X023562Y013354D01*
X023509Y013301D01*
X023509Y013195D01*
X023237Y013255D02*
X023131Y013255D01*
X023025Y013361D01*
X023025Y013467D01*
X023237Y013680D01*
X023343Y013680D01*
X023449Y013574D01*
X023449Y013467D01*
X023449Y014544D02*
X023749Y014544D01*
X023824Y014619D01*
X023824Y014769D01*
X023749Y014844D01*
X023824Y015004D02*
X023824Y015304D01*
X023824Y015154D02*
X023374Y015154D01*
X023524Y015004D01*
X023449Y014844D02*
X023374Y014769D01*
X023374Y014619D01*
X023449Y014544D01*
X023449Y015465D02*
X023374Y015540D01*
X023374Y015690D01*
X023449Y015765D01*
X023749Y015465D01*
X023824Y015540D01*
X023824Y015690D01*
X023749Y015765D01*
X023449Y015765D01*
X023449Y015465D02*
X023749Y015465D01*
X023749Y016694D02*
X023449Y016694D01*
X023374Y016769D01*
X023374Y016919D01*
X023449Y016994D01*
X023524Y017154D02*
X023374Y017304D01*
X023824Y017304D01*
X023824Y017154D02*
X023824Y017454D01*
X023824Y017615D02*
X023824Y017915D01*
X023824Y017765D02*
X023374Y017765D01*
X023524Y017615D01*
X023749Y016994D02*
X023824Y016919D01*
X023824Y016769D01*
X023749Y016694D01*
X019824Y016715D02*
X019824Y016415D01*
X019824Y016565D02*
X019374Y016565D01*
X019524Y016415D01*
X019449Y016254D02*
X019749Y016254D01*
X019824Y016179D01*
X019824Y016029D01*
X019749Y015954D01*
X019449Y015954D01*
X019374Y016029D01*
X019374Y016179D01*
X019449Y016254D01*
X019674Y016104D02*
X019824Y016254D01*
X013714Y016025D02*
X013414Y016025D01*
X013564Y016025D02*
X013564Y016475D01*
X013414Y016325D01*
X013254Y016250D02*
X013178Y016175D01*
X012953Y016175D01*
X012953Y016025D02*
X012953Y016475D01*
X013178Y016475D01*
X013254Y016400D01*
X013254Y016250D01*
X013103Y016175D02*
X013254Y016025D01*
X012735Y017075D02*
X012434Y017075D01*
X012585Y017075D02*
X012585Y017525D01*
X012434Y017375D01*
X012274Y017450D02*
X012199Y017525D01*
X012049Y017525D01*
X011974Y017450D01*
X011974Y017150D01*
X012049Y017075D01*
X012199Y017075D01*
X012274Y017150D01*
X009814Y016350D02*
X009739Y016425D01*
X009589Y016425D01*
X009514Y016350D01*
X009354Y016350D02*
X009354Y016200D01*
X009278Y016125D01*
X009053Y016125D01*
X009053Y015975D02*
X009053Y016425D01*
X009278Y016425D01*
X009354Y016350D01*
X009203Y016125D02*
X009354Y015975D01*
X009514Y015975D02*
X009814Y016275D01*
X009814Y016350D01*
X009814Y015975D02*
X009514Y015975D01*
X008439Y017125D02*
X008289Y017125D01*
X008214Y017200D01*
X008054Y017200D02*
X007978Y017125D01*
X007828Y017125D01*
X007753Y017200D01*
X007753Y017500D01*
X007828Y017575D01*
X007978Y017575D01*
X008054Y017500D01*
X008214Y017500D02*
X008289Y017575D01*
X008439Y017575D01*
X008514Y017500D01*
X008514Y017425D01*
X008439Y017350D01*
X008514Y017275D01*
X008514Y017200D01*
X008439Y017125D01*
X008439Y017350D02*
X008364Y017350D01*
X006124Y018525D02*
X005674Y018525D01*
X005674Y018750D01*
X005749Y018825D01*
X005899Y018825D01*
X005974Y018750D01*
X005974Y018525D01*
X005974Y018675D02*
X006124Y018825D01*
X006049Y018985D02*
X006124Y019060D01*
X006124Y019211D01*
X006049Y019286D01*
X005974Y019286D01*
X005899Y019211D01*
X005899Y019136D01*
X005899Y019211D02*
X005824Y019286D01*
X005749Y019286D01*
X005674Y019211D01*
X005674Y019060D01*
X005749Y018985D01*
X005099Y018000D02*
X005099Y021000D01*
X003949Y021000D01*
X002949Y020000D02*
X002949Y019000D01*
X003949Y018000D02*
X003874Y017953D01*
X003797Y017909D01*
X003718Y017869D01*
X003637Y017834D01*
X003555Y017802D01*
X003471Y017774D01*
X003386Y017751D01*
X003299Y017731D01*
X003212Y017716D01*
X003124Y017706D01*
X003036Y017699D01*
X002948Y017697D01*
X002859Y017699D01*
X002771Y017706D01*
X002683Y017717D01*
X002596Y017732D01*
X002510Y017751D01*
X002425Y017775D01*
X002341Y017803D01*
X002258Y017835D01*
X002177Y017871D01*
X002098Y017910D01*
X002021Y017954D01*
X001947Y018001D01*
X001874Y018052D01*
X001805Y018107D01*
X001738Y018165D01*
X001674Y018226D01*
X001613Y018290D01*
X001555Y018357D01*
X001500Y018426D01*
X001450Y018499D01*
X001402Y018573D01*
X001359Y018650D01*
X001319Y018729D01*
X001283Y018810D01*
X001251Y018893D01*
X001224Y018977D01*
X001200Y019062D01*
X001181Y019148D01*
X001165Y019236D01*
X001155Y019323D01*
X001148Y019412D01*
X001146Y019500D01*
X001148Y019588D01*
X001155Y019677D01*
X001165Y019764D01*
X001181Y019852D01*
X001200Y019938D01*
X001224Y020023D01*
X001251Y020107D01*
X001283Y020190D01*
X001319Y020271D01*
X001359Y020350D01*
X001402Y020427D01*
X001450Y020501D01*
X001500Y020574D01*
X001555Y020643D01*
X001613Y020710D01*
X001674Y020774D01*
X001738Y020835D01*
X001805Y020893D01*
X001874Y020948D01*
X001947Y020999D01*
X002021Y021046D01*
X002098Y021090D01*
X002177Y021129D01*
X002258Y021165D01*
X002341Y021197D01*
X002425Y021225D01*
X002510Y021249D01*
X002596Y021268D01*
X002683Y021283D01*
X002771Y021294D01*
X002859Y021301D01*
X002948Y021303D01*
X003036Y021301D01*
X003124Y021294D01*
X003212Y021284D01*
X003299Y021269D01*
X003386Y021249D01*
X003471Y021226D01*
X003555Y021198D01*
X003637Y021166D01*
X003718Y021131D01*
X003797Y021091D01*
X003874Y021047D01*
X003949Y021000D01*
X003449Y019500D02*
X002449Y019500D01*
X002451Y019544D01*
X002457Y019588D01*
X002467Y019631D01*
X002480Y019673D01*
X002497Y019714D01*
X002518Y019753D01*
X002542Y019790D01*
X002569Y019825D01*
X002599Y019857D01*
X002632Y019887D01*
X002668Y019913D01*
X002705Y019937D01*
X002745Y019956D01*
X002786Y019973D01*
X002829Y019985D01*
X002872Y019994D01*
X002916Y019999D01*
X002960Y020000D01*
X003004Y019997D01*
X003048Y019990D01*
X003091Y019979D01*
X003133Y019965D01*
X003173Y019947D01*
X003212Y019925D01*
X003248Y019901D01*
X003282Y019873D01*
X003314Y019842D01*
X003343Y019808D01*
X003369Y019772D01*
X003391Y019734D01*
X003410Y019694D01*
X003425Y019652D01*
X003437Y019610D01*
X003445Y019566D01*
X003449Y019522D01*
X003449Y019478D01*
X003445Y019434D01*
X003437Y019390D01*
X003425Y019348D01*
X003410Y019306D01*
X003391Y019266D01*
X003369Y019228D01*
X003343Y019192D01*
X003314Y019158D01*
X003282Y019127D01*
X003248Y019099D01*
X003212Y019075D01*
X003173Y019053D01*
X003133Y019035D01*
X003091Y019021D01*
X003048Y019010D01*
X003004Y019003D01*
X002960Y019000D01*
X002916Y019001D01*
X002872Y019006D01*
X002829Y019015D01*
X002786Y019027D01*
X002745Y019044D01*
X002705Y019063D01*
X002668Y019087D01*
X002632Y019113D01*
X002599Y019143D01*
X002569Y019175D01*
X002542Y019210D01*
X002518Y019247D01*
X002497Y019286D01*
X002480Y019327D01*
X002467Y019369D01*
X002457Y019412D01*
X002451Y019456D01*
X002449Y019500D01*
X003949Y018000D02*
X005099Y018000D01*
X005153Y016275D02*
X005153Y015825D01*
X005614Y015825D02*
X005614Y016275D01*
X005464Y016275D02*
X005764Y016275D01*
X005304Y016275D02*
X005003Y016275D01*
X005678Y014525D02*
X005603Y014450D01*
X005603Y014150D01*
X005678Y014075D01*
X005828Y014075D01*
X005904Y014150D01*
X006064Y014150D02*
X006139Y014075D01*
X006289Y014075D01*
X006364Y014150D01*
X006364Y014225D01*
X006289Y014300D01*
X006064Y014300D01*
X006064Y014150D01*
X006064Y014300D02*
X006214Y014450D01*
X006364Y014525D01*
X005904Y014450D02*
X005828Y014525D01*
X005678Y014525D01*
X008878Y019525D02*
X009028Y019525D01*
X009104Y019600D01*
X009264Y019525D02*
X009564Y019825D01*
X009564Y019900D01*
X009489Y019975D01*
X009339Y019975D01*
X009264Y019900D01*
X009104Y019900D02*
X009028Y019975D01*
X008878Y019975D01*
X008803Y019900D01*
X008803Y019600D01*
X008878Y019525D01*
X009264Y019525D02*
X009564Y019525D01*
X026069Y005857D02*
X026069Y005751D01*
X026069Y005857D02*
X026175Y005963D01*
X026281Y005963D01*
X026334Y005910D01*
X026334Y005485D01*
X026547Y005698D01*
X026168Y005425D02*
X026168Y005319D01*
X026062Y005213D01*
X025956Y005213D01*
X025743Y005425D01*
X025743Y005531D01*
X025849Y005637D01*
X025956Y005637D01*
X025579Y005367D02*
X025473Y005261D01*
X025526Y005314D02*
X025845Y004996D01*
X025792Y004943D02*
X025898Y005049D01*
D97*
X011599Y018380D02*
X011349Y018380D01*
X011099Y018380D01*
X011099Y018630D02*
X011349Y018630D01*
X011599Y018630D01*
X010449Y018630D02*
X010199Y018630D01*
X009949Y018630D01*
X009949Y018380D02*
X010199Y018380D01*
X010449Y018380D01*
X006949Y012120D02*
X006699Y012120D01*
X006449Y012120D01*
X006449Y011870D02*
X006699Y011870D01*
X006949Y011870D01*
D98*
X018591Y008034D02*
X018803Y008246D01*
X019015Y008458D01*
X019157Y008316D02*
X018945Y008104D01*
X018733Y007892D01*
X022583Y012492D02*
X022795Y012704D01*
X023007Y012916D01*
X022865Y013058D02*
X022653Y012846D01*
X022441Y012634D01*
X022399Y015100D02*
X022699Y015100D01*
X022999Y015100D01*
X022999Y015300D02*
X022699Y015300D01*
X022399Y015300D01*
X022399Y017200D02*
X022699Y017200D01*
X022999Y017200D01*
X022999Y017400D02*
X022699Y017400D01*
X022399Y017400D01*
X005444Y001897D02*
X005414Y001945D01*
X005381Y001990D01*
X005345Y002033D01*
X005307Y002074D01*
X005265Y002111D01*
X005221Y002146D01*
X005175Y002177D01*
X005126Y002206D01*
X005076Y002230D01*
X005024Y002251D01*
X004970Y002269D01*
X004916Y002282D01*
X004861Y002292D01*
X004805Y002298D01*
X004749Y002300D01*
X005455Y001124D02*
X005428Y001077D01*
X005398Y001032D01*
X005365Y000989D01*
X005329Y000949D01*
X005290Y000911D01*
X005249Y000876D01*
X005206Y000843D01*
X005161Y000814D01*
X005113Y000788D01*
X005064Y000765D01*
X005014Y000745D01*
X004963Y000729D01*
X004910Y000716D01*
X004857Y000707D01*
X004803Y000702D01*
X004749Y000700D01*
X004138Y002017D02*
X004174Y002056D01*
X004213Y002094D01*
X004253Y002128D01*
X004296Y002160D01*
X004341Y002188D01*
X004388Y002214D01*
X004437Y002237D01*
X004487Y002256D01*
X004538Y002272D01*
X004590Y002284D01*
X004642Y002293D01*
X004696Y002298D01*
X004749Y002300D01*
X004134Y000988D02*
X004170Y000948D01*
X004209Y000910D01*
X004250Y000875D01*
X004293Y000843D01*
X004338Y000813D01*
X004385Y000787D01*
X004434Y000765D01*
X004485Y000745D01*
X004536Y000729D01*
X004588Y000716D01*
X004642Y000707D01*
X004695Y000702D01*
X004749Y000700D01*
D99*
X020099Y015050D02*
X020099Y017450D01*
X020101Y017507D01*
X020107Y017563D01*
X020116Y017619D01*
X020129Y017675D01*
X020146Y017729D01*
X020166Y017782D01*
X020190Y017833D01*
X020218Y017883D01*
X020248Y017931D01*
X020282Y017977D01*
X020319Y018020D01*
X020358Y018061D01*
X020400Y018099D01*
X020445Y018134D01*
X020492Y018166D01*
X020541Y018195D01*
X020591Y018221D01*
X020644Y018243D01*
X020697Y018262D01*
X020752Y018277D01*
X020808Y018288D01*
X020864Y018296D01*
X020921Y018300D01*
X020977Y018300D01*
X021034Y018296D01*
X021090Y018288D01*
X021146Y018277D01*
X021201Y018262D01*
X021254Y018243D01*
X021307Y018221D01*
X021357Y018195D01*
X021406Y018166D01*
X021453Y018134D01*
X021498Y018099D01*
X021540Y018061D01*
X021579Y018020D01*
X021616Y017977D01*
X021650Y017931D01*
X021680Y017883D01*
X021708Y017833D01*
X021732Y017782D01*
X021752Y017729D01*
X021769Y017675D01*
X021782Y017619D01*
X021791Y017563D01*
X021797Y017507D01*
X021799Y017450D01*
X021799Y015050D01*
X021797Y014993D01*
X021791Y014937D01*
X021782Y014881D01*
X021769Y014825D01*
X021752Y014771D01*
X021732Y014718D01*
X021708Y014667D01*
X021680Y014617D01*
X021650Y014569D01*
X021616Y014523D01*
X021579Y014480D01*
X021540Y014439D01*
X021498Y014401D01*
X021453Y014366D01*
X021406Y014334D01*
X021357Y014305D01*
X021307Y014279D01*
X021254Y014257D01*
X021201Y014238D01*
X021146Y014223D01*
X021090Y014212D01*
X021034Y014204D01*
X020977Y014200D01*
X020921Y014200D01*
X020864Y014204D01*
X020808Y014212D01*
X020752Y014223D01*
X020697Y014238D01*
X020644Y014257D01*
X020591Y014279D01*
X020541Y014305D01*
X020492Y014334D01*
X020445Y014366D01*
X020400Y014401D01*
X020358Y014439D01*
X020319Y014480D01*
X020282Y014523D01*
X020248Y014569D01*
X020218Y014617D01*
X020190Y014667D01*
X020166Y014718D01*
X020146Y014771D01*
X020129Y014825D01*
X020116Y014881D01*
X020107Y014937D01*
X020101Y014993D01*
X020099Y015050D01*
D100*
X020829Y006477D02*
X020797Y006159D01*
X020690Y006125D01*
X020590Y006074D01*
X020343Y006276D01*
X020173Y006106D01*
X020375Y005859D01*
X020324Y005759D01*
X020290Y005652D01*
X019972Y005620D01*
X019972Y005380D01*
X020290Y005348D01*
X020324Y005241D01*
X020375Y005141D01*
X020173Y004894D01*
X020343Y004724D01*
X020590Y004926D01*
X020690Y004875D01*
X020831Y005216D01*
X020778Y005244D01*
X020732Y005282D01*
X020693Y005329D01*
X020665Y005382D01*
X020647Y005440D01*
X020641Y005500D01*
X020648Y005563D01*
X020667Y005623D01*
X020698Y005678D01*
X020740Y005725D01*
X020790Y005763D01*
X020847Y005790D01*
X020909Y005805D01*
X020972Y005807D01*
X021034Y005796D01*
X021093Y005772D01*
X021145Y005737D01*
X021190Y005692D01*
X021224Y005639D01*
X021246Y005580D01*
X021256Y005517D01*
X021253Y005454D01*
X021237Y005393D01*
X021210Y005336D01*
X021171Y005287D01*
X021122Y005246D01*
X021067Y005216D01*
X021208Y004875D01*
X021308Y004926D01*
X021555Y004724D01*
X021725Y004894D01*
X021523Y005141D01*
X021574Y005241D01*
X021608Y005348D01*
X021926Y005380D01*
X021926Y005620D01*
X021608Y005652D01*
X021574Y005759D01*
X021523Y005859D01*
X021725Y006106D01*
X021555Y006276D01*
X021308Y006074D01*
X021208Y006125D01*
X021101Y006159D01*
X021069Y006477D01*
X020829Y006477D01*
X020824Y006428D02*
X021074Y006428D01*
X021080Y006371D02*
X020818Y006371D01*
X020812Y006313D02*
X021086Y006313D01*
X021091Y006256D02*
X020807Y006256D01*
X020801Y006198D02*
X021097Y006198D01*
X021160Y006140D02*
X020738Y006140D01*
X020608Y006083D02*
X021290Y006083D01*
X021319Y006083D02*
X021706Y006083D01*
X021690Y006140D02*
X021389Y006140D01*
X021460Y006198D02*
X021633Y006198D01*
X021575Y006256D02*
X021530Y006256D01*
X021659Y006025D02*
X020239Y006025D01*
X020286Y005968D02*
X021612Y005968D01*
X021565Y005910D02*
X020333Y005910D01*
X020372Y005853D02*
X021526Y005853D01*
X021556Y005795D02*
X021035Y005795D01*
X021144Y005738D02*
X021581Y005738D01*
X021599Y005680D02*
X021197Y005680D01*
X021230Y005622D02*
X021902Y005622D01*
X021926Y005565D02*
X021249Y005565D01*
X021256Y005507D02*
X021926Y005507D01*
X021926Y005450D02*
X021252Y005450D01*
X021237Y005392D02*
X021926Y005392D01*
X021604Y005335D02*
X021208Y005335D01*
X021159Y005277D02*
X021586Y005277D01*
X021563Y005220D02*
X021074Y005220D01*
X021089Y005162D02*
X021534Y005162D01*
X021553Y005104D02*
X021113Y005104D01*
X021137Y005047D02*
X021600Y005047D01*
X021647Y004989D02*
X021161Y004989D01*
X021184Y004932D02*
X021694Y004932D01*
X021705Y004874D02*
X021371Y004874D01*
X021442Y004817D02*
X021647Y004817D01*
X021590Y004759D02*
X021512Y004759D01*
X020761Y005047D02*
X020298Y005047D01*
X020345Y005104D02*
X020785Y005104D01*
X020809Y005162D02*
X020365Y005162D01*
X020335Y005220D02*
X020824Y005220D01*
X020738Y005277D02*
X020312Y005277D01*
X020294Y005335D02*
X020690Y005335D01*
X020662Y005392D02*
X019972Y005392D01*
X019972Y005450D02*
X020646Y005450D01*
X020642Y005507D02*
X019972Y005507D01*
X019972Y005565D02*
X020649Y005565D01*
X020667Y005622D02*
X019996Y005622D01*
X020299Y005680D02*
X020700Y005680D01*
X020756Y005738D02*
X020317Y005738D01*
X020343Y005795D02*
X020867Y005795D01*
X020579Y006083D02*
X020192Y006083D01*
X020208Y006140D02*
X020509Y006140D01*
X020438Y006198D02*
X020265Y006198D01*
X020323Y006256D02*
X020368Y006256D01*
X020251Y004989D02*
X020738Y004989D01*
X020714Y004932D02*
X020204Y004932D01*
X020193Y004874D02*
X020527Y004874D01*
X020456Y004817D02*
X020251Y004817D01*
X020308Y004759D02*
X020386Y004759D01*
M02*
